<?xml version="1.0" encoding="utf-8"?>
<!-- Generator: Adobe Illustrator 28.0.0, SVG Export Plug-In . SVG Version: 6.00 Build 0)  -->
<svg version="1.1" xmlns="http://www.w3.org/2000/svg" xmlns:xlink="http://www.w3.org/1999/xlink" x="0px" y="0px"
	 viewBox="0 0 750 500" style="enable-background:new 0 0 750 500;" xml:space="preserve">
<style type="text/css">
	.st0{fill:#EAA97D;}
	.st1{fill:#422C4F;}
	.st2{fill:#5B456B;}
	.st3{fill:#2E2138;}
	.st4{fill:#6CA8BF;}
	.st5{fill:#495375;}
	.st6{fill:#468097;}
	.st7{fill:#FFFFFF;}
	.st8{fill:#797C99;}
	.st9{fill:#BD6C67;}
	.st10{fill:#A64F5A;}
	.st11{fill:#CC6164;}
	.st12{fill:#A34262;}
	.st13{fill:#F4D071;}
	.st14{fill:#ECA85E;}
	.st15{fill:#E68799;}
	.st16{fill:#57A0CF;}
	.st17{fill:#386693;}
	.st18{fill:#70CDE2;}
	.st19{fill:#4883B2;}
	.st20{fill:#E6FBFC;}
	.st21{fill:#CFB59D;}
	.st22{fill:#978093;}
	.st23{fill:#8E7564;}
	.st24{fill:#645B79;}
	.st25{fill:#967F92;}
	.st26{opacity:0.8;}
	.st27{fill:#E3ECFF;}
	.st28{fill:#DF8D6D;}
	.st29{fill:#F9A991;}
	.st30{fill:#F0BF6C;}
	.st31{fill:#EBA25D;}
	.st32{fill:#70303D;}
	.st33{fill:#F2C9AD;}
	.st34{fill:#EBA58E;}
	.st35{fill:#E78882;}
	.st36{fill:#99A3B0;}
	.st37{fill:#5C5F77;}
</style>
<g id="BACKGROUND">
</g>
<g id="OBJECTS">
	<g>
		<g>
			<path class="st0" d="M317.36,418.53H87.88c-28.08-24.27-40.24-66.38-29.97-102.04c9.61-33.35,36.92-62.21,35.24-96.87
				c-1.46-29.93-24.8-56.42-22.55-86.3c1.19-15.83,10.11-30.89,23.42-39.54c13.31-8.65,30.69-10.69,45.64-5.36
				c14.82,5.29,26.4,16.97,36.47,29.06c10.07,12.09,19.36,25.12,31.85,34.69c12.49,9.57,29.24,15.3,44.15,10.28
				c11.74-3.95,21.09-14.02,33.33-15.96c15.38-2.43,30.24,9.62,35.7,24.2c5.46,14.58,3.52,30.85,0.1,46.04
				c-3.43,15.19-8.29,30.26-8.49,45.83c-0.23,17.84,5.67,35.13,11.84,51.87c6.17,16.74,12.75,33.67,13.96,51.47
				C339.79,383.71,330.97,406.99,317.36,418.53z"/>
			<path class="st0" d="M234.26,142.82c11.12,2.55,23.46,2.72,33.24-3.17c10.44-6.28,16.23-18.82,16.02-31
				c-0.2-12.18-5.8-23.85-13.81-33.02c-8.01-9.18-18.32-16.08-29.03-21.88c-9.18-4.97-18.89-9.26-29.2-10.96
				c-17.57-2.9-39.84,1.67-42.18,22.27c-1.02,8.99,0.79,18.46,4.35,26.64c7.06,16.21,19.09,30.21,33.95,39.77
				C215.76,136.73,224.79,140.65,234.26,142.82z"/>
		</g>
		<path class="st1" d="M69.37,424.02L69.37,424.02c0,3.03,2.46,5.49,5.49,5.49h14.42c6.54,0,12.79,2.69,17.28,7.44l0.79,0.83
			c4.49,4.75,10.74,7.44,17.28,7.44h18.1c6.02,0,11.81,2.28,16.21,6.38l0,0c4.4,4.1,10.19,6.38,16.21,6.38h55.59
			c6.02,0,11.81-2.28,16.21-6.38l0,0c4.4-4.1,10.19-6.38,16.21-6.38h18.1c6.54,0,12.79-2.69,17.28-7.44l0.79-0.83
			c4.49-4.75,10.74-7.44,17.28-7.44h14.42c3.03,0,5.49-2.46,5.49-5.49l0,0c0-3.03-2.46-5.49-5.49-5.49H74.86
			C71.83,418.53,69.37,420.99,69.37,424.02z"/>
		<g>
			<g>
				<g>
					<path class="st1" d="M178.63,165.61c-8.73,0.84-17.77-2.87-23.39-9.6c-5.62-6.73-7.67-16.29-5.29-24.73
						c-3.37-2.82-5.46-7.25-5.49-11.65c-0.02-4.4,1.97-8.76,5.32-11.62c-3.14-6.57-1.62-15.16,2.73-21
						c4.35-5.84,12.06-8.99,19.26-7.87c2.75-5.61,8.67-10.58,14.81-11.77c6.13-1.19,12.78,0.65,17.42,4.83
						c5.29-3.75,12.7-4.86,18.93-3.04c6.22,1.82,11.51,6.59,13.95,12.59c7.18-0.88,15.3,2.68,19.35,8.67
						c4.05,5.99,4.43,14.27,0.94,20.6c6.04,3.98,9.78,11.25,9.73,18.48c-0.05,7.23-3.96,14.33-10.06,18.23
						c2.14,7.57-1.1,16.52-7.35,21.31c-6.25,4.79-15.44,5.32-22.2,1.29c-3.06,4.37-8.53,6.34-13.84,5.87
						c-5.31-0.47-10.25-3.96-12.49-8.8c-2.39,3.16-6.67,5.23-10.63,5.01C186.36,172.19,180.64,169.02,178.63,165.61z"/>
					<path class="st2" d="M154.64,88.89c4.68-4.99,12.2-7.12,18.8-5.31c1.73-5.88,7.17-10.1,13.15-11.46
						c5.98-1.36,12.61,0.74,16.72,5.3c4.87-2.82,11.01-4.42,16.59-3.66c5.57,0.76,13.03,4,16.97,8.01
						c-2.44-6-7.73-10.78-13.95-12.59c-6.22-1.82-13.64-0.71-18.93,3.04c-4.65-4.18-11.29-6.02-17.42-4.83
						c-6.13,1.19-12.06,6.16-14.81,11.77c-7.2-1.13-14.9,2.02-19.26,7.87c-4.35,5.84-5.87,14.43-2.73,21
						C147.54,101.55,149.96,93.89,154.64,88.89z"/>
					<path class="st3" d="M257.15,111.03c6.13,12.19,5.15,26.4-5.82,33.82c1.59,6.42-1.14,13.68-6.57,17.45
						c-5.43,3.77-13.05,3.57-18.5-0.17c-6.38,3.61-13.95,5.09-21.22,4.15s-15.45-5.02-20.71-10.12c-7.61,2.14-16.16,0.59-22.53-4.09
						c-6.37-4.68-11.62-12.89-11.86-20.79c-2.38,8.44-0.33,18,5.29,24.73c5.62,6.73,14.67,10.44,23.39,9.6
						c2.01,3.42,7.73,6.58,11.69,6.81c3.96,0.23,8.24-1.84,10.63-5.01c2.24,4.84,7.18,8.32,12.49,8.8
						c5.31,0.47,10.78-1.5,13.84-5.87c6.76,4.03,15.95,3.5,22.2-1.29c6.25-4.79,9.49-13.73,7.35-21.31
						c6.09-3.9,10.01-10.99,10.06-18.23C266.93,122.28,263.19,115.01,257.15,111.03z"/>
				</g>
				<g>
					<path class="st2" d="M247.34,114.2c-0.7-2.95-2.38-5.93-4.88-8.11c-0.6-0.52-1.23-0.98-1.89-1.39
						c0.41-2.54,0.19-5.57-0.97-8.51c-1.3-3.4-3.84-6.68-7.26-8.75c-3.42-2.07-7.5-2.79-11.12-2.37c-3.64,0.4-6.81,1.95-8.91,3.85
						c2.6-1.15,5.73-1.89,9.02-1.83c3.28,0.05,6.71,0.91,9.61,2.66c2.9,1.76,5.25,4.4,6.82,7.28c1.33,2.42,2.09,4.99,2.42,7.43
						c-2.02-1.18-4.26-1.88-6.42-2.09c-3.03-0.31-5.88,0.35-7.97,1.46c2.34-0.4,5.02-0.42,7.7,0.21c2.68,0.62,5.35,1.88,7.5,3.74
						c2.15,1.87,3.76,4.34,4.75,6.9c1,2.57,1.35,5.23,1.28,7.6C247.82,120.07,248.07,117.16,247.34,114.2z"/>
					<path class="st2" d="M193.64,87.24c-2.95-0.84-6.41-0.84-9.57,0.25c-3.17,1.09-5.88,3.23-7.68,5.71
						c-1.7,2.3-2.6,4.89-2.83,7.16c-2.02,0.19-4.07,0.76-5.92,1.77c-2.79,1.53-5.01,3.95-6.32,6.55c-1.34,2.61-1.78,5.38-1.55,7.65
						c0.5-2.23,1.44-4.63,2.95-6.82c1.5-2.19,3.55-4.15,5.96-5.47c2.41-1.31,5.18-1.98,7.83-2.05c2.66-0.09,5.19,0.42,7.33,1.21
						c-1.79-1.42-4.35-2.55-7.27-2.84c-0.92-0.1-1.87-0.1-2.83-0.02c0.89-2.07,2.19-4.19,3.97-6.05c1.92-2.02,4.39-3.71,7.11-4.65
						c2.73-0.94,5.71-1.13,8.47-0.73c2.77,0.39,5.29,1.38,7.37,2.59C199.07,89.7,196.61,88.06,193.64,87.24z"/>
				</g>
			</g>
			<g>
				<path class="st4" d="M291.99,342.31l-15.73-152.33h-28.68c-2.19,5.86-6.07,11.05-11.21,14.27c-5.71,3.57-12.96,4.54-19.16,2.04
					c-5.57-2.24-10.08-7.38-11.53-13.42h-18.9c-13.96,0-26.12,9.51-29.49,23.06l-10.92,44l24.51,11.64l-7.87,70.73H291.99z"/>
				<g>
					<g>
						<path class="st5" d="M192.63,236.99c0,0-4.16-25.94,4.22-44.12h-7.94c-8.38,18.18-4.22,44.12-4.22,44.12H192.63z"/>
						<path class="st5" d="M259.18,234.09c0,0-4.16-25.94,4.22-44.12h-7.94c-8.38,18.18-4.22,44.12-4.22,44.12H259.18z"/>
						<path class="st1" d="M251.24,234.09h7.94c0,0-0.44-2.78-0.75-7.13c-2.61,0.47-5.22,0.94-7.84,1.41
							C250.89,231.9,251.24,234.09,251.24,234.09z"/>
						<path class="st1" d="M183.96,230.2c0.3,4.16,0.72,6.78,0.72,6.78h7.94c0,0-0.38-2.4-0.68-6.24
							C189.28,230.74,186.61,230.55,183.96,230.2z"/>
					</g>
					<g>
						<path class="st5" d="M163.02,342.31l10.79-97.05c3.88-1.67,6.75-6.16,8.17-8.83c0.67-1.25,2-1.98,3.42-1.87
							c20.87,1.61,56.75-0.41,73.78-3.43c1.5-0.27,3,0.46,3.73,1.8c5.67,10.4,12.93,17.96,20.01,21.55l9.07,87.84H163.02z"/>
						<g>
							<path class="st6" d="M270.7,244.36c3.9,4.57,8.09,8.02,12.22,10.11l9.07,87.84l-13.31-128.84l-5.39,16.55
								C271.78,234.66,270.91,239.49,270.7,244.36z"/>
							<polygon class="st7" points="167.8,299.32 167.8,299.32 163.02,342.31 							"/>
							<path class="st1" d="M270.7,244.36c-0.05,1.17-0.08,2.34-0.05,3.51l0.64,30.51l-33.17-14.57l-26.95,11.9l-43.37,23.61
								l-4.78,42.99h128.97l-9.07-87.84C278.79,252.38,274.6,248.93,270.7,244.36z"/>
						</g>
						<path class="st8" d="M191.75,242.84l-5.89-0.38c-0.93-0.06-1.64-0.86-1.58-1.79l0,0c0.06-0.93,0.86-1.64,1.79-1.58l5.89,0.38
							c0.93,0.06,1.64,0.86,1.58,1.79l0,0C193.48,242.19,192.68,242.9,191.75,242.84z"/>
						<path class="st8" d="M252.76,239.99l5.89-0.38c0.93-0.06,1.64-0.86,1.58-1.79l0,0c-0.06-0.93-0.86-1.64-1.79-1.58l-5.89,0.38
							c-0.93,0.06-1.64,0.86-1.58,1.79l0,0C251.03,239.35,251.83,240.05,252.76,239.99z"/>
					</g>
				</g>
				<path class="st6" d="M170.88,271.57l6.23-56l0,0c-4.03,3.32-6.77,7.93-7.77,13.05l-7.52,38.65L170.88,271.57z"/>
				<g>
					<g>
						<path class="st6" d="M249.11,198.92c-2.09,3.58-5.27,7.05-9.37,9.49c-4.07,2.48-9.01,3.75-14,3.6
							c-4.99-0.13-9.87-1.67-13.96-4.18c-4.12-2.49-7.43-5.82-9.93-9.13c1.33,3.92,4.05,8.21,8.23,11.55
							c2.08,1.66,4.49,3.09,7.16,4.07c2.65,1,5.52,1.54,8.4,1.64c2.88,0.07,5.79-0.32,8.49-1.21c2.72-0.86,5.21-2.25,7.31-3.91
							C245.67,207.51,248.26,202.97,249.11,198.92z"/>
					</g>
					<g>
						<path class="st6" d="M241.94,218.72c-2.23,0.58-4.76,1.16-7.48,1.54c-2.72,0.38-5.61,0.57-8.5,0.49
							c-2.89-0.08-5.77-0.42-8.46-0.95c-2.69-0.52-5.2-1.24-7.39-1.94c1.86,1.35,4.25,2.62,6.97,3.53c2.72,0.91,5.76,1.47,8.82,1.55
							c3.06,0.08,6.13-0.31,8.9-1.07C237.56,221.1,240.01,219.97,241.94,218.72z"/>
					</g>
				</g>
			</g>
			<g>
				<path class="st9" d="M217.2,206.29c6.2,2.5,13.46,1.53,19.16-2.04c5.14-3.22,9.02-8.42,11.21-14.27h-6.93l-12.44-35.58
					l-21.3,26.56l4.23,11.92h-5.47C207.12,198.91,211.63,204.05,217.2,206.29z"/>
				<path class="st1" d="M219.99,185.51c4-2.9,6.71-7.38,8.02-12.15c1.32-4.77,1.33-9.82,0.67-14.72c-0.18-1.34-0.41-2.68-0.68-4.01
					l-21.1,26.31l2.76,7.77C213.31,188.87,217.03,187.67,219.99,185.51z"/>
			</g>
			<g>
				<g>
					<g>
						<polygon class="st10" points="327.26,292.83 318.39,268.78 285.25,277.06 						"/>
						<polygon class="st1" points="318.39,268.78 319.93,272.96 301.43,283.13 285.25,277.06 						"/>
					</g>
					<g>
						<path class="st4" d="M276.67,189.98h-0.41l-3.23,9.76c-3.12,9.41-3.4,19.53-0.81,29.1l13.04,48.22l40.8-10.19l-20.74-56.86
							C300.92,197.98,289.48,189.98,276.67,189.98z"/>
						<g>
							<path class="st6" d="M319.49,260.04c-4.76,0.82-10.81,2.33-16.82,3.97c-6,1.65-11.97,3.44-16.49,5.17
								c4.83-0.23,11.04-1.29,17.1-2.96C309.34,264.57,315.22,262.31,319.49,260.04z"/>
						</g>
					</g>
				</g>
				<g>
					<g>
						<g>
							<path class="st11" d="M208.33,207.45c-3.54-0.56-7.28,0.36-10.16,2.49l1.65,13.91l13.86-3.4L208.33,207.45z"/>
							<path class="st12" d="M206.59,217.57c-2.51,0.61-5.01-1.07-5.37-3.63l-0.77-5.36c-0.8,0.38-1.57,0.83-2.29,1.36l1.65,13.91
								l13.86-3.4l-1.57-3.81C210.16,216.85,208.41,217.13,206.59,217.57z"/>
						</g>
						<g>
							<path class="st13" d="M225.87,236.2c0,0,14.89,24.69,22.26,50.01c1.28,4.38-1.36,8.94-5.79,10.03l-22.61,5.54
								c-4.28,1.05-8.6-1.55-9.68-5.82c-3.47-13.8-9.21-40.06-10.44-53.73c-3.49-1.17-5.68-5.61-5.67-9.29
								c0.01-3.68,2.03-7.18,4.85-9.55c2.82-2.37,6.37-3.72,9.97-4.5c4.24-0.92,8.93-1.01,12.61,1.27
								C226.02,223.04,228.41,231.37,225.87,236.2z"/>
							<path class="st14" d="M218.38,294.67c-3.47-13.8-12.12-42.45-13.35-56.13c-3.49-1.17-5.68-5.61-5.67-9.29
								c0.01-3.2,1.54-6.25,3.78-8.55c-1.56,0.71-3.04,1.58-4.35,2.69c-2.82,2.37-4.84,5.86-4.85,9.55
								c-0.01,3.68,2.18,8.11,5.67,9.29c1.23,13.68,6.97,39.93,10.44,53.73c1.07,4.27,5.4,6.87,9.68,5.82l4.9-1.2
								C221.67,300,219.16,297.79,218.38,294.67z"/>
						</g>
					</g>
					<g>
						<path class="st9" d="M258.59,266.25l-15.29-19.02c-3.18-3.95-8.33-5.81-13.28-4.68c-7.84,1.79-15.26,5.37-21.45,10.52
							c-1.38,1.15-2.77,2.46-2.9,4.38c-0.06,0.83,0.24,1.68,0.86,2.24c1.19,1.06,2.66,0.55,3.93,0.04
							c6.24-2.49,12.48-4.99,18.72-7.48c-7,3.16-14.08,6.38-20.05,11.21c-1.26,1.02-2.53,2.19-2.77,3.89
							c-0.12,0.81,0.1,1.68,0.67,2.27c1.25,1.3,3.14,0.66,4.66-0.01c2.56-1.12,5.12-2.25,7.68-3.37c5.06-2.22,10.12-4.44,15.18-6.66
							c-6.15,3.14-12.29,6.28-18.44,9.42c-1.36,0.69-2.75,1.41-3.78,2.53c-1.03,1.12-1.65,2.76-1.17,4.2
							c0.58,1.72,2.54,2.66,4.35,2.62c1.81-0.04,3.51-0.83,5.15-1.6c5.41-2.56,10.82-5.12,16.23-7.68
							c-3.73,2.15-7.47,4.31-11.2,6.46c-1.07,0.62-2.18,1.27-2.9,2.27c-0.72,1.01-0.96,2.47-0.22,3.46c0.6,0.8,1.71,1.1,2.71,1
							c1-0.1,1.93-0.55,2.84-0.98c3.72-1.78,7.43-3.56,11.15-5.34c1.45,2.1,3.55,3.43,6.04,3.96c2.49,0.54,5.07,0.45,7.62,0.35
							l44.55,33.14c7.26,5.4,17.13,5.7,24.7,0.74h0c4.5-2.94,7.2-7.96,7.2-13.33l0,0c0-6.91-4.45-13.03-11.02-15.16L258.59,266.25z"
							/>
						<path class="st10" d="M324.02,312.4c-6.72,2.26-14.1,1.25-19.98-2.71l-49.09-33.11c-2.47,0.49-5,0.97-7.49,0.63
							c-2.5-0.35-4.93-1.97-6-4.25c-4.15,2.02-8.3,4.04-12.45,6.06c-1.3,0.63-2.65,1.28-4.09,1.32c-0.99,0.03-2.04-0.31-2.76-0.96
							c-0.09,0.66,0.02,1.33,0.42,1.87c0.6,0.8,1.71,1.1,2.71,1c1-0.1,1.93-0.55,2.84-0.98c3.72-1.78,7.43-3.56,11.15-5.34
							c1.45,2.1,3.55,3.43,6.04,3.96c2.49,0.54,5.07,0.45,7.62,0.35l44.55,33.14c7.26,5.4,17.13,5.7,24.7,0.74
							c0.85-0.56,1.63-1.19,2.35-1.88L324.02,312.4z"/>
					</g>
				</g>
				<g>
					<path class="st6" d="M283.1,195.32c-2.02,1.29-4.14,3.18-5.94,5.59c-1.81,2.4-3.3,5.3-4.24,8.38
						c-0.93,3.08-1.32,6.31-1.15,9.32c0.15,3.01,0.85,5.76,1.81,7.96c-0.22-2.39-0.33-5.1-0.1-7.94c0.22-2.84,0.76-5.8,1.63-8.67
						c0.88-2.87,2.09-5.63,3.49-8.1C279.98,199.36,281.58,197.18,283.1,195.32z"/>
				</g>
			</g>
			<g>
				<path class="st9" d="M165.42,133.42c1.32,10.56,2.69,21.31,7.03,31.03c4.34,9.72,12.17,18.45,22.45,21.23
					c9.07,2.46,19.18-0.14,26.44-6.11c7.26-5.97,11.69-15.04,12.72-24.38c2.87,1.99,7.55,1.41,10.46-0.52
					c2.92-1.93,4.67-5.36,4.98-8.84c0.25-2.76-0.37-5.67-2.08-7.85c-1.71-2.18-4.59-3.52-7.32-3.03c-2.75,0.49-4.95,2.69-6.16,5.2
					c-1.21,2.52-1.58,5.34-1.89,8.11c-3.04-2.19-5.23-6.15-4.79-9.86c-4.08-0.52-8.18-2.65-10.27-6.2s-2.45-8.07-0.93-11.89
					c-3.6,1.92-8.62,2.13-12.51,0.92c-3.89-1.21-7.25-4.04-9.12-7.66c-1.69,3.08-4.44,5.92-7.77,7.01
					c-3.34,1.09-7.08,0.86-10.26-0.63c0.16,3.09-0.46,6.65-2.51,8.97C171.83,131.22,168.51,133.21,165.42,133.42z"/>
				<path class="st10" d="M241.69,139.68c-2.71,1.71-4.49,4.81-4.62,8.02c-0.04,1.02,0.13,2.14,0.89,2.81
					c0.69,0.61,1.75,0.69,2.61,0.35c0.86-0.34,1.53-1.05,2-1.84c0.46-0.78,0.76-1.69,0.7-2.59c-0.06-0.91-0.53-1.81-1.31-2.27
					c-0.78-0.46-1.88-0.39-2.52,0.26C239.62,142.81,240.55,140.79,241.69,139.68z"/>
				<path class="st1" d="M213.03,139.5c-5.51-0.61-11.02-1.23-16.54-1.84c0.8-1.54,2.25-3.11,3.84-3.83c1.58-0.72,3.41-0.9,5.1-0.49
					C208.49,134.06,211.01,137.07,213.03,139.5z"/>
				<path class="st1" d="M169.34,143.17c2.96-1.2,5.92-2.4,8.88-3.6c-0.75-1.22-1.74-2.32-3.11-2.74c-1.53-0.48-3.23,0.36-4.22,1.63
					C169.91,139.72,169.69,141.6,169.34,143.17z"/>
				<path class="st1" d="M204.16,150.94c0,1.91-1.16,3.45-2.59,3.45c-1.43,0-2.59-1.54-2.59-3.45c0-1.91,1.16-3.45,2.59-3.45
					C203,147.49,204.16,149.04,204.16,150.94z"/>
				<path class="st1" d="M179.04,151.32c0.36,1.7-0.36,3.29-1.63,3.56c-1.26,0.27-2.58-0.89-2.95-2.58
					c-0.36-1.7,0.37-3.29,1.63-3.56C177.35,148.46,178.67,149.62,179.04,151.32z"/>
				<path class="st10" d="M194.25,160.8c-2.74,0.27-5.49,0.38-8.23,0.34c0.57,1.63,2.4,2.91,4.12,2.86
					C191.86,163.94,193.79,162.46,194.25,160.8z"/>
				<path class="st7" d="M208.79,167.88c-6.39,2.59-13.07,4.44-19.88,5.5c2.3,1.36,4.75,2.76,7.36,3.3s5.49,0.3,7.71-1.18
					C206.38,173.92,207.84,170.58,208.79,167.88z"/>
				<path class="st10" d="M208.08,177.91c-2.82,0.73-5.64,1.47-8.47,2.2c1.32,0.74,3.39,1.06,4.86,0.69
					C205.94,180.44,207.26,179.18,208.08,177.91z"/>
				<path class="st15" d="M226.61,157.64c0.7,2.61-2.53,5.75-7.22,7.01c-4.69,1.26-9.06,0.16-9.76-2.45
					c-0.7-2.61,2.53-5.75,7.22-7.01C221.54,153.93,225.91,155.03,226.61,157.64z"/>
				<ellipse class="st15" cx="177.56" cy="163.6" rx="4.35" ry="3.68"/>
				<path class="st10" d="M177.87,123.06c2.91,1.59,6.89,2.16,9.94,0.85c3.05-1.3,5.44-4.05,6.31-7.26c0.15,2.62,1.91,5.24,4.1,6.68
					c2.19,1.45,4.9,1.97,7.52,1.8c2.62-0.18,5.15-1.02,7.53-2.13c-1.16,3.67-0.2,8.14,2.19,11.16c2.39,3.02,7.45,4.69,11.8,4.23
					c-4.08-0.52-8.18-2.65-10.27-6.2c-2.09-3.55-2.45-8.07-0.93-11.89c-3.6,1.92-8.62,2.13-12.51,0.92
					c-3.89-1.21-7.25-4.04-9.12-7.66c-1.69,3.08-4.44,5.92-7.77,7.01s-7.08,0.86-10.26-0.63c0.16,3.09-0.46,6.65-2.51,8.97
					c-2.06,2.31-5.38,4.3-8.47,4.51c0.12,0.96,0.24,1.92,0.36,2.88c3.39,0,7.15-1.25,9.39-3.79
					C177.42,129.98,178.44,126.4,177.87,123.06z"/>
			</g>
		</g>
		<g>
			<g>
				<g>
					<path class="st16" d="M285.71,432.78H114.38c-2.13,0-3.95-1.5-4.37-3.59l-14.38-72.53h208.82l-14.38,72.53
						C289.67,431.28,287.84,432.78,285.71,432.78z"/>
					<path class="st17" d="M274.18,356.67H95.64l2.11,10.66h147.21c14.03,0,24.57,12.83,21.84,26.59l-6.99,35.27
						c-0.41,2.08-2.24,3.59-4.37,3.59h30.28c2.13,0,3.95-1.5,4.37-3.59l14.38-72.53H274.18z"/>
					<path class="st18" d="M116.36,387.96l4.35,21.97c0.99,5,5.38,8.61,10.48,8.61h6.64c3.22,0,5.71-2.83,5.3-6.03l-2.81-21.62
						c-0.69-5.32-5.23-9.31-10.6-9.31h-8.13C118.24,381.58,115.71,384.66,116.36,387.96z"/>
				</g>
				<g>
					<polygon class="st16" points="89.26,342.31 85.12,349.49 315.58,349.49 311.44,342.31 					"/>
					<polygon class="st19" points="89.26,356.67 311.44,356.67 315.58,349.49 85.12,349.49 					"/>
				</g>
			</g>
			<g>
				<path class="st20" d="M285.83,252.53c0-4.02-3.26-7.27-7.27-7.27c-4.02,0-7.27,3.26-7.27,7.27c0,2.68,1.45,5.01,3.6,6.27
					c-0.54,0.82-0.86,1.8-0.86,2.86c0,2.87,2.33,5.19,5.19,5.19c2.87,0,5.19-2.33,5.19-5.19c0-1.33-0.5-2.53-1.32-3.45
					C284.76,256.87,285.83,254.83,285.83,252.53z"/>
				<g>
					<path class="st20" d="M122.15,297.47c2.22-2.13,3.61-5.13,3.61-8.45c0-5.73-4.11-10.49-9.55-11.51
						c0.22-0.52,0.35-1.1,0.35-1.71c0-0.59-0.12-1.15-0.33-1.66c4.1-0.26,7.34-3.66,7.34-7.82c0-4.33-3.51-7.85-7.85-7.85
						c-4.33,0-7.85,3.51-7.85,7.85c0,2.21,0.92,4.2,2.39,5.63c-1.41,0.72-2.39,2.17-2.39,3.86c0,1.03,0.38,1.97,0.98,2.72
						c-3.87,1.91-6.55,5.89-6.55,10.5c0,4.8,2.89,8.92,7.02,10.73c-0.92,1.4-1.46,3.08-1.46,4.88c0,4.94,4,8.94,8.94,8.94
						c4.94,0,8.94-4,8.94-8.94C125.76,301.69,124.33,299.1,122.15,297.47z"/>
					<g>
						<path class="st7" d="M104.76,287.73c-0.32,3.65,1.69,7.18,5.02,8.73c1.09,0.51,2.4,0.31,3.05-0.8c0.56-0.96,0.3-2.54-0.8-3.05
							c-2.05-0.95-3.02-2.62-2.82-4.89C109.46,284.88,105.01,284.9,104.76,287.73L104.76,287.73z"/>
					</g>
					<g>
						<path class="st7" d="M112.39,309.23c2.86,0,2.87-4.45,0-4.45C109.52,304.77,109.52,309.23,112.39,309.23L112.39,309.23z"/>
					</g>
				</g>
				<g>
					<path class="st21" d="M271.73,342.31c-1.83-6.7-4.41-17.48-4.7-24.42c-0.28-6.94,1.13-14.16,5.27-19.74
						c4.37-5.89,11.24-9.34,16.56-14.39c5.09-4.83,8.76-11.27,9.74-18.22c0.98-6.95-0.87-14.37-5.46-19.68
						c-4.58-5.32-12.09-8.69-19.01-7.49c3.9,2.8,6.7,7.1,7.69,11.8s0.16,9.76-2.28,13.89c-3.56,6.04-10.04,9.69-14.7,14.92
						c-7.55,8.46-10.52,21.53-6.26,32.03c-12.47-8.01-65.67-10.46-82.15-0.45l3.56-12.69c0,0,4.37-2.91,7.62-7.69
						c1.92-2.82,2.39-6.37,1.41-9.63c-1.99-6.66-6.57-19.83-14.6-32.1c0,0-0.89-13.8-3.56-22.93c-3.34,2.45-10.17,10.09-12.91,20.93
						c0,0-13.13-0.45-20.26,1.11c0,0-2.45-16.7-7.99-24.04c-25.63,34.95-16.13,74.92,1.98,118.79H271.73z"/>
					<g>
						<path class="st22" d="M291.85,280.53c3.52-4.32,5.98-9.49,6.76-15c0.98-6.95-0.87-14.37-5.46-19.68
							c-4.58-5.32-12.09-8.69-19.01-7.49c3.9,2.8,6.7,7.1,7.69,11.8s0.16,9.76-2.28,13.89c-3.13,5.31-8.52,8.78-12.95,13.1
							c4.08,2.44,8.7,3.99,13.44,4.45C284,281.98,288.02,281.6,291.85,280.53z"/>
						<path class="st22" d="M219.29,330.79c8.24,3.71,18.59,2.1,25.31-3.94c5.15-4.62,7.93-11.65,7.69-18.54
							c-13.11-4.02-38.02-5.62-56.72-3.19c2.13,2.94,4.26,5.88,6.39,8.83C206.74,320.56,211.86,327.45,219.29,330.79z"/>
						<path class="st22" d="M147.89,246.5c-3.54,0.14-7.34,0.44-10.18,1.06c0,0-2.45-16.7-7.99-24.04
							c-12.79,17.45-16.83,36.15-15.42,55.96c7.85-1.85,15.2-5.8,21.03-11.38C141.43,262.26,145.8,254.67,147.89,246.5z"/>
						<path class="st22" d="M173.93,272.96c4.04,1.47,8.62,1.61,12.69,0.3c-2.53-6.96-6.48-16.1-12.17-24.81
							c0,0-0.89-13.8-3.56-22.93c-3.34,2.45-10.17,10.09-12.91,20.93c0,0-0.83-0.03-2.19-0.05c0.73,5.16,2.19,10.24,4.77,14.76
							C163.57,266.42,168.22,270.88,173.93,272.96z"/>
					</g>
					<g>
						<path class="st23" d="M260.24,285.79c-3.94,7.79-4.88,17.24-1.64,25.21c1.63,1.11,4.68,4.01,4.68,4.01
							C259.36,305.92,258.32,295.53,260.24,285.79z"/>
						<path class="st23" d="M190.86,305.86c-5.93,1.07-10.97,2.61-14.41,4.7c-2.34,8.01-7.01,15.36-7.01,15.36
							C179.38,322.64,187.83,311.35,190.86,305.86z"/>
						<path class="st23" d="M136.26,301.88c18.66,14.47,36.65,4.31,42.59,0.12l1.16-4.13C173.78,301.99,145.73,305,136.26,301.88z"
							/>
					</g>
					<g>
						<path class="st1" d="M163.02,246.82c2.76-0.04,5.79,0.42,8.05,0.86c-0.27-6.04-1.16-12.05-2.62-17.92
							C164.68,237.46,163.02,246.82,163.02,246.82z"/>
						<path class="st24" d="M171.06,247.68c2,0.39,3.38,0.77,3.38,0.77s-0.89-13.8-3.56-22.93c-0.9,1.3-1.71,2.74-2.44,4.24
							C169.9,235.63,170.79,241.64,171.06,247.68z"/>
						<path class="st1" d="M126.13,251.27c1.72-0.84,4.18-1.68,6.56-2.38c-0.53-6.78-2.06-13.48-4.53-19.81
							C126.87,234.43,125.36,242.93,126.13,251.27z"/>
						<path class="st24" d="M132.7,248.89c1.83-0.54,3.63-1,5.01-1.33c0,0-2.45-16.7-7.99-24.04c0,0-0.73,2.14-1.56,5.56
							C130.64,235.41,132.17,242.11,132.7,248.89z"/>
					</g>
					<path class="st1" d="M151.95,266.66c0.24,2.97-0.76,5.48-2.24,5.59c-1.47,0.12-2.85-2.2-3.09-5.17
						c-0.24-2.97,0.76-5.48,2.24-5.59C150.33,261.37,151.71,263.69,151.95,266.66z"/>
					<path class="st1" d="M172.5,266.06c-0.21,2.64,0.68,4.87,1.99,4.97c1.31,0.1,2.54-1.95,2.75-4.59
						c0.21-2.64-0.68-4.87-1.99-4.97C173.94,261.36,172.71,263.42,172.5,266.06z"/>
					<path class="st1" d="M177.38,287.05c-1.66,0.3-3.48,0.13-5.04-0.62c-1.55-0.75-2.81-2.08-3.61-3.56
						c-0.3-0.56-0.52-1.13-0.69-1.71c0.05-1.1-0.08-2.13-0.37-3.02c0,0.21-0.01,0.42-0.02,0.64c0-0.16-0.02-0.33-0.02-0.49
						c-0.29,0.79-0.42,1.75-0.35,2.75c-0.24,0.92-0.6,1.85-1.09,2.73c-1,1.81-2.56,3.44-4.47,4.39c-1.91,0.94-4.14,1.21-6.2,0.91
						c-2.06-0.29-3.93-1.13-5.38-2.21c1.03,1.48,2.85,2.85,5.11,3.47c2.24,0.63,4.92,0.51,7.23-0.63c2.31-1.15,4.02-3.22,4.87-5.38
						c0.15-0.38,0.27-0.77,0.37-1.16c0.02,0.05,0.03,0.1,0.05,0.16c0.67,1.77,2.06,3.47,3.96,4.39c1.9,0.92,4.09,0.95,5.9,0.38
						c1.83-0.56,3.26-1.75,4.03-3C180.53,286.02,179.04,286.76,177.38,287.05z"/>
					<path class="st1" d="M171.56,276.64c-3.2-0.93-6.73-0.66-9.74,0.76c1.76,1.69,3.67,2.79,6.06,3.26
						C169.39,279.92,170.67,278.08,171.56,276.64z"/>
					<g>
						<g>
							<path class="st25" d="M100.82,289.02c6.38-1.85,14.71-4.13,23.18-5.84c8.46-1.73,17.03-2.88,23.62-3.67
								c-6.63-0.25-15.38,0.38-23.93,2.14C115.13,283.37,106.83,286.2,100.82,289.02z"/>
						</g>
						<g>
							<path class="st25" d="M102.14,296.62c6.09-2.05,14-4.81,22-7.3c7.99-2.52,16.06-4.77,22.23-6.56
								c-6.38,0.81-14.64,2.59-22.68,5.12C115.64,290.39,107.84,293.64,102.14,296.62z"/>
						</g>
						<g>
							<path class="st25" d="M109.3,305.74c5.17-2.74,11.83-6.46,18.53-10.08c6.7-3.64,13.45-7.18,18.57-10.01
								c-5.5,1.99-12.49,5.15-19.23,8.8C120.44,298.09,113.98,302.23,109.3,305.74z"/>
						</g>
					</g>
					<g>
						<g>
							<path class="st25" d="M220.66,284.01c-3.63-2.14-9.33-4.33-16.04-5.59c-7.41-1.43-15.92-1.69-22.96-1.01
								c6.96,0.54,15.2,1.31,22.5,2.62C210.78,281.2,216.59,282.8,220.66,284.01z"/>
						</g>
						<g>
							<path class="st25" d="M218.38,290.62c-3.36-1.98-8.52-4.19-14.54-5.88c-6.66-1.9-14.33-3.17-20.84-3.58
								c6.26,1.52,13.7,3.23,20.3,5.02C209.26,287.79,214.59,289.48,218.38,290.62z"/>
						</g>
						<g>
							<path class="st25" d="M212.15,298.72c-2.74-2.2-6.97-4.9-11.92-7.38c-5.46-2.76-11.81-5.27-17.3-6.9
								c5.09,2.55,11.2,5.42,16.64,8.09C204.51,294.93,208.95,297.21,212.15,298.72z"/>
						</g>
					</g>
				</g>
				<g>
					<path class="st20" d="M189.41,337.09c-0.8,0-1.57,0.08-2.32,0.22c-0.46-2.4-2.57-4.21-5.1-4.21c-1.56,0-2.96,0.69-3.91,1.79
						c-1.65-1.65-3.93-2.68-6.44-2.68c-1.5,0-2.91,0.37-4.16,1.01c-1.57-4.24-5.64-7.27-10.42-7.27c-1.8,0-3.5,0.44-5.01,1.2
						c-3.04-7.14-10.12-12.15-18.38-12.15c-7.06,0-13.26,3.67-16.81,9.2c-0.67-0.2-1.39-0.31-2.12-0.31c-3.81,0-6.94,2.85-7.4,6.54
						c-0.35-0.03-0.71-0.05-1.06-0.05c-6.68,0-12.1,5.3-12.33,11.92h105.61C197.27,339.15,193.58,337.09,189.41,337.09z"/>
					<path class="st20" d="M297.77,333.19c-1.29,0-2.52,0.23-3.67,0.64c0.01-0.18,0.03-0.36,0.03-0.54c0-4.98-4.03-9.01-9.01-9.01
						c-3.31,0-6.19,1.79-7.76,4.44c-2.4-3.82-6.64-6.37-11.49-6.37c-5.84,0-10.8,3.7-12.71,8.87c-0.42-0.07-0.84-0.12-1.28-0.12
						c-3.35,0-6.18,2.23-7.08,5.29c-2.61-2.26-6.01-3.63-9.73-3.63c-6.34,0-11.74,3.96-13.9,9.53h87.41
						C307.69,337.13,303.2,333.19,297.77,333.19z"/>
					<path class="st20" d="M247.33,302.55c-0.9,0-1.74,0.24-2.47,0.66c-0.36-3-2.92-5.34-6.02-5.34c-0.34,0-0.68,0.04-1,0.09
						c0-0.03,0-0.06,0-0.09c0-6.47-5.25-11.72-11.72-11.72c-5.02,0-9.29,3.16-10.96,7.6c-1.51-2.34-4.14-3.9-7.14-3.9
						c-4.69,0-8.49,3.8-8.49,8.49c0,0.54,0.06,1.07,0.15,1.59c-0.46-0.1-0.94-0.16-1.43-0.16c-3.57,0-6.46,2.89-6.46,6.46
						c0,3.57,2.89,6.46,6.46,6.46c3.57,0,6.46-2.89,6.46-6.46c0-0.02,0-0.04,0-0.06c0.76,0.32,1.59,0.54,2.45,0.63
						c-0.14,0.6-0.22,1.22-0.22,1.86c0,4.56,3.69,8.25,8.25,8.25c1.01,0,1.97-0.19,2.86-0.52c1.07,4.4,5.02,7.66,9.74,7.66
						c5.54,0,10.04-4.49,10.04-10.04c0-0.09-0.01-0.19-0.01-0.28c0.99,1.05,2.39,1.7,3.94,1.7c2.12,0,3.95-1.21,4.84-2.98
						c0.24,0.03,0.48,0.06,0.72,0.06c2.75,0,4.98-2.23,4.98-4.98C252.31,304.78,250.08,302.55,247.33,302.55z"/>
					<path class="st20" d="M165.59,242.41c0.2-0.71,0.31-1.46,0.31-2.24c0-2.37-0.98-4.51-2.55-6.04c-1.53-1.49-3.61-2.42-5.91-2.42
						c-1.4,0-2.72,0.35-3.88,0.95c-1.94-3.52-5.69-5.91-10-5.91c-4.06,0-7.61,2.12-9.63,5.31c2.59,7.4,3.78,15.5,3.78,15.5
						c0.32-0.07,0.65-0.13,0.99-0.2c0.07-0.01,0.14-0.03,0.22-0.04c0.34-0.06,0.68-0.11,1.03-0.17c0.05-0.01,0.11-0.02,0.17-0.02
						c0.33-0.05,0.67-0.09,1.02-0.13c0.05-0.01,0.11-0.01,0.16-0.02c0.38-0.04,0.77-0.09,1.16-0.13c0.07-0.01,0.13-0.01,0.2-0.02
						c0.81-0.08,1.64-0.14,2.47-0.2c0.05,0,0.1-0.01,0.15-0.01c0.42-0.03,0.85-0.05,1.27-0.07c0,0,0,0,0,0
						c0.45-0.02,0.89-0.04,1.33-0.06c0,0,0,0,0.01,0c1.23-0.05,2.43-0.08,3.55-0.09c0.1,0,0.2,0,0.3,0c1.5,1.38,3.5,2.23,5.7,2.23
						c0.56,0,1.1-0.06,1.63-0.16c0.48,2.4,2.59,4.21,5.13,4.21c2.8,0,5.08-2.2,5.22-4.97c0-0.09,0.01-0.17,0.01-0.26
						C169.43,245.04,167.81,243.02,165.59,242.41z"/>
					<path class="st20" d="M301.43,276.4c0-4.21-3.41-7.61-7.61-7.61c-2.79,0-5.22,1.51-6.55,3.74c-0.74-0.31-1.55-0.48-2.4-0.48
						c-3.44,0-6.23,2.79-6.23,6.23c0,1.1,0.29,2.13,0.78,3.02c-4.24,0.75-7.46,4.45-7.46,8.9c0,0.53,0.05,1.04,0.14,1.55
						c-2.22,0.59-3.85,2.61-3.85,5.01c0,2.87,2.33,5.19,5.19,5.19c2.14,0,3.98-1.3,4.77-3.15c0.88,0.29,1.82,0.44,2.8,0.44
						c5,0,9.05-4.05,9.05-9.05c0-0.09-0.01-0.17-0.01-0.26c0.45,0.13,0.93,0.2,1.42,0.2c2.91,0,5.27-2.36,5.27-5.27
						c0-0.48-0.07-0.94-0.19-1.39C299.4,282.4,301.43,279.64,301.43,276.4z"/>
					<g>
						<g>
							<path class="st7" d="M137.64,235.62c1.03,0.34,1.87,0.07,2.63-0.64c1.02-0.94,2.31-1.32,3.67-1.5
								c1.2-0.16,1.83-1.69,1.55-2.74c-0.34-1.29-1.55-1.72-2.74-1.55c-1.23,0.17-2.42,0.53-3.55,1.04
								c-0.73,0.33-1.62,0.54-2.3,0.96c-1.71,1.07-1.17,3.72,0.62,4.39C137.57,235.59,137.6,235.61,137.64,235.62z"/>
						</g>
						<g>
							<path class="st7" d="M161.03,238.43c2.86,0,2.87-4.45,0-4.45C158.17,233.98,158.16,238.43,161.03,238.43L161.03,238.43z"/>
						</g>
						<g>
							<path class="st7" d="M166.54,249.51c2.86,0,2.87-4.45,0-4.45C163.68,245.06,163.67,249.51,166.54,249.51L166.54,249.51z"/>
						</g>
						<g>
							<path class="st7" d="M121.42,334.28c0.72-6.69,6.05-11.66,12.73-12.09c2.85-0.18,2.87-4.63,0-4.45
								c-9.29,0.59-16.19,7.32-17.18,16.54C116.66,337.12,121.12,337.1,121.42,334.28L121.42,334.28z"/>
						</g>
						<g>
							<path class="st7" d="M101.8,339.06c0.98-1.16,2.07-1.75,3.56-1.99c1.19-0.19,1.85-1.67,1.55-2.74
								c-0.35-1.27-1.55-1.74-2.74-1.55c-2.13,0.34-4.13,1.49-5.52,3.13c-0.78,0.92-0.9,2.25,0,3.15
								C99.45,339.86,101.02,339.99,101.8,339.06L101.8,339.06z"/>
						</g>
						<g>
							<path class="st7" d="M153.3,334.1c0.01-0.02,0.17-0.26,0.16-0.27c-0.18,0.21-0.21,0.26-0.11,0.14
								c0.03-0.04,0.07-0.08,0.11-0.12c0.07-0.08,0.16-0.14,0.23-0.22c0.17-0.19-0.42,0.25-0.01,0.01c0.09-0.05,0.18-0.11,0.27-0.16
								c0.29-0.17-0.07-0.02-0.1,0.03c0.07-0.12,0.63-0.16,0.77-0.18c0.51-0.07,1.08-0.6,1.33-1.02c0.28-0.48,0.4-1.18,0.22-1.72
								c-0.41-1.27-1.5-1.72-2.74-1.55c-1.66,0.23-3.17,1.38-3.99,2.82c-0.58,1.01-0.27,2.48,0.8,3.05
								C151.31,335.46,152.69,335.19,153.3,334.1L153.3,334.1z"/>
						</g>
						<g>
							<path class="st7" d="M181.12,338.76c2.86,0,2.87-4.45,0-4.45C178.26,334.31,178.25,338.76,181.12,338.76L181.12,338.76z"/>
						</g>
						<g>
							<path class="st7" d="M193.9,303.8c-0.68,1.65-0.1,3.79,1.22,4.95c0.88,0.77,2.3,0.93,3.15,0c0.77-0.84,0.94-2.33,0-3.15
								c-0.08-0.06-0.15-0.13-0.22-0.21c0.18,0.26,0.21,0.28,0.07,0.08c-0.11-0.22-0.1-0.18,0.03,0.12
								c-0.04-0.1-0.06-0.19-0.09-0.29c-0.05-0.25-0.04-0.2,0.02,0.14c0-0.1,0-0.2,0.01-0.31c-0.05,0.34-0.05,0.38,0,0.14
								c0.03-0.1,0.06-0.19,0.11-0.29c0.45-1.08-0.48-2.49-1.55-2.74C195.34,301.95,194.38,302.64,193.9,303.8L193.9,303.8z"/>
						</g>
						<g>
							<path class="st7" d="M205.71,298.19c0.03-0.13,0.06-0.25,0.09-0.37c0.13-0.42-0.07-0.06-0.03,0.03
								c-0.02-0.06,0.16-0.29,0.18-0.34c0.03-0.04,0.05-0.09,0.08-0.13c0.09-0.14,0.05-0.09-0.12,0.14
								c0.15-0.06,0.36-0.37,0.48-0.49c0.18-0.17-0.37,0.2-0.02,0.03c0.14-0.07,0.27-0.15,0.41-0.22c1.05-0.51,1.41-2.09,0.8-3.05
								c-0.7-1.08-1.92-1.34-3.05-0.8c-1.56,0.75-2.77,2.32-3.13,4.01c-0.24,1.14,0.33,2.46,1.55,2.74
								C204.09,300,205.45,299.41,205.71,298.19L205.71,298.19z"/>
						</g>
						<g>
							<path class="st7" d="M219.35,298.43c0.52-3.91,4.06-6.18,7.8-5.92c2.86,0.2,2.85-4.25,0-4.45
								c-6.43-0.45-11.43,4.17-12.26,10.37C214.51,301.26,218.97,301.24,219.35,298.43L219.35,298.43z"/>
						</g>
						<g>
							<path class="st7" d="M258.03,336.11c0.84-2.85,2.69-5.11,5.27-6.55c2.5-1.4,0.26-5.24-2.25-3.84c-3.58,2-6.16,5.29-7.32,9.21
								C252.92,337.68,257.22,338.85,258.03,336.11L258.03,336.11z"/>
						</g>
						<g>
							<path class="st7" d="M268.28,328.82c2.86,0,2.87-4.45,0-4.45C265.41,324.36,265.41,328.82,268.28,328.82L268.28,328.82z"/>
						</g>
						<g>
							<path class="st7" d="M277.87,283.59c-3.06,2.21-4.44,5.68-3.5,9.38c0.7,2.78,4.99,1.6,4.29-1.18
								c-0.41-1.63,0.06-3.34,1.46-4.35c0.97-0.7,1.45-1.94,0.8-3.05C280.36,283.43,278.85,282.88,277.87,283.59L277.87,283.59z"/>
						</g>
						<g>
							<path class="st7" d="M282.58,280.01c2.86,0,2.87-4.45,0-4.45C279.72,275.55,279.71,280.01,282.58,280.01L282.58,280.01z"/>
						</g>
						<g>
							<path class="st7" d="M232.35,338.72c2.68-0.96,1.52-5.26-1.18-4.29c-3.99,1.43-7.03,4.17-8.89,7.88h5.15
								C228.69,340.68,230.42,339.41,232.35,338.72z"/>
						</g>
					</g>
				</g>
			</g>
		</g>
		<g>
			<g>
				<g class="st26">
					<circle class="st20" cx="249.11" cy="224.29" r="6.43"/>
					<path class="st7" d="M249.78,222.5c0,1.54-1.25,2.79-2.79,2.79c-1.54,0-2.79-1.25-2.79-2.79c0-1.54,1.25-2.79,2.79-2.79
						C248.52,219.7,249.78,220.95,249.78,222.5z"/>
				</g>
				<g class="st26">
					<circle class="st20" cx="279.08" cy="201.7" r="4.58"/>
					<path class="st7" d="M279.55,200.42c0,1.1-0.89,1.99-1.99,1.99c-1.1,0-1.99-0.89-1.99-1.99c0-1.1,0.89-1.99,1.99-1.99
						C278.66,198.43,279.55,199.32,279.55,200.42z"/>
				</g>
				<g class="st26">
					<path class="st20" d="M270.76,221.21c0,1.62-1.31,2.93-2.93,2.93c-1.62,0-2.93-1.31-2.93-2.93c0-1.62,1.31-2.93,2.93-2.93
						C269.45,218.28,270.76,219.59,270.76,221.21z"/>
					<circle class="st7" cx="266.87" cy="220.39" r="1.27"/>
				</g>
			</g>
			<g>
				<g>
					
						<ellipse transform="matrix(0.9231 -0.3846 0.3846 0.9231 -45.3323 131.9221)" class="st20" cx="307.13" cy="179.29" rx="8.27" ry="8.27"/>
					<circle class="st7" cx="304.39" cy="176.99" r="3.6"/>
				</g>
				<g>
					<path class="st20" d="M320.89,200.42c0,2.93-2.38,5.31-5.31,5.31s-5.31-2.38-5.31-5.31c0-2.93,2.38-5.31,5.31-5.31
						S320.89,197.49,320.89,200.42z"/>
					<path class="st7" d="M316.13,198.94c0,1.27-1.03,2.31-2.31,2.31s-2.31-1.03-2.31-2.31s1.03-2.31,2.31-2.31
						S316.13,197.67,316.13,198.94z"/>
				</g>
			</g>
		</g>
		<g>
			<g>
				<g>
					<circle class="st20" cx="99.12" cy="247.65" r="7.94"/>
					<path class="st7" d="M99.94,245.44c0,1.91-1.54,3.45-3.45,3.45c-1.91,0-3.45-1.54-3.45-3.45c0-1.91,1.54-3.45,3.45-3.45
						C98.39,241.99,99.94,243.53,99.94,245.44z"/>
				</g>
				<g>
					<path class="st20" d="M96.49,264.4c0,2.93-2.38,5.31-5.31,5.31c-2.93,0-5.31-2.38-5.31-5.31s2.38-5.31,5.31-5.31
						C94.11,259.09,96.49,261.47,96.49,264.4z"/>
					<path class="st7" d="M91.73,262.92c0,1.27-1.03,2.31-2.31,2.31s-2.31-1.03-2.31-2.31s1.03-2.31,2.31-2.31
						S91.73,261.65,91.73,262.92z"/>
				</g>
				<g>
					<path class="st20" d="M89.43,285.65c0,1.27-1.03,2.31-2.31,2.31c-1.27,0-2.31-1.03-2.31-2.31s1.03-2.31,2.31-2.31
						C88.39,283.34,89.43,284.37,89.43,285.65z"/>
					<path class="st7" d="M87.36,285c0,0.55-0.45,1-1,1c-0.55,0-1-0.45-1-1c0-0.55,0.45-1,1-1C86.91,284,87.36,284.45,87.36,285z"/>
				</g>
			</g>
			<g>
				<g>
					<circle class="st20" cx="112.25" cy="198.71" r="9.65"/>
					<circle class="st7" cx="109.06" cy="196.01" r="4.2"/>
				</g>
				<g>
					<circle class="st20" cx="127.86" cy="169.31" r="5.31"/>
					<path class="st7" d="M128.41,167.83c0,1.27-1.03,2.31-2.31,2.31c-1.27,0-2.31-1.03-2.31-2.31c0-1.27,1.03-2.31,2.31-2.31
						C127.37,165.52,128.41,166.55,128.41,167.83z"/>
				</g>
				<g>
					<path class="st20" d="M141.11,192.87c0,2.32-1.88,4.21-4.21,4.21c-2.32,0-4.21-1.88-4.21-4.21s1.88-4.21,4.21-4.21
						C139.23,188.66,141.11,190.55,141.11,192.87z"/>
					<path class="st7" d="M137.34,191.7c0,1.01-0.82,1.83-1.83,1.83c-1.01,0-1.83-0.82-1.83-1.83c0-1.01,0.82-1.83,1.83-1.83
						C136.52,189.87,137.34,190.69,137.34,191.7z"/>
				</g>
			</g>
		</g>
	</g>
	<g>
		<g>
			<path class="st27" d="M412.1,418.72h255.52c11.18-24.37,14.63-51.83,17.72-78.46c2.08-17.92,0.61-39.39-14.58-49.13
				c-13.27-8.51-30.97-3.96-46.08-8.47c-17.89-5.34-29.86-23.11-33.56-41.41c-3.7-18.3-0.58-37.23,2.91-55.57
				c3.49-18.34,7.37-37,5.16-55.54c-3.31-27.76-21.15-53.38-46.03-66.12c-24.89-12.74-56.09-12.23-80.55,1.31
				c-35.2,19.5-52.16,60.73-60.56,100.09c-8.46,39.64-10.86,80.57-7.11,120.92C408.93,329.39,422.03,376.65,412.1,418.72z"/>
			<path class="st27" d="M610.96,201.56c2.77-20.1,5.54-40.21,8.31-60.31c1.55-11.29,3.2-22.87,8.66-32.88
				c5.46-10.01,15.63-18.26,27.03-18.09c8.84,0.13,17.04,5.32,22.57,12.22c5.53,6.9,8.72,15.36,11.18,23.85
				c8.48,29.21,9.27,60.61,2.28,90.21c-3.85,16.32-10.68,32.95-24.16,42.92c-14.15,10.46-34.76,9.85-46.75-3.52
				C606.75,241.13,608.44,219.85,610.96,201.56z"/>
		</g>
		<path class="st1" d="M692.02,424.02L692.02,424.02c0,3.03-2.46,5.49-5.49,5.49h-14.42c-6.54,0-12.79,2.69-17.28,7.44l-0.79,0.83
			c-4.49,4.75-10.74,7.44-17.28,7.44h-18.1c-6.02,0-11.81,2.28-16.21,6.38l0,0c-4.4,4.1-10.19,6.38-16.21,6.38h-55.59
			c-6.02,0-11.81-2.28-16.21-6.38l0,0c-4.4-4.1-10.19-6.38-16.21-6.38h-58.27c-6.54,0-12.79-2.69-17.28-7.44l-0.79-0.83
			c-4.49-4.75-10.74-7.44-17.28-7.44H390.2c-3.03,0-5.49-2.46-5.49-5.49l0,0c0-3.03,2.46-5.49,5.49-5.49h296.33
			C689.56,418.53,692.02,420.99,692.02,424.02z"/>
		<g>
			<g>
				<g>
					<path class="st28" d="M588.8,207.83c3.07-4.45,2.55-10.63,0.05-15.43c-2.49-4.8-6.63-8.49-10.75-11.99
						c-4.12-3.5-8.37-7.01-11.22-11.61c-5.18-8.36-4.66-19.88,1.25-27.74c2.95-3.92,7-6.87,10.12-10.65
						c6.42-7.78,8.3-19.05,4.77-28.5c-3.54-9.45-12.36-16.71-22.31-18.36c-9.95-1.65-20.65,2.37-27.05,10.16
						c-9.38-8.57-25.47-12.17-37.45-7.92c-11.98,4.25-21.2,15.44-23.08,28.01c-1.52,10.15,1.32,21.14-3.09,30.41
						c-6.77,14.21-27.1,17.37-34.57,31.22c-4.66,8.63-3.07,19.28-0.11,28.63c2.96,9.36,7.19,18.53,7.53,28.34
						c0.32,9.55-2.96,19.85,1.65,28.22c4.63,8.41,15.22,11.13,24.67,12.82c19.6,3.49,40.35,5.94,58.98-1.09
						c13.47-5.08,24.79-14.81,33.85-26C571.08,235.18,580.62,219.68,588.8,207.83z"/>
					<path class="st9" d="M435.35,204.08c-2.96-9.36-4.55-20,0.11-28.63c1.59-2.94,3.75-5.39,6.24-7.57
						c-4.48,9.14-4.32,20.7,1.41,29.2c4.61,6.83,12.07,11.58,15.74,18.96c3.96,7.98,2.8,17.67,6.24,25.9
						c3.92,9.35,13.72,15.57,23.82,16.44c10.1,0.87,20.26-3.14,28.03-9.66c6.87-5.77,11.97-13.32,17.65-20.27
						c5.68-6.95,12.36-13.58,20.87-16.43c4.74-1.59,9.83-1.92,14.55-3.54c4.72-1.62,9.34-5.06,10.2-9.99
						c1.27-7.28-5.78-12.94-9.89-19.08c-2.34-3.49-3.67-7.54-4.08-11.7c0.2,0.37,0.4,0.75,0.62,1.11c2.85,4.59,7.11,8.1,11.22,11.61
						c4.12,3.5,8.26,7.2,10.75,11.99c2.49,4.8,3.02,10.98-0.05,15.43c-8.18,11.84-17.72,27.34-26.78,38.53
						c-9.06,11.19-20.38,20.92-33.85,26c-18.63,7.02-39.38,4.58-58.98,1.09c-9.45-1.68-20.04-4.41-24.67-12.82
						c-4.61-8.37-1.32-18.67-1.65-28.22C442.54,222.61,438.3,213.43,435.35,204.08z"/>
					<path class="st29" d="M558.18,89.25c-8.87-0.38-17.81,3.79-23.22,10.83c-7.64-5.53-17.21-9.09-26.59-9.99
						c-9.39-0.9-19.36,1.82-26.04,8.47c-4.4,4.38-7.17,10.18-8.81,16.17c-0.3,1.08-0.55,2.17-0.78,3.26c0.07-1.4,0.2-2.8,0.4-4.17
						c1.88-12.57,11.11-23.76,23.08-28.01c11.98-4.25,28.07-0.66,37.45,7.92c6.4-7.8,17.1-11.81,27.05-10.16
						c9.95,1.65,18.77,8.91,22.31,18.36c1.51,4.04,2.02,8.41,1.62,12.7c-0.39-4.47-1.82-8.84-4.24-12.61
						C575.61,94.54,567.05,89.63,558.18,89.25z"/>
					<g>
						<g>
							<path class="st29" d="M571.93,124.47c-0.24-3.19-1.11-6.69-2.84-9.98c-1.71-3.28-4.27-6.32-7.45-8.46
								c-3.18-2.13-6.97-3.33-10.66-3.67c-3.7-0.35-7.27,0.18-10.31,1.18c2.57-1.9,6.25-3.31,10.36-3.46
								c4.09-0.17,8.58,0.93,12.3,3.42c3.72,2.49,6.45,6.22,7.85,10.07C572.61,117.43,572.7,121.38,571.93,124.47z"/>
						</g>
						<g>
							<path class="st29" d="M560.67,116.14c-0.7-1.45-1.61-3.02-2.8-4.51c-1.18-1.48-2.64-2.88-4.28-4
								c-1.64-1.12-3.47-1.96-5.28-2.52c-1.81-0.57-3.61-0.84-5.22-0.96c1.56-0.39,3.48-0.51,5.48-0.16c2,0.34,4.07,1.15,5.88,2.38
								c1.81,1.23,3.31,2.87,4.36,4.61C559.87,112.72,560.46,114.55,560.67,116.14z"/>
						</g>
						<g>
							<path class="st29" d="M485.89,124.76c3.09-0.6,6.52-1.47,9.99-2.82c3.47-1.34,6.98-3.13,10.24-5.31
								c3.25-2.19,6.24-4.76,8.79-7.47c2.56-2.71,4.67-5.55,6.39-8.18c-0.81,3.03-2.34,6.42-4.66,9.61c-2.3,3.2-5.36,6.18-8.85,8.53
								c-3.5,2.34-7.41,4.05-11.24,4.97C492.71,125.02,488.99,125.16,485.89,124.76z"/>
						</g>
						<g>
							<path class="st29" d="M487.19,108.8c4.61,0.06,10.45-0.34,16.07-1.85c5.63-1.47,10.91-4.01,14.88-6.35
								c-1.54,1.72-3.6,3.47-6.06,4.96c-2.45,1.49-5.3,2.72-8.26,3.51c-2.97,0.78-6.04,1.13-8.92,1.04
								C492.03,110.03,489.38,109.53,487.19,108.8z"/>
						</g>
					</g>
				</g>
				<g>
					<g>
						<path class="st30" d="M458.05,246.72l-8.46,28.21l-37.26-10.24l22.48-50.88c5.44-12.3,17.8-20.06,31.24-19.61l32.19,1.08
							c1.82,5.41,5.66,10.14,10.66,12.89c6.25,3.44,14.14,3.72,20.62,0.74c5.31-2.45,9.57-7.06,11.72-12.49l26.68-1.68
							c13.72-0.86,26.54,6.89,32.15,19.44l7.99,17.89l-23.56,25.75v97.86l-134.91,6.51c0-19.09,10.09-38.97,16.94-50.27
							c3.87-6.39,4.97-14.08,3.07-21.3L458.05,246.72z"/>
						<path class="st31" d="M458.05,246.72l2.02,1.2c5.16,3.06,9.03,7.89,10.89,13.59l2.89,8.83l-7.62,7.5L458.05,246.72z"/>
						<g>
							<g>
								<path class="st31" d="M497.41,208.71c3.08,2.18,6.81,4.23,11.01,5.59c4.19,1.38,8.84,2.07,13.43,1.79
									c4.59-0.29,9.11-1.56,13.1-3.44c4-1.88,7.45-4.37,10.23-6.92c-1.84,3.28-4.88,6.68-8.92,9.27
									c-4.02,2.59-9.02,4.35-14.19,4.67c-5.17,0.32-10.35-0.8-14.66-2.88C503.08,214.74,499.64,211.74,497.41,208.71z"/>
							</g>
							<g>
								<path class="st31" d="M503.66,220.38c3.8,1.38,8.79,2.61,13.87,2.71c5.09,0.15,10.13-0.83,13.99-2.02
									c-1.66,1.15-3.79,2.21-6.22,2.92c-2.42,0.72-5.12,1.08-7.82,1.02c-2.7-0.07-5.38-0.57-7.76-1.41
									C507.34,222.78,505.26,221.62,503.66,220.38z"/>
							</g>
							<g>
								<path class="st31" d="M450.27,199.02c2.49,2.25,5,5.33,7.01,9.04c2.02,3.69,3.54,7.98,4.31,12.41
									c0.77,4.43,0.79,8.98,0.13,13.14c-0.64,4.16-1.96,7.91-3.54,10.87c0.58-3.32,1.06-7.09,1.15-11.09
									c0.1-4-0.18-8.22-0.9-12.37c-0.73-4.15-1.89-8.22-3.34-11.95C453.66,205.33,451.93,201.94,450.27,199.02z"/>
							</g>
							<g>
								<path class="st31" d="M418.96,258.84c8.42,0.98,21.48,4.66,29.17,8.22C439.7,266.08,426.65,262.4,418.96,258.84z"/>
							</g>
						</g>
					</g>
					<g>
						<polygon class="st10" points="554.53,195.58 561.72,239.31 555.34,239.31 549.92,195.87 						"/>
						<polygon class="st10" points="491.89,195.07 495.23,240.11 488.33,240.11 486.88,194.9 						"/>
						<polygon class="st32" points="561.72,239.31 555.34,239.31 554.8,234.95 561,234.9 						"/>
						<polygon class="st32" points="494.89,235.44 495.23,240.11 488.33,240.11 488.18,235.5 						"/>
					</g>
					<g>
						<path class="st10" d="M584.5,257.08c-9-3.15-14.73-11.79-16.44-16.7c-0.38-1.08-1.4-1.79-2.54-1.78l-79.19,0.85
							c-1.16,0.01-2.18,0.78-2.52,1.89c-4.55,15.01-19.52,32.86-19.52,32.86l3.81,13.78c2.22,8.03,0.93,16.66-3.64,23.62
							c-14.57,22.2-17.09,43.2-17.09,49.92l2.23-0.07l134.91-6.51V257.08z"/>
						<g>
							<g>
								<path class="st32" d="M485.65,317.14c5.67-0.63,12.07-1.49,18.73-2.91c6.67-1.4,13.6-3.35,20.34-5.84
									c6.73-2.5,13.27-5.53,19.24-8.81c5.98-3.27,11.4-6.77,16.11-9.98c-3.47,4.52-8.19,9.24-13.93,13.41
									c-5.72,4.19-12.44,7.83-19.54,10.46c-7.11,2.62-14.57,4.23-21.65,4.78C497.88,318.82,491.22,318.32,485.65,317.14z"/>
							</g>
							<g>
								<path class="st32" d="M490.56,304.61c7.36-0.66,16.74-1.52,25.99-3.25c9.26-1.68,18.33-4.22,25.44-6.23
									c-3.07,2.05-6.85,4.07-11.1,5.75c-4.24,1.69-8.92,3.05-13.7,3.94c-4.78,0.88-9.64,1.28-14.21,1.21
									C498.42,305.96,494.16,305.43,490.56,304.61z"/>
							</g>
						</g>
						<path class="st30" d="M558.21,248.03h2.3c1.32,0,2.39-1.07,2.39-2.39v0c0-1.32-1.07-2.39-2.39-2.39h-2.3
							c-1.32,0-2.39,1.07-2.39,2.39v0C555.82,246.96,556.89,248.03,558.21,248.03z"/>
						<path class="st30" d="M490.56,248.03h2.3c1.32,0,2.39-1.07,2.39-2.39v0c0-1.32-1.07-2.39-2.39-2.39h-2.3
							c-1.32,0-2.39,1.07-2.39,2.39v0C488.16,246.96,489.23,248.03,490.56,248.03z"/>
						<path class="st32" d="M509.6,324.39c9.72-0.43,19.55,0.23,29.13-1.45c0.64-0.11,1.28-0.24,1.93-0.37
							c13.28-2.81,22.6-15.01,21.62-28.55c-1.2-16.57,1.66-33.44,8.25-48.69c2.82,4.48,7.56,9.5,13.97,11.74v97.86l-134.91,6.51
							l-2.23,0.07c0-3.44,0.66-10.61,3.26-19.76C468.53,331.39,488.93,325.32,509.6,324.39z"/>
					</g>
				</g>
				<g>
					<path class="st33" d="M529.53,208.91c-6.48,2.99-14.37,2.71-20.62-0.74c-5-2.76-8.85-7.49-10.66-12.89l5.22,0.18l0.22-21.74
						h31.54l0.97,23.02l5.04-0.32C539.1,201.85,534.84,206.46,529.53,208.91z"/>
					<path class="st1" d="M504.49,179.24c-0.3-0.56-0.58-1.1-0.84-1.61l0.04-3.91h31.54l0.45,10.69
						C522.17,201.58,509.3,188.19,504.49,179.24z"/>
				</g>
				<g>
					<g>
						<path class="st34" d="M555.66,154.21c1.08-1.77,2.5-3.37,4.32-4.36c1.82-0.99,4.06-1.32,5.99-0.57
							c2.85,1.1,4.44,4.29,4.64,7.34c0.31,4.7-2.27,9.48-6.38,11.79c-4.11,2.31-9.53,2.05-13.39-0.65
							C552.36,163.32,553.22,158.2,555.66,154.21z"/>
						<path class="st35" d="M565.41,152.31c-3.71,2.85-6.34,7.08-7.26,11.67c-0.21,1.07-0.21,2.42,0.74,2.95
							c0.79,0.44,1.8,0.02,2.51-0.54c2.48-1.95,3.36-5.7,2-8.55C563.87,155.93,564.24,153.88,565.41,152.31z"/>
					</g>
					<g>
						<path class="st33" d="M558.4,134.04c0.18,8.22-0.06,16.54-2.29,24.45c-2.23,7.91-6.35,15.43-12.54,20.84
							c-6.19,5.41-14.57,8.53-22.73,7.52c-6.65-0.82-12.77-4.27-17.72-8.8c-4.94-4.52-8.82-10.08-12.36-15.77
							c-0.63,3.73-4.8,6.51-8.57,6.78c-3.77,0.28-7.5-1.76-9.77-4.79c-2.26-3.03-3.17-6.93-3.04-10.71c0.1-2.92,0.93-6.07,3.29-7.79
							c2.82-2.06,6.97-1.32,9.74,0.81c2.77,2.14,4.44,5.36,5.94,8.52c1.78-4.73,2.57-10.08,1.93-15.09
							c17.36-4.12,32.05-18.96,35.26-36.51C547.99,107.52,558.29,128.94,558.4,134.04z"/>
						<path class="st34" d="M477.14,149.61c3.54,2.11,6.1,5.8,6.83,9.85c0.2,1.08,0.21,2.35-0.58,3.12
							c-0.72,0.7-1.88,0.73-2.83,0.42c-1.87-0.61-3.28-2.42-3.42-4.38s1.01-3.95,2.78-4.82
							C479.01,152.54,478.06,150.87,477.14,149.61z"/>
					</g>
					<path class="st34" d="M530.01,110.25c-5.52,14.99-19.82,29.78-39.73,29.78c17.36-4.12,32.05-18.96,35.26-36.51
						c22.45,4,32.76,25.42,32.87,30.52C552.71,122.57,542.28,113.89,530.01,110.25z"/>
					<g>
						<path class="st28" d="M500.51,134.39c5.78-0.94,11.56-1.88,17.34-2.82c-2.4-2.26-5.94-3.46-9.2-3.02
							C505.39,129,502.21,131.57,500.51,134.39z"/>
						<path class="st28" d="M554.92,137.32c-4.98-1.26-9.96-2.53-14.93-3.79c1.67-2.77,5.14-4.19,8.31-3.51
							C551.46,130.69,554.53,134.11,554.92,137.32z"/>
						<path class="st1" d="M506.96,147.11c0,1.78,1.45,3.23,3.23,3.23c1.78,0,3.23-1.45,3.23-3.23c0-1.78-1.45-3.23-3.23-3.23
							C508.4,143.88,506.96,145.33,506.96,147.11z"/>
						<circle class="st1" cx="544.23" cy="148.04" r="3.23"/>
						<path class="st34" d="M522.54,157.19c3.6-0.43,7.25-0.4,10.85,0.08c-1.34,1.59-2.96,2.91-5.04,2.91
							C526.27,160.19,523.9,158.76,522.54,157.19z"/>
						<path class="st7" d="M512.9,165.44c8.26-0.39,16.57,0.13,24.72,1.54c-2.34,4.47-7.64,7.57-12.68,7.28
							C519.89,173.98,514.72,170.15,512.9,165.44z"/>
						<path class="st34" d="M518.38,177.69c3.7,0.64,7.51,0.7,11.23,0.17c-1.45,1.47-3.29,2.64-5.35,2.6
							C522.2,180.44,519.78,179.21,518.38,177.69z"/>
					</g>
					<path class="st15" d="M511.19,158.58c-0.67,2.62-5.03,3.77-9.73,2.56s-7.97-4.31-7.3-6.93c0.67-2.62,5.03-3.77,9.73-2.56
						C508.59,152.86,511.86,155.96,511.19,158.58z"/>
					<path class="st15" d="M543.21,158.95c0.67,2.62,4.05,4.02,7.55,3.12c3.5-0.9,5.79-3.75,5.12-6.37
						c-0.67-2.62-4.05-4.02-7.55-3.12C544.83,153.48,542.54,156.33,543.21,158.95z"/>
				</g>
				<path class="st8" d="M517.37,261.54c-2.54,0.22-2.61,4.6-2.12,10.39c0.49,5.79,1.35,10.79,3.89,10.57
					c0.48-0.04,0.93-0.25,1.34-0.6c-1.45-1.46-2.06-5.48-2.44-9.98c-0.4-4.73-0.43-8.52,0.96-9.87
					C518.48,261.68,517.93,261.49,517.37,261.54z"/>
				<g>
					<g>
						<path class="st36" d="M511.24,254.45l42.29-35.43c-7.53,21.21-25.93,27.52-33.43,30.9l-7.28,6.83L511.24,254.45z"/>
						<path class="st8" d="M513.15,256.5c1.54,2.03-1.66,5.02-6.29,8.54c-4.62,3.52-8.91,6.23-10.46,4.2
							c-0.29-0.38-0.44-0.86-0.45-1.39c2.06,0.09,5.45-2.15,9.04-4.88c3.78-2.87,6.61-5.4,6.67-7.33
							C512.3,255.78,512.82,256.06,513.15,256.5z"/>
					</g>
					<path class="st34" d="M519.78,273.24c1.17-0.09,2.38-0.18,3.5,0.21c1.12,0.39,2.12,1.39,2.19,2.63
						c0.08,1.44-1.14,2.65-2.45,3.07c-1.31,0.42-2.72,0.28-4.09,0.3c-5.41,0.08-10.46,2.78-15.78,3.78
						c-4.72,0.88-9.66,0.38-14.13-1.43c-1.93-0.78-3.83-1.85-5.06-3.6c-1.23-1.75-1.6-4.29-0.44-6.09c1.22-1.88,3.63-2.38,5.8-2.54
						c5.27-0.37,10.6,0.38,15.6,2.18c2.14,0.77,4.06,2.27,6.33,2.15C514.1,273.77,516.94,273.46,519.78,273.24z"/>
					<g>
						<path class="st33" d="M437.13,280.28l39.4-3.78l8.82-10.86c2.6-3.2,6.49-5.07,10.61-5.1c6.09-0.04,12.97,0.3,17.64,2.17
							c0.84,0.34,1.69,0.71,2.35,1.32c0.66,0.62,1.12,1.53,0.96,2.42c-0.21,1.21-1.49,2-2.71,2.11c-1.23,0.11-2.43-0.3-3.62-0.64
							c-6.05-1.72-12.58-1.67-18.61,0.13c6.54,0.86,12.97,2.89,18.94,5.68c1.67,0.78,3.4,1.71,4.13,3.51
							c0.23,0.58,0.3,1.23,0.16,1.85c-0.43,1.94-2.17,2.33-3.62,2.01c-0.92-0.2-1.75-0.65-2.6-1.06c-6.1-2.95-13.17-3.87-19.83-2.57
							c6.55,1.47,13.04,5.21,17.97,9.77c0.8,0.74,1.58,1.54,2.01,2.54c0.43,1,0.43,2.25-0.25,3.09c-0.63,0.78-1.73,1.06-2.73,0.97
							c-1-0.1-1.94-0.52-2.85-0.93c-4.39-1.98-8.77-3.97-13.16-5.95c3.72,3.65,7.59,7.23,12.23,9.59c1.05,0.53,2.24,1.17,2.21,2.53
							c-0.02,0.74-0.49,1.41-1.13,1.79c-1.39,0.81-2.95,0.42-4.37-0.06c-3.85-1.32-7.44-3.4-10.49-6.09
							c-3.84,1.63-7.99,2.12-11.96,0.83l-51.83,18.74c-5.33,1.93-11.28,0.86-15.6-2.81l0,0c-5.14-4.36-6.96-11.5-4.52-17.79
							l10.91-28.08l25.14,6.91L437.13,280.28z"/>
						<polygon class="st1" points="415.61,265.59 440.75,272.5 438.5,277.33 415.06,266.99 						"/>
						<path class="st34" d="M416.96,282.21l20.16-1.94l0.61-1.31C424.22,275.16,416.96,282.21,416.96,282.21z"/>
					</g>
					<g>
						<g>
							<path class="st36" d="M520.18,261.58l-2.07-55.13c-10.68,19.81-3.03,37.69-0.51,45.52l-0.18,9.98L520.18,261.58z"/>
						</g>
						<path class="st36" d="M520.17,261.53l-2.79,0.01c0.56-0.05,1.11,0.14,1.64,0.51c1.89,1.32,3.47,5.06,3.85,9.58
							c0.4,4.69-0.62,8.78-2.38,10.27c-0.41,0.35-0.86,0.56-1.34,0.6l2.79-0.01c2.54-0.22,4.21-5.08,3.72-10.87
							C525.17,265.83,522.71,261.31,520.17,261.53z"/>
					</g>
					<path class="st36" d="M511.29,254.43l1.87,2.08c-0.34-0.44-0.85-0.73-1.48-0.87c-2.24-0.51-6.08,0.81-9.69,3.56
						c-3.75,2.85-6.1,6.35-6.03,8.65c0.02,0.54,0.16,1.01,0.45,1.39l-1.87-2.08c-1.54-2.03,0.95-6.53,5.57-10.05
						C504.74,253.6,509.74,252.4,511.29,254.43z"/>
				</g>
			</g>
			<g>
				<path class="st5" d="M661.93,427.43l-67.62,0.18l10.7-19.47l46.26-0.13c7.1-0.02,13.53,4.18,16.36,10.7l0,0
					C669.41,422.83,666.41,427.42,661.93,427.43z"/>
				<g>
					<g>
						<path class="st8" d="M388.62,366.2c-2.9,2.4-5.33,5.28-7.27,8.48c-0.13-0.65-0.25-1.3-0.35-1.94
							c-1.37-8.55-0.8-17.4,1.56-25.73c1.57-1.04,3.3-1.83,5.12-2.32c-1.4-0.42-2.83-0.59-4.25-0.5c0.74-2.18,1.6-4.31,2.58-6.39
							c2.26-4.75,5.14-9.06,8.54-12.9c3.13-3.54,8.85-0.5,7.66,4.08c-1.06,4.08-1.55,8.29-1.34,12.51
							c0.52,10.26,5.58,20.49,14.23,26.04c8.65,5.55,20.85,5.62,28.84-0.84c0.02,9.23-3.15,21.68-5.51,30.6
							c-5.76,1.62-11.59,3.21-17.51,4c-0.45-4.02-0.42-8.09,0.13-12.1c-2.28,3.84-3.94,8.12-4.93,12.53
							c-0.45,0.02-0.91,0.06-1.36,0.07c-3.18,0.07-6.41-0.19-9.53-0.85c-0.44-6.83,0.54-13.75,2.88-20.19
							c-4.21,5.4-7.09,11.82-8.38,18.55c-1.83-0.72-3.57-1.61-5.21-2.69c-0.03-6.03,1.16-12.07,3.52-17.63
							c-3.84,3.79-6.47,8.85-7.69,14.18c-2.93-2.99-5.12-6.63-6.68-10.57C384.18,376.88,385.85,371.25,388.62,366.2z"/>
					</g>
					<g>
						<path class="st5" d="M432.11,371.46c4.31-0.47,8.45-2.02,11.84-4.76c0.02,9.23-3.15,21.68-5.51,30.6
							c-5.76,1.62-11.59,3.21-17.51,4c-0.37-3.35-0.39-6.73-0.08-10.08c1.68,0.03,3.37-0.05,5.04-0.25
							C426.77,384.17,428.89,377.52,432.11,371.46z"/>
						<path class="st5" d="M399.73,399.32c-1.83-0.72-3.57-1.61-5.21-2.69c-0.02-4.85,0.75-9.69,2.27-14.29
							c2.23,1.84,4.68,3.41,7.26,4.71C402.02,390.89,400.55,395.04,399.73,399.32z"/>
						<path class="st5" d="M416.12,401.74c-0.45,0.02-0.91,0.06-1.36,0.07c-3.18,0.07-6.41-0.19-9.53-0.85
							c-0.28-4.33,0.02-8.7,0.86-12.96c4.37,1.89,9.09,3,13.87,3.19C418.24,394.5,416.95,398.07,416.12,401.74z"/>
						<path class="st5" d="M395.83,381.5c-2.65,3.39-4.52,7.44-5.49,11.67c-2.93-2.99-5.12-6.63-6.68-10.57
							c0.4-4.42,1.49-8.77,3.24-12.85c0.76,1.52,1.61,3,2.55,4.43C391.24,376.92,393.41,379.36,395.83,381.5z"/>
						<path class="st5" d="M381.69,350.49c0.49,6.21,1.97,12.3,4.56,17.89c-1.88,1.9-3.52,4.02-4.9,6.3
							c-0.13-0.65-0.25-1.3-0.35-1.94C379.81,365.37,380.08,357.78,381.69,350.49z"/>
					</g>
				</g>
				<path class="st8" d="M670.89,237.59l-26.27-10.93c-2.43-1.01-4.33-2.95-5.44-5.34c-4.61-9.9-15.03-17.47-25.79-19
					c-12.05-1.72-24.85,4.09-31.48,14.29c-9.15,14.06-4.07,34.9-4.2,51.68c-0.13,16.78-2.77,34.76-14.16,47.08
					c-11.58,12.52-29.64,16.47-46.63,18c-16.99,1.54-34.61,1.43-50.22,8.29c-15.31,6.72-27.54,20.12-32.83,35.98
					c-5.29,15.86-3.56,33.92,4.65,48.48c2.6,4.66,14.62,3.4,14.62,3.4l122.11-0.33c26.94-0.07,78.01-47.74,64.83-90.75
					C629.51,304,628.12,278.67,629.65,264c0.53-5.1,4.87-8.95,10-8.96l9.56-0.03c4.87-0.01,9.47-2.23,12.52-6.02L670.89,237.59z"/>
				<path class="st1" d="M673.06,234.69c0.56,0.32,1.11,0.69,1.49,1.21c0.38,0.52,0.57,1.22,0.35,1.83
					c-0.26,0.69-0.96,1.1-1.65,1.37c-2.31,0.93-4.97,0.96-7.3,0.08c-1.73-0.65-5.18-2.52-4.28-4.86c0.91-2.36,4.87-1.71,6.77-1.34
					C670.06,233.3,671.63,233.87,673.06,234.69z"/>
				<g>
					<path class="st1" d="M614.11,222.11c0.69-1.04,1.93-1.98,3.49-2.43c1.55-0.46,3.4-0.41,5.06,0.29c1.66,0.69,3,1.98,3.76,3.41
						c0.78,1.42,0.98,2.98,0.72,4.19c-1.2-2.17-3.13-4.2-5.49-5.18C619.3,221.4,616.5,221.44,614.11,222.11z"/>
				</g>
				<path class="st5" d="M576.5,339.63c-4.08,11.88-7.03,24.15-8.8,36.58c-0.14,1.02-1.6,1.03-1.76,0.01
					c-1.68-10.66,0.09-21.85,5.15-31.4c-5.17,5.59-9.76,11.72-13.7,18.24c-0.52,0.86-1.85,0.34-1.63-0.64
					c1.34-6.28,4.59-12.17,9.25-16.56c2.81-2.65,6.68-5.15,10.2-7.28C575.92,338.14,576.77,338.84,576.5,339.63z"/>
				<path class="st5" d="M609.72,258.58c-0.12-1.08,1.43-1.4,1.74-0.36l2.24,7.36c0.99,3.25,1.98,6.52,2.29,9.9
					c0.23,2.45,0.08,4.97-0.65,7.31c-0.27,0.88-1.52,0.83-1.73-0.07C611.82,274.87,610.64,266.68,609.72,258.58z"/>
				<g>
					<path class="st37" d="M605.26,262.61c3.05,9.62,6.12,19.34,6.86,29.41c0.74,10.06-1.41,23.19-7.34,31.35
						c-2.75,3.78-6.8,7.14-11.47,7.12c-4.94-0.03-9.01-3.73-12.33-7.4c-4.34-4.8-8.29-9.94-11.83-15.34
						c6.7-11.51,8.45-25.88,8.56-39.45c0.1-13.03-2.93-28.5-0.01-41.36l17.48-1.03C598.97,237.88,601.46,250.64,605.26,262.61z"/>
					<path class="st5" d="M531.48,407.82c-0.31-9.48,0.96-19.11,3.5-28.31c0.27-1,1.76-0.79,1.75,0.24
						c-0.07,7.78,0.86,15.64,2.69,23.26c0.7,2.93,4.97,2.62,5.26-0.38c0.92-9.67,2.66-19.26,5.04-28.7
						c0.26-1.02,1.75-0.83,1.75,0.22c0,10.63,1.32,21.3,3.39,31.77c0.52,2.66,4.21,2.96,5.14,0.41c3.16-8.67,8.08-21.4,11.59-26.96
						c5.58-8.84,31.44-20.65,38.58-17.7c7.13,2.95,9.84,15.11,6.53,33.22c4.29-5.71,7.87-11.86,9.92-18.68
						c3.53-11.74,2.84-25.45-3.07-36.19c-0.42-0.77,0.43-1.62,1.21-1.2c2.14,1.13,4.17,2.38,5.92,3.92c1.25,1.1,3.18,0.09,2.96-1.57
						c-2.04-15.27-6.82-30.52-14.43-43.86c-0.49-0.85,0.56-1.74,1.33-1.13c0.88,0.71,1.76,1.41,2.64,2.11
						c1.28,1.03,3.13-0.05,2.88-1.67c-1.85-11.74-1.96-23.64-1.46-35.55c0.22-5.23,4.53-9.36,9.76-9.37l11.43-0.03
						c6.4-0.02,12.67-1.86,18.05-5.32l0.03-0.02l-2.12,2.63c-3.05,3.8-7.65,6.01-12.52,6.02l-9.56,0.03
						c-5.13,0.01-9.47,3.87-10,8.96c-1.53,14.67-0.14,40,10.42,74.44c13.18,43-37.89,90.67-64.83,90.75l-122.11,0.33
						c0,0-5.86,0.61-10.29-0.61C469.84,414.16,501.1,405.8,531.48,407.82z"/>
				</g>
				<g>
					<path class="st8" d="M583.99,216.65c5.96-2.1,11.91,2.99,11.18,9.26c-1.18,10.24,1.52,20.88,4.73,30.84
						c3.9,12.1,8.61,24.35,8.05,37.06c-0.44,9.96-4.33,19.7-10.71,27.36c-3.26,3.91-9.17,4.23-12.86,0.74
						c-6.26-5.91-12.3-12.34-15.42-20.05c-3.74-9.22-3.72-19.53-3-29.43c0.99-13.71,3.42-27.29,7.35-40.46
						c1.51-5.05,3.47-10.21,7.51-13.56C581.72,217.65,582.81,217.06,583.99,216.65z"/>
					<path class="st5" d="M571.64,299.42c1.14,1.93,4.03,1.44,4.48-0.76c0.59-2.91,1.37-5.78,2.34-8.62
						c-0.05,5.06-0.1,10.19,1.21,15.08c0.76,2.85,2,5.47,3.78,7.64c1.51,1.84,4.5,0.65,4.37-1.73c-0.37-6.32-0.78-12.75-1.1-18.97
						c1.74,5.86,3.71,11.77,5.57,17.66c0.87,2.75,4.76,2.75,5.63,0c0.87-2.77,1.18-5.76,1.02-8.67c-0.29-5.42-1.45-11.02-3.14-16.18
						c2.28,3.06,4.17,6.71,5.47,10.47c0.35,1,1.82,0.78,1.84-0.28c0.28-10.54-2.96-21.06-5.67-31.36
						c-2.73-10.38-4.9-21.51-2.55-31.81c0.16,8.35,2.41,16.83,5,24.86c3.9,12.1,8.61,24.35,8.05,37.06
						c-0.44,9.96-4.33,19.7-10.71,27.36c-3.26,3.91-9.17,4.23-12.86,0.74c-6.26-5.91-12.3-12.34-15.42-20.05
						c-1.99-4.92-2.91-10.15-3.23-15.47C567.22,290.92,569.2,295.29,571.64,299.42z"/>
				</g>
				<path class="st5" d="M456.27,395.79l-3.84,33.79c-2.6,0.18-11.7,0.52-13.92-3.46c-1.35-2.39-2.5-4.87-3.49-7.42
					C438.71,411.75,447.7,399.28,456.27,395.79z"/>
				<g>
					<path class="st8" d="M567.79,394l-4.93,22.32c-1.83,8.28,4.49,16.12,12.97,16.1l66.54-0.18c3.92-0.01,6.41-4.19,4.56-7.64
						l-1.91-3.58c-2-3.75-5.91-6.08-10.16-6.07l-37.99,0.1c18.42-22.22,25.44-58.75,4.65-63.44
						C580.73,346.92,572.63,372.11,567.79,394z"/>
					<g>
						<path class="st5" d="M641.64,423.44c-0.78-1.53-1.87-2.78-3-3.72c1.37,0.53,2.83,1.62,3.91,3.18
							c1.08,1.55,1.76,3.57,1.71,5.63c-0.03,1.3-0.35,2.57-0.87,3.71l-1.36,0c0.49-1.17,0.8-2.45,0.83-3.74
							C642.88,426.73,642.42,424.95,641.64,423.44z"/>
						<path class="st5" d="M636.11,429.46c0.31-1.54,0.16-3.18-0.31-4.62c-0.46-1.46-1.25-2.72-2.12-3.7c1.14,0.66,2.28,1.82,3,3.35
							c0.73,1.52,1.02,3.41,0.66,5.21c-0.18,0.91-0.51,1.77-0.93,2.55l-1.32,0C635.54,431.37,635.92,430.43,636.11,429.46z"/>
					</g>
				</g>
				<g>
					<path class="st8" d="M471.33,358.45c15.29-6.04,34.15-1.53,45.05,10.78c10.9,12.31,13.1,31.57,5.25,46.02l15.96-0.04
						c3.83-0.01,7.2,2.5,8.3,6.16l1.81,6.05c0.76,2.53-1.13,5.08-3.77,5.08l-90.87,0.25c-8.05,0.02-13.76-8.02-10.91-15.55
						c4.77-12.59,14.13-21.41,14.13-21.41C451.77,378.88,456.68,364.83,471.33,358.45z"/>
					<path class="st5" d="M483.76,355.84c12.12-0.56,24.55,4.28,32.62,13.39c10.9,12.31,13.1,31.57,5.25,46.02l-10.76,0.03
						C521.94,395.61,520.5,364.17,483.76,355.84z"/>
					<g>
						<path class="st5" d="M541.7,429.26c-0.35-2.08-1.05-4.1-1.96-5.9c-0.9-1.8-2.01-3.38-3.1-4.7c1.44,0.91,2.94,2.29,4.15,4.08
							c1.21,1.78,2.12,3.96,2.51,6.24c0.2,1.17,0.26,2.36,0.19,3.52l-1.52,0C541.97,431.43,541.89,430.34,541.7,429.26z"/>
						<path class="st5" d="M533.76,430.52c-0.26-3.58-1.39-7.02-2.61-9.6c0.97,1.04,1.91,2.44,2.62,4.08
							c0.71,1.64,1.19,3.51,1.34,5.41c0.06,0.71,0.05,1.42,0.02,2.12l-1.3,0C533.83,431.86,533.82,431.19,533.76,430.52z"/>
					</g>
				</g>
			</g>
		</g>
	</g>
</g>
</svg>
