<?xml version="1.0" encoding="utf-8"?>
<!-- Generator: Adobe Illustrator 28.0.0, SVG Export Plug-In . SVG Version: 6.00 Build 0)  -->
<svg version="1.1" xmlns="http://www.w3.org/2000/svg" xmlns:xlink="http://www.w3.org/1999/xlink" x="0px" y="0px"
	 viewBox="0 0 750 500" style="enable-background:new 0 0 750 500;" xml:space="preserve">
<style type="text/css">
	.st0{fill:#E3ECFF;}
	.st1{opacity:0.2;}
	.st2{fill:#EAA97D;}
	.st3{fill:none;stroke:#263238;stroke-width:0.4234;stroke-linecap:round;stroke-linejoin:round;stroke-miterlimit:10;}
	.st4{fill:#263238;}
	.st5{fill:#EAA97D;stroke:#263238;stroke-width:0.8467;stroke-linecap:round;stroke-linejoin:round;stroke-miterlimit:10;}
	.st6{fill:#FFFFFF;stroke:#263238;stroke-width:0.8467;stroke-miterlimit:10;}
	.st7{fill:#FFFFFF;}
	.st8{opacity:0.33;}
	.st9{fill:none;stroke:#263238;stroke-width:0.8467;stroke-linecap:round;stroke-linejoin:round;stroke-miterlimit:10;}
	.st10{fill:#FFFFFF;stroke:#263238;stroke-width:0.8467;stroke-linecap:round;stroke-linejoin:round;stroke-miterlimit:10;}
	.st11{fill:#263238;stroke:#263238;stroke-width:0.8467;stroke-linecap:round;stroke-linejoin:round;stroke-miterlimit:10;}
	.st12{fill:#9C9C9C;stroke:#263238;stroke-width:0.8467;stroke-miterlimit:10;}
	.st13{fill:#CFCFCF;stroke:#263238;stroke-width:0.8467;stroke-miterlimit:10;}
	.st14{fill:#263238;stroke:#263238;stroke-width:0.8467;stroke-miterlimit:10;}
	.st15{fill:#CFCFCF;}
	.st16{opacity:0.37;fill:#FFFFFF;}
	.st17{fill:none;stroke:#263238;stroke-width:0.8467;stroke-miterlimit:10;}
</style>
<g id="BACKGROUND">
</g>
<g id="OBJECTS">
</g>
<g id="Background_Simple">
	<g>
		<path class="st0" d="M574.3,242.51c-0.47-33-13.44-64.86-33.19-89.46c-11.55-14.39-25.46-26.99-40.63-36.81
			c-15.75-10.19-32.88-21.59-51.88-23.34c-4.69-0.43-9.5-0.22-14.13,1.15c-17.72,5.28,17.35,24.11,21.93,26.87
			c-49.02-20.97-99.76-42.27-153.35-40.26c-10.33,0.39-21.05,1.78-30.13,7.51c-9.08,5.73-16.11,16.79-14.76,27.76
			c1.12,9.06,7.24,19.19,1.5,26.27c-1.64,2.03-3.97,3.22-6.25,4.26c-11.72,5.33-24.38,8.13-35.48,14.92
			c-17.2,10.51-28.93,29.82-34.37,50.13c-5.44,20.32-5.18,41.66-3.04,62.33c4.02,38.89,14.95,77.48,37.06,107.72
			c31.59,43.2,83.37,65.21,135.24,68.84c62.77,4.39,130.82-18.6,172.32-71.79c6.16-7.89,11.8-16.63,14.04-26.53
			c2.24-9.89,0.47-21.17-6.43-27.67c-1.86-1.75-4.25-3.61-4.05-6.33c0.27-3.68,4.69-4.92,8.06-5.69
			c22.09-5.07,34.73-31.86,37.01-55.97C574.19,251.77,574.37,247.13,574.3,242.51z"/>
	</g>
</g>
<g id="Paw_Prints">
	<g class="st1">
		<path d="M221.59,111.78c0,0-1.96,3.37-3.35,7.61c-1.39,4.24-5.17,7.8-10.2,5.43c-5.03-2.37-9.88-4.71-12.9-6.71
			c-3.02-1.99-4.85-7-1.9-10.62c2.95-3.62,5.69-2.43,11.02-4.1c5.33-1.67,7.51-4.94,10.68-5.33c3.18-0.39,8.21,1.98,8.67,6.39
			C224.07,108.86,221.59,111.78,221.59,111.78z"/>
		<path d="M201.5,132.02c0,0-0.43,3.64-2.74,5.52c-2.3,1.88-5.37-1.27-7.07-4.35c-1.7-3.08-0.62-8.2,1.9-10.24
			c2.51-2.04,6.52-0.3,7.3,1.67C201.67,126.59,201.5,132.02,201.5,132.02z"/>
		<path d="M211.57,145c0,0-4.9-2.5-7.01-5.98c-2.11-3.48-2.16-7.49,0.81-9.77c2.97-2.29,6.71-0.01,8.78,2.59
			c2.07,2.59,3.26,7.82,2.81,10.66C216.52,145.34,212.67,145.33,211.57,145z"/>
		<path d="M222.86,141.43c0,0-2.03-1.71-3.88-6c-1.85-4.28-1.65-7.84-0.26-10.03c1.39-2.19,5.02-3.09,7.88-1.04
			c2.86,2.05,4.06,7.81,3.37,10.47c-0.69,2.66-2.59,6.19-4.03,6.95C224.51,142.56,223.73,142.38,222.86,141.43z"/>
		<path d="M230.96,124.82c0,0-5.1-3.06-6.8-6.41c-1.7-3.35,0.2-7.15,2.2-7.84c2-0.69,5.45-0.29,8.34,3.64
			c2.89,3.92,1.41,9.72,0.16,10.51C233.62,125.5,230.96,124.82,230.96,124.82z"/>
	</g>
	<g class="st1">
		<path d="M301.82,217.24c0,0-1.96,3.37-3.35,7.61c-1.39,4.24-5.17,7.8-10.2,5.43c-5.03-2.37-9.88-4.71-12.9-6.71
			c-3.02-1.99-4.85-7-1.9-10.62c2.95-3.62,5.69-2.43,11.02-4.1c5.33-1.67,7.51-4.94,10.68-5.33c3.18-0.39,8.21,1.98,8.67,6.39
			C304.3,214.32,301.82,217.24,301.82,217.24z"/>
		<path d="M281.73,237.49c0,0-0.43,3.64-2.74,5.52c-2.3,1.88-5.37-1.27-7.07-4.35c-1.7-3.08-0.62-8.2,1.9-10.24
			c2.51-2.04,6.52-0.3,7.3,1.67C281.9,232.06,281.73,237.49,281.73,237.49z"/>
		<path d="M291.8,250.46c0,0-4.9-2.5-7.01-5.98c-2.11-3.48-2.16-7.49,0.81-9.77c2.97-2.29,6.71-0.01,8.78,2.59
			c2.07,2.59,3.26,7.82,2.81,10.66C296.75,250.8,292.9,250.8,291.8,250.46z"/>
		<path d="M303.09,246.89c0,0-2.03-1.71-3.88-6c-1.85-4.28-1.65-7.84-0.26-10.03c1.39-2.18,5.02-3.09,7.88-1.04
			c2.86,2.05,4.06,7.81,3.37,10.47c-0.69,2.66-2.59,6.19-4.03,6.95C304.74,248.02,303.96,247.84,303.09,246.89z"/>
		<path d="M311.19,230.28c0,0-5.1-3.06-6.8-6.41c-1.7-3.35,0.2-7.15,2.2-7.84c2-0.69,5.45-0.29,8.34,3.64
			c2.89,3.92,1.41,9.72,0.16,10.51C313.85,230.97,311.19,230.28,311.19,230.28z"/>
	</g>
	<g class="st1">
		<path d="M370.82,137.52c0,0-3.63-1.41-8.04-2.12c-4.41-0.71-8.51-3.89-6.96-9.23c1.55-5.34,3.11-10.49,4.61-13.79
			c1.5-3.3,6.16-5.89,10.19-3.54c4.04,2.35,3.29,5.24,5.77,10.25c2.49,5,6.05,6.64,6.93,9.72c0.88,3.08-0.67,8.42-4.95,9.56
			C374.09,139.51,370.82,137.52,370.82,137.52z"/>
		<path d="M347.69,120.84c0,0-3.67,0.14-5.88-1.84c-2.21-1.98,0.41-5.5,3.19-7.66c2.78-2.16,8.01-1.89,10.41,0.28
			c2.41,2.17,1.31,6.4-0.51,7.47C353.08,120.16,347.69,120.84,347.69,120.84z"/>
		<path d="M336.44,132.81c0,0,1.71-5.23,4.81-7.85c3.11-2.62,7.06-3.3,9.78-0.73c2.72,2.57,1.06,6.63-1.18,9.08
			c-2.24,2.45-7.22,4.44-10.09,4.45C336.88,137.75,336.28,133.95,336.44,132.81z"/>
		<path d="M341.73,143.41c0,0,1.37-2.27,5.32-4.77s7.49-2.86,9.86-1.83c2.38,1.03,3.83,4.47,2.26,7.62
			c-1.58,3.15-7.08,5.23-9.81,4.97c-2.73-0.26-6.52-1.6-7.5-2.89C340.88,145.21,340.93,144.41,341.73,143.41z"/>
		<path d="M359.41,148.82c0,0,2.23-5.51,5.27-7.72c3.04-2.2,7.09-0.92,8.09,0.95c1,1.86,1.13,5.34-2.29,8.81
			c-3.42,3.46-9.38,2.91-10.36,1.8C359.14,151.55,359.41,148.82,359.41,148.82z"/>
	</g>
	<g class="st1">
		<path d="M481.43,116.24c0,0,2.27-3.17,4.04-7.27c1.78-4.1,5.87-7.29,10.66-4.46c4.79,2.83,9.4,5.61,12.22,7.87
			c2.82,2.27,4.18,7.42,0.91,10.75c-3.27,3.33-5.89,1.89-11.35,3.06c-5.46,1.17-7.93,4.22-11.13,4.31c-3.2,0.09-7.99-2.73-8.04-7.16
			C478.69,118.92,481.43,116.24,481.43,116.24z"/>
		<path d="M503.31,97.94c0,0,0.77-3.59,3.24-5.24c2.47-1.65,5.23,1.76,6.63,4.99c1.41,3.23-0.15,8.23-2.84,10.02
			s-6.52-0.31-7.11-2.34C502.64,103.34,503.31,97.94,503.31,97.94z"/>
		<path d="M494.49,84.09c0,0,4.65,2.95,6.42,6.61c1.77,3.66,1.45,7.66-1.71,9.66c-3.17,2-6.69-0.62-8.5-3.39
			c-1.82-2.78-2.52-8.09-1.81-10.88C489.59,83.29,493.43,83.66,494.49,84.09z"/>
		<path d="M482.91,86.6c0,0,1.86,1.89,3.3,6.33c1.44,4.44,0.92,7.96-0.67,10.01c-1.59,2.05-5.28,2.61-7.94,0.3
			c-2.66-2.31-3.32-8.15-2.39-10.74c0.93-2.58,3.16-5.92,4.66-6.55C481.38,85.32,482.14,85.57,482.91,86.6z"/>
		<path d="M473.3,102.38c0,0,4.79,3.52,6.17,7.01c1.38,3.49-0.86,7.1-2.92,7.6c-2.05,0.51-5.46-0.22-7.97-4.39
			c-2.51-4.17-0.5-9.81,0.81-10.48C470.72,101.45,473.3,102.38,473.3,102.38z"/>
	</g>
	<g class="st1">
		<path d="M427.72,179.65c0,0,2.27-3.17,4.04-7.27c1.78-4.1,5.87-7.29,10.66-4.46c4.79,2.83,9.4,5.61,12.22,7.87
			c2.82,2.27,4.18,7.42,0.91,10.75c-3.27,3.33-5.89,1.89-11.35,3.06c-5.46,1.17-7.93,4.22-11.13,4.31c-3.2,0.09-7.99-2.73-8.04-7.16
			C424.99,182.32,427.72,179.65,427.72,179.65z"/>
		<path d="M449.61,161.35c0,0,0.77-3.59,3.24-5.24c2.47-1.65,5.23,1.76,6.63,4.99c1.41,3.23-0.15,8.23-2.84,10.02
			c-2.69,1.8-6.52-0.31-7.11-2.34C448.93,166.75,449.61,161.35,449.61,161.35z"/>
		<path d="M440.79,147.5c0,0,4.65,2.95,6.42,6.61c1.77,3.66,1.45,7.66-1.71,9.66c-3.17,2-6.69-0.62-8.5-3.39
			c-1.82-2.78-2.52-8.09-1.81-10.88C435.89,146.7,439.72,147.06,440.79,147.5z"/>
		<path d="M429.21,150.01c0,0,1.86,1.89,3.3,6.33c1.44,4.44,0.92,7.96-0.67,10.01c-1.59,2.05-5.28,2.61-7.94,0.3
			c-2.66-2.31-3.32-8.15-2.39-10.74c0.93-2.58,3.16-5.92,4.66-6.55C427.67,148.73,428.43,148.98,429.21,150.01z"/>
		<path d="M419.6,165.79c0,0,4.79,3.52,6.17,7.01c1.38,3.49-0.86,7.1-2.92,7.6c-2.05,0.51-5.46-0.22-7.97-4.39
			c-2.51-4.17-0.5-9.81,0.81-10.48C417.02,164.86,419.6,165.79,419.6,165.79z"/>
	</g>
	<g class="st1">
		<path d="M334.26,309.96c0,0-0.92,3.79-1.05,8.25c-0.13,4.46-2.74,8.95-8.24,8.11c-5.5-0.84-10.81-1.71-14.28-2.76
			c-3.46-1.05-6.64-5.33-4.85-9.64c1.8-4.31,4.77-3.95,9.4-7.07c4.63-3.12,5.79-6.87,8.73-8.15c2.94-1.28,8.44-0.44,10.13,3.66
			C335.8,306.46,334.26,309.96,334.26,309.96z"/>
		<path d="M320.75,335.09c0,0,0.62,3.62-1.05,6.07c-1.67,2.45-5.51,0.31-8.01-2.16c-2.5-2.47-2.92-7.69-1.09-10.36
			c1.83-2.67,6.17-2.14,7.47-0.47C319.37,329.83,320.75,335.09,320.75,335.09z"/>
		<path d="M334.09,344.67c0,0-5.41-1.01-8.42-3.74c-3.01-2.73-4.2-6.57-2-9.6c2.19-3.03,6.44-1.92,9.15-0.02
			c2.72,1.9,5.35,6.57,5.73,9.42C338.94,343.58,335.24,344.67,334.09,344.67z"/>
		<path d="M343.91,338.03c0,0-2.43-1.06-5.42-4.65c-2.99-3.58-3.82-7.05-3.1-9.54s3.93-4.39,7.26-3.24
			c3.33,1.15,6.11,6.33,6.21,9.08c0.1,2.74-0.73,6.67-1.89,7.81C345.81,338.64,345.01,338.7,343.91,338.03z"/>
		<path d="M346.95,319.8c0,0-5.76-1.49-8.34-4.21c-2.58-2.73-1.84-6.91-0.12-8.14c1.72-1.23,5.15-1.82,9.03,1.12
			c3.88,2.94,4.12,8.92,3.15,10.03C349.7,319.71,346.95,319.8,346.95,319.8z"/>
	</g>
	<g class="st1">
		<path d="M544.54,194.79c0,0-0.92,3.79-1.05,8.25c-0.12,4.46-2.74,8.95-8.24,8.11c-5.5-0.84-10.81-1.71-14.28-2.76
			c-3.46-1.05-6.64-5.33-4.85-9.64c1.8-4.31,4.77-3.95,9.4-7.07c4.63-3.12,5.79-6.87,8.73-8.15c2.94-1.28,8.44-0.44,10.13,3.66
			C546.09,191.29,544.54,194.79,544.54,194.79z"/>
		<path d="M531.04,219.92c0,0,0.62,3.62-1.05,6.07c-1.67,2.45-5.51,0.31-8.01-2.16c-2.5-2.47-2.92-7.69-1.09-10.36
			c1.83-2.67,6.17-2.14,7.47-0.47C529.65,214.66,531.04,219.92,531.04,219.92z"/>
		<path d="M544.38,229.5c0,0-5.41-1.01-8.42-3.74c-3.01-2.73-4.2-6.57-2-9.6c2.19-3.03,6.44-1.92,9.15-0.02
			c2.72,1.9,5.35,6.57,5.73,9.42C549.22,228.41,545.53,229.5,544.38,229.5z"/>
		<path d="M554.19,222.86c0,0-2.43-1.06-5.42-4.65c-2.99-3.58-3.82-7.05-3.1-9.54c0.71-2.49,3.93-4.39,7.26-3.24
			c3.33,1.15,6.11,6.33,6.21,9.08c0.1,2.74-0.73,6.67-1.89,7.81C556.09,223.47,555.29,223.53,554.19,222.86z"/>
		<path d="M557.24,204.63c0,0-5.76-1.49-8.34-4.21c-2.58-2.73-1.84-6.91-0.12-8.14c1.72-1.23,5.15-1.82,9.03,1.12
			c3.88,2.94,4.12,8.92,3.15,10.03C559.98,204.53,557.24,204.63,557.24,204.63z"/>
	</g>
</g>
<g id="Plant">
	<g>
		<g>
			<g>
				<g>
					<path class="st2" d="M288.76,101.95c0,0,0-6.9-9.66-16.55c-9.66-9.66-15.86-15.17-15.86-15.17s-4.83,15.86,4.14,25.52
						c8.97,9.66,21.38,18.62,21.38,18.62V101.95z"/>
					<path class="st2" d="M274.75,145.02c0,0,0-6.9-9.66-16.55c-9.66-9.66-15.86-15.17-15.86-15.17s-4.83,15.86,4.14,25.52
						c8.97,9.66,21.38,18.62,21.38,18.62V145.02z"/>
					<path class="st2" d="M288.16,113.69c0,0,0.73-6.86,11.35-15.44c10.62-8.58,17.38-13.41,17.38-13.41s3.12,16.29-6.81,24.94
						c-9.94,8.65-23.23,16.26-23.23,16.26L288.16,113.69z"/>
					<path class="st2" d="M271.23,164.56c0,0,1.45-6.74,12.91-14.16c11.47-7.42,18.69-11.51,18.69-11.51s1.4,16.52-9.39,24.09
						c-10.79,7.56-24.81,13.73-24.81,13.73L271.23,164.56z"/>
					<path class="st2" d="M274.41,220.03c0,0,0-6.9,9.66-16.55c9.66-9.66,15.86-15.17,15.86-15.17s4.83,15.86-4.14,25.52
						c-8.97,9.66-21.38,18.62-21.38,18.62V220.03z"/>
					<path class="st2" d="M274.25,233.57c0,0,0.98-6.83-7.21-17.76c-8.19-10.93-13.55-17.27-13.55-17.27s-7.03,15.02,0.47,25.85
						c7.5,10.83,18.52,21.47,18.52,21.47L274.25,233.57z"/>
					<path class="st2" d="M264.73,273.69c0,0,0-6.9,9.66-16.55c9.66-9.66,15.86-15.17,15.86-15.17s4.83,15.86-4.14,25.52
						c-8.97,9.66-21.38,18.62-21.38,18.62V273.69z"/>
					<path class="st2" d="M271.18,310.07c0,0-1.75-6.67,5.15-18.46c6.9-11.79,11.5-18.7,11.5-18.7s8.69,14.12,2.46,25.74
						c-6.23,11.61-15.97,23.43-15.97,23.43L271.18,310.07z"/>
				</g>
				<path class="st3" d="M289.64,100.18c-0.57,7.37-1.4,15-2.64,21.42c-3.82,19.72-13.36,32.44-17.18,50.26
					c-3.82,17.81,7.14,40.76,4.21,63.64c-2.93,22.88-11.84,35.6-9.3,50.87c2.54,15.27,15.9,56.62,15.9,56.62"/>
				<line class="st3" x1="288.06" y1="118.28" x2="298.47" y2="110.29"/>
				<line class="st3" x1="288.55" y1="109.08" x2="284.19" y2="101.34"/>
				<path class="st3" d="M270.4,171.03c0,0,8.71-6.53,17.67-13.07"/>
				<path class="st3" d="M274.75,157.44c0,0-7.26-14.23-15.49-23.67"/>
				<path class="st3" d="M274.75,229.84c0,0,6.78-13.31,18.63-24.93"/>
				<path class="st3" d="M273.06,239.52c0,0-4.36-10.41-9.44-17.91c-5.08-7.5-5.81-8.47-5.81-8.47"/>
				<path class="st3" d="M264.73,286.36c0,0,3.49-8.85,7.85-15.87c4.36-7.02,10.16-13.31,10.16-13.31"/>
				<path class="st3" d="M274.32,322.08c0,0-1.02-8.26,2.61-15.28c3.63-7.02,7.74-16.21,9.44-19.84"/>
			</g>
			<g>
				<g>
					<path class="st2" d="M225.53,194.09c0,0-0.75-4.33,4.26-11.43c5.01-7.1,8.3-11.24,8.3-11.24s4.75,9.42,0.18,16.45
						c-4.57,7.03-11.39,14-11.39,14L225.53,194.09z"/>
					<path class="st2" d="M239,219.58c0,0-0.75-4.33,4.26-11.43c5.01-7.1,8.3-11.24,8.3-11.24s4.75,9.42,0.18,16.45
						c-4.57,7.03-11.39,14-11.39,14L239,219.58z"/>
					<path class="st2" d="M227.19,201.39c0,0-1.2-4.22-8.79-8.45c-7.59-4.23-12.35-6.52-12.35-6.52s-0.19,10.55,6.98,14.9
						c7.17,4.35,16.33,7.67,16.33,7.67L227.19,201.39z"/>
					<path class="st2" d="M243.33,231.45c0,0-1.64-4.07-9.63-7.48c-8-3.41-12.97-5.19-12.97-5.19s0.92,10.51,8.51,14.08
						c7.59,3.57,17.05,5.92,17.05,5.92L243.33,231.45z"/>
					<path class="st2" d="M247.35,266.58c0,0-0.75-4.32-7.85-9.33c-7.1-5.01-11.6-7.79-11.6-7.79s-1.31,10.47,5.37,15.55
						c6.67,5.08,15.43,9.36,15.43,9.36L247.35,266.58z"/>
					<path class="st2" d="M248.92,275.05c0,0-1.36-4.18,2.59-11.92c3.95-7.74,6.62-12.3,6.62-12.3s6.04,8.65,2.51,16.26
						c-3.53,7.61-9.28,15.48-9.28,15.48L248.92,275.05z"/>
					<path class="st2" d="M261.04,309.94c0,0,0.5-4.36,7.31-9.77c6.81-5.4,11.13-8.44,11.13-8.44s1.9,10.38-4.47,15.83
						c-6.37,5.45-14.87,10.22-14.87,10.22L261.04,309.94z"/>
					<path class="st2" d="M259.25,299.18c0,0-0.75-4.33-7.85-9.33c-7.1-5.01-11.59-7.79-11.59-7.79s-1.31,10.47,5.37,15.55
						c6.67,5.08,15.43,9.36,15.43,9.36L259.25,299.18z"/>
					<path class="st2" d="M259.15,322.69c0,0,0.37-4.37-5.23-11.02c-5.6-6.64-9.24-10.48-9.24-10.48s-3.92,9.8,1.25,16.41
						c5.17,6.61,12.56,12.96,12.56,12.96L259.15,322.69z"/>
				</g>
				<path class="st3" d="M224.79,193.08c1.15,4.56,2.51,9.25,3.98,13.14c4.53,11.95,11.9,18.9,16.23,29.65
					c4.33,10.76-0.05,26.34,4.27,40.36c4.32,14.03,11.29,21.04,11.35,30.89c0.06,9.85-3.83,37.23-3.83,37.23"/>
				<line class="st3" x1="227.75" y1="204.25" x2="220.35" y2="200.38"/>
				<line class="st3" x1="226.44" y1="198.54" x2="228.33" y2="193.21"/>
				<path class="st3" d="M244.55,235.42c0,0-6.17-3.15-12.5-6.28"/>
				<path class="st3" d="M240.34,227.37c0,0,3.01-9.71,7.14-16.52"/>
				<path class="st3" d="M248.2,272.77c0,0-5.69-7.61-14.39-13.61"/>
				<path class="st3" d="M250.32,278.66c0,0,1.6-7,3.97-12.25c2.37-5.26,2.72-5.94,2.72-5.94"/>
				<path class="st3" d="M260.29,314.6c0,0,4.9-6.01,7.95-8.25c3.05-2.25,5.16-4.49,5.16-4.49"/>
				<path class="st3" d="M260.63,307.13c0,0-3.15-5.17-6.64-9.1c-3.49-3.93-7.82-7.24-7.82-7.24"/>
				<path class="st3" d="M258.49,330.56c0,0-0.26-5.29-3.3-9.3c-3.04-4.01-6.62-9.33-8.07-11.42"/>
			</g>
		</g>
		<g>
			<path class="st4" d="M289.91,424.42H247.4c-2.22,0-4.01-1.8-4.01-4.01l-6.32-80.83h63.17l-6.32,80.83
				C293.92,422.62,292.12,424.42,289.91,424.42z"/>
		</g>
	</g>
</g>
<g id="Pet_Food_3">
	<g>
		<path class="st5" d="M528.64,169.9H373.32c-2.12,0-3.91,1.59-4.15,3.71l-2.12,23.87h165.01l0.75-23.23
			C532.92,171.88,531.02,169.9,528.64,169.9z"/>
		<path class="st6" d="M551.08,274.74c-2.41-29.78-19.05-77.26-19.05-77.26h-84.5h-80.48c0,0-18.51,47.48-20.92,77.26
			c-2.41,29.78-1.52,135.71-0.79,143.02c0.73,7.32,13.9,6.58,13.9,6.58h88.53h93.54c0,0,13.17,0.73,13.9-6.58
			C555.94,410.45,553.5,304.52,551.08,274.74z"/>
		<path class="st5" d="M555.21,417.76c0.73-7.32-1.71-113.25-4.12-143.02c-1.1-13.52-5.12-30.69-9.2-45.41
			c-3.78,6.65-8.37,15.12-12.97,24.57c-10.9,22.4-73.24,58.11-134.98,75.66c-22.39,6.37-38.26,15.81-49.39,25.26
			c0.01,31.06,0.42,59.3,0.78,62.95c0.73,7.32,13.9,6.58,13.9,6.58h88.53h93.54C541.31,424.35,554.48,425.08,555.21,417.76z"/>
		<g>
			<path class="st4" d="M382.1,371.39v-22.32h5.46c1.89,0,3.37,0.24,4.42,0.73c1.06,0.49,1.81,1.25,2.25,2.29
				c0.44,1.04,0.66,2.37,0.66,3.98v8.13c0,1.65-0.22,3.01-0.66,4.08c-0.44,1.07-1.18,1.85-2.22,2.36c-1.04,0.51-2.48,0.76-4.34,0.76
				H382.1z M386.65,368.22h0.96c0.85,0,1.45-0.13,1.81-0.4c0.36-0.27,0.58-0.66,0.68-1.19c0.09-0.52,0.14-1.17,0.14-1.94v-9.2
				c0-0.77-0.06-1.39-0.18-1.86c-0.12-0.47-0.36-0.81-0.72-1.03c-0.36-0.22-0.94-0.33-1.75-0.33h-0.94V368.22z"/>
			<path class="st4" d="M404.12,371.69c-1.64,0-2.93-0.29-3.89-0.88c-0.96-0.59-1.64-1.43-2.05-2.52c-0.41-1.09-0.62-2.4-0.62-3.93
				v-8.32c0-1.53,0.21-2.83,0.62-3.91c0.41-1.08,1.1-1.91,2.05-2.48c0.95-0.57,2.25-0.86,3.89-0.86c1.65,0,2.96,0.29,3.93,0.87
				c0.96,0.58,1.65,1.41,2.07,2.48c0.41,1.07,0.62,2.37,0.62,3.9v8.32c0,1.53-0.21,2.83-0.62,3.93c-0.41,1.09-1.1,1.93-2.07,2.52
				C407.08,371.4,405.77,371.69,404.12,371.69z M404.12,368.42c0.59,0,1.02-0.13,1.29-0.4c0.28-0.27,0.46-0.62,0.55-1.07
				c0.09-0.45,0.14-0.93,0.14-1.45v-10.56c0-0.51-0.05-0.99-0.14-1.43c-0.09-0.44-0.28-0.8-0.55-1.06c-0.28-0.27-0.71-0.4-1.29-0.4
				c-0.55,0-0.96,0.13-1.24,0.4c-0.28,0.27-0.46,0.62-0.55,1.06c-0.09,0.44-0.14,0.92-0.14,1.43v10.56c0,0.51,0.04,1,0.12,1.45
				c0.08,0.45,0.26,0.81,0.54,1.07C403.13,368.28,403.55,368.42,404.12,368.42z"/>
			<path class="st4" d="M419.47,371.72c-1.51,0-2.7-0.32-3.58-0.95c-0.88-0.63-1.51-1.53-1.89-2.7c-0.38-1.17-0.57-2.52-0.57-4.07
				v-7.47c0-1.6,0.19-2.98,0.58-4.13c0.39-1.16,1.06-2.05,2.03-2.67c0.96-0.62,2.27-0.94,3.93-0.94c1.6,0,2.86,0.27,3.79,0.8
				c0.93,0.53,1.59,1.29,2,2.26c0.4,0.97,0.61,2.13,0.61,3.47v1.3h-4.44v-1.57c0-0.59-0.04-1.11-0.11-1.56
				c-0.07-0.45-0.24-0.8-0.51-1.06c-0.27-0.26-0.69-0.39-1.28-0.39c-0.61,0-1.05,0.16-1.32,0.47c-0.28,0.31-0.45,0.71-0.52,1.2
				c-0.07,0.49-0.11,1.01-0.11,1.56v9.89c0,0.62,0.06,1.19,0.17,1.68c0.11,0.5,0.32,0.88,0.62,1.16c0.3,0.28,0.74,0.41,1.31,0.41
				c0.57,0,1.01-0.15,1.32-0.44c0.31-0.29,0.53-0.69,0.65-1.2c0.12-0.51,0.18-1.08,0.18-1.72v-2.37h-2.18v-2.76h6.28v11.46h-2.98
				l-0.28-2.01c-0.29,0.68-0.73,1.24-1.32,1.68C421.25,371.5,420.46,371.72,419.47,371.72z"/>
			<path class="st4" d="M436.42,371.39v-22.32h9.43v3.09h-4.88v6.04h4.13v3.17h-4.13v10.03H436.42z"/>
			<path class="st4" d="M454.36,371.69c-1.64,0-2.93-0.29-3.89-0.88c-0.96-0.59-1.64-1.43-2.05-2.52c-0.41-1.09-0.62-2.4-0.62-3.93
				v-8.32c0-1.53,0.21-2.83,0.62-3.91c0.41-1.08,1.1-1.91,2.05-2.48c0.95-0.57,2.25-0.86,3.89-0.86c1.65,0,2.96,0.29,3.93,0.87
				c0.96,0.58,1.65,1.41,2.07,2.48c0.41,1.07,0.62,2.37,0.62,3.9v8.32c0,1.53-0.21,2.83-0.62,3.93c-0.41,1.09-1.1,1.93-2.07,2.52
				C457.32,371.4,456.01,371.69,454.36,371.69z M454.36,368.42c0.59,0,1.02-0.13,1.29-0.4c0.28-0.27,0.46-0.62,0.55-1.07
				c0.09-0.45,0.14-0.93,0.14-1.45v-10.56c0-0.51-0.05-0.99-0.14-1.43c-0.09-0.44-0.28-0.8-0.55-1.06c-0.28-0.27-0.71-0.4-1.29-0.4
				c-0.55,0-0.96,0.13-1.24,0.4c-0.28,0.27-0.46,0.62-0.55,1.06c-0.09,0.44-0.14,0.92-0.14,1.43v10.56c0,0.51,0.04,1,0.12,1.45
				c0.08,0.45,0.26,0.81,0.54,1.07C453.37,368.28,453.79,368.42,454.36,368.42z"/>
			<path class="st4" d="M470.23,371.69c-1.64,0-2.93-0.29-3.89-0.88c-0.96-0.59-1.64-1.43-2.05-2.52c-0.41-1.09-0.62-2.4-0.62-3.93
				v-8.32c0-1.53,0.21-2.83,0.62-3.91c0.41-1.08,1.1-1.91,2.05-2.48c0.95-0.57,2.25-0.86,3.89-0.86c1.65,0,2.96,0.29,3.93,0.87
				c0.96,0.58,1.65,1.41,2.07,2.48c0.41,1.07,0.62,2.37,0.62,3.9v8.32c0,1.53-0.21,2.83-0.62,3.93c-0.41,1.09-1.1,1.93-2.07,2.52
				C473.2,371.4,471.89,371.69,470.23,371.69z M470.23,368.42c0.59,0,1.02-0.13,1.29-0.4c0.28-0.27,0.46-0.62,0.55-1.07
				c0.09-0.45,0.14-0.93,0.14-1.45v-10.56c0-0.51-0.05-0.99-0.14-1.43c-0.09-0.44-0.28-0.8-0.55-1.06c-0.28-0.27-0.71-0.4-1.29-0.4
				c-0.55,0-0.96,0.13-1.24,0.4c-0.28,0.27-0.46,0.62-0.55,1.06c-0.09,0.44-0.14,0.92-0.14,1.43v10.56c0,0.51,0.04,1,0.12,1.45
				c0.08,0.45,0.26,0.81,0.54,1.07C469.24,368.28,469.66,368.42,470.23,368.42z"/>
			<path class="st4" d="M479.88,371.39v-22.32h5.46c1.89,0,3.37,0.24,4.42,0.73c1.06,0.49,1.81,1.25,2.25,2.29
				c0.44,1.04,0.66,2.37,0.66,3.98v8.13c0,1.65-0.22,3.01-0.66,4.08c-0.44,1.07-1.18,1.85-2.22,2.36c-1.04,0.51-2.48,0.76-4.34,0.76
				H479.88z M484.43,368.22h0.96c0.85,0,1.45-0.13,1.81-0.4c0.36-0.27,0.58-0.66,0.68-1.19c0.09-0.52,0.14-1.17,0.14-1.94v-9.2
				c0-0.77-0.06-1.39-0.18-1.86c-0.12-0.47-0.36-0.81-0.72-1.03c-0.36-0.22-0.94-0.33-1.75-0.33h-0.94V368.22z"/>
		</g>
		<g>
			
				<ellipse transform="matrix(0.2378 -0.9713 0.9713 0.2378 67.7478 636.3842)" class="st4" cx="439.35" cy="275.03" rx="66.88" ry="66.88"/>
			<path class="st5" d="M395.12,269.66c1.37,1.37-0.98,17.42-0.59,37.77c0.11,5.73,0.22,11.17,0.38,16.26
				c11.72,10.71,27.31,17.26,44.44,17.26c15.98,0,30.63-5.69,42.05-15.16c-0.16-5.68-0.3-11.84-0.17-18.37
				c0.39-20.35-1.96-36.4-0.59-37.77c1.37-1.37,11.74-13.9,17.03-19.57c5.28-5.68,8.81-19.77,5.28-25.05s-22.51,2.15-29.36,9.39
				c-6.85,7.24-9.59,11.74-9.59,11.74c-7.74-1.13-21.44-0.93-26.04-0.82c-4.64-0.11-18.48-0.3-26.22,0.82c0,0-2.74-4.5-9.59-11.74
				c-6.85-7.24-25.83-14.68-29.36-9.39c-3.52,5.28,0,19.37,5.28,25.05C383.37,255.76,393.75,268.29,395.12,269.66z"/>
			<path class="st7" d="M408.52,320.5c7.18,4.17,16.32,8.51,15.67,17.36c-0.01,0.19-0.02,0.35-0.04,0.54
				c4.88,1.15,9.97,1.78,15.2,1.78c4.67,0,9.23-0.49,13.63-1.42c-0.02-0.3-0.04-0.59-0.06-0.9c-0.65-8.85,8.49-13.19,15.67-17.36
				c7.18-4.17,11.97-16.49,10.23-18.57c-1.74-2.08-18.72-0.69-20.02-3.82c-1.31-3.12-1.83-12.95-1.83-12.95l-18.41-5.19l-19.17,5.19
				c0,0,0.24,9.82-1.07,12.95c-1.31,3.12-18.28,1.74-20.02,3.82C396.55,304.01,401.34,316.33,408.52,320.5z"/>
			<path class="st8" d="M466.13,246.63c0,0,1.86,6.65,4.65,11.3c2.79,4.65,5.45,8.24,9.57,6.65c4.12-1.59,16.88-15.28,19.27-21.4
				c2.39-6.11,3.85-15.68,0.4-18.08C496.56,222.71,476.49,228.16,466.13,246.63z"/>
			<path class="st8" d="M409.22,246.63c0,0-1.86,6.65-4.65,11.3c-2.79,4.65-5.45,8.24-9.57,6.65c-4.12-1.59-16.88-15.28-19.27-21.4
				c-2.39-6.11-3.85-15.68-0.4-18.08C378.78,222.71,398.85,228.16,409.22,246.63z"/>
			<g>
				<g>
					<path class="st5" d="M439.26,306.64h-0.84c-2.73,0-4.95-2.21-4.95-4.95v-14.04h10.73v14.04
						C444.2,304.43,441.99,306.64,439.26,306.64z"/>
					<line class="st9" x1="438.64" y1="290.6" x2="438.64" y2="299.07"/>
				</g>
				<path class="st10" d="M443.73,272c-1.57-4.11,0.59-11.74-0.59-15.46c-1.17-3.72-3.52-2.94-3.52-2.94l-0.98,0.2l-0.98-0.2
					c0,0-2.35-0.78-3.52,2.94c-1.17,3.72,0.98,11.35-0.59,15.46c-1.57,4.11-13.7,11.35-13.7,14.87c0,3.52,6.46,9,9.2,10.18
					c2.74,1.17,9.59-6.46,9.59-6.46s6.85,7.63,9.59,6.46c2.74-1.17,9.2-6.65,9.2-10.18C457.43,283.35,445.3,276.11,443.73,272z"/>
				<path class="st4" d="M446.08,282.18c0,0-2.73-3.04-7.19-3.11c-4.9-0.08-8.66,1.94-8.27,3.7c0.39,1.76,5.48,5.48,7.44,6.07
					C440.01,289.42,445.69,284.92,446.08,282.18z"/>
				<g>
					<path class="st4" d="M450.52,268.91c0,1.67-0.95,3.02-2.13,3.02c-1.18,0-2.13-1.35-2.13-3.02c0-1.67,0.95-3.02,2.13-3.02
						C449.57,265.89,450.52,267.24,450.52,268.91z"/>
					<path class="st7" d="M449.39,267.73c0,0.31-0.25,0.56-0.56,0.56s-0.56-0.25-0.56-0.56c0-0.31,0.25-0.56,0.56-0.56
						S449.39,267.42,449.39,267.73z"/>
				</g>
				<g>
					<path class="st4" d="M429.69,268.91c0,1.67-0.95,3.02-2.13,3.02c-1.18,0-2.13-1.35-2.13-3.02c0-1.67,0.95-3.02,2.13-3.02
						C428.73,265.89,429.69,267.24,429.69,268.91z"/>
					<path class="st7" d="M428.67,267.73c0,0.31-0.25,0.56-0.56,0.56c-0.31,0-0.56-0.25-0.56-0.56c0-0.31,0.25-0.56,0.56-0.56
						C428.42,267.17,428.67,267.42,428.67,267.73z"/>
				</g>
			</g>
		</g>
		<g>
			<path class="st5" d="M529.57,406.13c1.01,10.62,0,13.65-1.52,15.16c-1.52,1.52-4.55,3.03-4.55,3.03l0.05,0.01h17.75
				c0,0,13.17,0.73,13.9-6.58c0.73-7.32-1.71-113.25-4.12-143.02c-2.41-29.78-19.05-77.26-19.05-77.26s0.98,58.56,0.43,76.91
				C531.9,292.74,528.56,395.52,529.57,406.13z"/>
			<path class="st11" d="M535.86,411.34c0,0,5.16,9.03,7.74-0.86c2.58-9.9-5.16-154.88-5.16-154.88L535.86,411.34z"/>
		</g>
	</g>
</g>
<g id="Pet_Food_2">
	<g>
		<g>
			<path class="st12" d="M304.66,386.94c0,2.43-1.97,4.39-4.39,4.39c-2.43,0-4.39-1.97-4.39-4.39c0-2.43,1.97-4.39,4.39-4.39
				C302.7,382.55,304.66,384.51,304.66,386.94z"/>
			<path class="st12" d="M318.52,388.2c0,2.43-1.97,4.39-4.39,4.39c-2.43,0-4.39-1.97-4.39-4.39c0-2.43,1.97-4.39,4.39-4.39
				C316.56,383.81,318.52,385.78,318.52,388.2z"/>
			<path class="st12" d="M313.86,382.29c0,2.43-1.97,4.39-4.39,4.39c-2.43,0-4.39-1.97-4.39-4.39c0-2.43,1.97-4.39,4.39-4.39
				C311.89,377.89,313.86,379.86,313.86,382.29z"/>
			<circle class="st12" cx="326.67" cy="386.15" r="4.39"/>
			<path class="st12" d="M338.1,386.73c0,2.43-1.97,4.39-4.39,4.39c-2.43,0-4.39-1.97-4.39-4.39c0-2.43,1.97-4.39,4.39-4.39
				C336.14,382.33,338.1,384.3,338.1,386.73z"/>
			<circle class="st13" cx="304.91" cy="384.21" r="4.39"/>
			<path class="st13" d="M327.09,381.12c0,2.43-1.97,4.39-4.39,4.39c-2.43,0-4.39-1.97-4.39-4.39c0-2.43,1.97-4.39,4.39-4.39
				C325.12,376.73,327.09,378.69,327.09,381.12z"/>
			<path class="st13" d="M327.82,389.4c0,2.43-1.97,4.39-4.39,4.39c-2.43,0-4.39-1.97-4.39-4.39c0-2.43,1.97-4.39,4.39-4.39
				C325.85,385.01,327.82,386.97,327.82,389.4z"/>
			<path class="st12" d="M312.12,388.86c0,2.43-1.97,4.39-4.39,4.39c-2.43,0-4.39-1.97-4.39-4.39c0-2.43,1.97-4.39,4.39-4.39
				C310.15,384.47,312.12,386.43,312.12,388.86z"/>
			<path class="st12" d="M362.41,381.62c0,2.43-1.97,4.39-4.39,4.39s-4.39-1.97-4.39-4.39c0-2.43,1.97-4.39,4.39-4.39
				S362.41,379.2,362.41,381.62z"/>
			<path class="st12" d="M349.91,386.15c0,2.43-1.97,4.39-4.39,4.39c-2.43,0-4.39-1.97-4.39-4.39c0-2.43,1.97-4.39,4.39-4.39
				C347.95,381.75,349.91,383.72,349.91,386.15z"/>
			<path class="st13" d="M361.04,388.04c0,2.43-1.97,4.39-4.39,4.39c-2.43,0-4.39-1.97-4.39-4.39c0-2.43,1.97-4.39,4.39-4.39
				C359.08,383.65,361.04,385.61,361.04,388.04z"/>
			<path class="st13" d="M350.57,377.16c0,2.43-1.97,4.39-4.39,4.39c-2.43,0-4.39-1.97-4.39-4.39c0-2.43,1.97-4.39,4.39-4.39
				C348.61,372.76,350.57,374.73,350.57,377.16z"/>
			<path class="st12" d="M363.14,378.12c0,2.43-1.97,4.39-4.39,4.39c-2.43,0-4.39-1.97-4.39-4.39c0-2.43,1.97-4.39,4.39-4.39
				C361.17,373.73,363.14,375.7,363.14,378.12z"/>
			<circle class="st12" cx="293.81" cy="390.74" r="4.39"/>
			<path class="st12" d="M339.57,380.04c0,2.43-1.97,4.39-4.39,4.39c-2.43,0-4.39-1.97-4.39-4.39c0-2.43,1.97-4.39,4.39-4.39
				C337.6,375.65,339.57,377.62,339.57,380.04z"/>
			<path class="st12" d="M354.86,387.85c0,2.43-1.97,4.39-4.39,4.39c-2.43,0-4.39-1.97-4.39-4.39c0-2.43,1.97-4.39,4.39-4.39
				C352.89,383.45,354.86,385.42,354.86,387.85z"/>
			<path class="st12" d="M343.06,380.85c0,2.43-1.97,4.39-4.39,4.39c-2.43,0-4.39-1.97-4.39-4.39c0-2.43,1.97-4.39,4.39-4.39
				C341.1,376.46,343.06,378.42,343.06,380.85z"/>
			<path class="st12" d="M344.81,388.36c0,2.43-1.97,4.39-4.39,4.39c-2.43,0-4.39-1.97-4.39-4.39c0-2.43,1.97-4.39,4.39-4.39
				C342.84,383.97,344.81,385.94,344.81,388.36z"/>
			<circle class="st12" cx="370.59" cy="388.19" r="4.39"/>
			<path class="st12" d="M370.15,383.75c0,2.43-1.97,4.39-4.39,4.39c-2.43,0-4.39-1.97-4.39-4.39c0-2.43,1.97-4.39,4.39-4.39
				C368.18,379.35,370.15,381.32,370.15,383.75z"/>
			<path class="st13" d="M357.66,379.52c0,2.43-1.97,4.39-4.39,4.39c-2.43,0-4.39-1.97-4.39-4.39c0-2.43,1.97-4.39,4.39-4.39
				C355.69,375.13,357.66,377.1,357.66,379.52z"/>
			<path class="st12" d="M365.67,380.93c0,2.43-1.97,4.39-4.39,4.39c-2.43,0-4.39-1.97-4.39-4.39c0-2.43,1.97-4.39,4.39-4.39
				C363.7,376.54,365.67,378.51,365.67,380.93z"/>
			<circle class="st13" cx="345.23" cy="382.62" r="4.39"/>
			<circle class="st12" cx="365.44" cy="389.14" r="4.39"/>
			<path class="st12" d="M383.74,386.94c0,2.43-1.97,4.39-4.39,4.39c-2.43,0-4.39-1.97-4.39-4.39c0-2.43,1.97-4.39,4.39-4.39
				C381.78,382.55,383.74,384.51,383.74,386.94z"/>
			<path class="st12" d="M393.99,388.04c0,2.43-1.97,4.39-4.39,4.39c-2.43,0-4.39-1.97-4.39-4.39c0-2.43,1.97-4.39,4.39-4.39
				C392.03,383.65,393.99,385.61,393.99,388.04z"/>
			<path class="st12" d="M393.99,383.65c0,2.43-1.97,4.39-4.39,4.39c-2.43,0-4.39-1.97-4.39-4.39c0-2.43,1.97-4.39,4.39-4.39
				C392.03,379.25,393.99,381.22,393.99,383.65z"/>
			<circle class="st12" cx="376.35" cy="381.51" r="4.39"/>
			<path class="st13" d="M374.56,382.67c0,2.43-1.97,4.39-4.39,4.39c-2.43,0-4.39-1.97-4.39-4.39c0-2.43,1.97-4.39,4.39-4.39
				C372.59,378.28,374.56,380.25,374.56,382.67z"/>
			<path class="st13" d="M387.33,383.6c0,2.43-1.97,4.39-4.39,4.39c-2.43,0-4.39-1.97-4.39-4.39c0-2.43,1.97-4.39,4.39-4.39
				C385.37,379.21,387.33,381.18,387.33,383.6z"/>
			<path class="st13" d="M379.37,388.19c0,2.43-1.97,4.39-4.39,4.39c-2.43,0-4.39-1.97-4.39-4.39c0-2.43,1.97-4.39,4.39-4.39
				C377.41,383.8,379.37,385.77,379.37,388.19z"/>
			<path class="st12" d="M321.59,381.9c0,2.43-1.97,4.39-4.39,4.39c-2.43,0-4.39-1.97-4.39-4.39c0-2.43,1.97-4.39,4.39-4.39
				C319.63,377.51,321.59,379.47,321.59,381.9z"/>
			<path class="st13" d="M402.41,384.01c0,2.43-1.97,4.39-4.39,4.39c-2.43,0-4.39-1.97-4.39-4.39c0-2.43,1.97-4.39,4.39-4.39
				C400.45,379.62,402.41,381.59,402.41,384.01z"/>
			<path class="st13" d="M398.34,388.86c0,2.43-1.97,4.39-4.39,4.39c-2.43,0-4.39-1.97-4.39-4.39c0-2.43,1.97-4.39,4.39-4.39
				C396.37,384.47,398.34,386.43,398.34,388.86z"/>
			<path class="st13" d="M333.84,384.81c-1.72,1.72-4.5,1.72-6.21,0c-1.72-1.72-1.72-4.5,0-6.21c1.72-1.72,4.5-1.72,6.21,0
				C335.55,380.32,335.55,383.1,333.84,384.81z"/>
			<path class="st12" d="M388.58,387.07c0,2.43-1.97,4.39-4.39,4.39c-2.43,0-4.39-1.97-4.39-4.39c0-2.43,1.97-4.39,4.39-4.39
				C386.61,382.68,388.58,384.65,388.58,387.07z"/>
			<path class="st12" d="M407.81,388.47c0,2.43-1.97,4.39-4.39,4.39c-2.43,0-4.39-1.97-4.39-4.39c0-2.43,1.97-4.39,4.39-4.39
				C405.85,384.08,407.81,386.05,407.81,388.47z"/>
		</g>
		<g>
			<path class="st13" d="M424.55,424.42H274.2l9.96-30.95c0.78-2.42,3.24-4.09,6.03-4.09h118.36c2.79,0,5.25,1.67,6.03,4.09
				L424.55,424.42z"/>
			<polygon class="st14" points="303.18,424.42 316.82,424.42 321.82,389.38 311.99,389.38 			"/>
			<polygon class="st14" points="335.71,424.42 340.51,424.42 341.08,389.38 337.94,389.38 			"/>
			<path class="st7" d="M288.87,424l6.13-29.32c0.17-0.79,0.51-1.54,1-2.18c0.56-0.72,1.33-1.75,1.95-2.7h-4.31
				c-1.07,1.1-1.97,1.04-2.88,3.34c-0.67,1.68-6.76,23.47-8.9,30.86H288.87z"/>
			<polygon class="st7" points="351.93,423.92 359.97,423.92 358.67,389.88 351.93,389.88 			"/>
			<path class="st14" d="M407.08,391.74c-0.35-0.81-1.76-1.68-3.13-2.35h-7.33c1.04,0.4,2.93,1.27,4.26,2.59
				c1.41,1.41,6.74,21.9,9.42,32.45h7.35C413.71,412.09,407.56,392.86,407.08,391.74z"/>
		</g>
		<path class="st12" d="M415.92,419.58c0,2.43-1.97,4.39-4.39,4.39c-2.43,0-4.39-1.97-4.39-4.39c0-2.43,1.97-4.39,4.39-4.39
			C413.95,415.19,415.92,417.16,415.92,419.58z"/>
		<path class="st12" d="M438.22,419.58c0,2.43-1.97,4.39-4.39,4.39c-2.43,0-4.39-1.97-4.39-4.39c0-2.43,1.97-4.39,4.39-4.39
			C436.25,415.19,438.22,417.16,438.22,419.58z"/>
		<path class="st12" d="M454.02,419.58c0,2.43-1.97,4.39-4.39,4.39c-2.43,0-4.39-1.97-4.39-4.39c0-2.43,1.97-4.39,4.39-4.39
			C452.06,415.19,454.02,417.16,454.02,419.58z"/>
		<path class="st12" d="M428.78,419.58c0,2.43-1.97,4.39-4.39,4.39c-2.43,0-4.39-1.97-4.39-4.39c0-2.43,1.97-4.39,4.39-4.39
			C426.81,415.19,428.78,417.16,428.78,419.58z"/>
	</g>
</g>
<g id="Pet_Food_1">
	<g>
		<rect x="203.18" y="328.72" class="st15" width="66.91" height="95.7"/>
		<rect x="203.18" y="333.55" class="st5" width="66.91" height="86.04"/>
		
			<ellipse transform="matrix(0.1588 -0.9873 0.9873 0.1588 -160.2533 539.7878)" class="st7" cx="236.64" cy="363.94" rx="23.27" ry="23.27"/>
		<path class="st4" d="M266.52,354.91c-0.19-0.25-0.37-0.53-0.61-0.72c-0.75-0.58-1.51-1.14-2.29-1.68
			c-0.32-0.22-0.52-0.49-0.55-0.85c-0.08-1.05-0.61-1.82-1.46-2.4c-0.13-0.09-0.25-0.22-0.38-0.31c-0.22-0.15-0.27-0.34-0.19-0.59
			c0.23-0.75,0.47-1.49,0.66-2.25c0.09-0.38,0.09-0.78,0.13-1.16c-0.04-0.01-0.08-0.02-0.11-0.03c-0.41,0.5-0.82,1-1.26,1.53
			c0.04-0.75,0.07-1.44,0.11-2.12c-0.04-0.01-0.09-0.02-0.13-0.03c-0.08,0.09-0.15,0.19-0.23,0.28c-0.69,0.79-1.37,1.59-2.08,2.35
			c-0.21,0.22-0.51,0.38-0.8,0.48c-1.04,0.34-1.97,0.85-2.76,1.61c-0.35,0.33-0.7,0.66-1.08,0.96c-0.62,0.49-1.22,1.03-1.91,1.41
			c-0.74,0.42-1.58,0.68-2.37,1c-1.54,0.63-3.16,0.62-4.78,0.58c-0.4-0.01-0.82-0.02-1.2,0.09c-0.97,0.27-1.94,0.38-2.95,0.38
			c-1.16,0.01-2.31,0.17-3.47,0.21c-1.99,0.08-3.96,0.23-5.89,0.72c-2.06,0.52-3.99,1.36-5.78,2.5c-1.4,0.9-3.01,1.43-4.28,2.56
			c-0.48,0.43-1.02,0.78-1.51,1.21c-1.7,1.5-3.82,2.25-5.81,3.23c-0.36,0.17-0.85,0.06-1.27,0.12c-1.47,0.22-2.55-0.62-3.62-1.39
			c-0.46-0.33-0.82-0.83-1.12-1.32c-0.27-0.45-0.61-0.7-1.14-0.76c-0.03,0.3-0.07,0.61-0.11,0.92c-0.01,0.07,0,0.15-0.04,0.21
			c-0.3,0.52-0.14,1.1-0.13,1.64c0,0.39,0.22,0.78,0.35,1.16c0.2,0.61,0.63,1.09,1.06,1.53c0.21,0.23,0.59,0.3,0.91,0.45
			c-0.04,0.03-0.09,0.08-0.2,0.17c0.26,0.1,0.47,0.18,0.67,0.26c0.12,0.05,0.27,0.06,0.34,0.15c0.33,0.39,0.77,0.48,1.23,0.54
			c0.14,0.02,0.27,0.03,0.41,0.06c0.23,0.05,0.46,0.15,0.69,0.15c0.36,0,0.72-0.07,1.09-0.11c0.72-0.09,1.43-0.26,2.18-0.23
			c0.67,0.03,1.36-0.08,1.92-0.53c0.06-0.05,0.13-0.07,0.2-0.1c0.03-0.01,0.07,0,0.12,0c-0.02,0.05-0.04,0.08-0.05,0.12
			c-0.01,0.04-0.02,0.08-0.05,0.19c1.58-0.7,3.13-1.35,4.37-2.57c0,0.88,0.01,2.51,0.03,3.85c-0.06,0.02-0.12,0.04-0.19,0.07
			c0.07,0.04,0.14,0.07,0.19,0.09c0,0.17,0.01,0.33,0.01,0.48c0,0.01-0.01,0.03-0.01,0.04c0,0,0.01-0.01,0.01-0.01
			c0.01,0.36,0.02,0.69,0.03,0.93c0.07,1.19,0.47,1.59,0.33,2.02c-0.11,0.17-0.22,0.33-0.35,0.48c-0.42,0.39-0.93,0.87-1.33,1.24
			c-0.45,0.36-0.94,0.68-1.47,0.93c-0.33,0.16-0.55,0.4-0.51,0.8c0.09,0.82,0.17,1.63,0.26,2.45c0.05,0.51,0.08,1.02,0.15,1.52
			c0.01,0.1,0.14,0.27,0.21,0.27c0.29-0.01,0.29,0.19,0.32,0.37c0.04,0.22,0.04,0.46,0.08,0.68c0.06,0.3,0,0.55-0.25,0.73
			c-0.01,0.01,0,0.05,0,0.08c0.07,0,0.14,0,0.21,0c-0.01,0.1-0.02,0.19-0.04,0.36c0.18-0.16,0.29-0.27,0.38-0.35
			c0.13,0.38,0.22,0.77,0.39,1.11c0.08,0.16,0.37,0.34,0.52,0.31c0.36-0.08,0.64,0.02,0.94,0.16c0.27,0.13,0.57,0.21,0.85,0.3
			c0.3,0.1,0.56,0.05,0.79-0.19c0.08-0.09,0.26-0.1,0.4-0.11c0.32-0.01,0.65-0.01,0.79-0.44c0.37,0.21,0.61,0.09,0.81-0.21
			c0.07-0.1,0.21-0.18,0.33-0.2c0.35-0.08,0.43-0.21,0.24-0.51c-0.45-0.72-1.06-1.18-1.95-1.16c-0.26,0-0.41-0.07-0.5-0.34
			c-0.1-0.3-0.25-0.58-0.41-0.85c-0.28-0.47-0.41-0.98-0.27-1.49c0.18-0.66,0.44-1.31,0.7-1.95c0.28-0.69,0.83-1.03,1.57-1.15
			c1.18-0.19,2.3-0.58,3.29-1.29c0.9-0.65,1.39-1.64,2.04-2.5c0.07-0.09,0.11-0.27,0.18-0.28c0.4-0.04,0.24-0.48,0.49-0.67
			c0.17-0.12,0.17-0.49,0.25-0.77c0.08,0.07,0.13,0.12,0.18,0.16c0.18-0.23-0.07-0.5,0.17-0.78c0.18-0.21,0.1-0.64,0.13-1
			c0,0,1.14,0.14,3.54,1.44c1.98,1.07,6.19,0.99,8.18,0.92c0.01,0.44,0.02,0.89-0.03,1.32c-0.1,0.77-0.26,1.54-0.43,2.31
			c-0.29,1.3-0.14,2.67-0.66,3.94c-0.01,0.02-0.02,0.05-0.01,0.07c0.14,0.4,0.17,0.94,0.45,1.16c0.33,0.26,0.3,0.48,0.25,0.83
			c0.52-0.14,0.75,0.1,0.86,0.56c0.02,0.08,0.17,0.17,0.27,0.2c0.46,0.11,0.93,0.19,1.44,0.29c0,0.42,0,0.86,0,1.31
			c0.1,0,0.18,0.01,0.27,0.01c-0.01,0.11-0.02,0.21-0.03,0.27c0.25,0.08,0.58,0.08,0.69,0.24c0.37,0.5,0.91,0.54,1.42,0.7
			c0.72,0.24,1.44,0.12,2.17,0.04c0.14-0.02,0.27-0.1,0.42-0.17c-0.13-0.21-0.24-0.38-0.35-0.56c0.06-0.02,0.11-0.03,0.16-0.05
			c0.44-0.13,0.45-0.21,0.16-0.55c-0.37-0.43-0.84-0.78-1.37-0.82c-0.81-0.06-1.09-0.52-1.26-1.18c-0.02-0.07-0.05-0.14-0.08-0.21
			c-0.24-0.56-0.26-1.12-0.1-1.7c0.57-2.06,0.9-4.18,1.73-6.19c0.42-1.01,0.9-1.91,1.68-2.64c0.29-0.27,0.62-0.52,0.98-0.7
			c0.39-0.19,0.69-0.44,0.94-0.79c0.5-0.71,0.96-1.47,1.57-2.09c0.96-0.97,1.68-2.07,2.23-3.31c0.31-0.71,0.68-1.4,1.28-1.9
			c0.35-0.29,0.74-0.53,1.11-0.78c0.42-0.29,0.75-0.62,0.82-1.16c0.06-0.4,0.19-0.79,0.31-1.17c0.22-0.68,0.74-0.85,1.32-0.45
			c0.14,0.09,0.26,0.23,0.41,0.27c0.19,0.06,0.46,0.14,0.6,0.05c0.42-0.24,0.84-0.22,1.28-0.17c0.12,0.01,0.26,0.01,0.37-0.03
			c0.94-0.32,1.73-0.87,2.48-1.5C266.64,355.35,266.69,355.13,266.52,354.91z"/>
		<g>
			<path class="st4" d="M208.75,402.77v-11.26h2.75c0.95,0,1.7,0.12,2.23,0.37c0.53,0.25,0.91,0.63,1.13,1.15s0.33,1.19,0.33,2.01
				v4.1c0,0.83-0.11,1.52-0.33,2.06c-0.22,0.54-0.6,0.93-1.12,1.19c-0.52,0.26-1.25,0.38-2.19,0.38H208.75z M211.05,401.17h0.49
				c0.43,0,0.73-0.07,0.91-0.2c0.18-0.13,0.29-0.33,0.34-0.6c0.05-0.26,0.07-0.59,0.07-0.98v-4.64c0-0.39-0.03-0.7-0.09-0.94
				c-0.06-0.24-0.18-0.41-0.36-0.52c-0.18-0.11-0.48-0.17-0.88-0.17h-0.47V401.17z"/>
			<path class="st4" d="M219.86,402.92c-0.83,0-1.48-0.15-1.96-0.44c-0.48-0.3-0.83-0.72-1.04-1.27c-0.21-0.55-0.31-1.21-0.31-1.98
				v-4.2c0-0.77,0.1-1.43,0.31-1.97c0.21-0.55,0.55-0.96,1.04-1.25c0.48-0.29,1.14-0.43,1.96-0.43c0.83,0,1.49,0.15,1.98,0.44
				c0.49,0.29,0.83,0.71,1.04,1.25c0.21,0.54,0.31,1.2,0.31,1.97v4.2c0,0.77-0.1,1.43-0.31,1.98c-0.21,0.55-0.56,0.98-1.04,1.27
				C221.35,402.78,220.69,402.92,219.86,402.92z M219.86,401.27c0.3,0,0.51-0.07,0.65-0.2c0.14-0.13,0.23-0.31,0.28-0.54
				c0.05-0.23,0.07-0.47,0.07-0.73v-5.32c0-0.26-0.02-0.5-0.07-0.72c-0.05-0.22-0.14-0.4-0.28-0.54c-0.14-0.13-0.36-0.2-0.65-0.2
				c-0.28,0-0.49,0.07-0.63,0.2c-0.14,0.13-0.23,0.31-0.28,0.54c-0.05,0.22-0.07,0.46-0.07,0.72v5.32c0,0.26,0.02,0.5,0.06,0.73
				c0.04,0.23,0.13,0.41,0.27,0.54C219.36,401.2,219.57,401.27,219.86,401.27z"/>
			<path class="st4" d="M227.6,402.94c-0.76,0-1.36-0.16-1.81-0.48c-0.44-0.32-0.76-0.77-0.95-1.36c-0.19-0.59-0.29-1.27-0.29-2.05
				v-3.77c0-0.81,0.1-1.5,0.29-2.09c0.19-0.58,0.54-1.03,1.02-1.35c0.49-0.32,1.15-0.47,1.98-0.47c0.81,0,1.44,0.13,1.91,0.4
				c0.47,0.27,0.8,0.65,1.01,1.14c0.2,0.49,0.31,1.08,0.31,1.75v0.65h-2.24v-0.79c0-0.3-0.02-0.56-0.06-0.79
				c-0.04-0.23-0.12-0.41-0.26-0.54c-0.13-0.13-0.35-0.19-0.65-0.19c-0.31,0-0.53,0.08-0.67,0.24c-0.14,0.16-0.23,0.36-0.26,0.6
				c-0.04,0.25-0.06,0.51-0.06,0.79v4.99c0,0.32,0.03,0.6,0.08,0.85c0.06,0.25,0.16,0.44,0.31,0.58c0.15,0.14,0.37,0.21,0.66,0.21
				c0.29,0,0.51-0.07,0.67-0.22c0.16-0.15,0.27-0.35,0.33-0.6c0.06-0.25,0.09-0.54,0.09-0.87v-1.2h-1.1v-1.39h3.17v5.78h-1.5
				l-0.14-1.01c-0.15,0.34-0.37,0.63-0.67,0.85C228.5,402.83,228.1,402.94,227.6,402.94z"/>
			<path class="st4" d="M236.15,402.77v-11.26h4.75v1.56h-2.46v3.04h2.08v1.6h-2.08v5.06H236.15z"/>
			<path class="st4" d="M245.2,402.92c-0.83,0-1.48-0.15-1.96-0.44c-0.48-0.3-0.83-0.72-1.04-1.27c-0.21-0.55-0.31-1.21-0.31-1.98
				v-4.2c0-0.77,0.1-1.43,0.31-1.97c0.21-0.55,0.55-0.96,1.04-1.25c0.48-0.29,1.14-0.43,1.96-0.43c0.83,0,1.49,0.15,1.98,0.44
				c0.49,0.29,0.83,0.71,1.04,1.25c0.21,0.54,0.31,1.2,0.31,1.97v4.2c0,0.77-0.1,1.43-0.31,1.98c-0.21,0.55-0.56,0.98-1.04,1.27
				C246.7,402.78,246.04,402.92,245.2,402.92z M245.2,401.27c0.3,0,0.51-0.07,0.65-0.2c0.14-0.13,0.23-0.31,0.28-0.54
				c0.05-0.23,0.07-0.47,0.07-0.73v-5.32c0-0.26-0.02-0.5-0.07-0.72c-0.05-0.22-0.14-0.4-0.28-0.54c-0.14-0.13-0.36-0.2-0.65-0.2
				c-0.28,0-0.49,0.07-0.63,0.2c-0.14,0.13-0.23,0.31-0.28,0.54c-0.05,0.22-0.07,0.46-0.07,0.72v5.32c0,0.26,0.02,0.5,0.06,0.73
				c0.04,0.23,0.13,0.41,0.27,0.54C244.7,401.2,244.91,401.27,245.2,401.27z"/>
			<path class="st4" d="M253.21,402.92c-0.83,0-1.48-0.15-1.96-0.44c-0.48-0.3-0.83-0.72-1.04-1.27c-0.21-0.55-0.31-1.21-0.31-1.98
				v-4.2c0-0.77,0.1-1.43,0.31-1.97c0.21-0.55,0.55-0.96,1.04-1.25c0.48-0.29,1.14-0.43,1.96-0.43c0.83,0,1.49,0.15,1.98,0.44
				c0.49,0.29,0.83,0.71,1.04,1.25c0.21,0.54,0.31,1.2,0.31,1.97v4.2c0,0.77-0.1,1.43-0.31,1.98c-0.21,0.55-0.56,0.98-1.04,1.27
				C254.7,402.78,254.04,402.92,253.21,402.92z M253.21,401.27c0.3,0,0.51-0.07,0.65-0.2c0.14-0.13,0.23-0.31,0.28-0.54
				c0.05-0.23,0.07-0.47,0.07-0.73v-5.32c0-0.26-0.02-0.5-0.07-0.72c-0.05-0.22-0.14-0.4-0.28-0.54c-0.14-0.13-0.36-0.2-0.65-0.2
				c-0.28,0-0.49,0.07-0.63,0.2c-0.14,0.13-0.23,0.31-0.28,0.54c-0.05,0.22-0.07,0.46-0.07,0.72v5.32c0,0.26,0.02,0.5,0.06,0.73
				c0.04,0.23,0.13,0.41,0.27,0.54C252.71,401.2,252.92,401.27,253.21,401.27z"/>
			<path class="st4" d="M258.07,402.77v-11.26h2.75c0.95,0,1.7,0.12,2.23,0.37c0.53,0.25,0.91,0.63,1.13,1.15
				c0.22,0.52,0.33,1.19,0.33,2.01v4.1c0,0.83-0.11,1.52-0.33,2.06c-0.22,0.54-0.6,0.93-1.12,1.19c-0.52,0.26-1.25,0.38-2.19,0.38
				H258.07z M260.37,401.17h0.49c0.43,0,0.73-0.07,0.91-0.2c0.18-0.13,0.29-0.33,0.34-0.6c0.05-0.26,0.07-0.59,0.07-0.98v-4.64
				c0-0.39-0.03-0.7-0.09-0.94c-0.06-0.24-0.18-0.41-0.36-0.52c-0.18-0.11-0.48-0.17-0.88-0.17h-0.47V401.17z"/>
		</g>
		<rect x="210.41" y="328.72" class="st16" width="7.81" height="95.7"/>
		<rect x="256.8" y="328.72" class="st16" width="7.81" height="95.7"/>
		<rect x="203.18" y="328.72" class="st17" width="66.91" height="95.7"/>
		<rect x="207.03" y="328.72" class="st16" width="1.02" height="95.7"/>
	</g>
</g>
</svg>
