<?xml version="1.0" encoding="UTF-8"?>
<svg xmlns="http://www.w3.org/2000/svg" viewBox="0 0 750 500">
  <defs>
    <style>
      .cls-1, .cls-2, .cls-3, .cls-4, .cls-5, .cls-6, .cls-7, .cls-8, .cls-9, .cls-10 {
        stroke: #263238;
      }

      .cls-1, .cls-2, .cls-4, .cls-5, .cls-6, .cls-7, .cls-8, .cls-9, .cls-10 {
        stroke-width: .71px;
      }

      .cls-1, .cls-2, .cls-4, .cls-5, .cls-10 {
        stroke-miterlimit: 10;
      }

      .cls-1, .cls-6, .cls-11 {
        fill: #263238;
      }

      .cls-2, .cls-3, .cls-8 {
        fill: none;
      }

      .cls-12, .cls-13, .cls-14, .cls-15, .cls-16, .cls-17, .cls-11, .cls-18 {
        stroke-width: 0px;
      }

      .cls-12, .cls-9 {
        fill: #eaa97d;
      }

      .cls-3 {
        stroke-width: .36px;
      }

      .cls-3, .cls-6, .cls-7, .cls-8, .cls-9 {
        stroke-linecap: round;
        stroke-linejoin: round;
      }

      .cls-4, .cls-14, .cls-7, .cls-16 {
        fill: #fff;
      }

      .cls-19 {
        opacity: .2;
      }

      .cls-5 {
        fill: #9c9c9c;
      }

      .cls-14 {
        opacity: .37;
      }

      .cls-15 {
        fill: #e3ecff;
      }

      .cls-17 {
        opacity: .33;
      }

      .cls-10, .cls-18 {
        fill: #cfcfcf;
      }
    </style>
  </defs>
  <g id="Background_Simple" data-name="Background Simple">
    <path class="cls-15" d="m535.42,237.13c-.4-27.8-11.32-54.64-27.96-75.35-9.73-12.12-21.44-22.74-34.23-31-13.27-8.58-27.69-18.19-43.7-19.66-3.95-.36-8-.19-11.9.97-14.93,4.45,14.61,20.31,18.47,22.63-41.29-17.66-84.03-35.61-129.17-33.91-8.7.33-17.73,1.5-25.38,6.33-7.65,4.83-13.57,14.15-12.43,23.38.94,7.63,6.1,16.16,1.26,22.13-1.38,1.71-3.34,2.71-5.27,3.59-9.87,4.49-20.53,6.85-29.89,12.57-14.49,8.85-24.37,25.12-28.95,42.23-4.58,17.11-4.36,35.09-2.56,52.5,3.38,32.76,12.59,65.26,31.22,90.74,26.61,36.39,70.23,54.93,113.92,57.98,52.87,3.7,110.19-15.66,145.15-60.47,5.18-6.65,9.94-14.01,11.83-22.34s.39-17.83-5.41-23.31c-1.56-1.48-3.58-3.04-3.41-5.33.23-3.1,3.95-4.14,6.79-4.8,18.61-4.27,29.25-26.84,31.17-47.14.37-3.92.52-7.83.47-11.73Z"/>
  </g>
  <g id="Paw_Prints" data-name="Paw Prints">
    <g class="cls-19">
      <path class="cls-13" d="m238.32,127.01s-1.65,2.84-2.82,6.41-4.35,6.57-8.59,4.57c-4.24-2-8.32-3.97-10.87-5.65s-4.09-5.9-1.6-8.95c2.48-3.05,4.8-2.05,9.28-3.46,4.49-1.41,6.32-4.16,9-4.49,2.68-.33,6.92,1.67,7.3,5.38s-1.7,6.17-1.7,6.17Z"/>
      <path class="cls-13" d="m221.39,144.07s-.37,3.07-2.31,4.65c-1.94,1.58-4.52-1.07-5.95-3.66-1.43-2.6-.52-6.91,1.6-8.63,2.12-1.72,5.49-.25,6.15,1.41.65,1.66.51,6.24.51,6.24Z"/>
      <path class="cls-13" d="m229.87,155s-4.13-2.11-5.9-5.04c-1.77-2.93-1.82-6.31.68-8.23,2.5-1.93,5.66,0,7.4,2.18,1.74,2.19,2.75,6.59,2.37,8.98s-3.62,2.39-4.55,2.11Z"/>
      <path class="cls-13" d="m239.39,151.99s-1.71-1.44-3.27-5.05c-1.56-3.61-1.39-6.61-.22-8.45s4.22-2.6,6.64-.88c2.41,1.73,3.42,6.58,2.84,8.82s-2.19,5.21-3.39,5.86c-1.21.65-1.86.5-2.6-.3Z"/>
      <path class="cls-13" d="m246.21,138s-4.29-2.58-5.73-5.4c-1.43-2.82.17-6.02,1.85-6.6,1.68-.59,4.59-.24,7.03,3.06s1.19,8.19.14,8.85c-1.05.67-3.29.09-3.29.09Z"/>
    </g>
    <g class="cls-19">
      <path class="cls-13" d="m305.9,215.85s-1.65,2.84-2.82,6.41c-1.17,3.58-4.35,6.57-8.59,4.57-4.24-2-8.32-3.97-10.87-5.65s-4.09-5.9-1.6-8.95c2.48-3.05,4.8-2.05,9.28-3.46,4.49-1.41,6.32-4.16,9-4.49,2.68-.33,6.92,1.67,7.3,5.38.39,3.71-1.7,6.17-1.7,6.17Z"/>
      <path class="cls-13" d="m288.98,232.91s-.37,3.07-2.31,4.65c-1.94,1.58-4.52-1.07-5.95-3.66-1.43-2.6-.52-6.91,1.6-8.63,2.12-1.72,5.49-.25,6.15,1.41.65,1.66.51,6.24.51,6.24Z"/>
      <path class="cls-13" d="m297.46,243.84s-4.13-2.11-5.9-5.04c-1.77-2.93-1.82-6.31.68-8.23,2.5-1.93,5.66,0,7.4,2.18,1.74,2.19,2.75,6.59,2.37,8.98-.37,2.39-3.62,2.39-4.55,2.11Z"/>
      <path class="cls-13" d="m306.97,240.83s-1.71-1.44-3.27-5.05c-1.56-3.61-1.39-6.61-.22-8.45,1.17-1.84,4.22-2.6,6.64-.88,2.41,1.73,3.42,6.58,2.84,8.82s-2.19,5.21-3.39,5.86c-1.21.65-1.86.5-2.6-.3Z"/>
      <path class="cls-13" d="m313.79,226.83s-4.29-2.58-5.73-5.4c-1.43-2.82.17-6.02,1.85-6.6,1.68-.59,4.59-.24,7.03,3.06,2.43,3.3,1.19,8.19.14,8.85-1.05.67-3.29.09-3.29.09Z"/>
    </g>
    <g class="cls-19">
      <path class="cls-13" d="m364.02,148.7s-3.06-1.19-6.78-1.79c-3.71-.6-7.17-3.27-5.86-7.77,1.31-4.5,2.62-8.84,3.88-11.62,1.26-2.78,5.18-4.96,8.59-2.98,3.4,1.98,2.77,4.42,4.86,8.63,2.09,4.21,5.1,5.6,5.84,8.19s-.57,7.09-4.17,8.05c-3.61.96-6.36-.71-6.36-.71Z"/>
      <path class="cls-13" d="m344.53,134.65s-3.09.12-4.95-1.55c-1.86-1.67.35-4.63,2.69-6.45s6.75-1.59,8.77.23,1.11,5.39-.43,6.29c-1.54.9-6.08,1.48-6.08,1.48Z"/>
      <path class="cls-13" d="m335.06,144.73s1.44-4.41,4.05-6.62c2.62-2.21,5.95-2.78,8.24-.61,2.29,2.17.89,5.59-1,7.65-1.89,2.06-6.08,3.74-8.5,3.74-2.42,0-2.93-3.2-2.79-4.16Z"/>
      <path class="cls-13" d="m339.52,153.66s1.16-1.91,4.48-4.01,6.31-2.41,8.31-1.54c2,.87,3.23,3.77,1.9,6.42-1.33,2.65-5.97,4.41-8.27,4.18-2.3-.22-5.49-1.34-6.32-2.44s-.78-1.76-.1-2.61Z"/>
      <path class="cls-13" d="m354.41,158.21s1.88-4.64,4.44-6.5c2.56-1.86,5.97-.77,6.81.8.84,1.57.95,4.5-1.93,7.42-2.88,2.92-7.9,2.45-8.72,1.52s-.6-3.23-.6-3.23Z"/>
    </g>
    <g class="cls-19">
      <path class="cls-13" d="m457.19,130.77s1.91-2.67,3.41-6.12c1.5-3.45,4.94-6.14,8.98-3.76,4.04,2.38,7.92,4.73,10.3,6.63,2.38,1.91,3.52,6.25.77,9.06-2.76,2.81-4.96,1.59-9.56,2.58-4.6.99-6.68,3.56-9.38,3.63s-6.73-2.3-6.77-6.03c-.04-3.73,2.27-5.99,2.27-5.99Z"/>
      <path class="cls-13" d="m475.62,115.36s.65-3.02,2.73-4.42,4.4,1.48,5.59,4.2c1.18,2.72-.13,6.93-2.39,8.44s-5.49-.26-5.99-1.97c-.5-1.71.07-6.26.07-6.26Z"/>
      <path class="cls-13" d="m468.19,103.69s3.91,2.48,5.41,5.56c1.49,3.08,1.22,6.45-1.44,8.13-2.67,1.69-5.63-.52-7.16-2.86-1.53-2.34-2.12-6.82-1.53-9.16.59-2.35,3.83-2.04,4.72-1.68Z"/>
      <path class="cls-13" d="m458.44,105.8s1.57,1.59,2.78,5.33c1.22,3.74.77,6.71-.56,8.43-1.34,1.72-4.45,2.2-6.69.26-2.24-1.94-2.8-6.87-2.01-9.04.78-2.17,2.66-4.99,3.92-5.52,1.26-.53,1.9-.32,2.56.54Z"/>
      <path class="cls-13" d="m450.34,119.1s4.03,2.97,5.2,5.91c1.17,2.94-.73,5.98-2.46,6.4-1.73.43-4.6-.19-6.71-3.7-2.11-3.51-.42-8.26.68-8.83s3.28.22,3.28.22Z"/>
    </g>
    <g class="cls-19">
      <path class="cls-13" d="m411.95,184.18s1.91-2.67,3.41-6.12c1.5-3.45,4.94-6.14,8.98-3.76,4.04,2.38,7.92,4.72,10.3,6.63,2.38,1.91,3.52,6.25.77,9.06-2.76,2.81-4.96,1.59-9.56,2.58-4.6.99-6.68,3.56-9.38,3.63-2.7.08-6.73-2.3-6.77-6.03-.04-3.73,2.27-5.99,2.27-5.99Z"/>
      <path class="cls-13" d="m430.38,168.77s.65-3.02,2.73-4.42c2.08-1.39,4.4,1.48,5.59,4.2,1.18,2.72-.13,6.93-2.39,8.44-2.27,1.51-5.49-.26-5.99-1.97-.5-1.71.07-6.26.07-6.26Z"/>
      <path class="cls-13" d="m422.96,157.1s3.92,2.48,5.41,5.56c1.49,3.08,1.22,6.45-1.44,8.13-2.67,1.69-5.63-.52-7.16-2.86-1.53-2.34-2.12-6.82-1.53-9.16.59-2.35,3.83-2.04,4.72-1.68Z"/>
      <path class="cls-13" d="m413.2,159.22s1.57,1.59,2.78,5.33c1.22,3.74.77,6.71-.56,8.43-1.34,1.72-4.45,2.2-6.69.26-2.24-1.94-2.8-6.87-2.01-9.04s2.66-4.99,3.92-5.52,1.9-.32,2.56.54Z"/>
      <path class="cls-13" d="m405.11,172.51s4.03,2.97,5.2,5.91c1.17,2.94-.73,5.98-2.46,6.4-1.73.43-4.6-.19-6.71-3.7-2.11-3.51-.42-8.26.68-8.83,1.11-.57,3.28.22,3.28.22Z"/>
    </g>
    <g class="cls-19">
      <path class="cls-13" d="m333.22,293.95s-.78,3.19-.88,6.95-2.31,7.54-6.94,6.83-9.11-1.44-12.02-2.33c-2.92-.89-5.6-4.49-4.08-8.12,1.51-3.63,4.02-3.32,7.92-5.95,3.9-2.63,4.88-5.79,7.35-6.86,2.47-1.08,7.11-.37,8.53,3.08,1.43,3.45.13,6.4.13,6.4Z"/>
      <path class="cls-13" d="m321.85,315.12s.52,3.05-.89,5.11c-1.41,2.07-4.64.26-6.75-1.82-2.11-2.08-2.46-6.48-.92-8.73,1.54-2.25,5.2-1.8,6.29-.4,1.1,1.4,2.26,5.83,2.26,5.83Z"/>
      <path class="cls-13" d="m333.08,323.18s-4.56-.85-7.09-3.15c-2.53-2.3-3.54-5.53-1.69-8.09s5.42-1.61,7.71-.01c2.29,1.6,4.5,5.54,4.83,7.94.32,2.4-2.79,3.32-3.76,3.32Z"/>
      <path class="cls-13" d="m341.35,317.6s-2.05-.9-4.57-3.91c-2.52-3.02-3.21-5.94-2.62-8.04.6-2.1,3.31-3.7,6.11-2.73s5.15,5.34,5.23,7.65c.08,2.31-.61,5.62-1.59,6.58-.97.96-1.65,1.01-2.57.45Z"/>
      <path class="cls-13" d="m343.92,302.24s-4.85-1.25-7.03-3.55c-2.18-2.3-1.55-5.82-.1-6.86,1.45-1.04,4.34-1.54,7.61.94,3.27,2.48,3.47,7.51,2.65,8.45-.82.94-3.13,1.02-3.13,1.02Z"/>
    </g>
    <g class="cls-19">
      <path class="cls-13" d="m510.35,196.94s-.78,3.19-.88,6.95c-.11,3.76-2.31,7.54-6.94,6.83-4.63-.71-9.11-1.44-12.02-2.33-2.92-.89-5.6-4.49-4.08-8.12,1.51-3.63,4.02-3.32,7.92-5.95,3.9-2.63,4.88-5.79,7.35-6.86,2.47-1.08,7.11-.37,8.53,3.08,1.43,3.45.13,6.4.13,6.4Z"/>
      <path class="cls-13" d="m498.97,218.1s.52,3.05-.89,5.11c-1.41,2.07-4.64.26-6.75-1.82-2.11-2.08-2.46-6.48-.92-8.73s5.2-1.8,6.29-.4,2.26,5.83,2.26,5.83Z"/>
      <path class="cls-13" d="m510.21,226.17s-4.56-.85-7.09-3.15c-2.53-2.3-3.54-5.53-1.69-8.09,1.85-2.56,5.42-1.61,7.71-.01s4.5,5.54,4.83,7.94c.32,2.4-2.79,3.32-3.76,3.32Z"/>
      <path class="cls-13" d="m518.48,220.58s-2.05-.9-4.57-3.91c-2.52-3.02-3.21-5.94-2.62-8.04.6-2.1,3.31-3.7,6.11-2.73,2.8.97,5.15,5.34,5.23,7.65.08,2.31-.61,5.62-1.59,6.58-.97.96-1.65,1.01-2.57.45Z"/>
      <path class="cls-13" d="m521.04,205.23s-4.85-1.25-7.03-3.55c-2.18-2.3-1.55-5.82-.1-6.86,1.45-1.04,4.34-1.54,7.61.94,3.27,2.48,3.47,7.51,2.65,8.45-.82.94-3.13,1.02-3.13,1.02Z"/>
    </g>
  </g>
  <g id="Plant">
    <g>
      <g>
        <g>
          <g>
            <path class="cls-12" d="m294.9,118.73s0-5.81-8.13-13.94c-8.13-8.13-13.36-12.78-13.36-12.78,0,0-4.07,13.36,3.49,21.5,7.55,8.13,18.01,15.69,18.01,15.69v-10.46Z"/>
            <path class="cls-12" d="m283.1,155.02s0-5.81-8.13-13.94c-8.13-8.13-13.36-12.78-13.36-12.78,0,0-4.07,13.36,3.49,21.5,7.55,8.13,18.01,15.69,18.01,15.69v-10.46Z"/>
            <path class="cls-12" d="m294.39,128.63s.61-5.78,9.56-13.01c8.95-7.23,14.64-11.3,14.64-11.3,0,0,2.63,13.72-5.74,21.01-8.37,7.29-19.57,13.7-19.57,13.7l1.1-10.4Z"/>
            <path class="cls-12" d="m280.13,171.48s1.22-5.68,10.88-11.93c9.66-6.25,15.74-9.7,15.74-9.7,0,0,1.18,13.92-7.91,20.29-9.09,6.37-20.9,11.56-20.9,11.56l2.19-10.23Z"/>
            <path class="cls-12" d="m282.81,218.2s0-5.81,8.13-13.94c8.13-8.13,13.36-12.78,13.36-12.78,0,0,4.07,13.36-3.49,21.5-7.55,8.13-18.01,15.69-18.01,15.69v-10.46Z"/>
            <path class="cls-12" d="m282.67,229.6s.83-5.75-6.07-14.96c-6.9-9.21-11.41-14.55-11.41-14.55,0,0-5.92,12.65.4,21.77,6.32,9.12,15.6,18.09,15.6,18.09l1.49-10.35Z"/>
            <path class="cls-12" d="m274.65,263.4s0-5.81,8.13-13.94c8.13-8.13,13.36-12.78,13.36-12.78,0,0,4.07,13.36-3.49,21.5-7.55,8.13-18.01,15.69-18.01,15.69v-10.46Z"/>
            <path class="cls-12" d="m280.09,294.04s-1.47-5.62,4.34-15.55c5.81-9.93,9.69-15.75,9.69-15.75,0,0,7.32,11.9,2.07,21.68-5.25,9.78-13.45,19.74-13.45,19.74l-2.65-10.12Z"/>
          </g>
          <path class="cls-3" d="m295.64,117.24c-.48,6.21-1.18,12.64-2.23,18.04-3.22,16.61-11.25,27.33-14.47,42.33-3.22,15,6.02,34.33,3.54,53.61-2.47,19.27-9.97,29.99-7.83,42.85,2.14,12.86,13.4,47.69,13.4,47.69"/>
          <line class="cls-3" x1="294.31" y1="132.49" x2="303.07" y2="125.76"/>
          <line class="cls-3" x1="294.72" y1="124.74" x2="291.05" y2="118.22"/>
          <path class="cls-3" d="m279.43,176.93s7.34-5.5,14.88-11.01"/>
          <path class="cls-3" d="m283.1,165.47s-6.11-11.99-13.04-19.94"/>
          <path class="cls-3" d="m283.1,226.46s5.71-11.21,15.7-21"/>
          <path class="cls-3" d="m281.67,234.62s-3.67-8.77-7.95-15.08c-4.28-6.32-4.89-7.13-4.89-7.13"/>
          <path class="cls-3" d="m274.65,274.08s2.94-7.45,6.61-13.37c3.67-5.91,8.56-11.21,8.56-11.21"/>
          <path class="cls-3" d="m282.73,304.16s-.86-6.96,2.2-12.87c3.06-5.91,6.52-13.66,7.95-16.72"/>
        </g>
        <g>
          <g>
            <path class="cls-12" d="m241.64,196.35s-.63-3.64,3.59-9.63c4.22-5.98,6.99-9.47,6.99-9.47,0,0,4,7.94.15,13.86-3.85,5.92-9.59,11.79-9.59,11.79l-1.14-6.56Z"/>
            <path class="cls-12" d="m252.98,217.82s-.63-3.64,3.59-9.63c4.22-5.98,6.99-9.47,6.99-9.47,0,0,4,7.94.15,13.86-3.85,5.92-9.59,11.79-9.59,11.79l-1.14-6.56Z"/>
            <path class="cls-12" d="m243.03,202.5s-1.01-3.56-7.41-7.12c-6.4-3.56-10.41-5.5-10.41-5.5,0,0-.16,8.89,5.88,12.55,6.04,3.66,13.76,6.46,13.76,6.46l-1.82-6.4Z"/>
            <path class="cls-12" d="m256.63,227.82s-1.38-3.43-8.11-6.3c-6.73-2.87-10.93-4.37-10.93-4.37,0,0,.77,8.86,7.16,11.86,6.39,3.01,14.36,4.98,14.36,4.98l-2.48-6.17Z"/>
            <path class="cls-12" d="m260.02,257.41s-.63-3.64-6.61-7.86c-5.98-4.22-9.77-6.56-9.77-6.56,0,0-1.1,8.82,4.52,13.1,5.62,4.28,13,7.88,13,7.88l-1.14-6.56Z"/>
            <path class="cls-12" d="m261.34,264.55s-1.14-3.52,2.18-10.04c3.32-6.52,5.58-10.36,5.58-10.36,0,0,5.09,7.29,2.12,13.7-2.97,6.41-7.82,13.04-7.82,13.04l-2.06-6.33Z"/>
            <path class="cls-12" d="m271.55,293.93s.42-3.67,6.15-8.23c5.73-4.55,9.38-7.11,9.38-7.11,0,0,1.6,8.74-3.76,13.34-5.37,4.59-12.53,8.61-12.53,8.61l.76-6.61Z"/>
            <path class="cls-12" d="m270.04,284.87s-.63-3.64-6.61-7.86c-5.98-4.22-9.77-6.56-9.77-6.56,0,0-1.1,8.82,4.52,13.1,5.62,4.28,13,7.88,13,7.88l-1.14-6.56Z"/>
            <path class="cls-12" d="m269.96,304.67s.31-3.68-4.41-9.28c-4.72-5.6-7.79-8.82-7.79-8.82,0,0-3.3,8.25,1.05,13.82,4.35,5.56,10.58,10.92,10.58,10.92l.56-6.63Z"/>
          </g>
          <path class="cls-3" d="m241.01,195.5c.97,3.84,2.11,7.79,3.36,11.07,3.82,10.07,10.02,15.92,13.67,24.98,3.65,9.06-.04,22.18,3.6,34,3.64,11.82,9.51,17.72,9.56,26.02.05,8.3-3.22,31.36-3.22,31.36"/>
          <line class="cls-3" x1="243.5" y1="204.91" x2="237.28" y2="201.64"/>
          <line class="cls-3" x1="242.41" y1="200.1" x2="244" y2="195.61"/>
          <path class="cls-3" d="m257.66,231.16s-5.2-2.65-10.53-5.29"/>
          <path class="cls-3" d="m254.11,224.38s2.53-8.18,6.02-13.92"/>
          <path class="cls-3" d="m260.73,262.62s-4.8-6.41-12.12-11.46"/>
          <path class="cls-3" d="m262.51,267.58s1.35-5.89,3.35-10.32c2-4.43,2.29-5.01,2.29-5.01"/>
          <path class="cls-3" d="m270.92,297.86s4.13-5.06,6.7-6.95c2.57-1.89,4.35-3.78,4.35-3.78"/>
          <path class="cls-3" d="m271.2,291.56s-2.65-4.35-5.6-7.66c-2.94-3.31-6.59-6.1-6.59-6.1"/>
          <path class="cls-3" d="m269.4,311.3s-.22-4.46-2.78-7.83c-2.56-3.38-5.57-7.86-6.8-9.62"/>
        </g>
      </g>
      <path class="cls-11" d="m295.86,390.36h-35.81c-1.87,0-3.38-1.51-3.38-3.38l-5.32-68.08h53.21l-5.32,68.08c0,1.87-1.51,3.38-3.38,3.38Z"/>
    </g>
  </g>
  <g id="Pet_Food_3" data-name="Pet Food 3">
    <g>
      <path class="cls-9" d="m496.96,175.97h-130.83c-1.79,0-3.29,1.34-3.5,3.12l-1.79,20.11h139l.63-19.57c.08-2-1.51-3.66-3.52-3.66Z"/>
      <path class="cls-4" d="m515.86,264.28c-2.03-25.08-16.05-65.08-16.05-65.08h-138.97s-15.59,40-17.63,65.08c-2.03,25.08-1.28,114.31-.67,120.47.62,6.16,11.71,5.55,11.71,5.55h153.36s11.09.62,11.71-5.55c.62-6.16-1.44-95.39-3.47-120.47Z"/>
      <path class="cls-9" d="m519.34,384.76c.62-6.16-1.44-95.39-3.47-120.47-.92-11.39-4.32-25.85-7.75-38.25-3.18,5.6-7.05,12.73-10.92,20.69-9.18,18.86-61.69,48.95-113.7,63.73-18.86,5.36-32.23,13.32-41.6,21.28.01,26.17.35,49.95.66,53.02.62,6.16,11.71,5.55,11.71,5.55h153.36s11.09.62,11.71-5.55Z"/>
      <g>
        <path class="cls-11" d="m373.52,345.7v-18.8h4.6c1.59,0,2.84.2,3.73.62.89.41,1.52,1.05,1.89,1.93.37.87.56,1.99.56,3.35v6.85c0,1.39-.19,2.54-.56,3.44-.37.9-.99,1.56-1.87,1.98-.87.43-2.09.64-3.66.64h-4.69Zm3.83-2.67h.81c.71,0,1.22-.11,1.52-.34.3-.22.49-.56.57-1,.08-.44.12-.99.12-1.64v-7.75c0-.65-.05-1.17-.15-1.57-.1-.39-.3-.68-.6-.87-.3-.19-.79-.28-1.47-.28h-.79v13.44Z"/>
        <path class="cls-11" d="m392.07,345.95c-1.38,0-2.47-.25-3.27-.74-.8-.5-1.38-1.2-1.73-2.12-.35-.92-.52-2.02-.52-3.31v-7.01c0-1.28.17-2.38.52-3.3.35-.91.93-1.61,1.73-2.09.8-.48,1.9-.72,3.27-.72s2.5.24,3.31.73c.81.49,1.39,1.18,1.74,2.09.35.9.52,2,.52,3.28v7.01c0,1.28-.17,2.39-.52,3.31-.35.92-.93,1.63-1.74,2.12-.81.49-1.92.74-3.31.74Zm0-2.76c.49,0,.86-.11,1.09-.34.23-.22.39-.53.46-.91.08-.38.12-.79.12-1.22v-8.89c0-.43-.04-.84-.12-1.21-.08-.37-.23-.67-.46-.89-.23-.22-.6-.34-1.09-.34-.46,0-.81.11-1.05.34-.23.22-.39.52-.46.89-.08.37-.12.77-.12,1.21v8.89c0,.43.04.84.11,1.22.07.38.22.68.45.91.23.22.59.34,1.07.34Z"/>
        <path class="cls-11" d="m405,345.98c-1.27,0-2.27-.27-3.02-.8-.74-.53-1.27-1.29-1.59-2.27-.32-.98-.48-2.12-.48-3.42v-6.29c0-1.35.16-2.51.49-3.48.32-.97.89-1.73,1.71-2.25.81-.53,1.92-.79,3.31-.79s2.41.23,3.19.67c.78.45,1.34,1.08,1.68,1.9.34.82.51,1.8.51,2.92v1.09h-3.74v-1.32c0-.49-.03-.93-.09-1.31-.06-.38-.21-.68-.43-.89-.22-.22-.58-.32-1.08-.32s-.88.13-1.11.39c-.23.26-.38.6-.44,1.01-.06.41-.09.85-.09,1.31v8.33c0,.53.05,1,.14,1.42.09.42.27.74.52.97.26.23.62.35,1.1.35s.85-.12,1.11-.37c.26-.25.45-.58.55-1.01.1-.43.15-.91.15-1.45v-2h-1.83v-2.32h5.29v9.66h-2.51l-.23-1.69c-.25.57-.62,1.04-1.11,1.42-.5.37-1.16.56-2,.56Z"/>
        <path class="cls-11" d="m419.28,345.7v-18.8h7.94v2.6h-4.11v5.08h3.48v2.67h-3.48v8.45h-3.83Z"/>
        <path class="cls-11" d="m434.39,345.95c-1.38,0-2.47-.25-3.27-.74-.8-.5-1.38-1.2-1.73-2.12-.35-.92-.52-2.02-.52-3.31v-7.01c0-1.28.17-2.38.52-3.3.35-.91.93-1.61,1.73-2.09.8-.48,1.9-.72,3.27-.72s2.5.24,3.31.73c.81.49,1.39,1.18,1.74,2.09.35.9.52,2,.52,3.28v7.01c0,1.28-.17,2.39-.52,3.31-.35.92-.93,1.63-1.74,2.12-.81.49-1.92.74-3.31.74Zm0-2.76c.5,0,.86-.11,1.09-.34.23-.22.39-.53.46-.91.08-.38.12-.79.12-1.22v-8.89c0-.43-.04-.84-.12-1.21-.08-.37-.23-.67-.46-.89-.23-.22-.6-.34-1.09-.34-.46,0-.81.11-1.05.34-.23.22-.39.52-.46.89-.08.37-.12.77-.12,1.21v8.89c0,.43.04.84.11,1.22.07.38.22.68.45.91.23.22.59.34,1.07.34Z"/>
        <path class="cls-11" d="m447.76,345.95c-1.38,0-2.47-.25-3.27-.74-.8-.5-1.38-1.2-1.73-2.12-.35-.92-.52-2.02-.52-3.31v-7.01c0-1.28.17-2.38.52-3.3.35-.91.92-1.61,1.73-2.09.8-.48,1.9-.72,3.27-.72s2.5.24,3.31.73c.81.49,1.39,1.18,1.74,2.09.35.9.52,2,.52,3.28v7.01c0,1.28-.17,2.39-.52,3.31-.35.92-.93,1.63-1.74,2.12-.81.49-1.92.74-3.31.74Zm0-2.76c.49,0,.86-.11,1.09-.34.23-.22.39-.53.46-.91.08-.38.12-.79.12-1.22v-8.89c0-.43-.04-.84-.12-1.21-.08-.37-.23-.67-.46-.89-.23-.22-.6-.34-1.09-.34-.46,0-.81.11-1.05.34-.23.22-.39.52-.46.89-.08.37-.12.77-.12,1.21v8.89c0,.43.04.84.11,1.22.07.38.22.68.45.91.23.22.59.34,1.07.34Z"/>
        <path class="cls-11" d="m455.88,345.7v-18.8h4.6c1.59,0,2.84.2,3.73.62.89.41,1.52,1.05,1.89,1.93.37.87.56,1.99.56,3.35v6.85c0,1.39-.19,2.54-.56,3.44-.37.9-.99,1.56-1.87,1.98-.87.43-2.09.64-3.66.64h-4.69Zm3.83-2.67h.81c.71,0,1.22-.11,1.52-.34.3-.22.49-.56.57-1,.08-.44.12-.99.12-1.64v-7.75c0-.65-.05-1.17-.15-1.57s-.3-.68-.6-.87c-.3-.19-.79-.28-1.47-.28h-.79v13.44Z"/>
      </g>
      <g>
        <circle class="cls-11" cx="421.74" cy="264.52" r="56.33" transform="translate(64.53 611.28) rotate(-76.25)"/>
        <path class="cls-9" d="m384.48,260c1.15,1.15-.82,14.67-.49,31.82.09,4.83.19,9.41.32,13.7,9.87,9.02,23,14.54,37.43,14.54,13.46,0,25.8-4.8,35.42-12.77-.13-4.78-.25-9.97-.14-15.47.33-17.14-1.65-30.66-.49-31.82,1.15-1.15,9.89-11.7,14.34-16.49,4.45-4.78,7.42-16.65,4.45-21.1s-18.96,1.81-24.73,7.91c-5.77,6.1-8.08,9.89-8.08,9.89-6.52-.95-18.06-.78-21.93-.69-3.91-.09-15.57-.26-22.08.69,0,0-2.31-3.79-8.08-9.89s-21.76-12.36-24.73-7.91c-2.97,4.45,0,16.32,4.45,21.1,4.45,4.78,13.19,15.33,14.34,16.49Z"/>
        <path class="cls-16" d="m395.77,302.83c6.05,3.51,13.75,7.17,13.2,14.62-.01.16-.02.3-.03.45,4.11.97,8.4,1.5,12.8,1.5,3.94,0,7.77-.41,11.48-1.19-.02-.25-.03-.49-.05-.76-.55-7.46,7.15-11.11,13.2-14.62,6.05-3.51,10.08-13.89,8.62-15.65-1.47-1.75-15.77-.58-16.87-3.22-1.1-2.63-1.55-10.91-1.55-10.91l-15.5-4.38-16.15,4.38s.2,8.27-.9,10.91c-1.1,2.63-15.4,1.46-16.87,3.22-1.47,1.75,2.57,12.14,8.62,15.65Z"/>
        <path class="cls-17" d="m444.3,240.61s1.57,5.6,3.92,9.52c2.35,3.92,4.59,6.94,8.06,5.6,3.47-1.34,14.22-12.87,16.23-18.02,2.02-5.15,3.25-13.21.34-15.23-2.91-2.02-19.82,2.57-28.55,18.14Z"/>
        <path class="cls-17" d="m396.36,240.61s-1.57,5.6-3.92,9.52c-2.35,3.92-4.59,6.94-8.06,5.6-3.47-1.34-14.22-12.87-16.23-18.02-2.02-5.15-3.25-13.21-.34-15.23,2.91-2.02,19.82,2.57,28.55,18.14Z"/>
        <g>
          <g>
            <path class="cls-9" d="m416.79,275.17h9.04v11.82c0,2.3-1.87,4.17-4.17,4.17h-.71c-2.3,0-4.17-1.87-4.17-4.17v-11.82h0Z"/>
            <line class="cls-8" x1="421.15" y1="277.64" x2="421.15" y2="284.78"/>
          </g>
          <path class="cls-7" d="m425.43,261.98c-1.32-3.46.49-9.89-.49-13.02-.99-3.13-2.97-2.47-2.97-2.47l-.82.16-.82-.16s-1.98-.66-2.97,2.47c-.99,3.13.82,9.56-.49,13.02-1.32,3.46-11.54,9.56-11.54,12.53s5.44,7.58,7.75,8.57c2.31.99,8.08-5.44,8.08-5.44,0,0,5.77,6.43,8.08,5.44,2.31-.99,7.75-5.6,7.75-8.57s-10.22-9.07-11.54-12.53Z"/>
          <path class="cls-11" d="m427.41,270.55s-2.3-2.56-6.06-2.62c-4.13-.07-7.3,1.63-6.97,3.12.33,1.48,4.62,4.62,6.26,5.11,1.65.49,6.43-3.3,6.76-5.6Z"/>
          <g>
            <path class="cls-11" d="m431.16,259.37c0,1.4-.8,2.54-1.8,2.54s-1.79-1.14-1.79-2.54.8-2.54,1.79-2.54,1.8,1.14,1.8,2.54Z"/>
            <path class="cls-16" d="m430.2,258.38c0,.26-.21.47-.47.47s-.47-.21-.47-.47.21-.47.47-.47.47.21.47.47Z"/>
          </g>
          <g>
            <path class="cls-11" d="m413.6,259.37c0,1.4-.8,2.54-1.8,2.54s-1.79-1.14-1.79-2.54.8-2.54,1.79-2.54,1.8,1.14,1.8,2.54Z"/>
            <path class="cls-16" d="m412.75,258.38c0,.26-.21.47-.47.47s-.47-.21-.47-.47.21-.47.47-.47.47.21.47.47Z"/>
          </g>
        </g>
      </g>
      <g>
        <path class="cls-9" d="m497.74,374.96c.85,8.94,0,11.5-1.28,12.77-1.28,1.28-3.83,2.55-3.83,2.55h.05s14.95.01,14.95.01c0,0,11.09.62,11.71-5.55.62-6.16-1.44-95.39-3.47-120.47-2.03-25.08-16.05-65.08-16.05-65.08,0,0,.83,49.33.36,64.78s-3.29,102.03-2.44,110.98Z"/>
        <path class="cls-6" d="m503.04,379.35s4.35,7.61,6.52-.72c2.17-8.34-4.35-130.46-4.35-130.46l-2.17,131.19Z"/>
      </g>
    </g>
  </g>
  <g id="Pet_Food_2" data-name="Pet Food 2">
    <g>
      <g>
        <path class="cls-5" d="m308.29,358.79c0,2.04-1.66,3.7-3.7,3.7s-3.7-1.66-3.7-3.7,1.66-3.7,3.7-3.7,3.7,1.66,3.7,3.7Z"/>
        <path class="cls-5" d="m319.97,359.86c0,2.04-1.66,3.7-3.7,3.7s-3.7-1.66-3.7-3.7,1.66-3.7,3.7-3.7,3.7,1.66,3.7,3.7Z"/>
        <path class="cls-5" d="m316.04,354.87c0,2.04-1.66,3.7-3.7,3.7s-3.7-1.66-3.7-3.7,1.66-3.7,3.7-3.7,3.7,1.66,3.7,3.7Z"/>
        <circle class="cls-5" cx="326.83" cy="358.13" r="3.7"/>
        <path class="cls-5" d="m336.46,358.61c0,2.04-1.66,3.7-3.7,3.7s-3.7-1.66-3.7-3.7,1.66-3.7,3.7-3.7,3.7,1.66,3.7,3.7Z"/>
        <circle class="cls-10" cx="308.5" cy="356.5" r="3.7"/>
        <path class="cls-10" d="m327.18,353.89c0,2.04-1.66,3.7-3.7,3.7s-3.7-1.66-3.7-3.7,1.66-3.7,3.7-3.7,3.7,1.66,3.7,3.7Z"/>
        <path class="cls-10" d="m327.8,360.86c0,2.04-1.66,3.7-3.7,3.7s-3.7-1.66-3.7-3.7,1.66-3.7,3.7-3.7,3.7,1.66,3.7,3.7Z"/>
        <path class="cls-5" d="m314.57,360.41c0,2.04-1.66,3.7-3.7,3.7s-3.7-1.66-3.7-3.7,1.66-3.7,3.7-3.7,3.7,1.66,3.7,3.7Z"/>
        <path class="cls-5" d="m356.94,354.31c0,2.04-1.66,3.7-3.7,3.7s-3.7-1.66-3.7-3.7,1.66-3.7,3.7-3.7,3.7,1.66,3.7,3.7Z"/>
        <path class="cls-5" d="m346.41,358.13c0,2.04-1.66,3.7-3.7,3.7s-3.7-1.66-3.7-3.7,1.66-3.7,3.7-3.7,3.7,1.66,3.7,3.7Z"/>
        <path class="cls-10" d="m355.78,359.72c0,2.04-1.66,3.7-3.7,3.7s-3.7-1.66-3.7-3.7,1.66-3.7,3.7-3.7,3.7,1.66,3.7,3.7Z"/>
        <path class="cls-10" d="m346.97,350.55c0,2.04-1.66,3.7-3.7,3.7s-3.7-1.66-3.7-3.7,1.66-3.7,3.7-3.7,3.7,1.66,3.7,3.7Z"/>
        <path class="cls-5" d="m357.55,351.37c0,2.04-1.66,3.7-3.7,3.7s-3.7-1.66-3.7-3.7,1.66-3.7,3.7-3.7,3.7,1.66,3.7,3.7Z"/>
        <circle class="cls-5" cx="299.15" cy="361.99" r="3.7"/>
        <path class="cls-5" d="m337.69,352.98c0,2.04-1.66,3.7-3.7,3.7s-3.7-1.66-3.7-3.7,1.66-3.7,3.7-3.7,3.7,1.66,3.7,3.7Z"/>
        <path class="cls-5" d="m350.57,359.56c0,2.04-1.66,3.7-3.7,3.7s-3.7-1.66-3.7-3.7,1.66-3.7,3.7-3.7,3.7,1.66,3.7,3.7Z"/>
        <path class="cls-5" d="m340.64,353.66c0,2.04-1.66,3.7-3.7,3.7s-3.7-1.66-3.7-3.7,1.66-3.7,3.7-3.7,3.7,1.66,3.7,3.7Z"/>
        <path class="cls-5" d="m342.11,359.99c0,2.04-1.66,3.7-3.7,3.7s-3.7-1.66-3.7-3.7,1.66-3.7,3.7-3.7,3.7,1.66,3.7,3.7Z"/>
        <circle class="cls-5" cx="363.82" cy="359.85" r="3.7"/>
        <path class="cls-5" d="m363.45,356.11c0,2.04-1.66,3.7-3.7,3.7s-3.7-1.66-3.7-3.7,1.66-3.7,3.7-3.7,3.7,1.66,3.7,3.7Z"/>
        <path class="cls-10" d="m352.93,352.55c0,2.04-1.66,3.7-3.7,3.7s-3.7-1.66-3.7-3.7,1.66-3.7,3.7-3.7,3.7,1.66,3.7,3.7Z"/>
        <path class="cls-5" d="m359.68,353.73c0,2.04-1.66,3.7-3.7,3.7s-3.7-1.66-3.7-3.7,1.66-3.7,3.7-3.7,3.7,1.66,3.7,3.7Z"/>
        <circle class="cls-10" cx="342.46" cy="355.15" r="3.7"/>
        <circle class="cls-5" cx="359.48" cy="360.64" r="3.7"/>
        <path class="cls-5" d="m374.9,358.79c0,2.04-1.66,3.7-3.7,3.7s-3.7-1.66-3.7-3.7,1.66-3.7,3.7-3.7,3.7,1.66,3.7,3.7Z"/>
        <path class="cls-5" d="m383.54,359.72c0,2.04-1.66,3.7-3.7,3.7s-3.7-1.66-3.7-3.7,1.66-3.7,3.7-3.7,3.7,1.66,3.7,3.7Z"/>
        <path class="cls-5" d="m383.54,356.02c0,2.04-1.66,3.7-3.7,3.7s-3.7-1.66-3.7-3.7,1.66-3.7,3.7-3.7,3.7,1.66,3.7,3.7Z"/>
        <circle class="cls-5" cx="368.68" cy="354.22" r="3.7"/>
        <path class="cls-10" d="m367.17,355.2c0,2.04-1.66,3.7-3.7,3.7s-3.7-1.66-3.7-3.7,1.66-3.7,3.7-3.7,3.7,1.66,3.7,3.7Z"/>
        <path class="cls-10" d="m377.93,355.98c0,2.04-1.66,3.7-3.7,3.7s-3.7-1.66-3.7-3.7,1.66-3.7,3.7-3.7,3.7,1.66,3.7,3.7Z"/>
        <path class="cls-10" d="m371.22,359.85c0,2.04-1.66,3.7-3.7,3.7s-3.7-1.66-3.7-3.7,1.66-3.7,3.7-3.7,3.7,1.66,3.7,3.7Z"/>
        <path class="cls-5" d="m322.55,354.55c0,2.04-1.66,3.7-3.7,3.7s-3.7-1.66-3.7-3.7,1.66-3.7,3.7-3.7,3.7,1.66,3.7,3.7Z"/>
        <path class="cls-10" d="m390.63,356.33c0,2.04-1.66,3.7-3.7,3.7s-3.7-1.66-3.7-3.7,1.66-3.7,3.7-3.7,3.7,1.66,3.7,3.7Z"/>
        <path class="cls-10" d="m387.2,360.41c0,2.04-1.66,3.7-3.7,3.7s-3.7-1.66-3.7-3.7,1.66-3.7,3.7-3.7,3.7,1.66,3.7,3.7Z"/>
        <path class="cls-10" d="m332.87,357c-1.45,1.45-3.79,1.45-5.23,0-1.45-1.45-1.45-3.79,0-5.23,1.45-1.45,3.79-1.45,5.23,0,1.45,1.45,1.45,3.79,0,5.23Z"/>
        <path class="cls-5" d="m378.98,358.91c0,2.04-1.66,3.7-3.7,3.7s-3.7-1.66-3.7-3.7,1.66-3.7,3.7-3.7,3.7,1.66,3.7,3.7Z"/>
        <path class="cls-5" d="m395.18,360.08c0,2.04-1.66,3.7-3.7,3.7s-3.7-1.66-3.7-3.7,1.66-3.7,3.7-3.7,3.7,1.66,3.7,3.7Z"/>
      </g>
      <g>
        <path class="cls-10" d="m409.28,390.36h-126.64l8.39-26.07c.66-2.04,2.73-3.44,5.08-3.44h99.7c2.35,0,4.42,1.4,5.08,3.44l8.39,26.07Z"/>
        <polygon class="cls-1" points="307.04 390.36 318.54 390.36 322.74 360.85 314.46 360.85 307.04 390.36"/>
        <polygon class="cls-1" points="334.44 390.36 338.49 390.36 338.96 360.85 336.32 360.85 334.44 390.36"/>
        <path class="cls-16" d="m294.99,390.01l5.16-24.7c.14-.67.43-1.3.84-1.83.47-.61,1.12-1.48,1.64-2.27h-3.63c-.9.93-1.66.87-2.43,2.81-.56,1.42-5.7,19.77-7.49,25.99h5.9Z"/>
        <polygon class="cls-16" points="348.1 389.94 354.88 389.94 353.78 361.27 348.1 361.27 348.1 389.94"/>
        <path class="cls-1" d="m394.56,362.83c-.29-.68-1.49-1.41-2.64-1.98h-6.17c.87.34,2.47,1.07,3.59,2.18,1.19,1.19,5.68,18.45,7.93,27.33h6.19c-3.31-10.39-8.5-26.58-8.9-27.53Z"/>
      </g>
      <path class="cls-5" d="m402.01,386.29c0,2.04-1.66,3.7-3.7,3.7s-3.7-1.66-3.7-3.7,1.66-3.7,3.7-3.7,3.7,1.66,3.7,3.7Z"/>
      <path class="cls-5" d="m420.79,386.29c0,2.04-1.66,3.7-3.7,3.7s-3.7-1.66-3.7-3.7,1.66-3.7,3.7-3.7,3.7,1.66,3.7,3.7Z"/>
      <path class="cls-5" d="m434.1,386.29c0,2.04-1.66,3.7-3.7,3.7s-3.7-1.66-3.7-3.7,1.66-3.7,3.7-3.7,3.7,1.66,3.7,3.7Z"/>
      <path class="cls-5" d="m412.84,386.29c0,2.04-1.66,3.7-3.7,3.7s-3.7-1.66-3.7-3.7,1.66-3.7,3.7-3.7,3.7,1.66,3.7,3.7Z"/>
    </g>
  </g>
  <g id="Pet_Food_1" data-name="Pet Food 1">
    <g>
      <rect class="cls-18" x="222.81" y="309.75" width="56.36" height="80.61"/>
      <rect class="cls-9" x="222.81" y="313.82" width="56.36" height="72.48"/>
      <circle class="cls-16" cx="250.99" cy="339.42" r="19.6" transform="translate(-123.97 533.33) rotate(-80.86)"/>
      <path class="cls-11" d="m276.16,331.81c-.16-.21-.31-.44-.51-.6-.63-.49-1.27-.96-1.93-1.41-.27-.18-.44-.41-.46-.72-.07-.89-.52-1.53-1.23-2.02-.11-.08-.21-.18-.32-.26-.19-.13-.23-.28-.16-.49.19-.63.39-1.26.55-1.9.08-.32.08-.65.11-.98-.03,0-.06-.01-.1-.02-.35.42-.69.84-1.06,1.29.03-.63.06-1.21.09-1.79-.04,0-.07-.02-.11-.02-.06.08-.13.16-.19.24-.58.66-1.15,1.34-1.75,1.98-.17.18-.43.32-.67.4-.87.29-1.66.71-2.32,1.35-.29.28-.59.56-.91.81-.52.41-1.03.87-1.61,1.19-.63.35-1.33.57-2,.84-1.3.53-2.66.52-4.03.49-.34,0-.69-.01-1.01.08-.82.23-1.64.32-2.49.32-.97,0-1.95.14-2.92.18-1.67.07-3.34.2-4.97.61-1.73.44-3.36,1.14-4.87,2.11-1.18.76-2.54,1.21-3.6,2.16-.4.36-.86.66-1.27,1.02-1.43,1.26-3.22,1.9-4.9,2.72-.3.15-.71.05-1.07.1-1.24.19-2.15-.52-3.05-1.17-.38-.28-.69-.7-.94-1.11-.23-.38-.51-.59-.96-.64-.03.25-.06.52-.09.78,0,.06,0,.13-.03.17-.26.44-.12.92-.11,1.38,0,.33.19.65.3.98.17.52.53.91.89,1.29.18.19.5.25.76.38-.03.02-.08.06-.17.14.22.08.39.15.57.22.1.04.23.05.29.12.27.33.65.4,1.04.45.12.01.23.03.35.05.2.04.39.13.59.13.31,0,.61-.06.91-.1.61-.08,1.21-.22,1.84-.2.57.02,1.14-.07,1.62-.45.05-.04.11-.06.17-.09.02,0,.06,0,.1,0-.02.04-.03.07-.04.1-.01.03-.02.07-.04.16,1.33-.59,2.63-1.14,3.68-2.16,0,.74,0,2.11.03,3.24-.05.02-.1.04-.16.06l.16.08c0,.14,0,.27,0,.4,0,.01,0,.02-.01.04,0,0,0,0,.01-.01,0,.3.02.58.03.79.06,1,.39,1.34.28,1.7-.09.14-.18.28-.3.4-.36.33-.79.73-1.12,1.04-.38.3-.79.57-1.24.78-.28.13-.46.33-.43.67.07.69.15,1.37.22,2.06.04.43.07.86.13,1.28.01.09.11.23.17.23.24,0,.24.16.27.31.03.19.03.38.07.57.05.26,0,.46-.21.62,0,0,0,.04,0,.07h.18c0,.08-.02.16-.03.31.15-.14.24-.22.32-.3.11.32.18.65.33.93.07.13.31.29.44.26.3-.06.54.01.79.13.23.11.48.18.72.25.25.08.47.04.67-.16.07-.07.22-.09.34-.09.27-.01.54,0,.67-.37.32.18.51.07.68-.18.06-.08.18-.15.28-.17.3-.07.36-.18.2-.43-.38-.6-.89-.99-1.64-.98-.21,0-.35-.06-.42-.29-.08-.25-.21-.49-.35-.71-.24-.39-.34-.82-.22-1.26.15-.56.37-1.1.59-1.64.24-.58.7-.87,1.32-.97,1-.16,1.94-.49,2.77-1.08.76-.54,1.17-1.38,1.71-2.11.06-.08.09-.23.15-.23.34-.04.2-.41.42-.56.15-.1.14-.42.21-.65.07.06.11.1.15.14.15-.2-.06-.42.14-.65.15-.17.08-.54.11-.84,0,0,.96.11,2.98,1.21,1.66.9,5.21.83,6.89.78.01.37.02.75-.03,1.12-.08.65-.22,1.3-.36,1.94-.24,1.1-.12,2.25-.55,3.32,0,.02-.01.04,0,.06.12.34.14.79.38.98.28.22.25.41.21.7.44-.12.63.09.73.47.02.07.14.15.23.17.39.09.79.16,1.22.25v1.1c.08,0,.15,0,.23.01-.01.09-.02.17-.03.23.21.07.49.07.58.2.31.42.77.45,1.2.59.61.2,1.22.1,1.82.03.12-.01.23-.09.36-.14-.11-.18-.2-.32-.29-.47.05-.02.09-.03.13-.04.37-.11.38-.18.14-.46-.31-.36-.7-.66-1.15-.69-.68-.05-.92-.44-1.06-1-.02-.06-.05-.12-.07-.18-.2-.47-.22-.95-.08-1.44.48-1.74.76-3.52,1.46-5.21.35-.85.76-1.6,1.41-2.23.24-.23.53-.44.82-.59.33-.16.58-.37.79-.66.42-.6.81-1.24,1.32-1.76.81-.82,1.42-1.74,1.87-2.79.26-.6.57-1.18,1.08-1.6.29-.25.62-.45.94-.66.35-.24.63-.52.69-.98.05-.33.16-.66.26-.99.18-.57.63-.72,1.11-.38.11.08.22.19.34.23.16.05.39.12.51.05.35-.21.7-.19,1.08-.14.1.01.22,0,.31-.02.79-.27,1.46-.73,2.09-1.26.17-.14.2-.33.06-.51Z"/>
      <g>
        <path class="cls-11" d="m227.5,372.13v-9.48h2.32c.8,0,1.43.1,1.88.31.45.21.77.53.95.97s.28,1.01.28,1.69v3.45c0,.7-.09,1.28-.28,1.73-.19.45-.5.79-.94,1-.44.21-1.06.32-1.84.32h-2.37Zm1.93-1.35h.41c.36,0,.61-.06.77-.17.15-.11.25-.28.29-.5.04-.22.06-.5.06-.83v-3.91c0-.33-.03-.59-.08-.79s-.15-.35-.3-.44c-.15-.09-.4-.14-.74-.14h-.4v6.78Z"/>
        <path class="cls-11" d="m236.86,372.26c-.69,0-1.25-.13-1.65-.37-.41-.25-.7-.61-.87-1.07-.18-.46-.26-1.02-.26-1.67v-3.54c0-.65.09-1.2.26-1.66.18-.46.47-.81.87-1.05.41-.24.96-.36,1.65-.36s1.26.12,1.67.37c.41.25.7.6.88,1.05.18.46.26,1.01.26,1.66v3.54c0,.65-.09,1.2-.26,1.67-.18.46-.47.82-.88,1.07s-.97.37-1.67.37Zm0-1.39c.25,0,.43-.06.55-.17.12-.11.2-.27.23-.46.04-.19.06-.4.06-.61v-4.49c0-.22-.02-.42-.06-.61-.04-.19-.12-.34-.23-.45-.12-.11-.3-.17-.55-.17-.23,0-.41.06-.53.17-.12.11-.2.26-.23.45-.04.19-.06.39-.06.61v4.49c0,.22.02.42.05.61.04.19.11.34.23.46.12.11.3.17.54.17Z"/>
        <path class="cls-11" d="m243.38,372.27c-.64,0-1.15-.14-1.52-.4-.37-.27-.64-.65-.8-1.15-.16-.5-.24-1.07-.24-1.73v-3.17c0-.68.08-1.26.25-1.76.16-.49.45-.87.86-1.14s.97-.4,1.67-.4,1.22.11,1.61.34c.39.23.68.55.85.96.17.41.26.91.26,1.48v.55h-1.89v-.67c0-.25-.02-.47-.05-.66-.03-.19-.1-.34-.22-.45-.11-.11-.3-.16-.54-.16s-.44.07-.56.2c-.12.13-.19.3-.22.51-.03.21-.05.43-.05.66v4.2c0,.27.02.5.07.71.05.21.13.37.26.49.13.12.31.18.56.18s.43-.06.56-.19c.13-.12.22-.29.28-.51.05-.21.08-.46.08-.73v-1.01h-.93v-1.17h2.67v4.87h-1.26l-.12-.85c-.13.29-.31.53-.56.71-.25.19-.59.28-1.01.28Z"/>
        <path class="cls-11" d="m250.58,372.13v-9.48h4v1.31h-2.07v2.56h1.76v1.35h-1.76v4.26h-1.93Z"/>
        <path class="cls-11" d="m258.21,372.26c-.69,0-1.25-.13-1.65-.37-.41-.25-.7-.61-.87-1.07-.18-.46-.26-1.02-.26-1.67v-3.54c0-.65.09-1.2.26-1.66.18-.46.47-.81.87-1.05.41-.24.96-.36,1.65-.36s1.26.12,1.67.37c.41.25.7.6.88,1.05.18.46.26,1.01.26,1.66v3.54c0,.65-.09,1.2-.26,1.67-.18.46-.47.82-.88,1.07s-.97.37-1.67.37Zm0-1.39c.25,0,.43-.06.55-.17.12-.11.2-.27.23-.46.04-.19.06-.4.06-.61v-4.49c0-.22-.02-.42-.06-.61-.04-.19-.12-.34-.23-.45-.12-.11-.3-.17-.55-.17-.23,0-.41.06-.53.17-.12.11-.2.26-.23.45-.04.19-.06.39-.06.61v4.49c0,.22.02.42.05.61.04.19.11.34.23.46.12.11.3.17.54.17Z"/>
        <path class="cls-11" d="m264.95,372.26c-.69,0-1.25-.13-1.65-.37-.41-.25-.7-.61-.87-1.07-.18-.46-.26-1.02-.26-1.67v-3.54c0-.65.09-1.2.26-1.66.18-.46.47-.81.87-1.05.41-.24.96-.36,1.65-.36s1.26.12,1.67.37c.41.25.7.6.88,1.05.18.46.26,1.01.26,1.66v3.54c0,.65-.09,1.2-.26,1.67-.18.46-.47.82-.88,1.07s-.97.37-1.67.37Zm0-1.39c.25,0,.43-.06.55-.17.12-.11.2-.27.23-.46.04-.19.06-.4.06-.61v-4.49c0-.22-.02-.42-.06-.61-.04-.19-.12-.34-.23-.45-.12-.11-.3-.17-.55-.17-.23,0-.41.06-.53.17-.12.11-.2.26-.23.45-.04.19-.06.39-.06.61v4.49c0,.22.02.42.05.61.04.19.11.34.23.46.12.11.3.17.54.17Z"/>
        <path class="cls-11" d="m269.05,372.13v-9.48h2.32c.8,0,1.43.1,1.88.31.45.21.77.53.95.97.19.44.28,1.01.28,1.69v3.45c0,.7-.09,1.28-.28,1.73-.19.45-.5.79-.94,1-.44.21-1.06.32-1.84.32h-2.37Zm1.93-1.35h.41c.36,0,.61-.06.77-.17.15-.11.25-.28.29-.5.04-.22.06-.5.06-.83v-3.91c0-.33-.03-.59-.08-.79-.05-.2-.15-.35-.3-.44-.15-.09-.4-.14-.74-.14h-.4v6.78Z"/>
      </g>
      <rect class="cls-14" x="228.9" y="309.75" width="6.58" height="80.61"/>
      <rect class="cls-14" x="267.97" y="309.75" width="6.58" height="80.61"/>
      <rect class="cls-2" x="222.81" y="309.75" width="56.36" height="80.61"/>
      <rect class="cls-14" x="226.05" y="309.75" width=".86" height="80.61"/>
    </g>
  </g>
</svg>