<?xml version="1.0" encoding="UTF-8"?>
<svg id="Layer_1" data-name="Layer 1" xmlns="http://www.w3.org/2000/svg" viewBox="0 0 600 350">
  <defs>
    <style>
      .cls-1 {
        fill: #261718;
      }

      .cls-1, .cls-2, .cls-3, .cls-4, .cls-5, .cls-6, .cls-7, .cls-8, .cls-9, .cls-10, .cls-11, .cls-12, .cls-13, .cls-14, .cls-15, .cls-16, .cls-17, .cls-18, .cls-19, .cls-20, .cls-21, .cls-22, .cls-23, .cls-24, .cls-25, .cls-26, .cls-27, .cls-28, .cls-29, .cls-30, .cls-31, .cls-32, .cls-33, .cls-34 {
        stroke-width: 0px;
      }

      .cls-2 {
        fill: #3a2127;
      }

      .cls-3 {
        fill: #c93531;
      }

      .cls-4 {
        fill: #a36a54;
      }

      .cls-5 {
        fill: #faf3ed;
      }

      .cls-6 {
        fill: #45282a;
      }

      .cls-7 {
        fill: #823d27;
      }

      .cls-8 {
        fill: #eaa97d;
      }

      .cls-9 {
        fill: #c64439;
      }

      .cls-10 {
        fill: #cedbf4;
      }

      .cls-11 {
        fill: #8baad8;
      }

      .cls-12 {
        fill: #117752;
      }

      .cls-13 {
        fill: #e3ecff;
      }

      .cls-14 {
        fill: #ad6555;
      }

      .cls-15 {
        fill: #a89f98;
      }

      .cls-16 {
        fill: #f7e8d7;
      }

      .cls-17 {
        fill: #ce7c55;
      }

      .cls-18, .cls-34 {
        fill: #fff;
      }

      .cls-19 {
        fill: #f3ae91;
      }

      .cls-20 {
        fill: #f4e0c7;
      }

      .cls-21 {
        fill: #f4e0c5;
      }

      .cls-22 {
        fill: #d3826c;
      }

      .cls-23 {
        fill: #6d3121;
      }

      .cls-24 {
        fill: #b1c5e5;
      }

      .cls-25 {
        fill: #ffb3a1;
      }

      .cls-26 {
        fill: #f9ebdc;
      }

      .cls-27 {
        fill: #3a2023;
      }

      .cls-28 {
        fill: #a5533a;
      }

      .cls-29 {
        fill: #34436c;
      }

      .cls-30 {
        fill: #f1b7a0;
      }

      .cls-31 {
        fill: #f46831;
      }

      .cls-32 {
        fill: #de704b;
      }

      .cls-33 {
        fill: #ee574e;
      }

      .cls-34 {
        opacity: 0;
      }
    </style>
  </defs>
  <rect class="cls-34" width="600" height="350"/>
  <g>
    <path class="cls-13" d="m451.97,279.02c-18.02-.29-34.81-.66-50.55-1.09-3.5-.09-6.94-.19-10.34-.29-128.16-3.73-184.49-10.33-268.45,2.28-54.79,8.23-102.74-22.28-91.39-58.14,3.18-10.07,8.47-20.74,16.66-31.72C90.56,132.95-16.71,52.38,163.95,59.83c104.63,4.32,173.97,1.19,227.14-3.7,3.52-.32,6.96-.65,10.34-.99,33.76-3.36,61.01-7.32,87.26-10.23,68.63-7.61,92.11,25.18,59.44,87.22-32.66,62.04,120.32,150.36-96.15,146.89Z"/>
    <g>
      <path class="cls-10" d="m91.98,206.7s51.46-29.68,125.3-32.28c73.84-2.6,140.61-85.15,140.61-85.15v49.66s-49.52,84.12-265.92,84.12c-5.32,0,0-16.34,0-16.34Z"/>
      <path class="cls-10" d="m265.76,89.27s16.07,40.91-15.68,52.7c-31.75,11.8-137.95,4.94-158.09,26.39v-24.78s41.16-13.83,79.78-11.3c38.61,2.54,42.56-43.02,42.56-43.02h51.44Z"/>
      <g>
        <path class="cls-18" d="m90.56,87.84v136.63h268.77V87.84H90.56Zm211.53,2.85v130.93h-134.77V90.69h134.77Zm-208.68,0h71.05v130.93h-71.05V90.69Zm263.06,130.93h-51.54V90.69h51.54v130.93Z"/>
        <path class="cls-1" d="m359.59,224.73H90.3V87.58h269.29v137.15Zm-268.77-.53h268.24V88.1H90.82v136.1Zm265.92-2.33h-52.06V90.43h52.06v131.45Zm-51.53-.53h51.01V90.96h-51.01v130.4Zm-2.85.53h-135.3V90.43h135.3v131.45Zm-134.77-.53h134.25V90.96h-134.25v130.4Zm-2.85.53h-71.58V90.43h71.58v131.45Zm-71.05-.53h70.53V90.96h-70.53v130.4Z"/>
      </g>
    </g>
    <g>
      <polygon class="cls-30" points="142.86 272.44 145.72 292.32 160.28 287.95 159.79 265.96 142.86 272.44"/>
      <g>
        <path class="cls-24" d="m160.73,281.91l-16.15,5.45s-3.22,10.15-1.38,17.09c0,0,22.3-1.61,35.6,2.13,3.19.89,6.53,1.12,9.79.55,2.62-.46,5.03-1.25,4.96-2.62-.15-2.98-2.57-8.38-11.36-5.7,0,0-16.21-14.45-21.46-16.9Z"/>
        <path class="cls-1" d="m193.55,304.77c-.14,0-.25-.11-.26-.25-.08-1.58-.81-3.72-2.64-5.01-1.98-1.39-4.8-1.55-8.37-.45l-.14.04-.11-.1c-.16-.14-16.24-14.45-21.4-16.85-.13-.06-.19-.22-.13-.35.06-.13.22-.19.35-.13,5.06,2.36,19.87,15.46,21.42,16.84,3.67-1.09,6.59-.9,8.69.57,1.98,1.39,2.78,3.71,2.87,5.41,0,.14-.1.27-.25.27,0,0,0,0-.01,0Z"/>
        <path class="cls-1" d="m158.9,287.71c-.09,0-.17-.04-.22-.12-.08-.12-.04-.28.08-.36l5.52-3.58c.12-.08.28-.04.36.08.08.12.04.28-.08.36l-5.52,3.58s-.09.04-.14.04Z"/>
        <path class="cls-1" d="m163.16,291.03c-.09,0-.17-.04-.22-.12-.08-.12-.04-.28.08-.36l5.52-3.58c.12-.08.28-.04.36.08.08.12.04.28-.08.36l-5.52,3.58s-.09.04-.14.04Z"/>
        <path class="cls-1" d="m167.38,294.37c-.09,0-.17-.04-.22-.12-.08-.12-.04-.28.08-.36l5.52-3.58c.12-.08.28-.04.36.08.08.12.04.28-.08.36l-5.52,3.58s-.09.04-.14.04Z"/>
        <g>
          <rect class="cls-18" x="141.52" y="304.25" width="53.75" height="7.14" transform="translate(334.39 616.95) rotate(-179.55)"/>
          <path class="cls-1" d="m195.51,311.87l-54.28-.42.06-7.67,54.28.42-.06,7.67Zm-53.75-.94l53.23.42.05-6.62-53.23-.42-.05,6.62Z"/>
        </g>
      </g>
      <polygon class="cls-30" points="100.04 275.08 99.86 295.15 114.98 293.25 116.43 271.22 100.04 275.08"/>
      <path class="cls-17" d="m141.92,281.52l-8.16-49.75c-12.07-12.15-18.82-26.3-22.47-36.75-2.6-7.44,2.84-15.25,10.72-15.42l14.09-.31-.09,4.35s11.51,15.19,20.05,41.32c3.48,10.64,5.22,55.66,5.22,55.66l-19.35.89Z"/>
      <g>
        <path class="cls-24" d="m115.79,285.43l-16.09,5.65s-3.09,10.19-1.17,17.11c0,0,22.28-1.88,35.63,1.7,3.2.86,6.54,1.04,9.8.43,2.61-.49,5.01-1.31,4.93-2.68-.18-2.98-2.67-8.35-11.42-5.57,0,0-16.39-14.25-21.67-16.63Z"/>
        <path class="cls-1" d="m148.89,307.89c-.14,0-.25-.11-.26-.25-.1-1.58-.86-3.72-2.7-4.98-2-1.37-4.82-1.49-8.38-.35l-.14.04-.11-.1c-.16-.14-16.42-14.25-21.6-16.59-.13-.06-.19-.22-.13-.35.06-.13.22-.19.35-.13,5.09,2.3,20.05,15.22,21.62,16.58,3.66-1.14,6.58-.98,8.69.46,2,1.37,2.83,3.68,2.93,5.38,0,.15-.1.27-.25.28,0,0-.01,0-.02,0Z"/>
        <path class="cls-1" d="m114.03,291.26c-.08,0-.17-.04-.22-.12-.08-.12-.05-.28.07-.36l5.47-3.65c.12-.08.28-.05.36.07.08.12.05.28-.07.36l-5.47,3.65s-.1.04-.15.04Z"/>
        <path class="cls-1" d="m118.31,294.4c-.08,0-.17-.04-.22-.12-.08-.12-.05-.28.07-.36l5.47-3.65c.12-.08.28-.05.36.07.08.12.05.28-.07.36l-5.47,3.65s-.1.04-.15.04Z"/>
        <path class="cls-1" d="m122.95,298.01c-.08,0-.17-.04-.22-.12-.08-.12-.05-.28.07-.36l5.47-3.65c.12-.08.28-.05.36.07.08.12.05.28-.07.36l-5.47,3.65s-.1.04-.15.04Z"/>
        <g>
          <rect class="cls-18" x="96.91" y="307.68" width="53.75" height="7.14" transform="translate(248.9 621.97) rotate(179.75)"/>
          <path class="cls-1" d="m96.66,315.2l-.03-7.67,54.28-.23.03,7.67-54.28.23Zm.49-7.14l.03,6.62,53.23-.23-.03-6.62-53.23.23Z"/>
        </g>
      </g>
      <path class="cls-17" d="m98.73,283.2s3.42-65.89,3.42-66.01c-2.18-37.2,12.48-42.22,12.48-42.22l20.53,4.77-7,46.05-11.39,57.74-18.04-.32Z"/>
      <path class="cls-1" d="m107.83,283.78s-.02,0-.03,0c-.14-.02-.25-.15-.23-.29l6.21-57.74,5.59-46.05c.02-.14.15-.25.29-.23.14.02.25.15.23.29l-5.59,46.05-6.21,57.73c-.01.13-.13.23-.26.23Z"/>
      <path class="cls-1" d="m128.16,226.04s-.03,0-.05,0c-.14-.03-.24-.16-.21-.3l7.13-40.08c.03-.14.16-.24.3-.21.14.03.24.16.21.3l-7.13,40.08c-.02.13-.13.22-.26.22Z"/>
      <path class="cls-23" d="m154.55,189.58l.82-2.7c-14.06-4.29-13.76-19.36-13.76-19.51l-2.82-.09c0,.17-.34,17.39,15.76,22.3Z"/>
      <g>
        <path class="cls-27" d="m134.73,107.9s9.46,1.55,11.76,9.22c2.29,7.67-2.68,5.89-5.08,8.04-2.41,2.15,4.28,6.43-.64,9.7-2.24,1.49-6.76.68-11-.64-5.11-1.6-7.26-7.65-4.32-12.13l9.29-14.18Z"/>
        <path class="cls-30" d="m140.07,117.63c.08.47.12.93.15,1.39.24,4.44-1.83,8.27-5.8,9.02-.34.07-.69.11-1.06.13-.8.04-1.62-.03-2.42-.19-.97-.2-1.93-.54-2.83-1-.8-.41-1.56-.91-2.24-1.48-1.98-1.67-3.37-4-3.5-6.63-.27-5.43,3.64-10.04,8.73-10.29,5.09-.26,7.81,1.69,8.98,9.06Z"/>
        <path class="cls-32" d="m136.04,122.21c-1.24,0-1.9-.64-1.93-.67-.1-.1-.1-.27,0-.37.1-.1.27-.1.37,0,.04.04.9.85,2.57.37.14-.04.28.04.32.18.04.14-.04.28-.18.32-.43.12-.81.17-1.15.17Z"/>
        <path class="cls-6" d="m134.43,114.94c.05.47-3.74.96-3.79.49-.05-.47,1.37-1.16,2.42-1.3s1.31.34,1.37.81Z"/>
        <path class="cls-18" d="m134.1,117.19c.01.21-.16.42-.45.56-.07.03-.14.07-.21.09-.21.07-.46.13-.72.14-.06,0-.12,0-.17,0-.19,0-.38-.03-.54-.06-.43-.11-.73-.33-.74-.6-.01-.27.28-.54.72-.68.12-.04.26-.08.4-.1.03,0,.06-.01.09-.01.06,0,.12,0,.17,0,.1,0,.19,0,.29,0,.24,0,.46.05.64.13.31.12.51.31.52.53Z"/>
        <path class="cls-1" d="m134.1,117.19c.01.21-.16.42-.45.56-.07.03-.14.07-.21.09-.21.07-.46.13-.72.14-.06,0-.12,0-.17,0-.22-.17-.37-.43-.39-.73-.02-.27.07-.51.22-.71.03,0,.06-.01.09-.01.06,0,.12,0,.17,0,.1,0,.19,0,.29,0,.24,0,.46.05.64.13.31.12.51.31.52.53Z"/>
        <path class="cls-30" d="m123.88,122.48l9.43,4.45-1.53,3.68c0,.08-9.34-4.18-9.34-4.18l1.44-3.94Z"/>
        <path class="cls-1" d="m137.66,120.27c-.08,0-.16-.04-.21-.1-.09-.12-.06-.28.05-.37.11-.08.12-.13.12-.13-.06-.17-.89-.45-1.71-.57l-.21-.03-.15-2.49c0-.14.1-.27.25-.28.15,0,.27.1.28.25l.12,2.07c.66.11,1.79.39,1.93.94.04.16.02.42-.32.67-.05.04-.1.05-.16.05Z"/>
        <path class="cls-6" d="m136.25,114.85c-.03.47,2.97.62,3,.15.03-.47-1.12-1.04-1.95-1.08s-1.02.46-1.05.93Z"/>
        <path class="cls-18" d="m139.09,116.96c.01.21-.15.41-.41.55-.09.05-.19.09-.29.13-.19.07-.4.11-.63.12-.06,0-.12,0-.17,0-.02,0-.03,0-.05,0-.21,0-.4-.04-.57-.1-.36-.11-.6-.32-.62-.56-.01-.27.25-.51.65-.66.13-.05.28-.08.44-.11.02,0,.05,0,.08,0,.05-.01.1,0,.16-.02.07,0,.15,0,.21,0,.24,0,.46.05.64.11.32.12.54.32.55.55Z"/>
        <path class="cls-1" d="m130.95,128.24s-.04,0-.05,0c-.99-.2-1.96-.55-2.9-1.02-.82-.42-1.59-.93-2.29-1.52-.11-.09-.12-.26-.03-.37.09-.11.26-.13.37-.03.67.56,1.4,1.05,2.19,1.45.89.45,1.82.78,2.77.97.14.03.23.17.2.31-.03.12-.13.21-.26.21Z"/>
        <path class="cls-1" d="m139.09,116.96c.01.21-.15.41-.41.55-.09.05-.19.09-.29.13-.19.07-.4.11-.63.12-.06,0-.12,0-.17,0-.02,0-.03,0-.05,0-.19-.17-.32-.41-.34-.69-.02-.28.08-.54.24-.74.02,0,.05,0,.08,0,.05-.01.1,0,.16-.02.07,0,.15,0,.21,0,.24,0,.46.05.64.11.32.12.54.32.55.55Z"/>
        <path class="cls-32" d="m129.29,120.08c-.01.68.81,1.25,1.84,1.27s1.88-.51,1.89-1.19-.81-1.25-1.84-1.27c-1.03-.02-1.88.51-1.89,1.19Z"/>
      </g>
      <path class="cls-30" d="m155.04,153.28c-1.26,1.92-2.53,3.83-3.58,5.4-1.29,1.93-4.01,2.22-5.67.6l-4.25-4.11-3.66-3.54-.06-.06s.01-.04.02-.05c1.88-4.98,4.77-7.43,7.85-8.46,1.31-.44,2.85-.5,4.43-.34,5.07.5,7.72,6.3,4.92,10.56Z"/>
      <path class="cls-18" d="m121.03,126.23s10.79,2.78,11.2,3.45c1.02,1.67-1.38,6.45-2.43,6.88-1.05.43-12.23-2.45-12.43-3.53s1.33-6.99,3.66-6.8Z"/>
      <path class="cls-18" d="m140.49,171.93c-.1,2.87-1.95,5.39-4.65,6.35-8.99,3.21-29.98,5.6-29.31-12.28.66-17.39,4.4-27.5,8.74-31.55.85-.8,2.38-1.71,3.24-2.11,18.19-8.49,22.41,27.07,21.99,39.5,0,.03,0,.06,0,.09Z"/>
      <path class="cls-1" d="m115.83,134.29c-.08,0-.15-.03-.2-.1-.09-.11-.08-.28.04-.37.08-.06,7.61-6.11,14.14-.89.11.09.13.26.04.37-.09.11-.26.13-.37.04-6.21-4.95-13.41.83-13.48.89-.05.04-.11.06-.17.06Z"/>
      <path class="cls-18" d="m107.9,182.6c-1.34-.33.41-8.38.41-8.38l30.69-.51s1.56,8.77.27,10.26c-1.29,1.49-30.04-1.04-31.37-1.37Z"/>
      <polygon class="cls-4" points="154.91 172.64 144.73 170.27 139.6 175.69 153.17 178.49 154.91 172.64"/>
      <path class="cls-28" d="m129.05,133.05l.5,13.46c.13,3.46,2.66,6.29,5.91,6.94.55.11,1.12.16,1.7.14,4.04-.15,7.22-3.58,7.08-7.62l-.5-13.46c-.08-2.17-1.1-4.09-2.66-5.38-.52-.43-1.1-.79-1.72-1.07-.99-.44-2.09-.67-3.24-.63-2.02.07-3.83.97-5.11,2.35-1.28,1.38-2.04,3.25-1.97,5.27Z"/>
      <g>
        <path class="cls-23" d="m157.88,172.59c2.81.76,3.55,3.55,3.41,6.03-.06,1.13-1.38,1.81-2.76,1.44l-6.65-1.81c-1.73-.47-2.07-2.8-.54-3.73,2.1-1.27,4.68-2.43,6.53-1.93Z"/>
        <path class="cls-1" d="m157.12,179.9c-.21,0-.42-.03-.63-.09-.14-.04-.22-.18-.18-.32.04-.14.18-.22.32-.18.5.14,1,.07,1.35-.19.16-.12.36-.32.38-.65.05-.9-.03-2.56-1.12-3.56-.11-.1-.11-.26-.02-.37.1-.11.26-.11.37-.02,1.25,1.15,1.34,2.99,1.29,3.98-.02.42-.23.79-.59,1.05-.32.23-.73.35-1.16.35Z"/>
      </g>
      <g>
        <path class="cls-18" d="m138.21,130.91c0,.06.02.12.05.18.1.2.34.35.66.42.08.02.16.03.25.04.08,0,.15,0,.24,0,.12,0,.23-.02.33-.05.05,0,.1-.02.15-.04.41-.13.69-.39.68-.68,0-.28-.3-.51-.71-.59-.05,0-.1-.02-.15-.02-.11-.01-.22-.02-.33-.01-.08,0-.16.01-.24.03-.09.02-.17.04-.25.06-.32.11-.55.28-.64.49-.03.06-.04.12-.04.19Z"/>
        <path class="cls-1" d="m138.24,130.91c0,.06,0,.12.02.18.1.2.34.35.66.42.08.02.16.03.25.04.08,0,.15,0,.24,0,.12,0,.23-.02.33-.05.1-.19.14-.42.14-.67,0-.25-.07-.48-.17-.67-.11-.01-.22-.02-.33-.01-.08,0-.16.01-.24.03-.09.02-.17.04-.25.06-.32.11-.55.28-.64.49,0,.06,0,.12,0,.19Z"/>
        <path class="cls-1" d="m139.29,131.81s-.09,0-.13,0c-.71-.05-1.2-.41-1.21-.89-.01-.47.46-.88,1.15-1,.09-.01.18-.02.27-.03.81-.04,1.46.35,1.48.89.01.53-.61.99-1.41,1.03-.04,0-.09,0-.13,0Zm.19-1.4s-.07,0-.1,0c-.07,0-.14.01-.21.02-.43.08-.71.31-.71.47,0,.16.28.35.72.38h.1s.07,0,.1,0c.57-.03.92-.31.92-.5,0-.18-.34-.38-.82-.38Z"/>
      </g>
      <g>
        <path class="cls-18" d="m132.91,130.91c0,.06.02.12.05.18.1.2.34.35.66.42.08.02.16.03.25.04.08,0,.15,0,.24,0,.12,0,.23-.02.33-.05.05,0,.1-.02.15-.04.41-.13.69-.39.68-.68,0-.28-.3-.51-.71-.59-.05,0-.1-.02-.15-.02-.11-.01-.22-.02-.33-.01-.08,0-.16.01-.24.03-.09.02-.17.04-.25.06-.32.11-.55.28-.64.49-.03.06-.04.12-.04.19Z"/>
        <path class="cls-1" d="m132.94,130.91c0,.06,0,.12.02.18.1.2.34.35.66.42.08.02.16.03.25.04.08,0,.15,0,.24,0,.12,0,.23-.02.33-.05.1-.19.14-.42.14-.67,0-.25-.07-.48-.17-.67-.11-.01-.22-.02-.33-.01-.08,0-.16.01-.24.03-.09.02-.17.04-.25.06-.32.11-.55.28-.64.49,0,.06,0,.12,0,.19Z"/>
        <path class="cls-1" d="m134,131.81s-.09,0-.13,0c-.71-.05-1.2-.41-1.21-.89-.01-.47.46-.88,1.15-1,.09-.01.18-.02.27-.03.81-.04,1.46.35,1.48.89.01.53-.61.99-1.41,1.03-.04,0-.09,0-.13,0Zm.19-1.4s-.07,0-.1,0c-.07,0-.14.01-.21.02-.43.08-.71.31-.71.47,0,.16.28.35.72.38h.1s.07,0,.1,0c.57-.03.92-.31.92-.5,0-.18-.34-.38-.82-.38Z"/>
      </g>
      <path class="cls-28" d="m154.08,161.43c.09,1.21-.02,2.4-.29,3.54-1.43,6.04-7.52,10.86-15.13,11.39l-1.95-27.55c6.18-.44,11.77,2.06,14.86,6.11,1.44,1.88,2.33,4.1,2.51,6.51Z"/>
      <path class="cls-19" d="m157.49,171.42c-.21-.13-.45-.21-.71-.23-.89-.06-1.66.6-1.73,1.49-.11,1.51-.59,2.54-1.47,3.14-.29.2-.61.34-.96.45,1.01-1.4,2.26-3.42,3.12-5.82.26-.74-.04-1.54-.69-1.93-.09-.05-.19-.1-.29-.14-.84-.3-1.76.14-2.06.98-.17.47-.36.92-.55,1.36.07-.72.07-1.49-.02-2.32-.06-.52-.36-.96-.77-1.21-.29-.17-.64-.26-1-.22-.36.04-.67.19-.92.42-.14-.23-.32-.42-.55-.55-.32-.19-.71-.28-1.11-.21-.06,0-.11.02-.17.04-.78.22-1.29,1.01-1.15,1.83.1.6.1,1.04.05,1.32-.02.1-.14.57-.54,1.31-1.82-1.99-4.34-3.62-7.57-3.6l1.23,10.86s7.46,1.17,10.64,1.41c1.43.11,3.39-.12,5.11-1.3,1.73-1.18,2.69-3.05,2.88-5.58.05-.63-.27-1.2-.78-1.5Z"/>
      <g>
        <path class="cls-1" d="m150.88,178.67c-.07,0-.13-.02-.18-.07-.1-.1-.11-.27,0-.37.13-.13,3.16-3.28,4.8-7.86.22-.6-.03-1.28-.57-1.61-.12-.07-.16-.24-.09-.36.07-.12.24-.17.36-.09.76.46,1.1,1.4.8,2.24-1.67,4.68-4.78,7.91-4.91,8.05-.05.05-.12.08-.19.08Z"/>
        <path class="cls-1" d="m148.65,176.19c-.1,0-.2-.06-.24-.16-.06-.13,0-.29.14-.34.78-.32,1.44-.82,1.98-1.47,1.14-1.38,1.59-3.33,1.33-5.79-.05-.43-.28-.8-.65-1.02-.12-.07-.16-.24-.09-.36.07-.12.24-.17.36-.09.51.31.84.82.9,1.41.28,2.6-.21,4.68-1.44,6.18-.59.72-1.33,1.26-2.19,1.62-.03.01-.07.02-.1.02Z"/>
      </g>
      <path class="cls-28" d="m142.02,143.48c-1.78,3.83-1.6,7.69.4,8.62,2,.93,5.07-1.42,6.85-5.25,1.78-3.83,1.6-7.69-.4-8.62-2-.93-5.07,1.42-6.85,5.25Z"/>
      <path class="cls-23" d="m142.19,134.03l-.16.02c-.69-1.16-2.28-2.01-4.22-2.2.09-.19.12-.43-.17-.56-.31-.13-.64.14-.85.37-.21-.24-.54-.51-.85-.37-.32.13-.26.4-.15.6-2.57.36-4.5,1.83-4.59,3.56h-.02c0,.06,0,.1,0,.16,0,.02,0,.04,0,.05,0,.03,0,.05,0,.08.08,2.94,2.58,2.85,2.58,2.85,1.64,1.34,4.05.43,4.05.43,2.08.38,3.29-1.33,3.29-1.33,2.52-.44,1.08-3.67,1.08-3.67Z"/>
      <path class="cls-1" d="m136.02,139.59c-.75,0-1.61-.17-2.34-.74-.3,0-1.19-.1-1.89-.79-.61-.6-.9-1.48-.87-2.62,0-.14.14-.25.27-.26.14,0,.26.12.26.27-.03.99.21,1.74.71,2.24.67.66,1.59.64,1.6.64h.1s.08.06.08.06c1.5,1.23,3.77.39,3.79.38.14-.05.29.02.34.15.05.14-.02.29-.15.34-.06.02-.88.33-1.89.33Z"/>
      <path class="cls-28" d="m141.43,127.53s4.99-1.02,6.73,1.73c2.18,3.43.33,7.07-3.75,7.56-3.8.46-2.2-4-2.2-4,0,0-3.81-.24-.81-3.76l.03-1.54Z"/>
      <path class="cls-1" d="m143.9,137.12c-.8,0-1.4-.25-1.79-.73-.79-.98-.43-2.65-.24-3.34-.5-.09-1.44-.36-1.77-1.13-.32-.77.05-1.78,1.1-3.02.09-.11.26-.12.37-.03.11.09.12.26.03.37-.9,1.06-1.25,1.91-1.02,2.47.32.75,1.63.85,1.64.85l.35.02-.12.33s-.75,2.14.06,3.15c.35.44.98.61,1.87.51.14-.02.27.09.29.23.02.14-.09.27-.23.29-.19.02-.37.03-.55.03Z"/>
      <path class="cls-28" d="m131,127.86s-5.01.92-5.59,4.13c-.73,4,2.34,6.68,6.31,5.61,3.69-1,.54-4.54.54-4.54,0,0,3.44-1.65-.66-3.79l-.6-1.41Z"/>
      <path class="cls-1" d="m131.71,137.86c-.12,0-.22-.08-.25-.19-.04-.14.04-.28.18-.32.86-.23,1.38-.63,1.54-1.17.37-1.24-1.11-2.92-1.13-2.94l-.23-.26.31-.15s1.19-.58,1.2-1.41c0-.61-.64-1.27-1.87-1.91-.13-.07-.18-.23-.11-.35.07-.13.22-.18.35-.11,1.44.75,2.16,1.55,2.15,2.38-.01.84-.78,1.44-1.21,1.71.44.57,1.39,1.98,1.03,3.19-.22.73-.86,1.24-1.91,1.53-.02,0-.05,0-.07,0Z"/>
      <g>
        <path class="cls-1" d="m136.29,134.85c-.05,0-.11-.02-.15-.05-.12-.08-.15-.25-.06-.37l.45-.63-.02-.55c0-.14.11-.27.25-.27.14,0,.27.11.27.25l.03.73-.55.78c-.05.07-.13.11-.21.11Z"/>
        <path class="cls-1" d="m137.3,134.81c-.08,0-.16-.04-.21-.1l-.51-.67c-.09-.12-.07-.28.05-.37.12-.09.28-.07.37.05l.51.67c.09.12.07.28-.05.37-.05.04-.1.05-.16.05Z"/>
        <path class="cls-1" d="m137.46,132.58c.01.4-.3.73-.69.75-.4.01-.73-.3-.75-.69-.01-.4.73-.24.73-.24,0,0,.7-.21.71.19Z"/>
      </g>
      <path class="cls-1" d="m144,139.84c-.14,0-.25-.11-.26-.25l-.15-2.72c0-.14.1-.27.25-.28.14,0,.27.1.28.25l.15,2.72c0,.14-.1.27-.25.28,0,0,0,0-.02,0Z"/>
      <path class="cls-1" d="m145.6,173.87c-.14,0-.26-.12-.26-.26,0-.15.12-.26.26-.27,1.17-.01,2.1-.35,2.79-1,.99-.94,1.33-2.41.99-4.35-.02-.14.07-.28.21-.3.14-.02.28.07.3.21.37,2.13-.02,3.75-1.15,4.82-.78.75-1.84,1.13-3.15,1.14h0Z"/>
      <path class="cls-23" d="m137.08,128.27c-.08.38.5.82,1.29.98.79.16,1.49-.02,1.57-.41.08-.38-.5-.82-1.29-.98-.79-.16-1.49.02-1.57.41Z"/>
      <path class="cls-23" d="m136.5,128.27c.08.38-.5.82-1.29.98-.79.16-1.49-.02-1.57-.41-.08-.38.5-.82,1.29-.98.79-.16,1.49.02,1.57.41Z"/>
      <path class="cls-28" d="m145.47,153.66c1.51,1.96,2.21,4.25,2.52,6.68.34,2.65-2.37,6.09-5.03,8.77-3.12,3.13-4.84,7.39-4.84,11.82v.56l-4.4,5.31-4.27-14.49v-25.38c6.75-.21,12.77,2.52,16.02,6.74Z"/>
      <path class="cls-1" d="m138.11,181.75c-.15,0-.26-.12-.26-.26v-.56c0-4.55,1.75-8.81,4.92-12,3.51-3.53,5.23-6.49,4.96-8.55-.02-.14.08-.28.23-.29.14-.02.28.08.29.23.29,2.26-1.42,5.28-5.11,8.99-3.07,3.09-4.77,7.22-4.77,11.63v.56c0,.15-.12.26-.26.26Z"/>
      <g>
        <path class="cls-23" d="m140.06,181.2c2.91.07,4.3,2.59,4.76,5.03.21,1.11-.91,2.09-2.33,2.06l-6.89-.15c-1.8-.04-2.68-2.21-1.42-3.49,1.73-1.74,3.96-3.49,5.87-3.44Z"/>
        <path class="cls-1" d="m140.5,188.55s-.04,0-.06,0c-.14,0-.26-.12-.26-.27,0-.14.1-.26.27-.26.51.02.99-.18,1.27-.51.13-.15.27-.4.21-.72-.17-.89-.64-2.48-1.94-3.19-.13-.07-.17-.23-.1-.36.07-.13.23-.17.36-.1,1.49.81,2.02,2.58,2.21,3.55.08.41-.04.82-.32,1.16-.37.44-.97.69-1.62.69Z"/>
      </g>
      <path class="cls-18" d="m132.23,168.12c10.39.58,16.19-4.58,21.38-10.13.93-1,1.72-2.95,1.41-4.28-1.46-6.38-6.73-7.89-6.73-7.89-4.4.35-7.18,1.22-11.24,3.05-.7-2.54-1.73-5.83-3.77-10.03-2.51-5.17-8-8.84-12.84-5.74-2.75,1.77-6.52,7.91-5.59,13.07.31,1.73,1.07,3.87,2.14,6.17,1.6,3.43,3.9,7.23,6.47,10.65,2.2,2.92,5.6,4.95,8.76,5.13Z"/>
      <path class="cls-1" d="m132.23,168.38s0,0-.01,0c-3.18-.18-6.69-2.23-8.96-5.23-2.56-3.4-4.87-7.19-6.5-10.7-.06-.13,0-.29.13-.35.13-.06.29,0,.35.13,1.62,3.47,3.91,7.24,6.44,10.6,2.17,2.88,5.54,4.86,8.57,5.03.14,0,.26.13.25.28,0,.14-.12.25-.26.25Z"/>
      <path class="cls-1" d="m127.93,153.97c-.08,0-.16-.04-.21-.11-.09-.12-.06-.28.06-.37.1-.07,9.69-7.05,20.5-7.94.15,0,.27.1.28.24.01.14-.1.27-.24.28-10.66.87-20.14,7.77-20.23,7.84-.05.03-.1.05-.16.05Z"/>
      <g>
        <path class="cls-23" d="m145.72,144.48c.38,1.25.98,2.32,1.69,3.11.98,1.08,2.15,1.62,3.18,1.3,1.79-.54,2.5-3.4,1.6-6.38-.9-2.98-3.09-4.95-4.87-4.41-1.79.54-2.5,3.4-1.6,6.38Z"/>
        <path class="cls-1" d="m149.98,149.25c-.92,0-1.89-.51-2.76-1.48-.76-.85-1.37-1.96-1.75-3.21-.04-.14.04-.29.18-.33.14-.04.29.04.33.18.36,1.18.92,2.22,1.63,3.01.95,1.05,2.01,1.5,2.91,1.23.14-.04.29.04.33.18.04.14-.04.29-.18.33-.22.07-.46.1-.69.1Z"/>
        <path class="cls-1" d="m147.42,147.63c-.05,0-.1,0-.16,0-.14-.02-.25-.14-.23-.29.01-.14.15-.25.29-.23.25.03.43-.03.57-.19.52-.58.29-2.28.15-2.88-.03-.14.06-.28.2-.31.14-.03.28.06.31.2.06.25.52,2.46-.27,3.35-.22.24-.51.37-.86.37Z"/>
      </g>
      <g>
        <path class="cls-23" d="m137.18,145.91c.38,1.25.98,2.32,1.69,3.11.98,1.08,2.15,1.62,3.18,1.3,1.79-.54,2.5-3.4,1.6-6.38s-3.09-4.95-4.87-4.41c-1.79.54-2.5,3.4-1.6,6.38Z"/>
        <path class="cls-1" d="m141.44,150.67c-.92,0-1.89-.51-2.76-1.48-.76-.85-1.37-1.96-1.75-3.21-.04-.14.04-.29.18-.33.14-.04.29.04.33.18.36,1.18.92,2.22,1.63,3.01.95,1.05,2.01,1.5,2.91,1.23.14-.04.29.04.33.18.04.14-.04.29-.18.33-.22.07-.46.1-.69.1Z"/>
        <path class="cls-1" d="m138.89,149.06c-.05,0-.1,0-.16,0-.14-.02-.25-.14-.23-.29.01-.14.15-.25.29-.23.25.03.43-.03.57-.19.52-.59.29-2.28.15-2.88-.03-.14.06-.28.2-.31.14-.03.28.06.31.2.06.25.52,2.46-.27,3.35-.22.24-.51.37-.86.37Z"/>
      </g>
      <path class="cls-1" d="m107.7,182.73c-.08,0-.15-.03-.2-.1-1.07-1.32.39-7.75.56-8.48.03-.12.13-.2.25-.2l16.38-.27c.16-.02.26.11.27.26,0,.14-.11.26-.26.27l-16.17.27c-.61,2.68-1.28,7.01-.61,7.83.09.11.07.28-.04.37-.05.04-.11.06-.17.06Z"/>
      <path class="cls-23" d="m150.04,184.55c.63-1.79,2.38-3.03,4.37-2.92,1.73.1,3.16,1.18,3.79,2.68,1.26.4,2.14,1.61,2.06,2.99-.06,1.05-.65,1.93-1.5,2.42.11.41.16.84.14,1.28-.12,2.21-2.01,3.9-4.22,3.77-1.77-.1-3.2-1.33-3.64-2.95-.07,0-.14,0-.21,0-2.04-.11-3.61-1.87-3.5-3.91.09-1.63,1.22-2.95,2.71-3.36Z"/>
      <path class="cls-1" d="m147.33,188.18s0,0-.02,0c-.14,0-.26-.13-.25-.28.09-1.65,1.2-3.06,2.77-3.56.72-1.86,2.59-3.08,4.59-2.97.14,0,.26.13.25.28,0,.14-.13.25-.28.25-1.82-.1-3.51,1.03-4.11,2.74-.03.08-.09.14-.18.17-1.42.4-2.43,1.65-2.51,3.12,0,.14-.12.25-.26.25Z"/>
      <path class="cls-27" d="m127.02,106.91c.68,2.77-1.33,5.64-4.49,6.41-3.16.77-6.27-.84-6.95-3.61-.68-2.77-1.37-5.37,1.79-6.15,3.16-.77,8.97.57,9.65,3.34Z"/>
      <path class="cls-27" d="m136.8,108.96c.68.39.66,1.37-.06,1.69-2.48,1.12-6.76,3.72-7.65,8.66-1.27,7.05-2.99,13.03-14.42,13.45-11.43.41,4.59-11.92,4.59-11.92-3.45-5.72-.17-21.94,17.54-11.87Z"/>
      <path class="cls-1" d="m119.26,121.1c-.09,0-.18-.05-.23-.13-2-3.32-1.74-9.6,1.6-13.03,1.98-2.03,6.74-4.63,16.29.8.41.23.65.66.63,1.13-.02.46-.29.84-.71,1.03-.13.06-.29,0-.35-.13-.06-.13,0-.29.13-.35.24-.11.38-.32.4-.58.01-.27-.12-.51-.36-.65-8.78-4.99-13.36-3.24-15.66-.89-3.13,3.21-3.39,9.3-1.53,12.39.07.12.03.29-.09.36-.04.03-.09.04-.14.04Z"/>
      <path class="cls-30" d="m122.55,119.86c-.07-1.46.94-2.73,2.33-3.02-.41,1.94-.39,3.32-.22,5.69-1.17-.34-2.05-1.39-2.11-2.67Z"/>
      <path class="cls-1" d="m124.43,128.27s-.05,0-.08-.01c-.14-.04-.21-.19-.17-.33.45-1.39.52-3.19.22-5.36-.52-3.69.14-6.75,1.97-9.1,2.9-3.74,7.66-4.31,7.86-4.33.14-.01.27.09.29.23.02.14-.09.27-.23.29-.05,0-4.75.57-7.51,4.13-1.73,2.23-2.35,5.16-1.86,8.7.31,2.24.23,4.13-.24,5.59-.04.11-.14.18-.25.18Z"/>
    </g>
    <g>
      <path class="cls-1" d="m250.47,268h24.25l3.78-23.06c13.04-13.13,20.33-28.42,24.28-39.71,2.81-8.04-3.07-16.48-11.59-16.66l-15.22-.33.1,4.71s-12.44,16.41-21.66,44.65c-1.7,5.19-3.01,17.96-3.94,30.41Z"/>
      <path class="cls-1" d="m290.37,268h24.29c-.97-18.79-2.01-38.75-2-38.82,2.36-40.2-13.49-45.63-13.49-45.63l-22.19,5.15,7.57,49.76,5.83,29.54Z"/>
      <path class="cls-21" d="m290.37,268.26c-.12,0-.23-.09-.26-.21l-5.83-29.54-7.57-49.77c-.02-.14.08-.28.22-.3.14-.02.28.08.3.22l7.57,49.76,5.82,29.52c.03.14-.06.28-.21.31-.02,0-.03,0-.05,0Z"/>
    </g>
    <path class="cls-10" d="m451.8,279.14c-18.02-.29-34.81-.66-50.55-1.09-3.5-.09-6.94-.19-10.34-.29V56.25c3.52-.32,6.96-.65,10.34-.99,33.76-3.36,61.01-7.32,87.26-10.23,68.63-7.61,92.11,25.18,59.44,87.22-32.66,62.04,120.32,150.36-96.15,146.89Z"/>
    <g>
      <path class="cls-19" d="m502.94,202.94h-6.43v-46.39c0-1.78,1.44-3.21,3.21-3.21h0c1.78,0,3.21,1.44,3.21,3.21v46.39Z"/>
      <path class="cls-1" d="m502.94,162.06s-.05,0-.07-.01l-6.43-1.82c-.14-.04-.22-.18-.18-.32.04-.14.18-.22.32-.18l6.43,1.82c.14.04.22.18.18.32-.03.12-.14.19-.25.19Z"/>
      <path class="cls-1" d="m496.51,164.8c-.12,0-.23-.09-.26-.21-.03-.14.07-.28.21-.31l6.43-1.21c.14-.03.28.07.31.21.03.14-.07.28-.21.31l-6.43,1.21s-.03,0-.05,0Z"/>
      <path class="cls-1" d="m502.94,169.21s-.04,0-.06,0l-6.43-1.62c-.14-.04-.23-.18-.19-.32.04-.14.18-.23.32-.19l6.43,1.62c.14.04.23.18.19.32-.03.12-.14.2-.25.2Z"/>
      <path class="cls-1" d="m502.94,172.16s-.01,0-.02,0l-6.43-.41c-.14,0-.25-.13-.25-.28,0-.15.15-.25.28-.25l6.43.41c.14,0,.25.13.25.28,0,.14-.12.25-.26.25Z"/>
      <path class="cls-1" d="m496.51,158.87c-.12,0-.22-.08-.25-.2-.04-.14.05-.28.19-.32q6.52-1.64,6.65-1.54l-.33.41.17-.2.03.26c-.22.03-3.94.96-6.39,1.58-.02,0-.04,0-.06,0Z"/>
      <path class="cls-1" d="m502.94,176.44s-.04,0-.07,0l-6.43-1.65c-.14-.04-.23-.18-.19-.32.04-.14.18-.23.32-.19l6.43,1.65c.14.04.23.18.19.32-.03.12-.14.2-.25.2Z"/>
      <path class="cls-1" d="m496.51,179.95c-.11,0-.22-.08-.25-.19-.04-.14.04-.28.18-.32l6.43-1.82c.14-.04.28.04.32.18.04.14-.04.28-.18.32l-6.43,1.82s-.05.01-.07.01Z"/>
      <path class="cls-1" d="m496.51,183.03c-.13,0-.24-.1-.26-.23-.02-.14.08-.28.22-.3l6.43-.89c.14-.02.28.08.3.22.02.14-.08.28-.22.3l-6.43.89s-.02,0-.04,0Z"/>
      <path class="cls-1" d="m502.94,185.49s-.02,0-.03,0l-6.43-.63c-.14-.01-.25-.14-.24-.29.01-.14.15-.25.29-.24l6.43.63c.14.01.25.14.24.29-.01.14-.13.24-.26.24Z"/>
      <path class="cls-1" d="m502.94,191.87s-.06,0-.09-.02l-6.43-2.33c-.14-.05-.21-.2-.16-.34.05-.14.2-.21.34-.16l6.43,2.33c.14.05.21.2.16.34-.04.11-.14.17-.25.17Z"/>
      <path class="cls-1" d="m496.51,194.62c-.13,0-.24-.09-.26-.22-.02-.14.07-.28.21-.3l6.43-1.1c.14-.02.28.07.3.21.02.14-.07.28-.21.3l-6.43,1.1s-.03,0-.04,0Z"/>
      <path class="cls-17" d="m519.18,204.39h-38.9c-1.59,0-2.88-1.29-2.88-2.88h0c0-1.59,1.29-2.88,2.88-2.88h38.9c1.59,0,2.88,1.29,2.88,2.88h0c0,1.59-1.29,2.88-2.88,2.88Z"/>
      <path class="cls-1" d="m477.4,201.77c-.15,0-.26-.12-.26-.26,0-1.73,1.41-3.14,3.14-3.14h38.9c.15,0,.26.12.26.26s-.12.26-.26.26h-38.9c-1.44,0-2.62,1.17-2.62,2.62,0,.15-.12.26-.26.26Z"/>
      <path class="cls-17" d="m513.29,159.05h-27.12c-1.59,0-2.88-1.29-2.88-2.88h0c0-1.59,1.29-2.88,2.88-2.88h27.12c1.59,0,2.88,1.29,2.88,2.88h0c0,1.59-1.29,2.88-2.88,2.88Z"/>
      <path class="cls-1" d="m513.29,159.31h-27.12c-.15,0-.26-.12-.26-.26s.12-.26.26-.26h27.12c1.44,0,2.62-1.17,2.62-2.62,0-.15.12-.26.26-.26s.26.12.26.26c0,1.73-1.41,3.14-3.14,3.14Z"/>
      <path class="cls-1" d="m510.75,177.78s-.05,0-.08-.01c-.14-.04-.21-.19-.17-.33,3.17-9.95.04-18.21,0-18.29-.05-.14.01-.29.15-.34.14-.05.29.01.34.15.03.08,3.23,8.52,0,18.64-.04.11-.14.18-.25.18Z"/>
      <path class="cls-17" d="m513.27,181.24c-.57,1.91-2.58,2.99-4.49,2.42-1.91-.57-2.99-2.58-2.42-4.49.57-1.91,2.58-2.99,4.49-2.42.81.24,1.47.75,1.92,1.39.61.87.83,2,.5,3.1Z"/>
      <path class="cls-1" d="m506.35,179.43s-.05,0-.08-.01c-.14-.04-.22-.19-.18-.33.61-2.05,2.78-3.21,4.82-2.6.85.25,1.56.77,2.06,1.49.08.12.05.28-.07.37-.12.08-.28.05-.37-.07-.44-.62-1.05-1.07-1.78-1.29-1.77-.53-3.64.48-4.17,2.25-.03.11-.14.19-.25.19Z"/>
    </g>
    <g>
      <rect class="cls-17" x="203.94" y="214.01" width="292.99" height="97.52"/>
      <rect class="cls-8" x="212.39" y="214.77" width="27.47" height="86.15"/>
      <rect class="cls-8" x="354.79" y="214.77" width="27.47" height="86.15"/>
      <g>
        <rect class="cls-18" x="496.92" y="214.77" width="34.32" height="96.76"/>
        <path class="cls-1" d="m531.5,311.79h-34.84v-97.28h34.84v97.28Zm-34.32-.53h33.79v-96.23h-33.79v96.23Z"/>
      </g>
      <g>
        <path class="cls-18" d="m542.23,204.65H183.64v10.11h20.29v96.76h292.8v-96.76h45.74l-.24-10.11Zm-329.84,10.11h134.28v86.17h-134.28v-86.17Zm275.88,86.17h-133.49v-86.17h133.49v86.17Z"/>
        <path class="cls-1" d="m496.99,311.79H203.67v-96.76h-20.29v-10.64h359.11l.26,10.64h-45.75v96.76Zm-292.8-.53h292.27v-96.76h45.74l-.23-9.59H183.9v9.59h20.29v96.76Zm284.34-10.07h-134.01v-86.69h134.01v86.69Zm-133.49-.53h132.96v-85.64h-132.96v85.64Zm-8.12.53h-134.81v-86.69h134.81v86.69Zm-134.28-.53h133.76v-85.64h-133.76v85.64Z"/>
      </g>
    </g>
    <g>
      <path class="cls-28" d="m243.35,275.51c-.31-4.73-4.23-8.4-8.97-8.4h-5.59c-4.79,0-8.74,3.78-8.96,8.56l-1.19,25.26,26.38-.02-1.66-25.4Zm-8.05-2.06h-7.01c-.96,0-1.74-.78-1.74-1.73,0-.96.78-1.74,1.74-1.74h7.01c.96,0,1.74.78,1.74,1.73,0,.96-.78,1.74-1.74,1.74Z"/>
      <polygon class="cls-7" points="243.2 274.36 250.98 300.9 243.22 300.91 243.2 274.36"/>
      <rect class="cls-17" x="223.37" y="280.06" width="15.06" height="16.52" rx="1.62" ry="1.62"/>
      <path class="cls-1" d="m243.22,301.17c-.15,0-.26-.12-.26-.26l-.02-21.34c0-.14.12-.26.26-.26h0c.15,0,.26.12.26.26l.02,21.34c0,.14-.12.26-.26.26h0Z"/>
      <g>
        <path class="cls-18" d="m227.45,292.56c0-1.04.64-1.77,1.55-1.77.69,0,1.23.42,1.46,1.13l-.94.24c-.11-.28-.27-.41-.5-.41-.36,0-.61.34-.61.82s.26.85.62.85c.27,0,.46-.2.53-.51l.91.24c-.2.81-.73,1.22-1.43,1.22-.97,0-1.6-.71-1.6-1.8Z"/>
        <path class="cls-18" d="m231.01,293.37c0-.48.33-.86.88-.99.87-.22,1.1-.32,1.1-.48,0-.13-.14-.2-.35-.2-.32,0-.53.16-.64.46l-.87-.33c.22-.66.77-1.04,1.51-1.04.84,0,1.35.5,1.35,1.3v1.17c0,.19.15.29.34.23v.81c-.13.04-.25.06-.38.06-.29,0-.55-.1-.7-.29-.24.18-.61.29-.99.29-.74,0-1.25-.4-1.25-.99Zm2.04-.07v-.48c-.62.27-1.09.21-1.09.49,0,.16.15.24.4.24.27,0,.52-.09.69-.24Z"/>
        <path class="cls-18" d="m235.26,293.14v-1.36h-.56v-.93h.56v-.96h.95v.96h.68v.93h-.68v1.09c0,.45.13.53.31.53h.4v.93c-.13.01-.26.03-.43.03-.88,0-1.24-.35-1.24-1.21Z"/>
      </g>
    </g>
    <g>
      <polygon class="cls-5" points="443.11 218.47 458.32 236.22 473.53 253.97 443.11 253.97 412.69 253.97 427.9 236.22 443.11 218.47"/>
      <polygon class="cls-28" points="393.09 218.47 443.11 218.47 473.53 253.97 423.51 253.97 393.09 218.47"/>
      <rect class="cls-7" x="366.84" y="253.97" width="103.97" height="46.97"/>
      <polygon class="cls-17" points="423.51 253.96 418.82 253.96 418.82 300.93 366.84 300.93 366.84 253.96 362.68 253.96 377.89 236.21 393.09 218.46 408.31 236.21 423.51 253.96"/>
      <path class="cls-1" d="m459.97,254.23h-36.58l-.08-.09-30.22-35.27-29.85,34.83h17.42c.15,0,.26.12.26.26s-.12.26-.26.26h-18.56l30.99-36.17,30.54,35.64h36.33c.15,0,.26.12.26.26s-.12.26-.26.26Z"/>
      <path class="cls-1" d="m434.03,254.23c-.07,0-.15-.03-.2-.09l-24.04-28.06c-.09-.11-.08-.28.03-.37.11-.09.28-.08.37.03l24.04,28.06c.09.11.08.28-.03.37-.05.04-.11.06-.17.06Z"/>
      <path class="cls-1" d="m439.28,236.48c-.07,0-.15-.03-.2-.09l-9.53-11.12c-.09-.11-.08-.28.03-.37.11-.09.28-.08.37.03l9.52,11.12c.09.11.08.28-.03.37-.05.04-.11.06-.17.06Z"/>
      <path class="cls-1" d="m464.28,243.4c-.07,0-.15-.03-.2-.09l-21.14-24.67c-.09-.11-.08-.28.03-.37.11-.09.28-.08.37.03l21.14,24.67c.09.11.08.28-.03.37-.05.04-.11.06-.17.06Z"/>
      <path class="cls-28" d="m395.76,264.01c-6.93,1.27-12.18,7.34-12.18,14.64v22.28h-5.39v-22.28c0-8.23,6.67-14.89,14.9-14.89.92,0,1.81.08,2.67.25Z"/>
      <path class="cls-23" d="m407.99,278.65v22.28h-24.41v-22.28c0-7.3,5.25-13.37,12.18-14.64,0,0,.01,0,.02,0,3.03.55,5.75,2.01,7.85,4.11,2.69,2.7,4.36,6.42,4.36,10.53Z"/>
      <rect class="cls-26" x="381.8" y="237.98" width="20.62" height="10.31" rx="3.08" ry="3.08"/>
      <path class="cls-1" d="m385.22,243.14c0,.46-.38.84-.84.84s-.84-.38-.84-.84.38-.84.84-.84.84.38.84.84Z"/>
      <circle class="cls-1" cx="399.83" cy="243.14" r=".84"/>
      <path class="cls-1" d="m418.83,301.2c-.15,0-.26-.12-.26-.26v-31.6c0-.15.12-.26.26-.26s.26.12.26.26v31.6c0,.15-.12.26-.26.26Z"/>
      <path class="cls-1" d="m378.34,301.17c-.15,0-.26-.12-.26-.26v-18.97c0-.15.12-.26.26-.26s.26.12.26.26v18.97c0,.15-.12.26-.26.26Z"/>
    </g>
    <g>
      <path class="cls-28" d="m269.09,275.51c-.31-4.73-4.23-8.4-8.97-8.4h-5.59c-4.79,0-8.74,3.78-8.96,8.56l-1.19,25.26,26.38-.02-1.66-25.4Zm-8.05-2.06h-7.01c-.96,0-1.74-.78-1.74-1.73,0-.96.78-1.74,1.74-1.74h7.01c.96,0,1.74.78,1.74,1.73,0,.96-.78,1.74-1.74,1.74Z"/>
      <polygon class="cls-7" points="268.93 274.36 276.72 300.9 268.96 300.91 268.93 274.36"/>
      <rect class="cls-17" x="249.1" y="280.06" width="15.06" height="16.52" rx="1.62" ry="1.62"/>
      <path class="cls-1" d="m268.96,301.17c-.15,0-.26-.12-.26-.26l-.02-21.34c0-.14.12-.26.26-.26h0c.15,0,.26.12.26.26l.02,21.34c0,.14-.12.26-.26.26h0Z"/>
      <g>
        <path class="cls-18" d="m253.19,292.56c0-1.04.64-1.77,1.55-1.77.69,0,1.23.42,1.46,1.13l-.94.24c-.11-.28-.27-.41-.5-.41-.36,0-.61.34-.61.82s.26.85.62.85c.27,0,.46-.2.53-.51l.91.24c-.2.81-.73,1.22-1.43,1.22-.97,0-1.6-.71-1.6-1.8Z"/>
        <path class="cls-18" d="m256.74,293.37c0-.48.33-.86.88-.99.87-.22,1.1-.32,1.1-.48,0-.13-.14-.2-.35-.2-.32,0-.53.16-.64.46l-.87-.33c.22-.66.77-1.04,1.51-1.04.84,0,1.35.5,1.35,1.3v1.17c0,.19.15.29.34.23v.81c-.13.04-.25.06-.38.06-.29,0-.55-.1-.7-.29-.24.18-.61.29-.99.29-.74,0-1.25-.4-1.25-.99Zm2.04-.07v-.48c-.62.27-1.09.21-1.09.49,0,.16.15.24.4.24.27,0,.52-.09.69-.24Z"/>
        <path class="cls-18" d="m260.99,293.14v-1.36h-.56v-.93h.56v-.96h.95v.96h.68v.93h-.68v1.09c0,.45.13.53.31.53h.4v.93c-.13.01-.26.03-.43.03-.88,0-1.24-.35-1.24-1.21Z"/>
      </g>
    </g>
    <g>
      <path class="cls-15" d="m308.42,300.91h-29.33v-31.28c3.25-3.25,5.07-5.07,8.31-8.31h21.02v39.59Z"/>
      <path class="cls-18" d="m301.79,300.91h-29.33v-31.28c3.25-3.25,5.07-5.07,8.31-8.31h21.02v39.59Z"/>
      <rect class="cls-28" x="276.69" y="281.12" width="21.17" height="15.47" rx="1.87" ry="1.87"/>
      <g>
        <path class="cls-18" d="m280.61,289.35c0-1.22.74-2.1,1.7-2.1.35,0,.66.12.87.32v-1.86h1.14v5.65h-1.14v-.34c-.2.3-.5.43-.87.43-.98,0-1.7-.88-1.7-2.1Zm2.57.02c0-.56-.31-.97-.72-.97s-.72.41-.72.97.31.97.72.97.72-.41.72-.97Z"/>
        <path class="cls-18" d="m284.99,289.36c0-1.2.9-2.1,2.06-2.1s2.06.9,2.06,2.1-.9,2.09-2.06,2.09-2.06-.89-2.06-2.09Zm2.98,0c0-.55-.4-.99-.91-.99s-.91.43-.91.99.4.99.91.99.91-.44.91-.99Z"/>
        <path class="cls-18" d="m289.71,291.99l1.03-.45c.2.36.51.46.75.46.39,0,.71-.25.71-.67v-.49c-.22.2-.53.33-.9.33-.96,0-1.7-.81-1.7-1.95s.73-1.95,1.7-1.95c.38,0,.68.13.88.43v-.36h1.14v3.98c0,1.14-.8,1.79-1.86,1.79-.78,0-1.41-.34-1.74-1.11Zm2.46-2.8c0-.47-.31-.82-.72-.82s-.72.35-.72.82.31.82.72.82.72-.34.72-.82Z"/>
      </g>
      <path class="cls-1" d="m301.79,276.57c-.15,0-.26-.12-.26-.26v-14.73h-5.32c-.15,0-.26-.12-.26-.26s.12-.26.26-.26h5.85v15.25c0,.15-.12.26-.26.26Z"/>
    </g>
    <g>
      <path class="cls-15" d="m340.86,300.91h-29.33v-31.28l8.31-8.31h21.02v39.59Z"/>
      <path class="cls-18" d="m334.22,300.91h-29.33v-31.28l8.31-8.31h21.02v39.59Z"/>
      <rect class="cls-28" x="309.13" y="281.12" width="21.17" height="15.47" rx="1.87" ry="1.87"/>
      <g>
        <path class="cls-18" d="m313.04,289.35c0-1.22.74-2.1,1.7-2.1.35,0,.66.12.88.32v-1.86h1.14v5.65h-1.14v-.34c-.2.3-.5.43-.88.43-.98,0-1.7-.88-1.7-2.1Zm2.57.02c0-.56-.31-.97-.72-.97s-.72.41-.72.97.31.97.72.97.72-.41.72-.97Z"/>
        <path class="cls-18" d="m317.42,289.36c0-1.2.9-2.1,2.06-2.1s2.06.9,2.06,2.1-.9,2.09-2.06,2.09-2.06-.89-2.06-2.09Zm2.98,0c0-.55-.4-.99-.91-.99s-.91.43-.91.99.4.99.91.99.91-.44.91-.99Z"/>
        <path class="cls-18" d="m322.14,291.99l1.03-.45c.2.36.51.46.75.46.39,0,.71-.25.71-.67v-.49c-.22.2-.53.33-.9.33-.96,0-1.71-.81-1.71-1.95s.73-1.95,1.7-1.95c.38,0,.68.13.88.43v-.36h1.14v3.98c0,1.14-.8,1.79-1.86,1.79-.78,0-1.41-.34-1.74-1.11Zm2.46-2.8c0-.47-.31-.82-.72-.82s-.72.35-.72.82.31.82.72.82.72-.34.72-.82Z"/>
      </g>
      <path class="cls-1" d="m334.22,270.22c-.15,0-.26-.12-.26-.26v-8.37h-2.49c-.15,0-.26-.12-.26-.26s.12-.26.26-.26h3.01v8.9c0,.15-.12.26-.26.26Z"/>
    </g>
    <g>
      <g>
        <path class="cls-18" d="m430.14,283.7c-.33,0-.65.06-.94.17-.17-1.31-1.28-2.32-2.64-2.32-1.47,0-2.66,1.19-2.66,2.66,0,.89.44,1.67,1.1,2.15l-3,3.79h4.8l1.58-1.8c.47.41,1.08.66,1.75.66,1.47,0,2.66-1.19,2.66-2.66s-1.19-2.66-2.66-2.66Z"/>
        <path class="cls-1" d="m432.81,286.63c-.15,0-.26-.12-.26-.26,0-1.32-1.08-2.4-2.4-2.4-.29,0-.57.05-.85.16l-.31.12-.04-.33c-.15-1.19-1.18-2.09-2.38-2.09-.15,0-.26-.12-.26-.26s.12-.26.26-.26c1.36,0,2.53.94,2.84,2.24.24-.06.49-.1.74-.1,1.61,0,2.92,1.31,2.92,2.92,0,.15-.12.26-.26.26Z"/>
      </g>
      <g>
        <path class="cls-24" d="m434.42,290.98c-.44-.77-1.25-1.24-2.14-1.24h-22c-.88,0-1.7.47-2.14,1.24l-5.65,9.89h37.58l-5.65-9.89Z"/>
        <path class="cls-1" d="m406.34,301.14s-.09-.01-.13-.03c-.13-.07-.17-.23-.1-.36l5.65-9.89c.48-.85,1.39-1.37,2.36-1.37.15,0,.26.12.26.26s-.12.26-.26.26c-.79,0-1.52.42-1.91,1.11l-5.65,9.89c-.05.08-.14.13-.23.13Z"/>
      </g>
    </g>
    <g>
      <g>
        <path class="cls-18" d="m342.31,225.74c-.67-.86-1.48-1.55-2.36-2.09,3.04-3.09,3.4-8.03.66-11.54-2.98-3.81-8.49-4.49-12.3-1.5-1.24.97-2.14,2.22-2.69,3.58h-92.03c-.55-1.35-1.44-2.58-2.66-3.54-3.8-2.99-9.32-2.33-12.31,1.47-2.75,3.5-2.41,8.44.63,11.54-.88.53-1.69,1.22-2.37,2.08-2.99,3.8-2.33,9.32,1.47,12.31,3.8,2.99,9.32,2.33,12.31-1.47.52-.65.92-1.36,1.22-2.1h95.45c.3.72.69,1.41,1.19,2.06,2.98,3.81,8.49,4.48,12.3,1.5,3.81-2.98,4.48-8.49,1.5-12.3Z"/>
        <path class="cls-1" d="m223.74,240.19c-2.04,0-3.97-.67-5.58-1.93-3.91-3.08-4.59-8.76-1.51-12.68.6-.77,1.33-1.43,2.17-1.97-2.95-3.24-3.15-8.19-.42-11.65,1.72-2.19,4.31-3.45,7.1-3.45,2.04,0,3.97.67,5.58,1.93,1.16.91,2.08,2.11,2.68,3.48h91.68c.6-1.39,1.53-2.6,2.7-3.52,1.6-1.26,3.53-1.92,5.56-1.92,2.8,0,5.39,1.26,7.12,3.46,2.72,3.47,2.5,8.42-.45,11.65.83.54,1.56,1.21,2.16,1.98,1.49,1.9,2.14,4.26,1.85,6.66-.29,2.39-1.5,4.53-3.4,6.02-1.6,1.25-3.53,1.92-5.56,1.92h0c-2.8,0-5.39-1.26-7.12-3.46-.47-.6-.86-1.25-1.16-1.96h-95.11c-.31.72-.71,1.39-1.18,1.99-1.72,2.19-4.31,3.45-7.1,3.45Zm1.75-31.15c-2.63,0-5.07,1.18-6.69,3.25-2.63,3.34-2.37,8.16.61,11.19l.23.24-.28.17c-.89.54-1.67,1.22-2.3,2.02-2.9,3.68-2.26,9.04,1.43,11.94,1.51,1.19,3.33,1.82,5.25,1.82,2.63,0,5.07-1.18,6.69-3.25.48-.61.88-1.3,1.18-2.03l.07-.16h95.81l.07.16c.29.72.68,1.39,1.16,1.99,1.62,2.07,4.07,3.26,6.7,3.26h0c1.91,0,3.72-.62,5.23-1.81,3.69-2.89,4.35-8.24,1.46-11.94-.63-.8-1.4-1.48-2.29-2.03l-.28-.17.23-.24c2.98-3.03,3.26-7.84.64-11.19-1.62-2.07-4.07-3.26-6.7-3.26-1.91,0-3.72.62-5.23,1.81-1.15.9-2.05,2.1-2.61,3.47l-.07.16h-92.38l-.07-.16c-.56-1.35-1.45-2.54-2.58-3.43-1.51-1.19-3.33-1.82-5.25-1.82Z"/>
      </g>
      <path class="cls-29" d="m234.28,224.33c0,1.37-1.11,2.48-2.48,2.48s-2.48-1.11-2.48-2.48,1.11-2.48,2.48-2.48,2.48,1.11,2.48,2.48Z"/>
      <path class="cls-29" d="m327.76,224.33c0,1.37-1.11,2.48-2.48,2.48s-2.48-1.11-2.48-2.48,1.11-2.48,2.48-2.48,2.48,1.11,2.48,2.48Z"/>
      <g>
        <g>
          <path class="cls-18" d="m240.83,218.46h4.76c2.39,0,3.76,1.62,3.76,3.57s-1.42,3.6-3.76,3.6h-2.4v4.55h-2.36v-11.73Zm4.74,4.85c.83,0,1.39-.5,1.39-1.28s-.55-1.25-1.39-1.25h-2.39v2.53h2.39Z"/>
          <path class="cls-1" d="m243.45,230.45h-2.88v-12.25h5.02c2.37,0,4.02,1.58,4.02,3.83s-1.65,3.87-4.02,3.87h-2.14v4.55Zm-2.35-.53h1.83v-4.55h2.66c2.06,0,3.5-1.37,3.5-3.34,0-1.65-1.08-3.31-3.5-3.31h-4.49v11.2Zm4.48-6.35h-2.65v-3.05h2.65c.99,0,1.65.61,1.65,1.51s-.66,1.54-1.65,1.54Zm-2.12-.53h2.12c.69,0,1.13-.39,1.13-1.02s-.42-.99-1.13-.99h-2.12v2Z"/>
        </g>
        <g>
          <path class="cls-18" d="m250.82,218.46h8.17v2.32h-5.83v2.21h5.32v2.32h-5.32v2.53h5.97v2.34h-8.31v-11.73Z"/>
          <path class="cls-1" d="m259.4,230.45h-8.84v-12.25h8.7v2.85h-5.83v1.69h5.32v2.85h-5.32v2h5.97v2.86Zm-8.31-.53h7.79v-1.81h-5.97v-3.05h5.32v-1.8h-5.32v-2.74h5.83v-1.8h-7.65v11.2Z"/>
        </g>
        <g>
          <path class="cls-18" d="m263.51,220.79h-3.56v-2.32h9.45v2.32h-3.56v9.4h-2.34v-9.4Z"/>
          <path class="cls-1" d="m266.11,230.45h-2.86v-9.41h-3.56v-2.85h9.98v2.85h-3.56v9.41Zm-2.34-.53h1.81v-9.41h3.56v-1.8h-8.93v1.8h3.56v9.41Z"/>
        </g>
        <g>
          <path class="cls-18" d="m274.98,226.85l2.29-.53c.3,1.29,1.06,1.87,2.42,1.87,1.28,0,2.18-.53,2.18-1.25,0-.67-.8-1.18-2.59-1.73-2.82-.83-4.16-2.04-4.16-3.82,0-1.98,1.67-3.21,4.37-3.21,2.48,0,3.91,1.04,4.49,3.17l-2.45.53c-.31-.95-.97-1.37-2.17-1.37-1.11,0-1.82.34-1.82.97,0,.56.58.94,2.51,1.54,2.85.9,4.21,2.18,4.21,3.99,0,2.09-1.78,3.48-4.49,3.48s-4.38-1.28-4.79-3.63Z"/>
          <path class="cls-1" d="m279.77,230.75c-2.83,0-4.62-1.37-5.05-3.85l-.04-.24,2.79-.65.06.26c.27,1.17.91,1.67,2.16,1.67,1.1,0,1.92-.42,1.92-.99,0-.51-.76-.98-2.4-1.48-2.97-.87-4.35-2.16-4.35-4.07,0-2.14,1.77-3.48,4.63-3.48,2.58,0,4.13,1.1,4.75,3.36l.07.27-2.95.64-.07-.22c-.28-.85-.83-1.19-1.92-1.19-.76,0-1.56.19-1.56.7,0,.36.38.68,2.33,1.29,2.96.94,4.4,2.33,4.4,4.24,0,2.24-1.91,3.74-4.75,3.74Zm-4.48-3.7c.45,2.08,2,3.17,4.48,3.17s4.23-1.26,4.23-3.22c0-1.68-1.28-2.87-4.03-3.74-1.83-.57-2.69-.99-2.69-1.79s.78-1.23,2.09-1.23c1.21,0,1.96.42,2.33,1.33l1.95-.42c-.6-1.85-1.92-2.71-4.16-2.71-2.53,0-4.1,1.13-4.1,2.95,0,1.64,1.26,2.77,3.98,3.57,1.97.6,2.78,1.18,2.78,1.98,0,.89-1.01,1.51-2.45,1.51s-2.24-.6-2.61-1.82l-1.8.42Z"/>
        </g>
        <g>
          <path class="cls-18" d="m285.99,218.46h2.34v4.59h4.52v-4.59h2.34v11.73h-2.34v-4.84h-4.52v4.84h-2.34v-11.73Z"/>
          <path class="cls-1" d="m295.45,230.45h-2.86v-4.84h-4v4.84h-2.86v-12.25h2.86v4.59h4v-4.59h2.86v12.25Zm-2.34-.53h1.81v-11.2h-1.81v4.59h-5.05v-4.59h-1.81v11.2h1.81v-4.84h5.05v4.84Z"/>
        </g>
        <g>
          <path class="cls-18" d="m296.76,224.37c0-3.48,2.28-6.19,5.77-6.19s5.72,2.73,5.72,6.19-2.37,6.11-5.72,6.11-5.77-2.59-5.77-6.11Zm9.06-.02c0-2.17-1.26-3.84-3.29-3.84s-3.31,1.67-3.31,3.84,1.4,3.81,3.31,3.81,3.29-1.56,3.29-3.81Z"/>
          <path class="cls-1" d="m302.53,230.75c-3.5,0-6.03-2.68-6.03-6.38s2.54-6.45,6.03-6.45,5.99,2.71,5.99,6.45-2.52,6.38-5.99,6.38Zm0-12.31c-3.24,0-5.51,2.44-5.51,5.93s2.32,5.85,5.51,5.85,5.46-2.46,5.46-5.85-2.25-5.93-5.46-5.93Zm0,9.98c-2.07,0-3.57-1.71-3.57-4.07s1.47-4.1,3.57-4.1,3.55,1.69,3.55,4.1-1.49,4.07-3.55,4.07Zm0-7.64c-1.79,0-3.04,1.47-3.04,3.57s1.28,3.54,3.04,3.54,3.03-1.49,3.03-3.54-1.25-3.57-3.03-3.57Z"/>
        </g>
        <g>
          <path class="cls-18" d="m309.81,218.46h4.76c2.39,0,3.76,1.62,3.76,3.57s-1.42,3.6-3.76,3.6h-2.4v4.55h-2.36v-11.73Zm4.74,4.85c.83,0,1.39-.5,1.39-1.28s-.55-1.25-1.39-1.25h-2.39v2.53h2.39Z"/>
          <path class="cls-1" d="m312.43,230.45h-2.88v-12.25h5.02c2.37,0,4.02,1.58,4.02,3.83s-1.65,3.87-4.02,3.87h-2.14v4.55Zm-2.36-.53h1.83v-4.55h2.66c2.06,0,3.5-1.37,3.5-3.34,0-1.65-1.08-3.31-3.5-3.31h-4.5v11.2Zm4.48-6.35h-2.65v-3.05h2.65c.99,0,1.65.61,1.65,1.51s-.66,1.54-1.65,1.54Zm-2.12-.53h2.12c.69,0,1.13-.39,1.13-1.02s-.42-.99-1.13-.99h-2.12v2Z"/>
        </g>
      </g>
    </g>
    <g>
      <g>
        <path class="cls-28" d="m472.96,98.05v-1.57h3.94v1.57c0,.62.18,1.2.5,1.69.19.29.43.55.71.75,1.16.84,1.92,2.28,1.92,3.92v10.14c0,.95-.7,1.71-1.56,1.71h-7.21c-.78,0-1.42-.7-1.42-1.56v-10.3c0-1.1.34-2.11.92-2.91.28-.39.62-.73,1-1.01.75-.54,1.21-1.46,1.21-2.44Z"/>
        <path class="cls-17" d="m472.93,98.73h4.01c.14,0,.26-.12.26-.26v-1.85c0-.14-.12-.26-.26-.26h-4.01c-.14,0-.26.12-.26.26v1.85c0,.14.12.26.26.26Z"/>
        <g>
          <path class="cls-30" d="m472.8,109c0,1.32,1.03,2.68,2.31,2.68s2.31-1.36,2.31-2.68-1.03-1.21-2.31-1.21-2.31-.11-2.31,1.21Z"/>
          <path class="cls-30" d="m476.65,106.09c-.11.74.21,1.42.72,1.52.51.1,1.01-.43,1.12-1.17.11-.74-.21-1.42-.72-1.52-.51-.1-1.01.43-1.12,1.17Z"/>
          <ellipse class="cls-30" cx="475.08" cy="105.07" rx=".93" ry="1.36"/>
          <path class="cls-30" d="m471.93,106.56c.18.73.72,1.19,1.22,1.03s.75-.88.58-1.6c-.18-.73-.72-1.19-1.22-1.03s-.75.88-.58,1.6Z"/>
        </g>
      </g>
      <g>
        <path class="cls-11" d="m485.24,98.05v-1.57h3.94v1.57c0,.62.18,1.2.5,1.69.19.29.43.55.71.75,1.16.84,1.92,2.28,1.92,3.92v10.14c0,.95-.7,1.71-1.56,1.71h-7.21c-.78,0-1.42-.7-1.42-1.56v-10.3c0-1.1.34-2.11.92-2.91.28-.39.62-.73,1-1.01.75-.54,1.21-1.46,1.21-2.44Z"/>
        <path class="cls-13" d="m485.2,98.73h4.01c.14,0,.26-.12.26-.26v-1.85c0-.14-.12-.26-.26-.26h-4.01c-.14,0-.26.12-.26.26v1.85c0,.14.12.26.26.26Z"/>
        <g>
          <path class="cls-13" d="m485.07,109c0,1.32,1.03,2.68,2.31,2.68s2.31-1.36,2.31-2.68-1.03-1.21-2.31-1.21-2.31-.11-2.31,1.21Z"/>
          <path class="cls-13" d="m488.92,106.09c-.11.74.21,1.42.72,1.52s1.01-.43,1.12-1.17c.11-.74-.21-1.42-.72-1.52-.51-.1-1.01.43-1.12,1.17Z"/>
          <ellipse class="cls-13" cx="487.36" cy="105.07" rx=".93" ry="1.36"/>
          <path class="cls-13" d="m484.21,106.56c.18.73.72,1.19,1.22,1.03.5-.16.75-.88.58-1.6-.18-.73-.72-1.19-1.22-1.03s-.75.88-.58,1.6Z"/>
        </g>
      </g>
      <g>
        <path class="cls-11" d="m455.51,98.05v-1.57h3.94v1.57c0,.62.18,1.2.5,1.69.19.29.43.55.71.75,1.16.84,1.92,2.28,1.92,3.92v10.14c0,.95-.7,1.71-1.56,1.71h-7.21c-.78,0-1.42-.7-1.42-1.56v-10.3c0-1.1.34-2.11.92-2.91.28-.39.62-.73,1-1.01.75-.54,1.21-1.46,1.21-2.44Z"/>
        <path class="cls-13" d="m455.47,98.73h4.01c.14,0,.26-.12.26-.26v-1.85c0-.14-.12-.26-.26-.26h-4.01c-.14,0-.26.12-.26.26v1.85c0,.14.12.26.26.26Z"/>
        <g>
          <path class="cls-13" d="m455.06,109.28c0,1.32,1.03,2.68,2.31,2.68s2.31-1.36,2.31-2.68-1.03-1.21-2.31-1.21-2.31-.11-2.31,1.21Z"/>
          <path class="cls-13" d="m458.91,106.38c-.11.74.21,1.42.72,1.52.51.1,1.01-.43,1.12-1.17.11-.74-.21-1.42-.72-1.52-.51-.1-1.01.43-1.12,1.17Z"/>
          <path class="cls-13" d="m456.42,105.36c0,.75.42,1.36.93,1.36s.93-.61.93-1.36-.42-1.36-.93-1.36-.93.61-.93,1.36Z"/>
          <path class="cls-13" d="m454.2,106.84c.18.73.72,1.19,1.22,1.03s.75-.88.58-1.6c-.18-.73-.72-1.19-1.22-1.03s-.75.88-.58,1.6Z"/>
        </g>
      </g>
      <g>
        <path class="cls-13" d="m464.35,98.05v-1.57h3.94v1.57c0,.62.18,1.2.5,1.69.19.29.43.55.71.75,1.16.84,1.92,2.28,1.92,3.92v10.14c0,.95-.7,1.71-1.56,1.71h-7.21c-.78,0-1.42-.7-1.42-1.56v-10.3c0-1.1.34-2.11.92-2.91.28-.39.62-.73,1-1.01.75-.54,1.21-1.46,1.21-2.44Z"/>
        <path class="cls-30" d="m464.32,98.73h4.01c.14,0,.26-.12.26-.26v-1.85c0-.14-.12-.26-.26-.26h-4.01c-.14,0-.26.12-.26.26v1.85c0,.14.12.26.26.26Z"/>
        <g>
          <path class="cls-11" d="m464.19,109c0,1.32,1.03,2.68,2.31,2.68s2.31-1.36,2.31-2.68-1.03-1.21-2.31-1.21-2.31-.11-2.31,1.21Z"/>
          <path class="cls-11" d="m468.04,106.09c-.11.74.21,1.42.72,1.52s1.01-.43,1.12-1.17c.11-.74-.21-1.42-.72-1.52-.51-.1-1.01.43-1.12,1.17Z"/>
          <path class="cls-11" d="m465.54,105.07c0,.75.42,1.36.93,1.36s.93-.61.93-1.36-.42-1.36-.93-1.36-.93.61-.93,1.36Z"/>
          <path class="cls-11" d="m463.32,106.56c.18.73.72,1.19,1.22,1.03s.75-.88.58-1.6c-.18-.73-.72-1.19-1.22-1.03-.5.16-.75.88-.58,1.6Z"/>
        </g>
      </g>
      <g>
        <rect class="cls-18" x="391.44" y="116.26" width="125.17" height="7.03"/>
        <path class="cls-1" d="m516.87,123.55h-125.7v-7.55h125.7v7.55Zm-125.17-.53h124.65v-6.5h-124.65v6.5Z"/>
      </g>
      <g>
        <polygon class="cls-18" points="491.66 129.54 497.08 129.5 497.04 123.29 489.17 123.34 491.66 129.54"/>
        <path class="cls-1" d="m491.48,129.8l-2.7-6.72,8.52-.05.04,6.74-5.86.04Zm-1.93-6.2l2.28,5.67,4.97-.03-.04-5.69-7.22.05Z"/>
      </g>
      <g>
        <polygon class="cls-18" points="403.82 129.52 409.24 129.55 409.28 123.34 401.41 123.29 403.82 129.52"/>
        <path class="cls-1" d="m409.5,129.82l-5.86-.04-2.62-6.75,8.52.05-.04,6.74Zm-5.5-.56l4.97.03.04-5.69-7.22-.05,2.21,5.7Z"/>
      </g>
      <g>
        <path class="cls-28" d="m396.18,114.05s1.11-15.75,1.44-18.51c.33-2.77,2.84-2.54,2.84-2.54v-.66h4.51v.66s2.51-.22,2.84,2.54c.33,2.77,1.44,18.51,1.44,18.51,0,0,.44,2.21-2.29,2.21h-8.49c-2.73,0-2.29-2.21-2.29-2.21Z"/>
        <path class="cls-30" d="m398.51,110.56s.71-10.12.92-11.9c.21-1.78,1.82-1.64,1.82-1.64h2.9s1.61-.14,1.82,1.64c.21,1.78.92,11.9.92,11.9,0,0,.28,1.42-1.47,1.42h-5.46c-1.75,0-1.47-1.42-1.47-1.42Z"/>
        <rect class="cls-30" x="400.05" y="90.31" width="5.33" height="2.07" rx=".39" ry=".39" transform="translate(805.42 182.7) rotate(180)"/>
        <g>
          <path class="cls-28" d="m400.88,105.29c0,1.01.79,2.04,1.76,2.04s1.76-1.03,1.76-2.04-.79-.92-1.76-.92-1.76-.09-1.76.92Z"/>
          <path class="cls-28" d="m403.82,103.08c-.08.57.16,1.09.55,1.16.39.07.77-.33.85-.89.08-.57-.16-1.09-.55-1.16-.39-.07-.77.33-.85.89Z"/>
          <path class="cls-28" d="m401.92,102.3c0,.57.32,1.04.71,1.04s.71-.47.71-1.04-.32-1.04-.71-1.04-.71.47-.71,1.04Z"/>
          <path class="cls-28" d="m400.23,103.43c.13.55.55.9.93.78.38-.12.57-.67.44-1.22s-.55-.9-.93-.78c-.38.12-.57.67-.44,1.22Z"/>
        </g>
      </g>
      <g>
        <path class="cls-11" d="m417.06,114.05s1.11-15.75,1.44-18.51c.33-2.77,2.84-2.54,2.84-2.54v-.66h4.51v.66s2.51-.22,2.84,2.54c.33,2.77,1.44,18.51,1.44,18.51,0,0,.44,2.21-2.29,2.21h-8.49c-2.73,0-2.29-2.21-2.29-2.21Z"/>
        <path class="cls-13" d="m419.4,110.56s.71-10.12.92-11.9c.21-1.78,1.82-1.64,1.82-1.64h2.9s1.61-.14,1.82,1.64c.21,1.78.92,11.9.92,11.9,0,0,.28,1.42-1.47,1.42h-5.46c-1.75,0-1.47-1.42-1.47-1.42Z"/>
        <rect class="cls-13" x="420.93" y="90.31" width="5.33" height="2.07" rx=".39" ry=".39" transform="translate(847.19 182.7) rotate(180)"/>
        <g>
          <path class="cls-11" d="m421.77,105.29c0,1.01.79,2.04,1.76,2.04s1.76-1.03,1.76-2.04-.79-.92-1.76-.92-1.76-.09-1.76.92Z"/>
          <path class="cls-11" d="m424.7,103.08c-.08.57.16,1.09.55,1.16.39.07.77-.33.85-.89.08-.57-.16-1.09-.55-1.16-.39-.07-.77.33-.85.89Z"/>
          <ellipse class="cls-11" cx="423.51" cy="102.3" rx=".71" ry="1.04"/>
          <path class="cls-11" d="m421.11,103.43c.14.55.55.9.93.78.38-.12.57-.67.44-1.22s-.55-.9-.93-.78c-.38.12-.57.67-.44,1.22Z"/>
        </g>
      </g>
      <g>
        <path class="cls-13" d="m405.49,114.1s1.11-15.75,1.44-18.51c.33-2.77,2.84-2.54,2.84-2.54v-.66h4.51v.66s2.51-.22,2.84,2.54c.33,2.77,1.44,18.51,1.44,18.51,0,0,.44,2.21-2.29,2.21h-8.49c-2.73,0-2.29-2.21-2.29-2.21Z"/>
        <path class="cls-11" d="m407.82,110.61s.71-10.12.92-11.9c.21-1.78,1.82-1.64,1.82-1.64h2.9s1.61-.14,1.82,1.64c.21,1.78.92,11.9.92,11.9,0,0,.28,1.42-1.47,1.42h-5.46c-1.75,0-1.47-1.42-1.47-1.42Z"/>
        <rect class="cls-30" x="409.36" y="90.36" width="5.33" height="2.07" rx=".39" ry=".39" transform="translate(824.04 182.8) rotate(180)"/>
        <g>
          <path class="cls-13" d="m410.19,105.34c0,1.01.79,2.04,1.76,2.04s1.76-1.03,1.76-2.04-.79-.92-1.76-.92-1.76-.09-1.76.92Z"/>
          <path class="cls-13" d="m413.13,103.13c-.08.57.16,1.09.55,1.16.39.07.77-.33.85-.89.08-.57-.16-1.09-.55-1.16-.39-.07-.77.33-.85.89Z"/>
          <path class="cls-13" d="m411.23,102.35c0,.57.32,1.04.71,1.04s.71-.47.71-1.04-.32-1.04-.71-1.04-.71.47-.71,1.04Z"/>
          <path class="cls-13" d="m409.53,103.48c.13.55.55.9.93.78.38-.12.57-.67.44-1.22s-.55-.9-.93-.78c-.38.12-.57.67-.44,1.22Z"/>
        </g>
      </g>
      <g>
        <rect class="cls-18" x="379.95" y="116.26" width="125.17" height="7.03"/>
        <path class="cls-1" d="m505.39,123.55h-125.7v-7.55h125.7v7.55Zm-125.17-.53h124.65v-6.5h-124.65v6.5Z"/>
      </g>
    </g>
    <g>
      <g>
        <path class="cls-19" d="m243.69,188.45l-.28-13.69-7.44-.12c-2.58-3.31-7.82-1.87-11.59-.19l-2.58-.04s0,0,0,.01c-.06,0-.12-.01-.18-.01-.25,0-6.27.26-12.7,2.04-1.35.37-2.14,1.77-1.77,3.12.17.6.53,1.08,1.01,1.41-.59.67-.81,1.62-.49,2.51.41,1.15,1.56,1.81,2.72,1.66-.56.59-.83,1.44-.65,2.3.29,1.35,1.61,2.21,2.96,1.95.02,0,.04,0,.06-.01l11.84-2.59c.21.33.44.64.69.94l-6.89,3.58c-1.24.65-1.73,2.18-1.08,3.42s2.18,1.73,3.42,1.08l9.38-4.88c3.17.88,7.54.41,13.57-2.49Z"/>
        <path class="cls-1" d="m232.53,186.29s-.05,0-.08-.01c-5.17-1.64-5.28-5.58-5.16-6.94-1.23.51-2.5,1.13-3.61,1.79-.47.28-1,.41-1.53.41-.67,0-1.32-.25-1.83-.67-.26-.21-.49-.48-.66-.78-.82-1.4-.36-3.2,1.04-4.03.7-.41,1.42-.81,2.15-1.17,3.73-1.87,10.44-4.4,13.45-.28.09.12.06.28-.06.37-.12.09-.28.06-.37-.06-2.78-3.81-9.21-1.36-12.8.44-.72.36-1.43.75-2.12,1.15-1.14.68-1.53,2.16-.85,3.31.14.25.33.46.54.64.42.35.96.54,1.51.55.44,0,.87-.11,1.26-.33,1.26-.74,2.72-1.45,4.11-1.99.09-.04.19-.02.27.05.07.06.11.16.08.26-.05.2-1.06,4.95,4.74,6.79.14.04.21.19.17.33-.04.11-.14.18-.25.18Z"/>
        <path class="cls-1" d="m208.86,181.17c-.13,0-.24-.1-.26-.23-.02-.14.08-.28.22-.3l10.74-1.45c.15-.02.28.08.3.23.02.14-.08.28-.22.3l-10.74,1.45s-.02,0-.04,0Z"/>
        <path class="cls-1" d="m210.54,185.39c-.12,0-.23-.08-.26-.2-.03-.14.06-.28.2-.31l12.31-2.78c.14-.03.28.06.31.2.03.14-.06.28-.2.31l-12.31,2.78s-.04,0-.06,0Z"/>
      </g>
      <path class="cls-7" d="m243.12,171.49s-4.26.11-5.08.56c-.35.19,0,2.69.66,5.66.9,4.04,2.49,10.74,3.67,11.9,1.13,1.11,7.42-.34,7.42-.34,0,0-3.17-17.41-6.67-17.78Z"/>
      <path class="cls-7" d="m282.76,153.84h0c-6.51-4.03-14.01-2.72-17.69,3.99,0,0-5.46,5.43-7.67,10.23-3.96-1.2-9.47-2.16-12.99.18-1.82,1.21-1.48,4.82-.38,8.77,1.32,4.77,3.73,10.05,4.77,12.21.29.6.94.94,1.6.83,2.88-.48,10.67-1.76,14.66-2.29,9.37-3.23,15.44-17.76,19.5-22.57,3.12-3.7,2.32-8.8-1.8-11.35Z"/>
      <path class="cls-7" d="m266.86,166.04c.22,1.47.48,2.46.48,2.46.28,1.75,4.2,9.67,7.3,15.75,0,0-3.6,7.9,3.78,7.28,0,0,27.68-2.61,27.96-4.21,1.59-9.34-1.15-29.77-9.31-34.2-2.86-1.56-8.49-2.81-14.22-2.9-1.62-.03-3.24.03-4.81.21-4.3.48-8.22,1.8-10.52,4.36-2.33,2.58-1.1,8.29-.66,11.24Z"/>
      <path class="cls-1" d="m277.64,191.83c-1.65,0-2.82-.48-3.49-1.44-1.42-2.02-.08-5.45.21-6.14-3.18-6.22-7-13.95-7.27-15.71,0-.01-.27-1-.48-2.47-.02-.14.08-.28.22-.3.15-.02.28.08.3.22.21,1.44.47,2.43.48,2.44.22,1.36,2.8,6.92,7.29,15.69l.06.11-.05.12s-1.69,3.77-.31,5.73c.66.94,1.95,1.33,3.83,1.18.14-.02.27.09.28.24.01.14-.1.27-.24.28-.28.02-.55.04-.8.04Z"/>
      <g>
        <path class="cls-19" d="m273.95,200.44c4.5.92,10.06.07,16.53-4.73l-11.77-10.99s-13.91,4.58-18.4,6.48c-2.02.85-4.52,2.53-6.05,5.33-1.53,2.8-1.53,6.03-.02,9.6.38.89,1.21,1.44,2.11,1.5.37.03.76-.03,1.13-.19,1.25-.53,1.84-1.98,1.31-3.24-.91-2.14-.97-3.87-.19-5.3.25-.47.6-.89.99-1.28-.4,2.62-.69,6.22-.17,10.1.16,1.18,1.13,2.06,2.28,2.14.16.01.33,0,.49-.02,1.35-.18,2.3-1.42,2.12-2.77-.1-.76-.16-1.5-.2-2.24.41,1.03.94,2.07,1.65,3.14.44.67,1.15,1.06,1.9,1.11.52.04,1.05-.09,1.52-.4.46-.3.78-.73.95-1.21.35.21.73.35,1.13.37.57.04,1.16-.12,1.65-.49,1.09-.82,1.31-2.37.49-3.46-.94-1.25-1.15-2.07-1.03-2.38.05-.15.33-.59,1.59-1.08Z"/>
        <path class="cls-1" d="m256.35,207.88s-.01,0-.02,0c-1.03-.07-1.93-.71-2.33-1.66-1.54-3.64-1.53-6.95.03-9.83.07-.13.23-.17.36-.11.13.07.17.23.11.36-1.48,2.73-1.49,5.88-.01,9.37.33.77,1.05,1.28,1.88,1.34.14.01.25.14.24.28,0,.14-.13.24-.26.24Z"/>
        <path class="cls-1" d="m261.69,210.11s-.01,0-.02,0c-1.29-.09-2.35-1.08-2.52-2.37-.99-7.5.98-14.04,1.06-14.31.04-.14.19-.22.33-.17.14.04.22.19.17.33-.08.27-2.02,6.7-1.04,14.09.14,1.04.99,1.84,2.03,1.91.14.01.25.14.24.28,0,.14-.13.24-.26.24Z"/>
        <path class="cls-1" d="m267.65,209.34s-.01,0-.02,0c-.86-.06-1.63-.51-2.1-1.23-2.17-3.32-2.95-6.45-2.33-9.3.3-1.37.91-2.6,1.81-3.66.09-.11.26-.12.37-.03.11.09.12.26.03.37-.85,1-1.42,2.15-1.7,3.44-.6,2.71.16,5.71,2.25,8.9.38.58,1,.95,1.7.99.14.01.25.14.24.28,0,.14-.13.24-.26.24Z"/>
        <path class="cls-1" d="m269.45,207.13c-.08,0-.16-.04-.21-.1-1.95-2.6-2.56-5.03-1.79-7.23.54-1.53,1.68-2.76,3.41-3.67.13-.07.29-.02.35.11.07.13.02.29-.11.35-1.61.85-2.67,1.98-3.16,3.38-.71,2.02-.13,4.29,1.71,6.74.09.12.06.28-.05.37-.05.04-.1.05-.16.05Z"/>
      </g>
      <path class="cls-1" d="m266.81,158.62s1.81,2.27,2.78,3.04c1.19.95,3.55,1.98,6.25,1.67,1.59-.19,3.29-.84,4.95-2.27,1.47-1.26,2.32-2.65,2.75-4.03.83-2.62.15-5.21-.69-6.81-1.62-.03-3.24.03-4.81.21l-1.19,2.84-.03-.05c.61,1.05.47,1.96-.42,2.72-1.47,1.26-2.57.48-2.69.39l-2.66-2.06-4.24,4.34Z"/>
      <g>
        <path class="cls-7" d="m281.7,181.42s-3.94,1.63-4.54,2.35c-.25.3.96,2.51,2.65,5.04,2.29,3.44,6.18,9.14,7.69,9.79,1.45.63,6.8-2.98,6.8-2.98,0,0-9.21-15.12-12.6-14.21Z"/>
        <path class="cls-1" d="m279.83,188.95c-.08,0-.17-.04-.22-.12-3.15-4.73-2.76-5.2-2.63-5.36.62-.74,4.23-2.25,4.64-2.42.13-.05.29,0,.34.14.06.13,0,.29-.14.34-1.53.63-3.93,1.74-4.41,2.25,0,.32.7,1.85,2.64,4.76.08.12.05.28-.07.36-.04.03-.1.04-.15.04Z"/>
      </g>
      <g>
        <path class="cls-7" d="m292.07,176.19s-5.75-4.7-7.22-7.16c-2.92-4.9-3.16-10.44,1.14-14.18h0c4.41-3.82,11.14-3.04,14.56,1.69,4.99,6.9,11.18,16.8,12.57,25.15.43,2.59-1.11,6.51-3.89,8.25-3.44,2.16-11.92,5.98-14.35,7.07-.4.18-.87.1-1.19-.2-2.48-2.36-12.81-12.5-11.68-16.62.86-3.14,10.05-3.99,10.05-3.99Z"/>
        <path class="cls-1" d="m294.22,197.57c-.06,0-.13-.02-.18-.07-.56-.51-13.59-12.6-12.28-17.38.77-2.82,7.54-3.86,9.66-4.11-1.42-1.19-5.56-4.75-6.8-6.83-.07-.12-.03-.29.09-.36.12-.07.29-.03.36.09,1.43,2.39,7.1,7.05,7.16,7.09l.5.41-.64.06c-.09,0-9.02.87-9.82,3.8-1.22,4.47,12,16.74,12.13,16.86.11.1.11.26.01.37-.05.06-.12.08-.19.08Z"/>
      </g>
      <g>
        <path class="cls-19" d="m269.09,143.84l8.61,5.77c1.96,1.06,3.05,3.24,2.73,5.44h0c-.59,4.06-5.14,6.2-8.65,4.06l-1.98-1.23-.7-14.04Z"/>
        <path class="cls-22" d="m253.97,150.72c1.69,4.34,5.27,4.64,8.47,3.27,3.2-1.37,3.89-6.5,2.74-9.2-1.15-2.69-4.68-3.77-7.88-2.4-3.2,1.37-4.39,5.6-3.32,8.33Z"/>
        <path class="cls-19" d="m263.79,152.77c.91,1.32.59,3.13-.73,4.04-1.32.91-3.13.59-4.04-.73-.91-1.32-.59-3.13.73-4.04,1.32-.91,3.13-.59,4.04.73Z"/>
        <path class="cls-19" d="m270.89,157.98c-.3.2-.61.37-.92.52-3.01,1.43-6.21.38-8.59-2.14-.08-.08-.15-.17-.23-.26-.39-.44-.75-.91-1.09-1.43-.06-.08-.11-.17-.16-.26-.08-.13-.16-.27-.24-.41-.1-.17-.2-.35-.29-.52-3.36-6.57-2.33-9.71,1.89-12.49,4.22-2.78,10.04-1.37,12.99,3.13,2.95,4.5.86,11.1-3.36,13.87Z"/>
        <path class="cls-32" d="m261.69,155.79c-.17.13-.35.23-.53.31-.39-.44-.75-.91-1.09-1.43-.06-.08-.11-.17-.16-.26-.08-.13-.16-.27-.24-.41.13-.14.28-.27.44-.39.92-.66,2.01-.71,2.45-.11.44.61.05,1.63-.86,2.29Z"/>
        <path class="cls-22" d="m273.07,138.94s6.53,10.33,5.74,11.55c-1.5,2.33-5.69-3.28-5.69-3.28l-.05-8.27Z"/>
        <path class="cls-14" d="m262.47,149.06c.29.43-2.53,2.35-2.82,1.91-.29-.43.5-1.65,1.28-2.17s1.25-.17,1.54.26Z"/>
        <path class="cls-1" d="m267.19,159.39c-2.7,0-5.43-1.63-7.34-4.58-.08-.12-.04-.28.08-.36.12-.08.28-.04.36.08,2.46,3.78,6.3,5.28,9.57,3.73.29-.14.59-.3.89-.5,1.55-1.02,2.86-2.61,3.69-4.5.06-.13.21-.19.35-.13.13.06.19.21.13.35-.87,1.97-2.24,3.65-3.88,4.72-.32.21-.65.39-.96.53-.93.44-1.91.66-2.89.66Z"/>
        <path class="cls-14" d="m264.46,147.72c.29.43,3.12-1.47,2.83-1.9-.29-.43-1.71-.15-2.5.37-.78.53-.63,1.09-.34,1.53Z"/>
        <path class="cls-18" d="m268.07,147.58c.12.19.09.44-.07.72-.02.04-.04.08-.07.12-.02.03-.05.06-.07.09-.02.03-.05.06-.08.09-.02.03-.05.06-.08.09-.1.11-.23.22-.37.33-.04.05-.1.08-.16.11-.17.12-.35.21-.53.27-.09.05-.19.08-.29.1-.05.01-.1.02-.14.03-.13.02-.26.03-.37.02-.19-.02-.35-.09-.44-.22-.12-.19-.08-.45.08-.73.02-.03.04-.06.06-.1.09-.14.21-.28.36-.42,0,0,0,0,0,0,.06-.06.14-.12.21-.18t0,0c.05-.04.11-.08.16-.12.05-.04.11-.07.17-.1.04-.02.08-.05.12-.07.08-.04.16-.08.25-.11.07-.03.13-.05.2-.07.08-.03.15-.04.22-.06.37-.07.68,0,.82.21Z"/>
        <path class="cls-18" d="m263.49,150.59c.12.17.09.4-.02.64h0s-.03.06-.04.09c-.05.09-.11.17-.18.26,0,0,0,.01-.01.02-.02.02-.04.04-.05.06-.1.11-.23.23-.38.34-.05.04-.11.07-.16.11-.18.12-.37.21-.56.28-.09.03-.18.06-.27.08-.07.02-.14.03-.2.03-.07,0-.15,0-.21,0-.22-.02-.39-.1-.48-.23-.13-.2-.09-.49.09-.79,0,0,0,0,0,0,.01-.02.02-.03.03-.05.1-.15.23-.3.38-.44.05-.05.11-.09.16-.14,0,0,0,0,0,0,.05-.04.1-.08.15-.11.05-.03.11-.07.16-.1.08-.04.15-.08.23-.11.04-.02.08-.04.11-.05.06-.02.14-.04.2-.07.08-.02.14-.04.22-.05.37-.07.68,0,.81.22Z"/>
        <path class="cls-1" d="m267.56,148.14c.1.17.15.36.16.55-.1.11-.23.22-.37.33-.04.05-.1.08-.16.11-.17.12-.35.21-.53.27-.09.05-.19.08-.29.1-.05.01-.1.02-.14.03-.13.02-.26.03-.37.02-.08-.07-.15-.16-.21-.26-.13-.22-.18-.46-.15-.7.02-.03.04-.06.06-.1.09-.14.21-.28.36-.42,0,0,0,0,0,0,.06-.06.14-.12.21-.18t0,0c.05-.04.11-.08.16-.12.05-.04.11-.07.17-.1.04-.02.08-.05.12-.07.38,0,.76.19.98.54Z"/>
        <path class="cls-22" d="m256.08,143.54s4.55,5.41,15.61,2.65c0,0,2.58-1.49,2.85-2.38.71-2.35-1.19-7.87-5.93-8.24-1.51-.12-3.95.68-5.86,1.77-2.03,1.15-4.27,3.12-6.66,6.19Z"/>
        <path class="cls-14" d="m265.68,147.25c-6.74,0-9.66-3.36-9.81-3.54-.09-.11-.08-.28.03-.37.11-.09.28-.08.37.03.05.05,4.6,5.25,15.34,2.57.14-.04.28.05.32.19.03.14-.05.28-.19.32-2.29.57-4.31.8-6.06.8Z"/>
        <path class="cls-19" d="m270.61,148.16c.88,1.34,2.68,1.72,4.02.83s1.72-2.68.83-4.02c-.88-1.34-2.68-1.72-4.02-.83s-1.72,2.68-.83,4.03Z"/>
        <path class="cls-32" d="m267.92,150.61c.33.67,1.42.8,2.43.3,1.01-.5,1.56-1.45,1.23-2.11-.33-.67-1.42-.8-2.43-.3-1.01.5-1.56,1.45-1.23,2.11Z"/>
        <path class="cls-14" d="m261.01,144.12c-.94,0-1.84-.14-2.66-.42-.14-.05-.21-.2-.16-.33.05-.14.2-.21.33-.16,2.7.94,5.93.03,8.05-1.13,2.01-1.1,3.46-2.61,3.78-3.94.03-.14.17-.23.32-.19.14.03.23.18.19.32-.36,1.49-1.87,3.09-4.04,4.28-1.91,1.05-3.96,1.59-5.82,1.59Z"/>
        <path class="cls-1" d="m274.25,145.02c.06-.03.1-.08.12-.14.04-.12-.03-.26-.15-.29-.73-.23-1.38-.2-1.93.09-.81.43-1.08,1.29-1.09,1.32-.04.12.03.25.16.29.12.04.25-.03.29-.16,0,0,.22-.71.86-1.05.42-.23.95-.24,1.56-.05.06.02.12.01.17-.01Z"/>
        <path class="cls-1" d="m263.09,151.07c.1.16.15.34.16.52-.02.02-.04.04-.05.06-.1.11-.23.23-.38.34-.05.04-.11.07-.16.11-.18.12-.37.21-.56.28-.09.03-.18.06-.27.08-.07.02-.14.03-.2.03-.07,0-.15,0-.21,0-.09-.08-.18-.18-.25-.29-.14-.23-.18-.49-.15-.73,0,0,0,0,0,0,.01-.02.02-.03.03-.05.1-.15.23-.3.38-.44.05-.05.11-.09.16-.14,0,0,0,0,0,0,.05-.04.1-.08.15-.11.05-.03.11-.07.16-.1.08-.04.15-.08.23-.11.37,0,.73.2.93.54Z"/>
        <path class="cls-1" d="m264.62,153.71c-.4,0-.56-.18-.63-.33-.22-.51.48-1.39.91-1.87l-1.14-1.65c-.08-.12-.05-.28.07-.37.12-.08.28-.05.37.07l1.37,2-.15.15c-.55.57-1.01,1.27-.96,1.45,0,0,.04.02.15.02,0,0,.01,0,.02,0,.14,0,.26.12.26.26,0,.14-.11.26-.26.27h-.02Z"/>
        <path class="cls-1" d="m266.72,154.76c-.09,0-.18-.05-.23-.13-.07-.13-.03-.29.1-.36.01,0,1.35-.79,1.81-2.21.04-.14.19-.21.33-.17.14.04.21.19.17.33-.52,1.62-1.99,2.47-2.05,2.51-.04.02-.09.03-.13.03Z"/>
      </g>
      <path class="cls-1" d="m301.93,158.75c-.09,0-.18-.05-.23-.13-4.64-7.8-10.68-5.87-10.94-5.78-.14.05-.29-.03-.33-.16-.05-.14.03-.29.16-.33.07-.02,6.7-2.17,11.56,6.01.07.12.03.29-.09.36-.04.03-.09.04-.13.04Z"/>
      <path class="cls-1" d="m248.8,189.48c-.1,0-.19-.06-.24-.15-.99-2.08-3.45-7.44-4.78-12.26-1.35-4.9-1.19-7.95.49-9.06.12-.08.28-.05.36.07.08.12.05.28-.07.36-1.45.96-1.54,3.9-.28,8.48,1.32,4.78,3.76,10.1,4.75,12.17.06.13,0,.29-.12.35-.04.02-.08.03-.11.03Z"/>
      <g>
        <path class="cls-31" d="m242.58,193.44c-.28-.03-.56-.03-.82-.02-.07-.05-.12-.08-.12-.08l-1.45-.79c.77-1.37,1.25-2.93,1.34-4.6.01-.19.02-.38.02-.58v-5.65s0,0,0,0l-.03-3.83c0-.05,0-.11,0-.16,0-.01,0-.02,0-.03.06-1.01.31-5.69-.09-7.36-.15-.63-.38-1.12-.73-1.31-.56-.3-1.03.37-1.39,1.28-.17.43-.38,1.16-.58,1.94,0,0,0,0,0,0-1.1-.84-2.45-1.36-3.93-1.41-.14,0-.28,0-.42,0-.48.01-.95.08-1.39.19-.63.15-1.22.4-1.78.71-.22-.45-.47-.92-.74-1.33-.54-.82-1.13-1.39-1.62-.98-.3.25-.43.78-.46,1.43-.03.96.16,2.19.37,3.19-.19.29-.37.6-.51.92h0s-3.05,5.45-.6,6.54c.17.07.63.17.63.17h-7.67c-.25-.01-.48.03-.72.05-1.34-1.09-7.81-5.85-14.25-2.08-.4.24-.78.49-1.13.77-2.33,1.84-3.56,4.56-4.03,7.19-.03.17-.06.33-.08.5-.13.86-.17,1.7-.15,2.5.03,1.34.24,2.61.6,3.74.27.87.64,1.66,1.08,2.36.68,1.08,1.56,1.93,2.58,2.46.22.11.45.17.68.17.53,0,1.05-.29,1.31-.8.38-.73.09-1.62-.63-2-.62-.32-1.16-.91-1.59-1.68-.63-1.13-1.03-2.66-1.07-4.32,0-.05,0-.09,0-.14,0-.65.04-1.33.15-2.02.06-.37.14-.75.24-1.12.41-1.56,1.17-3.07,2.41-4.2.34-.31.72-.6,1.14-.84,3.61-2.11,7.38-.48,9.45.8-1.39.99-2.55,2.45-3.35,4.22-.41.9-.73,1.87-.94,2.88-5.35,3-5.24,9.29-4.87,12.72,0,.04.02.08.02.12.13,1.07,1.52,2.03,3.33,2.21.83.08,1.6,0,2.24-.23.88-.31,1.47-.86,1.54-1.55.08-.79-.58-1.55-1.61-2.03.06-2.27,2.18-2.48,2.18-2.48.43,0,.85-.02,1.26-.05,1.44-.11,2.8-.42,4.04-.87h10.55c.99,0,2.11-.24,3.19-.62.26.08.52.14.8.17,2.91.33,5.16.36,7.13.19.02,0,.04,0,.06.01.83.08,1.61,0,2.24-.23.88-.31,1.47-.86,1.54-1.55.12-1.18-1.38-2.3-3.35-2.5Z"/>
        <g>
          <path class="cls-31" d="m216.09,201.66c0,.08.01.32,0,.37-.12,1.18,1.38,2.3,3.35,2.5.83.08,1.61,0,2.24-.23.88-.31,1.47-.86,1.54-1.55.08-.76-.52-1.49-1.47-1.97-.33-2.83,2.15-3.07,2.15-3.07v-9.9c-8.21,2.15-7.73,9.86-7.82,13.84Z"/>
          <path class="cls-31" d="m239.21,200.44l.14-10.03-7.62.31s-.16,8.99,3.16,12.42c.31.4.8.74,1.41,1,.04.02.08.04.12.05.13.05.26.09.4.13.03,0,.06.02.09.03.3.08.62.15.95.19.83.08,1.6,0,2.24-.23.88-.31,1.47-.86,1.54-1.55.1-.99-.94-1.92-2.42-2.33Z"/>
        </g>
        <path class="cls-1" d="m213.66,204.75s-.09-.01-.13-.03c-.13-.07-.17-.23-.1-.36.08-.14.06-.23.03-.29-.18-.37-1.07-.65-1.58-.74-.14-.03-.24-.16-.21-.3.03-.14.16-.24.3-.21.16.03,1.62.31,1.97,1.03.08.17.14.44-.04.77-.05.09-.14.14-.23.14Z"/>
        <path class="cls-1" d="m240.76,204.06s-.09-.01-.13-.03c-.13-.07-.17-.23-.1-.36.08-.14.06-.23.03-.29-.18-.37-1.07-.65-1.59-.74-.14-.03-.24-.16-.21-.3.03-.14.16-.24.3-.21.16.03,1.62.31,1.97,1.03.08.17.14.44-.04.77-.05.09-.14.14-.23.14Z"/>
        <path class="cls-1" d="m245.05,197.28s-.09-.01-.13-.03c-.13-.07-.17-.23-.1-.36.08-.14.06-.23.03-.29-.18-.37-1.07-.65-1.59-.74-.14-.03-.24-.16-.21-.3.03-.14.16-.24.3-.21.16.03,1.62.31,1.97,1.03.08.17.14.44-.04.77-.05.09-.14.14-.23.14Z"/>
        <path class="cls-1" d="m222.35,204.09s-.09-.01-.13-.03c-.13-.07-.17-.23-.1-.36.08-.14.06-.23.03-.29-.18-.37-1.07-.65-1.59-.74-.14-.03-.24-.16-.21-.3.03-.14.16-.24.3-.21.16.03,1.62.31,1.97,1.03.08.17.14.44-.04.77-.05.09-.14.14-.23.14Z"/>
        <path class="cls-1" d="m238.06,198.33c-2.08,0-4.66-.25-6.28-.87-4.31-1.67-1.53-9.95-1.5-10.04.05-.14.2-.21.34-.16.14.05.21.2.16.34-.6,1.65-2.15,8.08,1.19,9.37,2.12.82,6.21.98,8.21.73.15-.02.27.08.29.23.02.14-.08.27-.23.29-.58.07-1.34.11-2.18.11Z"/>
        <path class="cls-1" d="m215.1,199.29c-.15,0-.26-.12-.26-.26s.12-.26.26-.26c.42,0,.84-.02,1.24-.05,2.54-.2,4.96-1.02,6.82-2.31.85-.59,1.57-1.28,2.14-2.03.93-1.23,1.42-2.63,1.42-4.04,0-.72-.13-1.43-.37-2.12-.05-.14.02-.29.16-.34.14-.05.29.02.34.16.27.74.4,1.52.4,2.3,0,1.53-.53,3.03-1.53,4.35-.6.79-1.36,1.51-2.25,2.14-1.93,1.35-4.44,2.2-7.08,2.41-.42.03-.85.05-1.28.05Z"/>
        <g>
          <path class="cls-1" d="m233.2,175.97c-.14,0-.25-.11-.26-.25l-.19-2.91c0-.14.1-.27.25-.28.14,0,.27.1.28.25l.19,2.91c0,.14-.1.27-.25.28,0,0-.01,0-.02,0Z"/>
          <path class="cls-1" d="m232.84,176.06c-.09,0-.18-.05-.23-.14l-.75-1.37c-.07-.13-.02-.29.11-.36.13-.07.29-.02.36.11l.75,1.37c.07.13.02.29-.11.36-.04.02-.08.03-.13.03Z"/>
        </g>
        <g>
          <path class="cls-18" d="m232.97,177.44c0,.6-.58,1.1-1.39,1.29-.1.03-.2.04-.31.06-.13.01-.28.03-.42.03-.17,0-.33-.01-.48-.04-.09-.01-.17-.03-.25-.05-.81-.19-1.39-.7-1.39-1.29s.57-1.09,1.38-1.29c.09-.02.17-.04.26-.05.15-.03.31-.04.47-.04.14,0,.29.01.42.03.11.01.21.03.31.06.81.19,1.39.7,1.39,1.29Z"/>
          <path class="cls-1" d="m231.25,177.44c0,.55-.25,1.02-.64,1.29-.08.02-.16.04-.25.05-.09-.01-.17-.03-.25-.05-.81-.19-1.39-.7-1.39-1.29s.57-1.09,1.38-1.29c.09-.02.17-.04.26-.05.08.01.16.03.24.05.38.27.64.75.64,1.29Z"/>
          <path class="cls-1" d="m230.85,179.08c-1.34,0-2.38-.72-2.38-1.64s1.05-1.64,2.38-1.64c.15,0,.31.01.45.03,1.12.15,1.93.83,1.93,1.61s-.79,1.46-1.93,1.61c-.15.02-.3.03-.45.03Zm0-2.75c-1.01,0-1.86.51-1.86,1.11s.85,1.11,1.86,1.11c.13,0,.27,0,.39-.02.85-.11,1.47-.57,1.47-1.09s-.63-.98-1.47-1.09c-.12-.01-.25-.02-.39-.02Z"/>
        </g>
        <g>
          <path class="cls-18" d="m240.47,177.44c0,.6-.58,1.1-1.39,1.29-.1.03-.2.04-.31.06-.13.01-.28.03-.42.03-.17,0-.33-.01-.48-.04-.09-.01-.17-.03-.25-.05-.81-.19-1.39-.7-1.39-1.29s.57-1.09,1.38-1.29c.09-.02.17-.04.26-.05.15-.03.31-.04.47-.04.14,0,.29.01.42.03.11.01.21.03.31.06.81.19,1.39.7,1.39,1.29Z"/>
          <path class="cls-1" d="m238.75,177.44c0,.55-.25,1.02-.64,1.29-.08.02-.16.04-.25.05-.09-.01-.17-.03-.25-.05-.81-.19-1.39-.7-1.39-1.29s.57-1.09,1.38-1.29c.09-.02.17-.04.26-.05.08.01.16.03.24.05.38.27.64.75.64,1.29Z"/>
          <path class="cls-1" d="m238.35,179.08c-1.34,0-2.38-.72-2.38-1.64s1.05-1.64,2.38-1.64c.15,0,.31.01.45.03,1.12.15,1.93.83,1.93,1.61s-.79,1.46-1.93,1.61c-.15.02-.3.03-.45.03Zm0-2.75c-1.01,0-1.86.51-1.86,1.11s.85,1.11,1.86,1.11c.13,0,.27,0,.39-.02.85-.11,1.47-.57,1.47-1.09s-.63-.98-1.47-1.09c-.12-.01-.25-.02-.39-.02Z"/>
        </g>
        <g>
          <path class="cls-1" d="m235.93,175.97s-.01,0-.02,0c-.14,0-.25-.13-.25-.28l.19-2.91c0-.14.14-.25.28-.25.14,0,.25.13.25.28l-.19,2.91c0,.14-.12.25-.26.25Z"/>
          <path class="cls-1" d="m236.28,176.06s-.09-.01-.13-.03c-.13-.07-.17-.23-.11-.36l.75-1.37c.07-.13.23-.17.36-.11.13.07.17.23.11.36l-.75,1.37c-.05.09-.14.14-.23.14Z"/>
        </g>
        <path class="cls-20" d="m237.33,183.58c-.15,0-.26-.12-.26-.26,0-2.05-1.02-3.48-2.49-3.48-1.6,0-2.33,1.58-2.33,3.05,0,.15-.12.26-.26.26s-.26-.12-.26-.26c0-1.72.89-3.58,2.86-3.58,1.77,0,3.01,1.65,3.01,4.01,0,.15-.12.26-.26.26Z"/>
        <polygon class="cls-31" points="233.93 180.08 234.6 179.29 235.31 180.16 233.93 180.08"/>
        <g>
          <path class="cls-1" d="m233.93,180.29c-.06,0-.12-.02-.17-.06-.11-.09-.12-.26-.03-.37l.61-.71v-.46c0-.15.12-.26.26-.26s.26.12.26.26v.66l-.73.86c-.05.06-.13.09-.2.09Z"/>
          <path class="cls-25" d="m233.89,178.09c0,.39.32.71.71.71s.71-.32.71-.71-.71.27-.71.27c0,0-.71-.66-.71-.27Z"/>
        </g>
        <path class="cls-1" d="m235.31,180.29c-.07,0-.14-.03-.19-.09l-.71-.78c-.1-.11-.09-.27.02-.37.11-.1.27-.09.37.02l.71.78c.1.11.09.27-.02.37-.05.05-.11.07-.18.07Z"/>
        <g>
          <path class="cls-20" d="m234.8,188.28c-.2.52.3,1.04.83.85,2.07-.74,2.74-1.44,3.25-2.79.6-1.6-.21-3.37-1.8-3.97l-2.27,5.91Z"/>
          <path class="cls-20" d="m236.94,187.56c-.24.56.03,1.21.59,1.44.56.24,1.21-.03,1.44-.59.16-.38.09-.79-.14-1.09-.11-.15-.27-.28-.45-.35-.18-.07-.36-.1-.54-.08-.39.04-.74.29-.9.67Z"/>
          <path class="cls-1" d="m236.33,187.87c.05.13.2.19.33.14.13-.05.19-.2.14-.33-.05-.13-.2-.19-.33-.14-.13.05-.19.2-.14.33Z"/>
          <path class="cls-1" d="m238.86,187.61c-.08,0-.16-.04-.21-.1-.1-.13-.23-.24-.39-.3-.15-.06-.3-.09-.46-.07-.15.02-.27-.09-.29-.23-.02-.14.09-.27.23-.29.25-.03.49.01.72.11.24.1.45.26.61.47.09.12.06.28-.05.37-.05.04-.1.05-.16.05Z"/>
          <path class="cls-1" d="m234.82,189.02c.1-.23.36-.34.59-.24s.34.36.24.59-.36.34-.59.24-.34-.36-.24-.59Z"/>
        </g>
        <path class="cls-1" d="m241.64,193.75s-.09-.01-.13-.03l-3.57-1.94c-.13-.07-.17-.23-.11-.36.07-.13.23-.17.36-.11l3.57,1.94c.13.07.17.23.11.36-.05.09-.14.14-.23.14Z"/>
        <path class="cls-1" d="m229.2,182.48s-.05,0-.07-.01c-2.37-.84-2.66-2.03-2.68-2.08-.03-.14.06-.28.2-.31.14-.03.28.06.31.19,0,.02.29.98,2.34,1.7.14.05.21.2.16.33-.04.11-.15.18-.26.17Z"/>
      </g>
    </g>
    <g>
      <g>
        <path class="cls-13" d="m430.36,166.28c0,4.33-.89,8.14-2.24,10.35-.78,1.28-1.71,2.02-2.71,2.02-2.74,0-4.96-5.54-4.96-12.36,0-2.78.36-5.34.98-7.4.9-3.01,2.35-4.96,3.97-4.96,2.74,0,4.95,5.54,4.95,12.36Z"/>
        <path class="cls-10" d="m428.12,176.63c-.78,1.28-1.71,2.02-2.71,2.02-2.74,0-4.96-5.54-4.96-12.36,0-2.78.36-5.34.98-7.4,1.28-2.04,5.65-1.8,6.32.57,1.43,5.06-4.98,8.62.36,17.17Z"/>
        <path class="cls-1" d="m425.4,178.91c-2.93,0-5.22-5.55-5.22-12.63,0-2.72.34-5.31,1-7.48.98-3.27,2.52-5.15,4.22-5.15,2.92,0,5.22,5.55,5.22,12.63,0,4.23-.85,8.15-2.28,10.48-.86,1.4-1.87,2.14-2.94,2.14Zm0-24.73c-1.43,0-2.82,1.79-3.72,4.78-.64,2.12-.97,4.65-.97,7.32,0,6.56,2.15,12.1,4.69,12.1,1.1,0,1.96-1.03,2.49-1.89,1.38-2.26,2.2-6.07,2.2-10.21,0-6.56-2.15-12.1-4.69-12.1Z"/>
      </g>
      <path class="cls-7" d="m433.05,180.13h32.04c.68,0,1.24.56,1.24,1.24v.45c0,.68-.56,1.24-1.24,1.24h-32.04v-2.92h0Z" transform="translate(899.37 363.19) rotate(180)"/>
      <path class="cls-1" d="m466.59,204.66h-50.93v-39.18c0-6.8,2.65-13.2,7.46-18.01,3.64-3.64,8.22-6.07,13.25-7.02,3.39-.64,7-.58,10.34.17,11.52,2.58,19.88,13.03,19.88,24.85v39.18Zm-50.41-.53h49.88v-38.66c0-11.58-8.19-21.81-19.47-24.34-3.28-.74-6.81-.8-10.13-.17-4.93.93-9.41,3.31-12.98,6.87-4.71,4.71-7.3,10.97-7.3,17.63v38.66Z"/>
      <g>
        <path class="cls-33" d="m439.69,169.13l23.27,13.08s-9.78,8.34-23.27-13.08Z"/>
        <path class="cls-33" d="m439.69,169.13l15.75,14.19s-11.38,7.36-15.75-14.19Z"/>
        <path class="cls-33" d="m436.53,178.88c4.67,2.94,10.84,1.54,13.79-3.14l-10.63-6.69,1.43-2.07c.12-.19.22-.39.31-.61h0c.17-.43.26-.89.26-1.37,0-2.07-1.7-3.77-3.77-3.77-1.23,0-2.33.6-3.01,1.52-.07.09-.13.18-.19.28l-1.33,2.06c-2.94,4.67-1.54,10.85,3.14,13.79Z"/>
        <path class="cls-1" d="m446.69,180.98c-1.41,0-2.93-.42-4.41-1.61-1.72-1.39-3.2-3.68-4.39-6.81-.05-.14.02-.29.15-.34.13-.05.29.02.34.15,1.15,3.04,2.57,5.26,4.23,6.59,4.62,3.73,9.69-.68,9.74-.72.11-.1.27-.09.37.02.1.11.09.27-.02.37-.04.03-2.71,2.35-6.01,2.35Z"/>
        <path class="cls-3" d="m438.27,161.27c-.08-.03-.17-.05-.26-.05l-5.18-.04s.47,2.02,2.37,2.23c.4.64,1.15,1.07,2.55.77,3.5-.76,3.69,2.04,3.69,2.19.17-.42.26-.89.26-1.37,0-1.96-1.52-3.55-3.43-3.73Z"/>
        <path class="cls-1" d="m437.84,164.35c0,.42.34.75.75.75s.75-.34.75-.75-.34-.75-.75-.75-.75.34-.75.75Z"/>
        <path class="cls-3" d="m437.01,164.62c-.41.08-1.92-.02-2.08.45-.16.48,1.72.94,2.25.1.53-.84-.03-.58-.17-.55Z"/>
        <path class="cls-1" d="m448.3,180.81s-.03,0-.05,0c-1.77-.33-3.75-2.53-5.88-6.51-.08-.15-.14-.26-.16-.3-.07-.09-.08-.22-.02-.31.08-.12.24-.15.36-.07.07.05.08.07.28.44,2.05,3.84,3.91,5.94,5.52,6.25.14.03.24.16.21.31-.02.13-.13.21-.26.21Z"/>
        <path class="cls-20" d="m441.74,165.02c.37.82.26,2.48-.62,3.5l-2.2-2.48,1.04-1.4c.49-.67,1.44-.37,1.78.38Z"/>
        <path class="cls-20" d="m440.59,167.92s-2.54.27-1.67-1.88l.92,1.04.74.84Z"/>
        <path class="cls-1" d="m441.12,168.78c-.07,0-.14-.03-.2-.09l-2.2-2.48c-.1-.11-.09-.27.02-.37.11-.1.27-.09.37.02l2.2,2.48c.1.11.09.27-.02.37-.05.04-.11.07-.17.07Z"/>
        <path class="cls-1" d="m437.05,170.49c-.4,0-.85-.04-1.35-.15-.14-.03-.23-.17-.2-.31.03-.14.17-.23.31-.2,2.79.57,3.63-.84,3.66-.9.07-.13.23-.17.36-.1.13.07.17.23.1.35-.03.06-.75,1.31-2.88,1.31Z"/>
      </g>
      <path class="cls-1" d="m425.19,204.66c-.15,0-.26-.12-.26-.26v-41.38c0-9.06,4.24-17.48,11.33-22.51.12-.08.28-.06.37.06.08.12.06.28-.06.37-6.96,4.94-11.11,13.19-11.11,22.08v41.38c0,.15-.12.26-.26.26Z"/>
      <path class="cls-1" d="m457.64,204.66c-.15,0-.26-.12-.26-.26v-41.38c0-8.77-4.07-16.96-10.88-21.91-.12-.09-.14-.25-.06-.37.09-.12.25-.14.37-.06,6.95,5.05,11.09,13.4,11.09,22.34v41.38c0,.15-.12.26-.26.26Z"/>
      <path class="cls-1" d="m435.27,204.25c-.15,0-.26-.12-.26-.26v-41.38c0-9.02,1.6-17.4,4.28-22.42.07-.13.23-.18.36-.11.13.07.18.23.11.36-2.64,4.95-4.22,13.24-4.22,22.17v41.38c0,.15-.12.26-.26.26Z"/>
      <path class="cls-1" d="m447.56,204.25c-.15,0-.26-.12-.26-.26v-41.38c0-8.81-1.54-17.04-4.13-22.01-.07-.13-.02-.29.11-.35.13-.07.29-.02.35.11,2.62,5.04,4.19,13.36,4.19,22.25v41.38c0,.15-.12.26-.26.26Z"/>
      <path class="cls-1" d="m441.1,138.82c-5.48,0-9.77-2.09-9.77-4.76s4.29-4.76,9.77-4.76,9.76,2.09,9.76,4.76-4.29,4.76-9.76,4.76Zm0-8.99c-5.1,0-9.24,1.9-9.24,4.23s4.15,4.23,9.24,4.23,9.24-1.9,9.24-4.23-4.14-4.23-9.24-4.23Z"/>
      <path class="cls-1" d="m441.12,141.69c-.63,0-.92-1.13-.92-2.18s.29-2.18.92-2.18.92,1.13.92,2.18-.29,2.18-.92,2.18Zm0-3.83c-.1.04-.39.6-.39,1.65s.28,1.59.4,1.65c.12-.06.4-.62.4-1.65s-.29-1.61-.4-1.65Z"/>
      <rect class="cls-1" x="434.5" y="128.83" width="13.16" height="3.46" rx="1.34" ry="1.34"/>
      <g>
        <rect class="cls-18" x="414.57" y="196.15" width="53.1" height="8.51" transform="translate(882.24 400.8) rotate(180)"/>
        <path class="cls-1" d="m467.93,204.92h-53.62v-9.03h53.62v9.03Zm-53.09-.53h52.57v-7.98h-52.57v7.98Z"/>
      </g>
      <path class="cls-1" d="m425.4,154.18c-.15,0-.26-.12-.26-.26v-8.07c0-.15.12-.26.26-.26s.26.12.26.26v8.07c0,.15-.12.26-.26.26Z"/>
    </g>
    <g>
      <g>
        <path class="cls-24" d="m420.02,173.74c0,5.33-1.58,10.3-4.29,14.45-2.65,4.06-6.38,7.34-10.79,9.45-.17.08-.35.17-.54.25-.64.3-1.3.56-1.97.8-2.16.77-4.44,1.26-6.82,1.45h0c-.8.07-1.6.1-2.41.08-.79,0-1.55-.05-2.32-.13-1.97-.19-3.87-.61-5.69-1.22-.81-.26-1.6-.58-2.37-.92-.51-.23-1-.46-1.48-.72-1.46-.76-2.85-1.66-4.14-2.68-6.02-4.73-9.96-12.01-10.16-20.16-.05-2.2.16-4.34.61-6.38,0,0,0-.02,0-.03,0,0,0-.02.01-.03.08-.13.55-.26,1.35-.38.07,0,.14-.02.21-.03.14-.02.3-.04.46-.05.16-.02.33-.04.51-.06.09-.01.18-.02.27-.02.1-.01.19-.02.29-.03,2.85-.26,7.46-.47,13.05-.59,1.16-.02,2.35-.04,3.59-.06,1.96-.02,4-.04,6.11-.04,1.53,0,3.03,0,4.48.02,10.2.09,18.34.49,20.69.99.46.1.69.2.69.3.02.09.04.18.06.27.37,1.76.57,3.6.57,5.48Z"/>
        <path class="cls-11" d="m415.74,188.19c-2.65,4.06-6.38,7.34-10.79,9.45-.17.08-.35.17-.54.25-.64.3-1.3.56-1.97.8-2.16.77-4.44,1.26-6.82,1.45h0c-.8.07-1.6.1-2.41.08-.79,0-1.55-.05-2.32-.13-1.97-.19-3.87-.61-5.69-1.22-.81-.26-1.6-.58-2.37-.92-.51-.23-1-.46-1.48-.72-1.46-.76-2.85-1.66-4.14-2.68,2.61-6.39,11.45-11.09,21.95-11.09,6.54,0,12.43,1.82,16.57,4.74Z"/>
        <g>
          <path class="cls-2" d="m386.37,188.68l4.11,6.39s3.24-7.19-4.11-6.39Z"/>
          <path class="cls-2" d="m398.52,177.14c-.45.43-.92.87-1.37,1.29-1.41-2.19-3.88-3.64-6.68-3.64-2.33,0-4.7,2.25-6.4,4.35,1.65-2.35,4.65-5.94,7.59-5.94s5.48,1.58,6.86,3.94Z"/>
          <path class="cls-26" d="m402.83,178.36l-3.32,1.71-1.35.7c-.87-3.43-3.98-5.98-7.68-5.98-2.33,0-4.7,2.25-6.4,4.35,0,0,0,0,0,0-1.49,1.85-2.48,3.58-2.48,3.58,0,0,4.5,7.94,8.88,7.94,1.38,0,2.67-.35,3.8-.97,1.29-.71,2.37-1.76,3.1-3.04.3-.52.53-1.08.7-1.66l1.44.74,3.32,1.71-.98-4.8.98-4.29Z"/>
          <g>
            <path class="cls-33" d="m387.36,182.23c-.06.86-.81,1.51-1.67,1.45-.86-.06-1.51-.81-1.45-1.67s.81-1.51,1.67-1.45c.86.06,1.51.81,1.45,1.67Z"/>
            <path class="cls-2" d="m386.9,182.2c-.04.61-.57,1.07-1.18,1.03-.61-.04-1.07-.57-1.03-1.18.04-.61.57-1.07,1.18-1.03s1.07.57,1.03,1.18Z"/>
          </g>
          <path class="cls-2" d="m385.1,187.45l1.65,7.41s5.52-5.63-1.65-7.41Z"/>
          <polygon class="cls-2" points="401.85 182.65 402.83 187.45 401.09 186.55 399.3 182.73 401.05 179.28 402.83 178.36 401.85 182.65"/>
          <path class="cls-1" d="m388.35,187.33l-1.32-1.65c-.09-.11-.07-.28.04-.37.11-.09.28-.07.37.04l.63.8.38-1.57.77-1.02-1,.05c-.14.01-.27-.1-.28-.25,0-.14.1-.27.25-.28l2.13-.11-1.42,1.88-.56,2.49Z"/>
          <path class="cls-1" d="m394.27,189.96c-.09,0-.18-.05-.23-.14-.07-.13-.02-.29.1-.36,1.25-.68,2.29-1.7,2.99-2.94.66-1.15,1.01-2.47,1.01-3.81,0-.15.12-.26.26-.26s.26.12.26.26c0,1.43-.37,2.83-1.08,4.07-.76,1.32-1.86,2.41-3.2,3.14-.04.02-.08.03-.13.03Z"/>
        </g>
        <path class="cls-18" d="m379.76,180.64c-.59,0-1.07-.48-1.07-1.07s.48-1.07,1.07-1.07,1.07.48,1.07,1.07-.48,1.07-1.07,1.07Zm0-1.61c-.3,0-.54.24-.54.54s.24.54.54.54.54-.24.54-.54-.24-.54-.54-.54Z"/>
        <path class="cls-18" d="m382.08,176.29c-1.21,0-2.19-.98-2.19-2.19s.98-2.19,2.19-2.19,2.19.98,2.19,2.19-.98,2.19-2.19,2.19Zm0-3.85c-.92,0-1.66.75-1.66,1.66s.74,1.66,1.66,1.66,1.66-.74,1.66-1.66-.75-1.66-1.66-1.66Z"/>
        <path class="cls-12" d="m394.93,184.72c-1.95,2.54-.19,6.66-4.6,9.08-3.28,1.8-4.65,4.03-5.14,5.06-1.33-.44-2.61-1-3.84-1.64.42-2.26,1.58-5.49,4.71-5.71,4.85-.35-.05-7.39,5.74-9.97,5.8-2.59,5.08.65,3.12,3.19Z"/>
        <path class="cls-12" d="m410.02,190.38c-1.11,1.43-.11,3.76-2.6,5.13-1.26.69-2.02,1.5-2.47,2.13-.81.39-1.65.74-2.51,1.05h-.24s.06-4.27,2.8-4.47c2.74-.2-.04-4.17,3.24-5.63,3.28-1.46,2.87.37,1.77,1.8Z"/>
        <path class="cls-12" d="m407.37,182.96c-2.33,3.03-.23,7.95-5.49,10.84-4.27,2.35-5.83,5.31-6.26,6.34h0c-.8.07-1.6.09-2.42.08-.78,0-1.55-.06-2.32-.13.11-1.76.86-8.66,5.91-9.03,5.79-.42-.06-8.82,6.85-11.9,6.92-3.08,6.05.78,3.72,3.8Z"/>
        <path class="cls-18" d="m393.53,169.55c-6.86,0-13.33-.13-18.21-.38-7.75-.39-7.85-.83-7.91-1.12v-.17s.03-.04.03-.04c0,0,0-.02.01-.02.1-.17.29-.33,1.55-.52.07,0,.14-.02.21-.03.16-.02.31-.04.47-.06l.17-.02c.11-.01.23-.03.35-.04.09-.01.18-.02.28-.02l.27-.03c2.89-.27,7.53-.48,13.08-.59,1.16-.02,2.36-.05,3.59-.06,1.95-.02,4.01-.04,6.11-.04,1.53,0,3.03,0,4.48.02,10.19.09,18.33.48,20.74.99.56.12.9.25.9.56s-.36.43-.76.53c-2.53.6-13.2,1.04-25.36,1.04Zm-25.34-1.56c1.95.52,11.92,1.04,25.34,1.04,12.13,0,22.75-.43,25.24-1.03.02,0,.04-.01.06-.01-.06-.01-.12-.03-.19-.04-2.34-.5-10.64-.89-20.63-.98-1.45-.01-2.95-.02-4.48-.02-2.11,0-4.16.01-6.11.04-1.23.01-2.43.04-3.59.06-5.54.11-10.17.32-13.03.59l-.28.03c-.1,0-.18.01-.27.02-.12.01-.24.03-.34.04l-.17.02c-.16.02-.31.04-.46.05-.07.01-.15.02-.22.03-.42.06-.7.12-.87.17Z"/>
        <path class="cls-18" d="m382.77,198.2l-.05-.02c-.59-.27-1.07-.5-1.49-.72-8.67-4.53-14.2-13.37-14.44-23.06-.05-2.19.16-4.36.62-6.45l.02-.06c.04-.2.09-.4.14-.61l.02-.07c.73-2.66,3.15-4.49,5.91-4.49h40.06c2.69,0,5.1,1.8,5.87,4.37.07.22.12.41.15.55l.13.57c.39,1.81.58,3.68.58,5.54,0,10.25-5.98,19.72-15.22,24.14-.18.09-.36.17-.55.25l-.1.02-21.64.05Zm-9.28-34.97c-2.52,0-4.73,1.68-5.39,4.07,0,.02-.01.05-.02.07-.05.21-.1.41-.14.62l-.02.07c-.45,2.04-.65,4.17-.61,6.31.23,9.5,5.65,18.16,14.16,22.61.4.21.85.43,1.41.68l21.48-.05c.16-.07.32-.15.48-.22,9.07-4.33,14.93-13.62,14.93-23.67,0-1.83-.19-3.65-.57-5.43l-.13-.57c-.03-.13-.08-.3-.14-.51-.7-2.36-2.91-4-5.37-4h-40.06Z"/>
      </g>
      <g>
        <polygon class="cls-18" points="405.92 204.65 381.33 204.65 382.84 197.89 404.42 197.89 405.92 204.65"/>
        <path class="cls-1" d="m406.25,204.92h-25.25l1.63-7.29h22l1.63,7.29Zm-24.6-.53h23.94l-1.39-6.24h-21.16l-1.39,6.24Z"/>
      </g>
    </g>
    <g>
      <g>
        <polygon class="cls-18" points="213.68 66.53 194.35 66.53 192.57 66.53 173.25 66.53 165.05 80.54 192.57 80.54 194.35 80.54 221.88 80.54 213.68 66.53"/>
        <path class="cls-1" d="m222.34,80.8h-57.75l8.51-14.54h40.73l8.51,14.54Zm-56.83-.53h55.91l-7.9-13.49h-40.12l-7.9,13.49Z"/>
      </g>
      <g>
        <path class="cls-1" d="m193.46,37.94c-.15,0-.26-.12-.26-.26v-3.15c0-.15.12-.26.26-.26s.26.12.26.26v3.15c0,.15-.12.26-.26.26Z"/>
        <path class="cls-1" d="m193.46,58.5c-.15,0-.26-.12-.26-.26v-5.14c0-.15.12-.26.26-.26s.26.12.26.26v5.14c0,.15-.12.26-.26.26Zm0-10.28c-.15,0-.26-.12-.26-.26v-5.14c0-.15.12-.26.26-.26s.26.12.26.26v5.14c0,.15-.12.26-.26.26Z"/>
        <path class="cls-1" d="m193.46,66.79c-.15,0-.26-.12-.26-.26v-3.15c0-.15.12-.26.26-.26s.26.12.26.26v3.15c0,.15-.12.26-.26.26Z"/>
      </g>
    </g>
    <g>
      <g>
        <polygon class="cls-18" points="356.87 66.53 337.55 66.53 335.77 66.53 316.45 66.53 308.25 80.54 335.77 80.54 337.55 80.54 365.08 80.54 356.87 66.53"/>
        <path class="cls-1" d="m365.53,80.8h-57.75l8.51-14.54h40.73l8.51,14.54Zm-56.83-.53h55.91l-7.9-13.49h-40.12l-7.9,13.49Z"/>
      </g>
      <g>
        <path class="cls-1" d="m336.66,41.35c-.15,0-.26-.12-.26-.26v-3.15c0-.15.12-.26.26-.26s.26.12.26.26v3.15c0,.15-.12.26-.26.26Z"/>
        <path class="cls-1" d="m336.66,56.21c-.15,0-.26-.12-.26-.26v-7.43c0-.15.12-.26.26-.26s.26.12.26.26v7.43c0,.15-.12.26-.26.26Z"/>
        <path class="cls-1" d="m336.66,66.79c-.15,0-.26-.12-.26-.26v-3.15c0-.15.12-.26.26-.26s.26.12.26.26v3.15c0,.15-.12.26-.26.26Z"/>
      </g>
    </g>
    <g>
      <g>
        <polygon class="cls-18" points="507.37 66.53 488.05 66.53 486.27 66.53 466.95 66.53 458.74 80.54 486.27 80.54 488.05 80.54 515.57 80.54 507.37 66.53"/>
        <path class="cls-1" d="m516.03,80.8h-57.75l8.51-14.54h40.73l8.51,14.54Zm-56.83-.53h55.91l-7.9-13.49h-40.12l-7.9,13.49Z"/>
      </g>
      <g>
        <path class="cls-1" d="m487.16,32.82c-.15,0-.26-.12-.26-.26v-3.15c0-.15.12-.26.26-.26s.26.12.26.26v3.15c0,.15-.12.26-.26.26Z"/>
        <path class="cls-1" d="m487.16,57.48c-.15,0-.26-.12-.26-.26v-6.16c0-.15.12-.26.26-.26s.26.12.26.26v6.16c0,.15-.12.26-.26.26Zm0-12.33c-.15,0-.26-.12-.26-.26v-6.16c0-.15.12-.26.26-.26s.26.12.26.26v6.16c0,.15-.12.26-.26.26Z"/>
        <path class="cls-1" d="m487.16,66.79c-.15,0-.26-.12-.26-.26v-3.15c0-.15.12-.26.26-.26s.26.12.26.26v3.15c0,.15-.12.26-.26.26Z"/>
      </g>
    </g>
    <g>
      <path class="cls-1" d="m518.13,291.45c-10.8-10.32-42.91-6.61-42.91-6.61l-1.41-4.96c.23-.14.45-.28.67-.43h0s-.38-3.65-1.95-7.8c-.35-.93-.77-1.89-1.25-2.84,2.46-1.58,4.39-5.65,5.14-7.03.17-.32.01-.72-.34-.81-2.02-.54-7.16.3-10.61.97-.62-.41-1.28-.77-1.99-1.07-.98-.41-2.04-.71-3.19-.87-1.12.15-2.15.43-3.1.82-.49.2-.95.44-1.4.69-1.51-2.42-5-4.54-6.23-5.38-.3-.2-.71-.08-.84.25-.98,2.56-.13,10.71.17,13.27-2.26,4.89-2.77,9.77-2.77,9.77h0c.59.41,1.24.8,1.92,1.16h0s.03,1.09.03,1.09c-2.02,10.29-.87,20.93,3.25,30.52l-4.61.41,1.07,7.63,14.54.19,17.17-.65.03-1.35,39.11-.91s12.17-13.97-.51-26.09Z"/>
      <polygon class="cls-1" points="460.65 316.38 439.9 317.76 438.62 317.87 424.11 316.95 423.43 309.27 438.03 308.72 457.01 301.17 460.65 316.38"/>
      <g>
        <path class="cls-16" d="m421.8,309.09c-3.36.09-4.95,3.01-5.46,5.83-.24,1.28,1.06,2.41,2.7,2.36l7.95-.22c2.07-.06,3.08-2.57,1.61-4.03-2.01-2-4.58-4-6.79-3.94Z"/>
        <path class="cls-1" d="m418.94,317.54c-.96,0-1.84-.37-2.39-1.01-.42-.49-.58-1.08-.48-1.67.33-1.77,1.53-5.91,5.69-6.04.29-.05,2.43-.3,5.96,3.02.11.1.11.27.01.37-.1.11-.27.11-.37.01-3.48-3.28-5.49-2.89-5.51-2.88-3.84.11-4.96,3.96-5.26,5.62-.1.55.14.97.36,1.23.46.54,1.23.85,2.07.82h0c.14,0,.26.11.26.26,0,.15-.11.27-.26.27-.03,0-.07,0-.1,0Z"/>
        <path class="cls-1" d="m421.32,317.52c-.73,0-1.41-.29-1.83-.77-.32-.38-.46-.84-.37-1.3.21-1.12.81-3.14,2.5-4.08.13-.07.29-.02.36.1.07.13.02.29-.1.36-1.51.84-2.05,2.69-2.24,3.72-.07.39.1.68.25.86.33.39.9.61,1.5.59h0c.14,0,.26.11.26.26,0,.15-.11.27-.26.27-.03,0-.05,0-.08,0Z"/>
      </g>
      <g>
        <g>
          <path class="cls-18" d="m458.15,269.85c.01.63-.58,1.17-1.43,1.39-.11.03-.21.05-.33.07-.14.02-.29.03-.44.04-.27,0-.53-.02-.77-.08-.86-.18-1.48-.7-1.49-1.33-.01-.62.58-1.17,1.43-1.39.24-.06.5-.1.77-.11.15,0,.3,0,.44.02.11.01.22.03.33.05.86.18,1.48.71,1.49,1.33Z"/>
          <path class="cls-1" d="m456.59,269.87c.01.55-.23,1.03-.61,1.31-.1.03-.2.05-.31.07-.13.02-.28.03-.42.03-.26,0-.51-.02-.74-.07-.39-.26-.65-.74-.66-1.28-.01-.54.23-1.03.61-1.31.23-.06.48-.1.74-.1.15,0,.29,0,.42.02.11.01.21.03.31.05.39.26.65.74.66,1.28Z"/>
          <path class="cls-21" d="m455.87,271.61c-1.35,0-2.43-.73-2.45-1.66-.01-.48.25-.93.75-1.26.46-.31,1.07-.49,1.71-.5h.08c.13,0,.26,0,.39.02,1.18.13,2.04.82,2.06,1.64.02.83-.8,1.54-1.98,1.73-.16.02-.31.04-.48.04h-.08Zm.09-2.9h-.07c-.55.01-1.05.16-1.43.41-.34.23-.52.52-.52.81.01.63.88,1.15,1.93,1.15h.07c.14,0,.28-.02.41-.03.9-.14,1.55-.64,1.53-1.2-.01-.55-.69-1.03-1.59-1.13-.11,0-.22-.02-.34-.02Z"/>
        </g>
        <g>
          <path class="cls-18" d="m466.94,269.66c.01.63-.58,1.17-1.43,1.39-.11.03-.21.05-.33.07-.14.02-.29.03-.44.04-.27,0-.53-.02-.77-.07-.86-.18-1.48-.7-1.49-1.33-.01-.62.58-1.17,1.43-1.39.24-.06.5-.1.77-.11.15,0,.3,0,.44.02.11.01.22.03.33.05.86.18,1.48.71,1.49,1.33Z"/>
          <path class="cls-1" d="m465.34,269.68c.01.55-.23,1.03-.61,1.31-.1.03-.2.05-.31.07-.13.02-.27.03-.42.03-.26,0-.5-.02-.73-.07-.39-.26-.65-.73-.66-1.28-.01-.54.23-1.02.6-1.3.23-.06.47-.1.73-.1.15,0,.29,0,.42.02.11.01.21.03.31.05.39.26.65.73.66,1.28Z"/>
          <path class="cls-21" d="m464.66,271.42c-1.35,0-2.43-.73-2.45-1.66-.01-.48.25-.93.75-1.26.46-.31,1.07-.49,1.71-.5h.08c.13,0,.27,0,.39.02,1.18.13,2.04.82,2.06,1.64.02.83-.8,1.54-1.98,1.73-.16.02-.31.04-.48.04h-.08Zm.09-2.9h-.07c-.55.01-1.05.16-1.43.41-.34.23-.52.52-.52.82.01.63.88,1.15,1.93,1.15h.07c.14,0,.28-.02.41-.03.9-.14,1.55-.64,1.53-1.19-.01-.55-.69-1.03-1.59-1.13-.11,0-.22-.02-.34-.02Z"/>
        </g>
        <path class="cls-21" d="m473.81,279.88c.23-.14.45-.29.67-.43h0c-8.19,2.69-10.57-3.69-10.57-3.69l-3.61,1.69-3.61-1.69s-2.38,6.39-10.57,3.69h0c.59.41,1.24.79,1.92,1.16,0,0-.03,19.85,6.86,31.12l1.68-.09c-.84-6.76-.82-23.05,18.62-26.8l-1.41-4.96Z"/>
        <path class="cls-21" d="m448.55,280.86s0,0,0,0c0,0,0,0,0,0Z"/>
        <path class="cls-9" d="m458.31,276.24s-.69,6.12,2.98,7.46.93-7.48.93-7.48l-3.9.03Z"/>
        <path class="cls-21" d="m464.46,275.42c-.73,1.83-2.43,2.74-4.13,2.74-1.7,0-3.4-.91-4.13-2.74-.23-.57-.3-1.11-.15-1.54.46-1.34,2.19-2.66,2.98-3.4.27-.25.86-.59.89-.96.31-3.77.39-4.35.39-4.35,0,0,.13.63.44,4.35.03.37.62.7.89.96.79.74,2.52,2.06,2.98,3.4.15.44.07.98-.15,1.54Z"/>
        <path class="cls-1" d="m459.14,276.7l-.79-.59c-.46-.34-.59-1-.25-1.47.32-.45.85-.75,1.44-.75h1.59c.6-.01,1.13.28,1.45.73.34.47.22,1.12-.24,1.47l-.79.6c-.71.54-1.69.55-2.41.01Z"/>
        <path class="cls-1" d="m464.56,275.18c-.13-.05-.29.01-.34.15-.6,1.51-1.98,2.46-3.62,2.56v-.93c0-.15-.12-.26-.26-.26s-.26.12-.26.26v.93c-1.64-.09-3.02-1.05-3.62-2.56-.05-.13-.21-.2-.34-.15-.13.05-.2.21-.15.34.72,1.79,2.39,2.91,4.37,2.91h0c1.98,0,3.65-1.11,4.37-2.91.05-.13-.01-.29-.15-.34Z"/>
      </g>
      <g>
        <path class="cls-16" d="m445.06,312.37c-3.36.11-4.93,3.04-5.44,5.85-.23,1.28,1.07,2.4,2.71,2.35l7.95-.25c2.07-.07,3.07-2.58,1.6-4.04-2.02-1.99-4.6-3.98-6.81-3.91Z"/>
        <path class="cls-1" d="m442.22,320.83c-.95,0-1.83-.37-2.37-.99-.42-.48-.59-1.07-.48-1.66.32-1.78,1.51-5.92,5.66-6.07.29-.06,2.43-.31,5.97,2.99.11.1.11.26.01.37-.1.11-.27.11-.37.01-3.5-3.26-5.5-2.86-5.52-2.86-3.84.13-4.94,3.99-5.24,5.64-.1.55.14.97.36,1.23.46.53,1.24.84,2.08.81.13,0,.27.11.27.25,0,.14-.11.27-.25.27-.04,0-.08,0-.12,0Z"/>
        <path class="cls-1" d="m444.61,320.81c-.73,0-1.4-.28-1.82-.77-.33-.38-.46-.84-.38-1.3.2-1.12.79-3.15,2.49-4.09.13-.07.29-.03.36.1.07.13.03.29-.1.36-1.51.84-2.04,2.7-2.23,3.73-.07.39.1.68.26.86.33.38.88.61,1.5.58.14,0,.27.11.27.25,0,.14-.11.27-.25.27-.03,0-.06,0-.09,0Z"/>
      </g>
      <path class="cls-21" d="m481.07,317.52c-.12,0-.23-.09-.26-.21-.03-.14.06-.28.2-.31.29-.06.52-.24.7-.56,2.17-3.73-3.65-21.83-3.71-22.01-.04-.14.03-.29.17-.33.14-.05.29.03.33.17.24.75,5.94,18.51,3.66,22.44-.26.45-.61.72-1.05.81-.02,0-.04,0-.05,0Z"/>
      <path class="cls-21" d="m446.73,312.89c-.13,0-.25-.1-.26-.24-.01-.14.09-.27.24-.28l10.31-.92,4.66-.57c.14-.02.27.08.29.23.02.14-.08.27-.23.29l-4.67.57-10.32.92s-.02,0-.02,0Z"/>
      <path class="cls-1" d="m530.93,303.06c6.62,4.96,3.06,15.54-5.21,15.65h0l-52.06.72s9.32-9.91,26.87-13.26c4.04-.77,8.51-1.19,13.4-1.07,3.66.09,6.67-2.87,6.62-6.53h0s4.95.41,10.38,4.49Z"/>
      <path class="cls-21" d="m500.52,306.71c-.12,0-.23-.09-.26-.21-.03-.14.07-.28.21-.31,3.93-.75,8.4-1.2,13.46-1.07,1.71.05,3.3-.59,4.51-1.78,1.21-1.19,1.86-2.78,1.84-4.48,0-.15.11-.26.26-.27h0c.14,0,.26.12.26.26.02,1.84-.69,3.57-2,4.86-1.31,1.3-3.04,1.99-4.89,1.94-4.55-.12-9.04.24-13.34,1.06-.02,0-.03,0-.05,0Z"/>
      <path class="cls-21" d="m525.72,318.71s-38.31,3.61-51.82,1.46c-.15-.02-.53-.15-.53-.15,0,0,9.61-10.5,27.16-13.85,3.39-.02,6.75.46,9.18,2,7.11,4.5-16.38,1-5.46,6.56,7.15,3.64,17.8,2.69,21.46,3.97Z"/>
      <path class="cls-21" d="m490.33,313.86c-.06,0-.13-.02-.18-.07-.27-.25-6.72-6.27-6.28-12.63.46-6.61,11.83-11.78,11.95-11.81.14-.04.28.05.32.19.03.14-.05.28-.19.32-.17.06-11.12,5.12-11.56,11.34-.43,6.11,6.05,12.15,6.11,12.21.11.1.11.26.02.37-.05.06-.12.08-.19.08Z"/>
    </g>
  </g>
</svg>