<?xml version="1.0" encoding="UTF-8"?>
<svg id="Capa_1" data-name="Capa 1" xmlns="http://www.w3.org/2000/svg" xmlns:xlink="http://www.w3.org/1999/xlink" viewBox="0 0 500 500">
  <defs>
    <style>
      .cls-1 {
        opacity: .37;
      }

      .cls-1, .cls-2, .cls-3, .cls-4, .cls-5, .cls-6, .cls-7, .cls-8, .cls-9, .cls-10, .cls-11, .cls-12, .cls-13, .cls-14, .cls-15, .cls-16, .cls-17 {
        stroke-width: 0px;
      }

      .cls-1, .cls-18, .cls-19, .cls-4, .cls-7, .cls-9, .cls-15, .cls-16 {
        isolation: isolate;
      }

      .cls-1, .cls-4, .cls-7, .cls-12 {
        fill: #4678b7;
      }

      .cls-2, .cls-16 {
        fill: url(#New_Pattern_Swatch_1);
      }

      .cls-18 {
        font-family: Roboto-Regular, Roboto;
        font-size: 31.19px;
      }

      .cls-18, .cls-10 {
        fill: #463636;
      }

      .cls-20 {
        letter-spacing: 0em;
      }

      .cls-21 {
        letter-spacing: 0em;
      }

      .cls-3 {
        fill: #f1f9fd;
      }

      .cls-22, .cls-4, .cls-9 {
        opacity: .52;
      }

      .cls-23 {
        letter-spacing: 0em;
      }

      .cls-24 {
        opacity: .49;
      }

      .cls-5 {
        fill: #cce9f8;
      }

      .cls-6 {
        fill: none;
      }

      .cls-25 {
        letter-spacing: 0em;
      }

      .cls-7 {
        opacity: .48;
      }

      .cls-26 {
        opacity: .63;
      }

      .cls-8 {
        fill: #fff;
      }

      .cls-9, .cls-13 {
        fill: #f8cbae;
      }

      .cls-11, .cls-15 {
        fill: #f2c0c8;
      }

      .cls-14 {
        fill: #f8c274;
      }

      .cls-27, .cls-16 {
        opacity: .47;
      }

      .cls-15 {
        opacity: .39;
      }

      .cls-17 {
        fill: #f57763;
      }
    </style>
    <pattern id="New_Pattern_Swatch_1" data-name="New Pattern Swatch 1" x="0" y="0" width="11.45" height="11.45" patternTransform="translate(-641.44 -15291.08) scale(1 -1)" patternUnits="userSpaceOnUse" viewBox="0 0 11.45 11.45">
      <g>
        <rect class="cls-6" width="11.45" height="11.45"/>
        <g>
          <rect class="cls-6" width="11.45" height="11.45"/>
          <circle class="cls-3" cx="5.72" cy="5.72" r="2.43"/>
        </g>
      </g>
    </pattern>
  </defs>
  <g id="OBJECTS">
    <ellipse class="cls-3" cx="250" cy="383.14" rx="167.68" ry="14.21"/>
    <path class="cls-17" d="m411.01,225.34c-3.3,3.63-6.75,7.22-10.3,10.77-49.65,49.69-99.33,99.36-149,149.03-.08.08-1.71,1.71-1.71,1.71-37.84-37.84-75.58-75.78-113.57-113.45-13.48-13.36-26.74-26.95-40.1-40.42-24.4-24.6-42.45-50.58-42.45-86.63,0-58.37,47.32-105.69,105.69-105.69,31.34,0,59.48,13.62,78.83,35.28,4.34,4.83,8.22,10.07,11.61,15.65,3.38-5.58,7.27-10.82,11.59-15.65,19.35-21.66,47.49-35.28,78.83-35.28,58.37,0,105.69,47.32,105.69,105.69,0,32.33-14.8,56.65-35.11,78.99Z"/>
    <g>
      <g>
        <path class="cls-14" d="m393.11,211.64c-.24.13-.5.18-.76.16.1,3.03.13,6.06.08,9.1-.29,16.96-3.04,34.13-9.89,49.74-6.06,13.79-15.2,26.35-27.37,35.38-1.72,1.27-3.9-1.25-2.18-2.52,1.47-1.11,2.91-2.23,4.31-3.43,11.17-9.6,19.28-22.43,24.37-36.17,5.91-15.99,7.76-33.19,7.43-50.15-.19-8.82-.96-17.64-2.23-26.38-1.95,1.05-4.32.7-6.53.1-3.1-.82-6.04-2.3-8.69-4.1-5.64-3.78-10.05-9.08-14.34-14.28-.86-1.04-.09-2.97,1.4-2.73,10.44,1.61,20,6.81,27.09,14.48-.77-4.35-1.65-8.7-2.67-12.99-.48-2.01-.98-4.02-1.51-6-5.82.75-11.72-.75-16.9-3.43-5.37-2.75-9.98-6.64-14.51-10.58-1-.88-2.21-1.72-2.54-3.09-.28-1.14.18-2.29,1.07-3.03,1.91-1.59,5.03-1.08,7.3-.82,8.25.94,16.12,4.49,22.33,9.95-2.43-7.52-5.28-14.92-8.49-22.15-.16-.03-.33-.09-.5-.21-9.62,4.89-20.66-.56-30.63-1.41-1.79-.16-1.93-2.32-.61-3.16,8.65-5.52,20.26-5.66,29.21-.75-2.89-6.09-6.08-12.02-9.51-17.81-.14.14-.31.29-.45.42-.19.25-.44.47-.73.6-4.62,3.39-10.87,2.4-16.33,1.36-7.18-1.36-14.27-3.11-21.24-5.25-1.65-.51-1.28-2.86.25-3.21,12.1-2.78,25.02-1.49,36.36,3.58.02-.02.05-.05.07-.06.11-.13.23-.22.34-.31-2.89-4.74-5.96-9.35-9.21-13.85-4.7,2.63-10.14,3.85-15.52,3.2-6.32-.77-12.21-3.95-16.37-8.77-.75-.84-.39-2.05.53-2.58,9.75-5.51,21.86-4.33,30.43,2.43.35-.02.7.07,1.01.33-2-6.52-2.6-13.47-1.65-20.25.19-1.41,1.92-2.09,2.92-.96,8.12,9.15,11.14,22.12,8.13,33.94-.03.13-.12.24-.19.35,5.28,8.2,10.04,16.74,14.24,25.55-.71-10.9.4-21.9,1.58-32.75.14-1.39,1.99-2.12,2.92-.96,2.14,2.64,3.9,5.6,5.14,8.77,4.35,11.15,2.34,24-5.34,33.2.02.17.04.34.06.51.06.32.02.59-.06.83,2.54,6.05,4.81,12.2,6.82,18.43.76-10.05,3.4-19.98,7.82-29.05.59-1.21,2.43-1.58,3.07-.16,5.3,11.82,2.13,25.9-7.79,34.23-.01.78-.24,3.12-.56,3.4.01.03,2.75,10.52,3.6,14.63.07.34.15.68.2,1.04,1.41-6.14,4.97-11.82,10.17-15.43,1.25-.86,2.68-.09,2.75,1.4.38,9.59-2.76,19.24-8.65,26.81-.37.47-1.34,1.8-1.71,2.22.53,3.94.94,7.91,1.27,11.86,3.07-6.87,8.06-12.88,14.35-17.03,1.18-.78,2.82-.17,2.75,1.4-.44,10.76-6.52,20.82-15.71,26.41Z"/>
        <g>
          <path class="cls-5" d="m347.01,189.24c1.23-2.3,3.53-4.16,6.17-4.41,3.25-.32,6.36,1.59,7.76,4.51,1.34,2.8,1.25,6.34-.5,8.95-.24.36-.51.68-.81.98-.01.02-.02.04-.03.07-.41.8-.98,1.48-1.64,2.03,1.5,4.22,3.32,8.33,5.37,12.31,1.5-8.12,3.06-16.22,4.71-24.31-.55-.05-1.07-.32-1.32-.86-1.52-3.36-3.05-6.71-4.57-10.07-.35.04-.71.05-1.05,0-1.43-.21-2.64-1.03-3.31-2.33-.59-1.16-.71-2.64-.2-3.85.55-1.28,1.55-2.37,2.87-2.88,1.23-.47,2.64-.57,3.86,0,1.23.56,2.31,1.59,2.52,2.99.07.5.03.99-.06,1.45.01.13.03.25.02.38-.01,1.16-.67,2.25-1.61,2.91,1.23,2.71,2.46,5.43,3.69,8.14.22-1.01.43-2.03.64-3.04-.1-.45.02-.9.28-1.3,1.01-4.77,2.06-9.53,3.12-14.29-.61-.08-1.21-.21-1.8-.43-3.26-1.23-5.24-4.3-5.17-7.76.06-3.32,2.11-6.4,5.25-7.56,3.3-1.23,7.07-.54,9.52,2.07,2.49,2.65,2.98,6.73.97,9.8-.87,1.33-2.07,2.21-3.42,2.74-.59.38-1.23.65-1.89.86-.77,3.45-1.51,6.91-2.25,10.36,2.11-1.75,4.41-3.27,6.83-4.57,0-.03.01-.06.01-.09-.01-.07-.03-.13-.03-.2-.26-2.44.63-4.88,2.43-6.57,1.59-1.5,3.97-2.34,6.15-2.05,2.34.31,4.42,1.68,5.56,3.76,1.21,2.21.95,4.87-.22,7.03-2.17,4-8.79,6.31-12.39,2.9-.4-.38-.71-.8-.95-1.25-3.17,1.84-6.08,4.08-8.63,6.75-1.37,6.52-2.69,13.06-3.97,19.6,2.98-2.2,5.95-4.4,8.93-6.6.02-.48.1-.97.27-1.45.71-2.03,2.46-3.39,4.38-4.21,1.12-.48,2.39-.84,3.6-.79.45-.03.9,0,1.35.15.01,0,.02,0,.03.02,1.62.27,3.1,1.46,3.75,2.94.86,1.97.46,4.36-.92,6.01-1.3,1.55-3.16,2.48-5.18,2.66-1.82.17-3.8-.1-5.29-1.25-.32-.24-.59-.52-.84-.82l-10.52,7.78c-.16.12-.33.2-.51.26-.04.19-.08.38-.12.58-1.04,5.47-2.04,10.95-3.01,16.43,2.33-2,4.81-3.83,7.35-5.57-.01-.13-.04-.25-.04-.38-.02-.97.3-1.86.83-2.58.22-.52.52-1.01.94-1.46.85-.92,2.21-1.46,3.46-1.38.35.02.69.1,1.02.21.24.02.48.04.71.09,1.77.36,3.07,1.82,3.46,3.52.05.15.12.29.16.44.68,2.39-.72,4.82-2.82,5.93-2.1,1.12-5.14.83-6.49-1.27-3.3,2.3-6.43,4.85-9.35,7.61-.05.05-.11.06-.17.1-1.23,7.11-2.39,14.24-3.5,21.37-1.26,8.12-2.44,16.25-3.54,24.39-.29,2.11-3.62,1.97-3.33-.16,1.97-14.52,4.18-29,6.65-43.45.76-4.43,1.58-8.86,2.38-13.28-.53-.07-1.02-.37-1.29-.86-2.46-4.56-4.54-9.3-6.31-14.16-.81.17-1.66.21-2.51.06-3.03-.52-5.29-2.65-6.26-5.53-.87-2.66-.5-5.64.82-8.11Z"/>
          <g>
            <path class="cls-5" d="m380.63,154.64c-.03-.24-.17-.46-.29-.67-.03-.06-.07-.11-.12-.16-.26-.3-.52-.51-.85-.74-.39-.27-.83-.46-1.26-.64-.43-.18-.93-.31-1.39-.39-.19-.03-.4-.05-.59-.06h-.11c-.17,0-.42,0-.6.06-.06.02-.12.04-.18.06-.05,0-.1,0-.16,0-.16.03-.32.09-.46.15-.06.02-.12.05-.17.09-.11.08-.21.2-.29.31-.04.06-.08.12-.11.18-.08.2-.08.45-.06.66.02.2.1.37.2.55.06.11.11.21.19.3.11.13.24.26.36.38.03.03.06.05.09.08.73.58,1.58.97,2.47,1.23.25.07.51.13.77.17.23.03.47.06.71.06.44,0,.71-.05,1.11-.21.13-.05.25-.13.34-.23.15-.15.31-.32.37-.53.07-.21.06-.45.03-.66Z"/>
            <path class="cls-5" d="m393.2,167.67c-.06-.25-.16-.47-.31-.67-.15-.26-.33-.49-.56-.68-.17-.14-.34-.28-.52-.42-.35-.25-.73-.44-1.13-.58-.18-.04-.35-.08-.53-.12-.3-.05-.59-.02-.86.1l-.14.07c-.19.08-.3.22-.34.4-.09.18-.11.37-.04.57.06.25.16.47.31.67.15.26.33.49.56.68.17.14.34.28.52.42.35.25.73.44,1.13.58l.53.12c.3.05.59.02.86-.1l.14-.07c.19-.08.3-.22.34-.4.09-.18.1-.37.04-.57Z"/>
            <path class="cls-5" d="m389.77,193.19c.02-.21.05-.42.07-.62,0-.45-.09-.89-.27-1.3-.1-.18-.21-.36-.31-.55-.23-.32-.52-.56-.87-.74l-.1-.04c-.25-.13-.51-.18-.78-.14-.27-.02-.52.05-.76.2-.25.14-.43.33-.57.57-.18.23-.3.49-.36.79-.02.21-.05.42-.07.62,0,.45.09.89.27,1.3.1.18.21.36.31.55.23.32.52.56.87.74l.1.04c.25.13.51.18.78.14.27.02.52-.05.76-.2.25-.14.43-.33.57-.57.19-.23.3-.5.36-.79Z"/>
            <path class="cls-5" d="m381.31,215.24c-.06-.25-.2-.46-.41-.63-.21-.2-.45-.33-.72-.41-.28-.13-.58-.19-.89-.19-.22.02-.44.03-.67.05-.43.07-.83.22-1.2.46-.15.12-.3.25-.45.37-.25.26-.42.56-.5.92l-.04.1c-.06.26-.04.51.08.74.06.25.2.46.41.63.21.2.45.33.72.41.28.13.58.19.89.19.22-.02.44-.03.67-.05.43-.07.83-.22,1.2-.46.15-.12.3-.25.45-.37.25-.26.42-.56.5-.92l.04-.1c.06-.26.04-.51-.08-.74Z"/>
            <path class="cls-5" d="m358.31,188.39c0-.06-.01-.12-.03-.17-.11-.32-.38-.58-.62-.79-.29-.25-.71-.51-1.04-.68-.43-.22-.89-.43-1.35-.58-.4-.13-.79-.24-1.21-.29-.16-.02-.33-.02-.49-.02h-.11c-.15,0-.31.05-.45.09-.06.02-.13.04-.19.08-.11.06-.2.15-.29.24-.02,0-.03.03-.04.05-.09.03-.18.08-.24.17-.11.14-.23.28-.34.42-.02.07-.02.13,0,.19-.02.03-.03.06-.05.09-.03.13-.01.25.09.35.09.17.22.31.38.42.38.31.8.54,1.24.75.48.23.98.44,1.5.55l.51.09c.1.02.19.02.29.02.07,0,.13.04.2.05.14,0,.28,0,.42.02.12,0,.22-.03.31-.08.01,0,.03,0,.04,0,.38.02.6.03.95-.06.16-.04.27-.15.38-.26.08-.08.13-.17.15-.28,0-.14,0-.26-.01-.38Z"/>
            <path class="cls-5" d="m364.24,169.86c-1.07-.37-2.66-.14-3.2.98-.55,1.14.46,2.18,1.47,2.53,1.07.37,2.66.14,3.2-.98.56-1.14-.46-2.18-1.47-2.53Z"/>
          </g>
        </g>
        <g>
          <path class="cls-11" d="m315.54,197.49c.01-1.93.88-3.94,2.53-5.02,2.02-1.33,4.72-1.14,6.64.29,1.85,1.37,3,3.73,2.75,6.04-.03.31-.1.62-.19.92v.05c0,.67-.14,1.31-.37,1.9,2.44,2.25,5.04,4.32,7.76,6.22-1.81-5.84-3.58-11.69-5.28-17.56-.38.16-.81.16-1.16-.11-2.15-1.68-4.31-3.35-6.46-5.03-.22.15-.45.28-.69.36-1.01.35-2.09.24-2.97-.39-.78-.56-1.38-1.49-1.45-2.46-.08-1.03.2-2.09.89-2.88.64-.73,1.53-1.28,2.53-1.34s2.06.25,2.68,1.1c.22.3.36.63.46.97.05.08.1.16.15.24.39.76.34,1.7-.06,2.46,1.74,1.36,3.48,2.71,5.22,4.07-.21-.74-.42-1.48-.63-2.22-.22-.26-.3-.6-.27-.95-.98-3.48-1.93-6.96-2.87-10.44-.43.16-.87.28-1.33.34-2.56.31-4.91-1.02-6.06-3.31-1.1-2.2-.82-4.92.84-6.77,1.74-1.94,4.45-2.78,6.95-1.92,2.54.88,4.27,3.39,4.01,6.09-.11,1.17-.6,2.16-1.3,2.97-.26.45-.58.85-.94,1.21.69,2.53,1.39,5.05,2.09,7.57.78-1.88,1.77-3.66,2.91-5.35-.01-.02-.01-.04-.02-.07-.03-.04-.06-.08-.09-.12-1.01-1.51-1.27-3.42-.67-5.14.53-1.53,1.8-2.9,3.33-3.46,1.64-.6,3.48-.42,4.94.55,1.55,1.03,2.3,2.86,2.28,4.68-.05,3.37-3.59,7.16-7.13,6.17-.39-.11-.74-.28-1.05-.5-1.44,2.3-2.59,4.77-3.34,7.39,1.35,4.75,2.73,9.49,4.14,14.22,1.19-2.47,2.39-4.94,3.58-7.4-.15-.32-.27-.67-.32-1.04-.23-1.57.44-3.07,1.42-4.27.57-.7,1.28-1.37,2.09-1.76.29-.18.59-.32.94-.37h.03c1.15-.38,2.54-.11,3.47.64,1.24,1,1.8,2.7,1.46,4.26-.32,1.47-1.22,2.71-2.48,3.53-1.13.74-2.52,1.24-3.89,1-.29-.05-.57-.14-.83-.25l-4.22,8.73c-.06.13-.15.24-.24.35.04.14.08.28.12.42,1.2,3.94,2.43,7.88,3.68,11.81.84-2.12,1.83-4.17,2.9-6.18-.05-.08-.11-.15-.16-.23-.35-.63-.44-1.32-.34-1.98-.03-.42-.01-.85.11-1.28.24-.89.95-1.72,1.8-2.09.24-.1.49-.17.74-.21.16-.07.33-.14.5-.19,1.29-.37,2.64.14,3.48,1.12.09.08.18.15.26.23,1.27,1.33,1.18,3.41.19,4.86-.99,1.46-3.08,2.31-4.69,1.4-1.37,2.64-2.55,5.39-3.51,8.21-.02.05-.05.08-.07.13,1.64,5.09,3.33,10.16,5.06,15.22,1.97,5.76,3.99,11.49,6.07,17.21.54,1.48-1.69,2.54-2.24,1.04-3.7-10.2-7.24-20.46-10.59-30.78-1.03-3.17-2.01-6.35-3.01-9.53-.37.13-.79.11-1.14-.12-3.18-2.14-6.18-4.53-9.01-7.12-.47.39-1.01.71-1.63.91-2.17.7-4.38.09-6.01-1.47-1.53-1.41-2.31-3.5-2.29-5.57Z"/>
          <g>
            <path class="cls-11" d="m325.68,163.23c-.11-.15-.27-.25-.42-.34-.04-.03-.09-.05-.13-.06-.28-.1-.52-.16-.81-.19-.35-.04-.7-.02-1.05,0-.34.03-.71.11-1.04.22-.14.04-.28.1-.41.16-.02,0-.05.02-.07.03-.11.06-.27.15-.38.24-.03.03-.06.07-.1.1-.03.02-.07.04-.1.06-.09.07-.18.17-.25.26-.03.04-.06.08-.08.12-.04.09-.07.2-.08.3-.01.05-.01.1-.01.16.02.16.1.32.19.45.08.13.19.21.32.29.07.05.15.1.23.14.12.05.24.09.37.12.03,0,.05,0,.08.02.68.13,1.37.09,2.04-.04.19-.04.38-.09.56-.15.16-.06.33-.12.48-.2.29-.16.45-.28.66-.52.07-.08.12-.17.15-.27.05-.15.09-.32.06-.47s-.12-.31-.21-.44Z"/>
            <path class="cls-11" d="m338.4,167.45c-.12-.14-.27-.25-.44-.33-.19-.12-.39-.2-.6-.26-.16-.03-.32-.07-.48-.1-.32-.04-.63-.04-.94,0-.13.03-.26.07-.39.1-.21.07-.39.19-.53.36l-.07.09c-.09.12-.12.25-.08.38,0,.15.06.28.17.39.12.14.27.25.44.33.18.12.39.2.6.26.16.03.32.07.48.1.32.04.63.04.94,0l.39-.1c.21-.07.39-.19.53-.36l.07-.09c.09-.12.12-.25.08-.38,0-.15-.06-.28-.17-.39Z"/>
            <path class="cls-11" d="m344.94,185.37c-.06-.15-.11-.29-.17-.44-.15-.3-.36-.55-.62-.76-.13-.08-.26-.17-.39-.25-.26-.13-.54-.19-.83-.18h-.08c-.21,0-.39.07-.56.18-.18.08-.33.21-.43.39-.11.18-.17.37-.17.57-.04.21-.03.43.04.64.06.15.11.29.17.44.15.3.36.55.62.76.13.08.26.17.39.25.26.13.54.19.83.18h.08c.21,0,.39-.07.56-.18.18-.08.33-.21.43-.39.11-.18.17-.37.17-.57.03-.22.02-.43-.04-.64Z"/>
            <path class="cls-11" d="m346.98,202.74c-.13-.14-.29-.24-.48-.27-.2-.06-.41-.06-.61-.02-.23,0-.44.08-.65.19-.14.09-.28.17-.42.26-.26.2-.47.43-.63.72-.06.13-.11.27-.17.4-.08.26-.08.51-.01.77v.08c.06.19.16.34.32.46.13.14.29.24.48.27.2.06.41.06.61.02.23,0,.44-.08.65-.19.14-.09.28-.17.42-.26.26-.2.47-.43.63-.72.06-.13.11-.27.17-.4.08-.26.08-.51.01-.77v-.08c-.07-.2-.17-.35-.32-.46Z"/>
            <path class="cls-11" d="m322.66,193.04s-.05-.07-.08-.1c-.18-.17-.45-.25-.68-.31-.28-.06-.64-.09-.92-.09-.36,0-.73.02-1.08.08-.31.05-.6.12-.89.23-.11.04-.22.1-.33.15-.02,0-.05.02-.07.04-.09.06-.18.14-.27.21-.04.03-.07.07-.1.11-.05.08-.08.17-.11.26-.01,0-.01.03-.01.05-.05.05-.09.12-.1.2-.03.13-.05.26-.08.39.01.05.03.09.06.12v.07c.02.1.08.16.18.2.12.08.25.13.4.15.35.07.71.08,1.07.07.39,0,.8-.05,1.17-.16l.37-.11c.07-.02.13-.05.2-.09.05-.02.1-.02.15-.04.09-.04.19-.09.28-.13.08-.04.14-.09.18-.16.01,0,.02,0,.03,0,.26-.12.4-.18.6-.37.09-.08.12-.19.16-.3.03-.08.03-.16,0-.24-.04-.07-.09-.14-.13-.22Z"/>
            <path class="cls-11" d="m320.17,178.85c-.83.13-1.79.83-1.76,1.75.03.94,1.05,1.27,1.84,1.15.83-.13,1.79-.83,1.76-1.75-.03-.93-1.06-1.27-1.84-1.15Z"/>
          </g>
        </g>
        <g>
          <path class="cls-14" d="m462.57,135.45c-1.18,2.88-2.67,5.67-4.33,8.3-6.25,9.86-15.31,17.68-25.91,22.53-.23,3.78-.67,7.58-1.2,11.35-.02.07-3.15,19.43-4.77,27.1-3.63,17.26-9.01,34.49-19.11,49.16-1.2,1.75-4.1.08-2.87-1.68,1.27-1.87,2.48-3.75,3.62-5.7,9.2-15.66,13.6-33.58,16.85-51.31.27-1.42.52-2.83.78-4.25-4.78-4.67-8.8-10.13-11.85-16.08-2.7-5.3-4.68-10.98-5.77-16.81-.28-1.48-.52-2.97-.67-4.47-.13-1.32-.07-2.77.67-3.92.83-1.32,2.38-1.87,3.88-1.55,1.48.32,2.68,1.32,3.82,2.23,5.98,4.83,10.48,11.33,13.11,18.51.05-.67.45-13.83-.23-18.35-.73-4.93-2.07-9.76-3.58-14.53-3.03-9.48-6.57-18.76-8.57-28.54-1.97-9.6-2.67-19.53-.75-29.18.75-3.8,1.82-8.02,4.72-10.78,3.08-2.95,7.57-2.97,10.91-.47,3.75,2.78,4.98,7.32,5.63,11.71.73,4.95,1.23,9.93,1.55,14.93,1.23,19.88-.82,39.98-5.98,59.22,3.22-4.9,6.87-9.51,10.93-13.71,2.37-2.45,4.87-4.77,7.48-6.95,2.45-2.02,5.33-4.93,8.8-4.32,1.62.28,2.95,1.42,3.4,3.02.44,1.51.03,3.12-.56,4.54Z"/>
          <path class="cls-14" d="m437.24,109.16c.26-1.04-1.35-1.49-1.61-.44-1.07,4.36-3.53,8.23-6.97,11.1-.32-1.68-.62-3.35-.9-5.04,2.59-.88,4.83-2.72,6.13-5.14.21-.4.1-.91-.3-1.14-.38-.22-.93-.1-1.14.3-1.08,2.01-2.87,3.51-4.98,4.28-.44-2.78-.84-5.56-1.17-8.35,4.06-2.48,7-6.65,7.89-11.33.2-1.05-1.41-1.5-1.61-.44-.77,4.02-3.12,7.6-6.49,9.91-.32-2.92-.58-5.84-.77-8.77,3.52-2.77,6.12-6.57,7.35-10.89.29-1.03-1.31-1.47-1.61-.44-1.01,3.58-3.06,6.84-5.85,9.3-.07-1.24-.15-2.49-.19-3.73-.02-.66-.03-1.33-.04-1.99.15-.07.29-.16.36-.32,1.06-2.46,1.63-5.07,1.63-7.75,0-1.07-1.66-1.07-1.67,0,0,1.27-.15,2.54-.42,3.78-.02-2.18,0-4.37.05-6.55.02-1.07-1.64-1.07-1.67,0-.09,3.99-.06,7.98.08,11.97-1.16-1.47-1.79-3.3-1.73-5.2.03-1.07-1.63-1.07-1.67,0-.09,2.85,1.16,5.71,3.34,7.55.05.04.1.06.15.09.06,1.28.12,2.56.2,3.83,0,.05,0,.09.01.14.09,1.43.22,2.86.34,4.29-3.09-2.05-4.01-6.06-4.75-9.51-.22-1.05-1.83-.6-1.61.44.89,4.16,2.14,8.95,6.3,11,.07.04.14.04.22.06.36,3.82.83,7.63,1.39,11.43-2.54-3.5-4.55-7.35-5.88-11.46-.33-1.02-1.94-.58-1.61.44,1.47,4.56,3.7,8.85,6.61,12.66.27.36.71.54,1.14.3.01-.01.02-.02.04-.03.39,2.49.82,4.98,1.31,7.45.08.42.18.83.27,1.25-2.99-2.26-5.42-5.19-7.05-8.57-.47-.97-1.9-.12-1.44.84,1.92,3.98,4.9,7.39,8.55,9.88.15.1.29.13.42.13.66,3.07,1.37,6.13,2.16,9.17.27,1.04,1.88.6,1.61-.44-1.01-3.85-1.88-7.72-2.65-11.62.11-.04.21-.1.3-.17,3.94-3.05,6.75-7.44,7.93-12.27Z"/>
          <path class="cls-14" d="m457.51,136.43c-.42-.22-.89-.09-1.14.3-.07.1-.14.2-.21.3-.05.07.05-.05-.04.06-.03.04-.07.08-.1.12-.17.2-.35.38-.54.55-.09.08-.18.16-.28.24.09-.07-.02.02-.06.04-.04.03-.09.06-.13.09-.21.15-.43.28-.66.4-.11.06-.22.11-.33.16-.01,0-.07.03-.08.04-.03,0-.12.05-.13.05-.23.08-.46.16-.7.21-.13.03-.26.06-.4.08-.05,0-.11.02-.16.03.12-.02-.01,0-.06,0-.13,0-.26,0-.4,0,1.48-1.73,2.96-3.46,4.44-5.19.69-.81-.48-1.99-1.18-1.18l-5.87,6.86c.33-1.73.96-3.41,1.86-4.93.55-.92-.89-1.76-1.44-.84-1.23,2.07-1.98,4.37-2.26,6.76-.03.29.16.54.4.69-1.09,1.27-2.17,2.54-3.26,3.81-.07-.62-.09-1.25.02-1.81.19-.97.53-1.73,1.13-2.53.27-.36.06-.93-.3-1.14-.42-.25-.87-.06-1.14.3-1.35,1.82-1.78,4.27-1.19,6.45.03.12.09.22.15.3-.77.9-1.53,1.79-2.3,2.69.37-.91.75-1.81,1.12-2.72.17-.4-.18-.93-.58-1.02-.49-.11-.85.15-1.03.58-.65,1.57-1.29,3.13-1.94,4.7-.13.32.06.7.34.9-1.93,2.25-3.86,4.51-5.78,6.76-.69.81.48,1.99,1.18,1.18,1.87-2.18,3.74-4.37,5.61-6.55.07.14.16.26.3.33,2.25.99,4.8,1.16,7.15.36.43-.15.71-.57.58-1.02-.11-.41-.6-.73-1.02-.58-1.9.65-4.02.62-5.86-.19-.05-.02-.1-.03-.16-.04,1.43-1.67,2.86-3.34,4.29-5.01.13.08.28.14.44.16,2.87.37,5.81-.2,8.36-1.56.95-.5.11-1.94-.84-1.44-2.07,1.09-4.39,1.52-6.71,1.37,1.47-1.72,2.95-3.44,4.42-5.17.14.24.39.41.7.42,2.43.07,4.78-1.2,6.1-3.23.22-.38.07-.95-.31-1.15Z"/>
          <path class="cls-14" d="m428.11,182.53c-.82-2.83-1.82-5.6-2.96-8.31.08-.09.15-.19.19-.33.79-2.71.77-5.64-.08-8.33-.32-1.02-1.93-.58-1.61.44.59,1.88.73,3.84.44,5.76-.52-1.14-1.07-2.26-1.64-3.37.22-.15.37-.4.38-.68.14-2.7-.25-5.42-1.16-7.96-.15-.42-.57-.71-1.02-.58-.41.11-.73.6-.58,1.02.67,1.88,1.04,3.84,1.11,5.82-.92-1.63-1.89-3.24-2.92-4.81.07-.12.12-.26.14-.41.22-2.32-.12-4.7-.98-6.86-.17-.42-.56-.71-1.02-.58-.4.11-.75.6-.58,1.02.59,1.5.91,3.07.97,4.66-.89-1.26-1.8-2.5-2.76-3.71-.67-.84-1.84.35-1.18,1.18.97,1.22,1.89,2.48,2.78,3.76-1.6-.36-3.06-1.32-3.95-2.72-.24-.38-.74-.53-1.14-.3-.38.22-.54.76-.3,1.14,1.43,2.24,3.96,3.66,6.62,3.69,1.17,1.78,2.26,3.61,3.28,5.48-2.05-.13-4.04-.85-5.63-2.16-.35-.29-.84-.34-1.18,0-.3.3-.35.89,0,1.18,2.16,1.79,4.91,2.77,7.72,2.7.75,1.45,1.43,2.93,2.08,4.43-2.09-.16-4.04-1.18-5.39-2.84-.28-.35-.88-.29-1.18,0-.35.35-.28.83,0,1.18,1.74,2.16,4.52,3.41,7.28,3.35,1.02,2.48,1.91,5.02,2.66,7.6.31,1.01,1.91.57,1.61-.46Z"/>
        </g>
        <g>
          <path class="cls-5" d="m412.95,256.14c-6.67,10.3-15.44,19.19-25.58,26.13-7.91,5.41-16.97,8.53-26.25,9.33-1.74.16-3.48.23-5.24.21h-.02c-3,0-6.02-.28-9.03-.77-4.53-.77-8.99-2.08-13.31-3.94,18.17-8.94,30.14-26.98,38.63-45.39,8.49-18.4,14.48-38.06,25.21-55.23,3.24-5.15,7.06-10.25,13.18-12.14,1.64-.51,3.41-.67,5.11-.42,7.1,1.03,9.19,7.21,10.35,12.89,4.84,23.63.05,49.08-13.05,69.33Z"/>
          <path class="cls-3" d="m407.86,261.07c-6.6,3.76-14.45,5.21-21.96,4.16-.4-.05-.69-.24-.94-.46-.45.56-.88,1.11-1.33,1.65-2.98,3.6-6.1,7.05-9.35,10.43-.03.03-.06.08-.1.12,5.27.06,10.49-1.16,15.21-3.53.93-.44,2.11.12,2.49,1.01.42.98-.08,2.05-1.01,2.49-5.71,2.85-12.08,4.12-18.45,3.78-.52-.03-.95-.31-1.24-.7-2.21,2.22-4.5,4.37-6.93,6.34-2.59,2.11-5.41,3.98-8.37,5.45h-.02c-3,0-6.02-.28-9.03-.77,7.17-1.4,13.51-6.01,18.79-10.91.77-.72,1.5-1.45,2.26-2.17l-.02-.08c-1.65-6.63-2.3-13.48-1.98-20.3.05-1.02,1.14-1.78,2.1-1.66,1.07.12,1.72,1.06,1.67,2.11-.26,5.62.26,11.25,1.4,16.75,3.7-3.8,7.22-7.79,10.54-11.89-.16-.15-.31-.35-.44-.61-2.53-5.65-3.8-11.75-3.82-17.95-.01-1.03,1.18-1.77,2.1-1.66,1.11.12,1.66,1.08,1.67,2.11.02,5.08,1.1,10.18,3.07,14.89,4.05-5.2,7.81-10.63,11.17-16.31-6.29-4.18-10.08-11.49-9.61-19.11.07-1.03,1.12-1.79,2.11-1.67,1.06.13,1.72,1.09,1.67,2.11-.38,5.94,2.77,12.1,7.68,15.38.38-.7.79-1.39,1.17-2.09,3.16-6.01,5.85-12.29,7.95-18.74-6.55-6.25-10.91-14.56-12.12-23.56-.32-2.42,3.42-2.96,3.76-.53,1,7.45,4.4,14.55,9.62,19.99,2.57-8.98,3.98-18.29,3.95-27.7.02-1.04,1.18-1.78,2.12-1.67,1.09.13,1.65,1.07,1.66,2.1.02,9.25-1.35,18.44-3.81,27.34,3.54-2.06,6.38-5.23,8.01-8.92.42-.96,1.5-1.45,2.48-1.06.93.39,1.46,1.53,1.04,2.47-2.26,5.15-6.32,9.33-11.39,11.73-.45.22-.94.18-1.38.02-2.51,7.9-5.9,15.46-9.9,22.69,5.85.31,11.81-2.3,15.49-6.88.64-.8,1.82-.99,2.67-.35.8.6.99,1.87.36,2.65-4.69,5.83-12.22,9.03-19.66,8.34-.31-.03-.58-.17-.81-.33-3.29,5.55-6.94,10.89-10.88,15.99,6.54.66,13.13-.73,18.85-4,.9-.52,2.12.14,2.49,1.01.45,1.03-.1,1.98-1,2.5Z"/>
        </g>
        <g>
          <path class="cls-12" d="m358.17,267.03c-.93,8.93-3.71,17.63-8.01,25.51-3.36,6.15-8.23,11.19-14.02,14.78-1.08.68-2.19,1.3-3.35,1.87h-.01c-1.96,1-4.01,1.82-6.14,2.5-3.21,1-6.55,1.62-9.98,1.85,8.88-11.85,10.7-27.58,10.13-42.39s-3.18-29.61-1.87-44.36c.4-4.43,1.21-9.02,4.57-12.28.9-.87,2-1.57,3.19-1.97,4.97-1.68,8.38,1.65,11.02,4.97,10.99,13.79,16.3,31.97,14.47,49.52Z"/>
          <path class="cls-5" d="m356.49,271.93c-3.05,4.64-7.69,8.19-12.94,9.99-.28.1-.53.07-.76.01-.11.51-.21,1.01-.32,1.51-.75,3.33-1.64,6.62-2.64,9.9-.01.03-.01.07-.03.11,3.46-1.71,6.45-4.23,8.74-7.34.46-.6,1.42-.62,1.96-.17.6.5.62,1.36.17,1.96-2.78,3.75-6.51,6.69-10.77,8.58-.35.15-.72.11-1.04-.04-.71,2.18-1.49,4.34-2.42,6.43-.99,2.23-2.21,4.39-3.65,6.33h-.01c-1.96,1-4.01,1.82-6.14,2.5,4.21-3.29,6.82-8.4,8.63-13.34.26-.72.5-1.44.75-2.17l-.04-.04c-3.28-3.78-5.97-8.02-8.02-12.58-.31-.68.15-1.54.82-1.78.74-.28,1.47.12,1.79.82,1.69,3.75,3.9,7.25,6.47,10.45,1.15-3.71,2.12-7.47,2.93-11.24-.15-.04-.32-.12-.49-.25-3.53-2.85-6.37-6.4-8.44-10.44-.35-.67.18-1.54.82-1.78.76-.29,1.44.15,1.79.82,1.69,3.3,4.09,6.27,6.94,8.69.92-4.73,1.57-9.52,1.87-14.34-5.48-.64-10.38-4.15-12.6-9.27-.29-.69.14-1.54.82-1.79.74-.26,1.49.14,1.79.82,1.72,4,5.82,6.97,10.11,7.48.01-.58.06-1.17.07-1.75.07-4.97-.26-9.95-1.03-14.85-6.34-1.9-11.94-5.87-15.71-11.34-1.01-1.47,1.25-3.07,2.28-1.6,3.12,4.53,7.69,8.02,12.9,9.84-1.3-6.7-3.47-13.24-6.61-19.36-.33-.68.18-1.55.83-1.79.75-.28,1.43.15,1.78.82,3.08,6.02,5.23,12.46,6.58,19.09,1.62-2.51,2.43-5.52,2.26-8.47-.04-.76.5-1.44,1.26-1.51.74-.06,1.46.51,1.5,1.26.24,4.11-1.03,8.18-3.54,11.42-.22.29-.56.43-.89.47.99,5.98,1.28,12.03,1.07,18.07,3.91-1.74,6.94-5.41,7.82-9.62.15-.74.86-1.25,1.62-1.11.72.12,1.26.89,1.11,1.61-1.12,5.36-4.97,9.94-10.05,11.95-.21.08-.43.08-.64.06-.31,4.71-.92,9.4-1.79,14.03,4.48-1.74,8.31-4.83,10.97-8.86.42-.64,1.43-.61,1.96-.17.62.53.58,1.34.16,1.98Z"/>
        </g>
        <g>
          <path class="cls-11" d="m416.11,287.97c-3.07,3.25-7.28,5.16-11.44,6.76-8.95,3.45-18.27,5.9-27.75,7.31-.62.1-1.25.19-1.88.27-11.66,1.58-23.55,1.6-35.24.06-3.93-.52-7.87-1.23-11.74-2.11-.54-.12-1.07-.26-1.61-.38l1-.41c22.29-5.72,43.91-14.09,64.25-24.87,4.61-2.43,9.3-5.05,14.5-5.55,5.19-.5,11.06,1.77,13,6.6,1.65,4.15-.03,9.06-3.09,12.32Z"/>
          <path class="cls-11" d="m403.2,288.3c.07.01.15.04.21.05.54.12,1.08.21,1.63.26.13,0,.27.03.38.03.08,0,.15.01.22,0,.25.01.49-.01.75-.01.59-.02,1.18-.1,1.77-.2.92-.19,1.72.63,1.84,1.46.15.95-.63,1.69-1.48,1.84-2.65.52-5.4.19-7.91-.77-.43-.17-.71-.54-.84-.95-.6.27-1.2.53-1.81.77-3.77,1.52-7.69,2.59-11.64,3.54.05.01.1.03.11.03.16.04.31.07.46.11.26.06.52.1.78.16.56.09,1.12.15,1.69.17t.03.01s.02-.01.05-.01c.13,0,.27-.01.41,0,.31-.02.61-.04.92-.05.93-.09,1.7.56,1.84,1.48.13.86-.6,1.76-1.48,1.84-2.67.24-5.38-.21-7.84-1.31-.61-.27-.92-.87-.94-1.49-.4.09-.8.17-1.21.26-3.14.71-6.27,1.4-9.42,2.08,1.58.58,3.17,1.15,4.75,1.73.88.31,1.14,1.42.83,2.21-.08.21-.2.39-.37.51-.46.45-1.22.53-1.84.29-.02,0-.03-.01-.05-.02-2.14-.75-4.28-1.53-6.43-2.3-.65-.24-.96-.93-.94-1.59-1.19.25-2.38.51-3.56.74-8.03,1.56-16.14,2.76-24.3,3.21-3.93-.52-7.87-1.23-11.74-2.11.27-.75,1.02-1.1,1.83-1.07,6.34.23,12.7-.16,18.99-.94,1.69-.2,3.36-.44,5.04-.69.18-.81.56-1.58,1.03-2.28.63-.96,1.57-1.67,2.61-2.15.84-.4,1.81.16,2.14.94.17.4.14.93-.04,1.31-.17.4-.5.66-.88.84-.24.15-.46.31-.67.48-.06.07-.13.15-.19.22,3.47-.6,6.92-1.26,10.36-1.98.86-2.7,2.34-5.23,4.31-7.27.63-.67,1.58-.81,2.33-.23.69.52.84,1.72.23,2.35-.47.5-.93,1.03-1.35,1.59-.2.27-.39.54-.57.82-.02.03-.09.14-.15.21v.02s-.02.03-.04.06c-.05.09-.12.2-.18.31-.24.43-.44.87-.65,1.31,3.23-.69,6.47-1.42,9.71-2.15.02-.01.04-.01.05-.02.68-3.62,2.72-6.94,5.64-9.2.73-.57,1.79-.32,2.34.38.58.72.3,1.79-.37,2.32-.19.15-.38.29-.56.45-.08.07-.16.14-.24.21-.02,0-.02.01-.02.01t-.02.03c-.3.29-.6.61-.88.94-.27.31-.53.66-.77,1.01-.07.09-.13.18-.18.26-.02.01-.09.12-.11.17-.02.05-.07.14-.09.15-.05.09-.1.19-.15.28-.38.68-.68,1.41-.94,2.14,4.8-1.17,9.63-2.58,14.08-4.7.43-3.32,1.51-6.56,3.18-9.45.47-.82,1.31-1.19,2.21-.83.78.31,1.27,1.45.83,2.21-.8,1.39-1.47,2.83-1.98,4.36-.06.16-.1.34-.17.51-.01.03-.03.06-.03.08v.07s-.03.03-.03.03c-.01.08-.03.16-.06.24-.07.24-.13.49-.19.73,2.29-1.4,4.41-3.07,6.32-5.06,1.47-1.55,4.05.55,2.56,2.12-2.69,2.78-5.79,5.05-9.15,6.89Z"/>
        </g>
        <g>
          <path class="cls-17" d="m355.04,295.93c-1.19,4.31-4.01,7.97-6.93,11.34-6.28,7.25-13.37,13.78-21.08,19.47-.5.38-1.01.75-1.54,1.12-9.56,6.87-20.05,12.46-31.09,16.58-3.72,1.39-7.53,2.6-11.36,3.64-.53.15-1.07.28-1.6.42l.68-.83c17-15.51,32.17-33.04,45.08-52.1,2.93-4.31,5.85-8.82,10.2-11.7,4.35-2.87,10.59-3.63,14.57-.27,3.43,2.89,4.24,8.02,3.07,12.33Z"/>
          <path class="cls-13" d="m343.79,302.28c.06-.02.15-.03.21-.05.53-.15,1.05-.32,1.56-.53.12-.06.25-.1.35-.16.07-.04.14-.06.19-.1.23-.11.43-.23.65-.36.51-.3,1-.64,1.47-1.01.73-.6,1.82-.25,2.31.43.58.77.24,1.78-.44,2.32-2.1,1.7-4.68,2.7-7.35,3.03-.46.05-.88-.14-1.19-.44-.4.52-.81,1.03-1.24,1.53-2.62,3.11-5.58,5.9-8.62,8.59.05-.02.1-.02.12-.02.16-.04.31-.09.45-.12.26-.07.51-.16.77-.23.54-.18,1.06-.4,1.58-.64t.03-.01s.01-.02.04-.03c.12-.06.24-.13.36-.19.26-.16.53-.32.79-.48.78-.51,1.76-.3,2.32.44.52.7.29,1.84-.44,2.32-2.25,1.47-4.85,2.34-7.54,2.52-.67.05-1.22-.34-1.53-.87-.31.27-.63.53-.94.8-2.44,2.1-4.88,4.18-7.34,6.25,1.66-.23,3.34-.47,5.01-.7.92-.14,1.67.72,1.77,1.56.02.22.01.44-.09.63-.2.61-.83,1.04-1.48,1.12-.02.01-.03.01-.05,0-2.24.34-4.5.65-6.76.98-.69.09-1.29-.37-1.58-.96-.93.78-1.86,1.57-2.8,2.33-6.36,5.14-12.96,10.01-19.96,14.23-3.72,1.39-7.53,2.6-11.36,3.64-.11-.79.39-1.45,1.11-1.8,5.71-2.77,11.14-6.1,16.33-9.74,1.4-.97,2.76-1.96,4.13-2.97-.22-.8-.25-1.66-.16-2.5.1-1.14.6-2.21,1.3-3.12.55-.75,1.68-.71,2.33-.18.34.27.56.76.58,1.18.04.43-.13.82-.38,1.15-.15.24-.26.49-.36.74-.02.1-.04.19-.06.29,2.78-2.16,5.52-4.36,8.22-6.61-.51-2.78-.38-5.72.4-8.44.24-.89,1.02-1.46,1.95-1.3.85.13,1.55,1.13,1.3,1.97-.18.66-.33,1.35-.45,2.04-.05.33-.09.66-.12.99-.01.04-.01.16-.04.26v.02s0,.04,0,.07c0,.11-.01.23-.02.36-.01.5.02.98.04,1.46,2.53-2.13,5.05-4.29,7.57-6.45.01-.02.03-.03.04-.05-1.09-3.52-.85-7.4.66-10.77.38-.85,1.43-1.12,2.24-.76.85.36,1.11,1.44.76,2.22-.1.23-.2.44-.29.66-.04.1-.07.2-.11.3-.02.01-.01.02-.01.02t-.01.04c-.13.4-.25.82-.33,1.24-.09.4-.16.83-.21,1.25-.02.11-.03.22-.03.31-.01.02-.02.15-.02.2s0,.16-.01.18v.32c-.02.78.06,1.56.18,2.33,3.69-3.28,7.3-6.8,10.22-10.76-1.17-3.14-1.74-6.5-1.63-9.83.03-.94.6-1.66,1.56-1.77.83-.09,1.8.69,1.77,1.56-.05,1.6.03,3.19.29,4.78.02.17.07.35.09.53.01.03.01.07.01.08l.02.06s-.01.04-.01.04c.03.08.05.16.06.24.05.25.11.49.18.73,1.36-2.31,2.46-4.78,3.21-7.43.57-2.06,3.83-1.41,3.26.67-1.04,3.71-2.72,7.17-4.83,10.37Z"/>
        </g>
      </g>
      <g>
        <g>
          <path class="cls-14" d="m36.82,167.31c.41-2.57,1.99-5.08,4.41-6.18,2.97-1.36,6.53-.56,8.8,1.75,2.18,2.21,3.24,5.59,2.43,8.63-.11.41-.27.81-.45,1.19,0,.02,0,.05,0,.07-.13.89-.45,1.71-.89,2.46,2.79,3.51,5.84,6.8,9.08,9.9-1.22-8.16-2.37-16.34-3.44-24.52-.54.13-1.12.05-1.52-.38-2.53-2.68-5.06-5.36-7.59-8.04-.32.16-.65.28-1,.34-1.42.27-2.83-.11-3.89-1.13-.93-.9-1.53-2.27-1.44-3.58.1-1.39.7-2.75,1.78-3.66,1.01-.85,2.31-1.39,3.65-1.27,1.35.13,2.7.75,3.35,2.01.23.45.35.92.42,1.39.05.12.11.23.15.35.36,1.1.1,2.34-.58,3.27,2.04,2.17,4.09,4.33,6.13,6.5-.13-1.03-.25-2.06-.38-3.09-.24-.39-.28-.86-.16-1.32-.59-4.84-1.15-9.68-1.69-14.53-.6.12-1.21.2-1.84.18-3.48-.11-6.35-2.37-7.41-5.67-1.02-3.16-.08-6.73,2.51-8.86,2.73-2.24,6.51-2.8,9.67-1.13,3.22,1.7,5.01,5.4,4.1,8.96-.39,1.54-1.24,2.77-2.34,3.7-.44.55-.95,1.02-1.51,1.43.4,3.51.81,7.02,1.23,10.53,1.43-2.34,3.11-4.53,4.98-6.54,0-.03,0-.06-.02-.09-.03-.06-.07-.11-.1-.18-1.04-2.22-.99-4.82.16-7,1.02-1.93,3-3.5,5.16-3.93,2.31-.47,4.73.15,6.48,1.75,1.86,1.7,2.48,4.29,2.08,6.72-.75,4.48-6.27,8.82-10.78,6.77-.5-.23-.93-.53-1.3-.88-2.4,2.77-4.43,5.83-5.98,9.18.82,6.62,1.69,13.23,2.61,19.83,2.1-3.05,4.2-6.1,6.3-9.15-.14-.46-.22-.95-.22-1.46.01-2.15,1.22-4.01,2.78-5.4.91-.81,1.99-1.57,3.15-1.91.42-.18.85-.3,1.32-.3.01,0,.02,0,.04,0,1.62-.27,3.41.37,4.5,1.57,1.46,1.58,1.85,3.98,1.08,5.98-.73,1.89-2.19,3.37-4.03,4.2-1.66.75-3.62,1.13-5.4.54-.38-.13-.73-.3-1.06-.5l-7.43,10.78c-.11.16-.25.29-.39.41.03.19.05.39.08.58.79,5.51,1.63,11.01,2.49,16.51,1.56-2.65,3.3-5.18,5.14-7.65-.05-.12-.12-.22-.16-.35-.33-.92-.32-1.85-.05-2.71.04-.57.17-1.13.41-1.69.51-1.14,1.62-2.1,2.83-2.43.34-.09.68-.13,1.03-.13.23-.06.46-.12.7-.15,1.79-.23,3.49.73,4.42,2.21.1.12.21.24.3.37,1.41,2.04.88,4.79-.74,6.53-1.63,1.74-4.59,2.45-6.55.91-2.37,3.25-4.51,6.67-6.37,10.24-.03.07-.09.1-.12.15,1.15,7.13,2.36,14.24,3.63,21.35,1.44,8.09,2.97,16.16,4.57,24.22.42,2.09-2.78,3.04-3.2.93-2.85-14.37-5.46-28.79-7.82-43.25-.72-4.44-1.38-8.89-2.06-13.33-.52.1-1.08-.02-1.5-.4-3.81-3.51-7.31-7.32-10.56-11.35-.71.42-1.5.74-2.36.88-3.04.49-5.86-.79-7.72-3.2-1.72-2.23-2.33-5.18-1.89-7.94Z"/>
          <g>
            <path class="cls-14" d="m57.39,123.67c-.11-.22-.31-.38-.49-.54-.05-.04-.11-.08-.16-.11-.35-.19-.66-.31-1.05-.42-.46-.12-.93-.17-1.4-.2-.46-.03-.98.01-1.44.08-.19.03-.39.08-.58.13-.03.01-.07.02-.1.03-.16.06-.39.14-.55.25-.05.03-.1.07-.15.11-.05.02-.1.04-.14.06-.14.08-.27.19-.39.29-.05.04-.1.09-.13.14-.08.11-.13.26-.17.39-.02.07-.04.14-.04.21,0,.22.07.45.16.64.08.19.22.32.37.45.09.08.17.16.28.23.15.09.31.17.46.24.03.02.07.03.11.04.88.32,1.81.4,2.74.36.26-.01.53-.04.78-.09.23-.05.47-.09.69-.17.42-.15.65-.28.98-.56.11-.09.19-.2.25-.33.09-.19.19-.4.18-.62-.03-.19-.11-.42-.21-.61Z"/>
            <path class="cls-14" d="m73.5,131.91c-.13-.22-.31-.39-.51-.54-.22-.2-.47-.35-.75-.46-.21-.08-.42-.15-.62-.23-.41-.12-.83-.18-1.26-.18-.18.02-.36.04-.54.06-.3.05-.56.17-.78.38l-.11.11c-.15.14-.21.3-.19.49-.03.2.02.38.15.55.13.22.31.39.51.54.22.2.47.35.75.46.21.08.42.15.62.23.41.12.83.18,1.26.18l.54-.06c.3-.05.56-.17.78-.38l.11-.11c.15-.14.21-.3.19-.49.03-.19-.02-.38-.15-.55Z"/>
            <path class="cls-14" d="m78.55,157.16c-.04-.21-.09-.41-.13-.62-.14-.43-.37-.81-.68-1.14-.16-.14-.32-.28-.47-.41-.32-.23-.68-.36-1.06-.41h-.11c-.28-.04-.54,0-.78.12-.26.07-.48.21-.65.44-.19.21-.3.45-.35.73-.1.28-.12.56-.08.86.04.21.09.41.13.62.14.43.37.81.68,1.14.16.14.32.28.47.41.32.23.68.36,1.06.41h.11c.28.05.54,0,.78-.12.26-.07.48-.21.65-.44.19-.21.3-.45.35-.73.09-.27.12-.56.08-.86Z"/>
            <path class="cls-14" d="m77.71,180.77c-.14-.22-.34-.37-.59-.46-.26-.12-.53-.17-.81-.15-.31-.03-.61,0-.91.11-.21.09-.41.17-.62.26-.39.21-.71.48-.99.83-.1.17-.2.33-.31.5-.16.33-.21.67-.17,1.03v.11c.03.27.13.49.31.67.14.22.34.37.59.46.26.12.53.17.81.15.31.03.61,0,.91-.11.21-.09.41-.17.62-.26.39-.21.71-.48.99-.83.1-.17.2-.33.31-.5.16-.33.21-.67.17-1.03v-.11c-.03-.27-.13-.49-.31-.67Z"/>
            <path class="cls-14" d="m47.24,162.84c-.02-.05-.05-.11-.09-.15-.21-.26-.54-.43-.85-.55-.36-.14-.83-.25-1.21-.31-.48-.07-.98-.12-1.46-.11-.42,0-.83.03-1.24.12-.16.03-.32.09-.47.14-.03,0-.07.02-.1.04-.14.06-.27.15-.4.23-.06.04-.11.08-.15.13-.08.1-.14.21-.2.32,0,.02,0,.04-.02.06-.08.06-.14.14-.17.24-.06.17-.13.34-.19.51,0,.07.03.13.06.18,0,.03,0,.06-.02.1,0,.14.08.24.19.3.14.13.31.22.5.28.46.17.93.25,1.42.31.52.06,1.07.1,1.6.03l.51-.08c.1,0,.19-.05.28-.08.07,0,.14,0,.2-.02.13-.04.27-.08.4-.12.12-.03.2-.1.27-.18,0,0,.03,0,.04,0,.37-.1.57-.16.88-.37.14-.09.2-.22.28-.37.05-.1.07-.2.05-.31-.02-.11-.07-.23-.11-.33Z"/>
            <path class="cls-14" d="m46.83,143.39c-1.13,0-2.56.74-2.71,1.97-.15,1.26,1.15,1.91,2.21,1.91,1.13,0,2.56-.74,2.71-1.97.15-1.25-1.14-1.91-2.21-1.91Z"/>
          </g>
        </g>
        <g>
          <path class="cls-12" d="m85.45,181.15c1.25,2.86,2.79,5.61,4.51,8.2,6.46,9.73,15.69,17.35,26.39,21.96.31,3.78.83,7.57,1.44,11.32.02.07,3.57,19.36,5.35,26.99,4,17.18,9.76,34.29,20.17,48.73,1.24,1.72,4.1-.01,2.83-1.74-1.31-1.84-2.56-3.69-3.74-5.62-9.53-15.46-14.32-33.28-17.95-50.93-.3-1.41-.58-2.82-.87-4.23,4.68-4.77,8.58-10.32,11.5-16.33,2.58-5.36,4.44-11.08,5.4-16.93.25-1.49.45-2.98.57-4.48.1-1.32,0-2.77-.75-3.9-.86-1.3-2.42-1.81-3.92-1.47-1.48.35-2.65,1.37-3.77,2.31-5.88,4.96-10.23,11.56-12.71,18.79-.06-.67-.75-13.82-.16-18.35.63-4.95,1.85-9.81,3.27-14.6,2.83-9.54,6.16-18.9,7.95-28.72,1.76-9.64,2.24-19.58.12-29.19-.83-3.78-1.99-7.97-4.95-10.68-3.15-2.88-7.63-2.8-10.92-.23-3.69,2.86-4.82,7.42-5.38,11.83-.63,4.96-1.02,9.96-1.23,14.96-.8,19.9,1.68,39.95,7.26,59.08-3.32-4.83-7.07-9.36-11.23-13.47-2.42-2.4-4.97-4.66-7.63-6.79-2.49-1.96-5.44-4.82-8.89-4.12-1.61.32-2.92,1.48-3.33,3.09-.4,1.51.06,3.12.67,4.52Z"/>
          <path class="cls-7" d="m110.2,154.32c-.28-1.04,1.32-1.51,1.6-.48,1.16,4.34,3.71,8.16,7.21,10.94.28-1.68.55-3.37.8-5.06-2.61-.82-4.88-2.62-6.24-5-.22-.39-.12-.9.27-1.15.37-.23.92-.12,1.15.27,1.12,1.98,2.95,3.45,5.07,4.18.38-2.79.72-5.58.99-8.37-4.11-2.39-7.14-6.5-8.13-11.16-.22-1.04,1.37-1.53,1.6-.48.86,4,3.29,7.53,6.7,9.76.25-2.92.46-5.85.59-8.78-3.58-2.7-6.26-6.44-7.58-10.73-.31-1.03,1.28-1.5,1.6-.48,1.09,3.55,3.21,6.77,6.05,9.17.04-1.25.09-2.49.11-3.74.01-.66,0-1.33,0-1.99-.16-.06-.3-.15-.37-.31-1.11-2.43-1.73-5.03-1.8-7.71-.03-1.07,1.64-1.11,1.67-.04.03,1.27.21,2.54.5,3.77-.03-2.18-.1-4.36-.19-6.54-.05-1.07,1.62-1.11,1.67-.04.18,3.99.23,7.98.18,11.97,1.12-1.49,1.72-3.34,1.61-5.23-.06-1.07,1.61-1.11,1.67-.04.15,2.85-1.04,5.73-3.17,7.62-.04.04-.1.06-.15.09-.03,1.28-.07,2.56-.12,3.84,0,.05,0,.09-.01.14-.06,1.43-.16,2.87-.25,4.3,3.04-2.12,3.88-6.15,4.54-9.61.2-1.05,1.82-.64,1.62.41-.8,4.18-1.94,8.99-6.06,11.13-.07.04-.14.05-.21.06-.28,3.83-.66,7.65-1.15,11.46,2.46-3.55,4.39-7.44,5.63-11.59.31-1.02,1.92-.62,1.62.41-1.37,4.59-3.51,8.93-6.33,12.8-.27.37-.7.56-1.13.32-.01,0-.02-.02-.04-.03-.34,2.5-.71,4.99-1.14,7.48-.07.42-.16.83-.24,1.25,2.94-2.33,5.31-5.31,6.87-8.72.44-.98,1.9-.16,1.46.81-1.84,4.03-4.74,7.5-8.34,10.06-.14.1-.28.13-.42.14-.59,3.09-1.23,6.16-1.96,9.22-.25,1.04-1.87.64-1.62-.41.92-3.87,1.71-7.76,2.4-11.67-.11-.04-.21-.09-.3-.16-4.03-2.95-6.94-7.27-8.23-12.08Z"/>
          <path class="cls-7" d="m90.54,182.02c.41-.23.88-.11,1.15.27.07.1.14.2.21.3.05.07-.05-.05.04.06.04.04.07.08.11.12.17.19.36.37.55.54.09.08.19.16.28.23-.09-.07.02.02.06.04.04.03.09.06.13.09.22.14.44.27.67.38.11.05.22.11.33.15.01,0,.07.03.08.03.03,0,.12.04.14.05.23.08.47.15.7.2.13.03.27.05.4.07.05,0,.11.02.16.02-.12,0,.01,0,.06,0,.13,0,.26,0,.4,0-1.52-1.7-3.04-3.4-4.55-5.1-.71-.8.44-2,1.15-1.2l6.02,6.74c-.37-1.73-1.03-3.39-1.97-4.88-.57-.91.85-1.78,1.42-.87,1.28,2.05,2.08,4.32,2.41,6.71.04.29-.14.54-.39.7,1.11,1.24,2.22,2.49,3.34,3.74.06-.62.07-1.25-.06-1.81-.21-.97-.57-1.72-1.18-2.51-.28-.36-.08-.93.27-1.15.42-.26.87-.08,1.15.27,1.39,1.79,1.87,4.23,1.33,6.42-.03.12-.08.22-.14.3.79.88,1.57,1.76,2.36,2.64-.39-.9-.79-1.8-1.18-2.69-.18-.4.16-.94.56-1.04.48-.12.85.13,1.04.56.68,1.55,1.36,3.1,2.04,4.66.14.31-.04.7-.32.91,1.98,2.21,3.95,4.42,5.93,6.64.71.8-.44,2-1.15,1.2-1.92-2.14-3.83-4.29-5.75-6.43-.06.14-.15.27-.3.33-2.23,1.04-4.78,1.26-7.14.52-.43-.14-.72-.56-.6-1.01.11-.42.58-.74,1.01-.6,1.91.61,4.03.53,5.86-.32.05-.02.1-.03.15-.05-1.47-1.64-2.93-3.28-4.4-4.92-.13.08-.27.14-.44.17-2.86.43-5.81-.08-8.39-1.37-.96-.48-.15-1.94.81-1.46,2.09,1.05,4.42,1.43,6.73,1.23-1.51-1.69-3.02-3.38-4.53-5.07-.14.25-.38.42-.69.44-2.43.12-4.8-1.1-6.17-3.1-.22-.36-.08-.94.3-1.15Z"/>
          <path class="cls-7" d="m120.92,227.47c.76-2.85,1.7-5.64,2.78-8.37-.08-.09-.15-.19-.19-.33-.85-2.7-.89-5.62-.1-8.33.3-1.03,1.92-.63,1.62.41-.55,1.89-.65,3.85-.32,5.77.5-1.15,1.02-2.29,1.57-3.41-.22-.15-.38-.39-.4-.67-.2-2.69.13-5.42.99-7.98.14-.43.55-.72,1.01-.6.41.1.75.58.6,1.01-.63,1.9-.95,3.86-.98,5.84.88-1.65,1.82-3.28,2.81-4.87-.07-.12-.13-.26-.15-.41-.27-2.32.02-4.7.83-6.88.16-.42.54-.72,1.01-.6.4.1.76.59.6,1.01-.56,1.51-.85,3.09-.86,4.68.86-1.28,1.75-2.54,2.68-3.76.65-.85,1.85.31,1.2,1.15-.95,1.24-1.84,2.52-2.7,3.81,1.59-.39,3.03-1.39,3.89-2.81.23-.38.73-.55,1.13-.32.38.21.56.75.32,1.13-1.38,2.27-3.88,3.74-6.54,3.83-1.13,1.8-2.18,3.66-3.16,5.55,2.04-.18,4.02-.93,5.58-2.28.34-.29.83-.36,1.18-.03.3.29.37.88.03,1.18-2.13,1.84-4.85,2.88-7.66,2.86-.71,1.47-1.36,2.96-1.98,4.47,2.08-.21,4.02-1.26,5.32-2.96.28-.36.88-.31,1.18-.03.35.34.3.82.03,1.18-1.69,2.19-4.44,3.5-7.21,3.5-.96,2.5-1.81,5.06-2.5,7.65-.27,1.05-1.89.65-1.61-.39Z"/>
        </g>
        <g>
          <path class="cls-11" d="m84.8,190.09c.7-1.62,2.15-2.99,3.92-3.31,2.17-.39,4.37.73,5.47,2.62,1.06,1.81,1.18,4.2.15,6.06-.14.25-.31.48-.49.7-.01.02-.01.03-.02.05-.24.56-.58,1.05-.99,1.46,1.24,2.76,2.69,5.43,4.29,8,.57-5.55,1.18-11.09,1.85-16.63-.37,0-.74-.16-.93-.51-1.21-2.18-2.42-4.36-3.62-6.54-.24.05-.47.07-.71.06-.98-.06-1.84-.55-2.35-1.39-.46-.75-.62-1.74-.34-2.58.3-.89.92-1.68,1.78-2.1.8-.39,1.74-.52,2.6-.22.86.31,1.64.95,1.86,1.88.08.33.08.66.04.98.01.08.03.17.04.26.06.78-.33,1.55-.93,2.05.98,1.76,1.95,3.52,2.93,5.28.09-.69.18-1.39.27-2.09-.09-.3-.04-.61.11-.89.42-3.27.87-6.53,1.32-9.8-.41-.02-.83-.07-1.23-.19-2.26-.65-3.76-2.61-3.9-4.95-.14-2.24,1.07-4.42,3.12-5.38,2.16-1.01,4.73-.75,6.52.88,1.82,1.65,2.38,4.37,1.19,6.55-.51.94-1.27,1.6-2.15,2.03-.38.29-.79.51-1.23.68-.33,2.37-.64,4.74-.95,7.1,1.33-1.29,2.8-2.44,4.35-3.45v-.06s-.03-.09-.03-.13c-.31-1.63.16-3.32,1.28-4.56.99-1.1,2.55-1.79,4.03-1.71,1.59.08,3.07.89,3.95,2.23.94,1.43.91,3.23.23,4.75-1.24,2.81-5.58,4.73-8.19,2.63-.29-.23-.52-.5-.71-.79-2.03,1.41-3.88,3.08-5.45,5.01-.57,4.47-1.1,8.94-1.61,13.42,1.89-1.64,3.77-3.29,5.66-4.93-.01-.32.01-.66.1-.99.37-1.41,1.47-2.42,2.72-3.07.73-.38,1.56-.69,2.38-.73.3-.05.61-.06.92.03.01,0,.02,0,.02,0,1.1.09,2.17.82,2.69,1.78.69,1.28.54,2.91-.29,4.1-.79,1.12-2,1.84-3.34,2.08-1.21.21-2.56.14-3.63-.55-.23-.15-.43-.32-.61-.5l-6.67,5.82c-.1.09-.21.15-.33.21-.01.13-.03.26-.05.4-.4,3.74-.78,7.48-1.13,11.23,1.46-1.47,3.03-2.84,4.65-4.15-.01-.08-.04-.17-.05-.25-.07-.66.1-1.27.42-1.79.12-.36.3-.71.55-1.03.52-.66,1.41-1.11,2.26-1.12.24,0,.47.03.7.09.16,0,.32,0,.49.02,1.21.15,2.16,1.06,2.52,2.18.04.1.1.19.13.29.59,1.57-.22,3.28-1.58,4.15s-3.41.84-4.44-.5c-2.1,1.73-4.07,3.61-5.88,5.64-.03.04-.07.05-.11.08-.44,4.86-.84,9.72-1.2,14.58-.41,5.54-.76,11.08-1.06,16.62-.08,1.44-2.33,1.52-2.25.08.54-9.89,1.24-19.76,2.12-29.63.27-3.03.58-6.05.88-9.08-.36-.02-.71-.19-.91-.51-1.9-2.94-3.56-6.02-5.02-9.2-.54.16-1.11.23-1.69.18-2.07-.18-3.71-1.49-4.52-3.38-.77-1.79-.68-3.82.08-5.56Z"/>
          <path class="cls-8" d="m103.54,163.85c-1.29,0-1.29,2,0,2s1.29-2,0-2Z"/>
          <path class="cls-8" d="m114.49,172.97c-1.29,0-1.29,2,0,2s1.29-2,0-2Z"/>
          <path class="cls-8" d="m112.83,189.4c-1.29,0-1.29,2,0,2s1.29-2,0-2Z"/>
          <path class="cls-8" d="m94.58,176.46c-1.29,0-1.29,2,0,2s1.29-2,0-2Z"/>
          <path class="cls-8" d="m88.94,188.24c-1.29,0-1.29,2,0,2s1.29-2,0-2Z"/>
          <path class="cls-8" d="m108.51,205.82c-1.29,0-1.29,2,0,2s1.29-2,0-2Z"/>
        </g>
        <g>
          <path class="cls-12" d="m74.59,264.87c5.34,8.26,12.38,15.38,20.5,20.94,6.34,4.34,13.6,6.84,21.04,7.48,1.4.13,2.79.18,4.2.17h.01c2.41-.01,4.82-.23,7.23-.62,3.63-.62,7.21-1.67,10.67-3.15-14.57-7.17-24.15-21.62-30.96-36.37-6.8-14.75-11.6-30.5-20.21-44.26-2.59-4.13-5.66-8.21-10.56-9.73-1.32-.41-2.73-.54-4.1-.34-5.69.83-7.37,5.78-8.3,10.33-3.86,18.92-.02,39.32,10.48,55.55Z"/>
          <path class="cls-7" d="m78.67,268.82c5.29,3.01,11.58,4.18,17.6,3.34.32-.04.55-.19.75-.37.36.45.71.89,1.06,1.32,2.39,2.88,4.89,5.65,7.49,8.36.03.02.05.06.08.09-4.22.05-8.41-.93-12.19-2.83-.74-.36-1.69.09-1.99.81-.33.78.07,1.64.81,1.99,4.57,2.28,9.68,3.3,14.78,3.03.41-.02.76-.25,1-.56,1.77,1.78,3.61,3.51,5.55,5.08,2.07,1.69,4.33,3.19,6.71,4.37h.01c2.41-.01,4.82-.23,7.23-.62-5.74-1.12-10.83-4.82-15.06-8.74-.62-.57-1.21-1.16-1.81-1.74l.02-.06c1.32-5.32,1.84-10.8,1.59-16.27-.04-.82-.91-1.43-1.68-1.33-.86.09-1.38.85-1.34,1.69.21,4.5-.21,9.02-1.13,13.42-2.97-3.05-5.78-6.24-8.45-9.53.13-.12.25-.28.35-.49,2.03-4.53,3.04-9.42,3.06-14.39.01-.82-.94-1.42-1.68-1.33-.89.09-1.33.87-1.34,1.69-.01,4.07-.88,8.16-2.46,11.94-3.25-4.17-6.26-8.52-8.95-13.08,5.04-3.35,8.08-9.21,7.71-15.32-.06-.82-.9-1.44-1.69-1.34-.85.11-1.38.87-1.34,1.69.3,4.76-2.22,9.7-6.15,12.33-.3-.56-.63-1.11-.94-1.67-2.54-4.82-4.69-9.85-6.37-15.02,5.25-5.01,8.74-11.67,9.71-18.88.26-1.94-2.74-2.38-3.02-.43-.8,5.97-3.53,11.66-7.71,16.02-2.06-7.2-3.19-14.66-3.17-22.2-.01-.83-.95-1.43-1.7-1.34-.87.1-1.32.86-1.33,1.68-.02,7.42,1.08,14.78,3.05,21.91-2.83-1.65-5.12-4.19-6.42-7.15-.34-.77-1.21-1.16-1.99-.85-.75.31-1.17,1.23-.84,1.98,1.81,4.13,5.06,7.48,9.13,9.4.36.17.76.14,1.1.02,2.01,6.33,4.73,12.39,7.93,18.18-4.69.25-9.47-1.84-12.41-5.51-.51-.64-1.46-.79-2.14-.28-.64.48-.79,1.5-.28,2.12,3.76,4.68,9.79,7.24,15.75,6.68.25-.02.46-.13.65-.26,2.64,4.44,5.56,8.72,8.72,12.82-5.24.53-10.52-.59-15.11-3.2-.72-.42-1.7.11-1.99.81-.33.84.11,1.6.84,2.02Z"/>
        </g>
        <g>
          <path class="cls-5" d="m118.66,267.03c.93,8.93,3.71,17.63,8.01,25.51,3.36,6.15,8.23,11.19,14.02,14.78,1.08.68,2.19,1.3,3.35,1.87h0c1.96,1,4.01,1.82,6.14,2.5,3.21,1,6.55,1.62,9.98,1.85-8.88-11.85-10.7-27.58-10.13-42.39.57-14.81,3.18-29.61,1.87-44.36-.4-4.43-1.21-9.02-4.57-12.28-.9-.87-2-1.57-3.19-1.97-4.97-1.68-8.38,1.65-11.02,4.97-10.98,13.79-16.3,31.97-14.47,49.52Z"/>
          <path class="cls-3" d="m120.34,271.93c3.05,4.64,7.69,8.19,12.94,9.99.28.1.53.07.76.01.11.51.21,1.01.32,1.51.75,3.33,1.64,6.62,2.64,9.9,0,.03,0,.07.03.11-3.46-1.71-6.45-4.23-8.74-7.34-.46-.6-1.42-.62-1.96-.17-.6.5-.62,1.36-.17,1.96,2.78,3.75,6.51,6.69,10.77,8.58.35.15.72.11,1.04-.04.71,2.18,1.49,4.34,2.42,6.43.99,2.23,2.21,4.39,3.65,6.33h0c1.96,1,4.01,1.82,6.14,2.5-4.21-3.29-6.82-8.4-8.63-13.34-.26-.72-.5-1.44-.75-2.17l.04-.04c3.28-3.78,5.97-8.02,8.02-12.58.31-.68-.15-1.54-.82-1.78-.74-.28-1.47.12-1.79.82-1.69,3.75-3.9,7.25-6.47,10.45-1.15-3.71-2.12-7.47-2.93-11.24.15-.04.32-.12.49-.25,3.53-2.85,6.37-6.4,8.44-10.44.35-.67-.18-1.54-.82-1.78-.76-.29-1.44.15-1.79.82-1.69,3.3-4.09,6.27-6.94,8.69-.92-4.73-1.57-9.52-1.87-14.34,5.48-.64,10.38-4.15,12.6-9.27.29-.69-.14-1.54-.82-1.79-.74-.26-1.49.14-1.79.82-1.72,4-5.82,6.97-10.11,7.48,0-.58-.06-1.17-.07-1.75-.07-4.97.26-9.95,1.03-14.85,6.34-1.9,11.94-5.87,15.71-11.34,1.01-1.47-1.25-3.07-2.28-1.6-3.12,4.53-7.69,8.02-12.9,9.84,1.3-6.7,3.47-13.24,6.61-19.36.33-.68-.18-1.55-.83-1.79-.75-.28-1.43.15-1.78.82-3.08,6.02-5.23,12.46-6.58,19.09-1.62-2.51-2.43-5.52-2.26-8.47.04-.76-.5-1.44-1.26-1.51-.74-.06-1.46.51-1.5,1.26-.24,4.11,1.03,8.18,3.54,11.42.22.29.56.43.89.47-.99,5.98-1.28,12.03-1.07,18.07-3.91-1.74-6.94-5.41-7.81-9.62-.15-.74-.86-1.25-1.62-1.11-.72.12-1.26.89-1.11,1.61,1.12,5.36,4.97,9.94,10.05,11.95.21.08.43.08.64.06.31,4.71.92,9.4,1.79,14.03-4.48-1.74-8.31-4.83-10.97-8.86-.42-.64-1.43-.61-1.96-.17-.63.53-.58,1.34-.17,1.98Z"/>
        </g>
        <g>
          <path class="cls-11" d="m60.72,287.97c3.07,3.25,7.28,5.16,11.44,6.76,8.95,3.45,18.27,5.9,27.75,7.31.62.1,1.25.19,1.88.27,11.66,1.58,23.55,1.6,35.24.06,3.93-.52,7.87-1.23,11.74-2.11.54-.12,1.07-.26,1.61-.38l-1-.41c-22.29-5.72-43.91-14.09-64.25-24.87-4.61-2.43-9.3-5.05-14.5-5.55-5.19-.5-11.06,1.77-13,6.6-1.65,4.15.04,9.06,3.09,12.32Z"/>
          <path class="cls-11" d="m73.64,288.3c-.07.01-.15.04-.21.05-.54.12-1.08.21-1.63.26-.13,0-.27.03-.38.03-.08,0-.15.01-.22,0-.25.01-.49-.01-.75-.01-.59-.02-1.18-.1-1.77-.2-.92-.19-1.72.63-1.84,1.46-.15.95.63,1.69,1.48,1.84,2.65.52,5.4.19,7.91-.77.43-.17.71-.54.84-.95.6.27,1.2.53,1.81.77,3.77,1.52,7.69,2.59,11.64,3.54-.05.01-.1.03-.11.03-.16.04-.31.07-.46.11-.26.06-.52.1-.78.16-.56.09-1.12.15-1.69.17t-.03.01s-.02-.01-.05-.01c-.13,0-.27-.01-.41,0-.31-.02-.61-.04-.92-.05-.93-.09-1.7.56-1.84,1.48-.13.86.6,1.76,1.48,1.84,2.67.24,5.38-.21,7.84-1.31.61-.27.92-.87.94-1.49.4.09.8.17,1.21.26,3.14.71,6.27,1.4,9.42,2.08-1.58.58-3.17,1.15-4.75,1.73-.88.31-1.14,1.42-.83,2.21.08.21.2.39.37.51.46.45,1.22.53,1.84.29.02,0,.03-.01.05-.02,2.14-.75,4.28-1.53,6.43-2.3.65-.24.96-.93.94-1.59,1.19.25,2.38.51,3.56.74,8.03,1.56,16.14,2.76,24.3,3.21,3.93-.52,7.87-1.23,11.74-2.11-.27-.75-1.02-1.1-1.83-1.07-6.34.23-12.7-.16-18.99-.94-1.69-.2-3.36-.44-5.04-.69-.18-.81-.56-1.58-1.03-2.28-.63-.96-1.57-1.67-2.61-2.15-.84-.4-1.81.16-2.14.94-.17.4-.14.93.04,1.31.17.4.5.66.88.84.24.15.46.31.67.48.06.07.13.15.19.22-3.47-.6-6.92-1.26-10.36-1.98-.86-2.7-2.34-5.23-4.31-7.27-.63-.67-1.58-.81-2.33-.23-.69.52-.84,1.72-.23,2.35.47.5.93,1.03,1.35,1.59.2.27.39.54.57.82.02.03.09.14.15.21v.02s.02.03.04.06c.05.09.12.2.18.31.24.43.44.87.65,1.31-3.23-.69-6.47-1.42-9.71-2.15-.02-.01-.04-.01-.05-.02-.68-3.62-2.72-6.94-5.64-9.2-.73-.57-1.79-.32-2.34.38-.58.72-.3,1.79.37,2.32.19.15.38.29.56.45.08.07.16.14.24.21.02,0,.02.01.02.01t.02.03c.3.29.6.61.88.94.27.31.53.66.77,1.01.07.09.13.18.18.26.02.01.09.12.11.17.02.05.07.14.09.15.05.09.1.19.15.28.38.68.68,1.41.94,2.14-4.8-1.17-9.63-2.58-14.08-4.7-.43-3.32-1.51-6.56-3.18-9.45-.47-.82-1.31-1.19-2.21-.83-.78.31-1.27,1.45-.83,2.21.8,1.39,1.47,2.83,1.99,4.36.06.16.1.34.17.51.01.03.03.06.03.08v.07s.03.03.03.03c.01.08.03.16.06.24.07.24.13.49.19.73-2.29-1.4-4.41-3.07-6.32-5.06-1.47-1.55-4.05.55-2.56,2.12,2.67,2.78,5.77,5.05,9.14,6.89Z"/>
        </g>
        <g>
          <path class="cls-17" d="m121.79,295.93c1.19,4.31,4.01,7.97,6.93,11.34,6.28,7.25,13.37,13.78,21.08,19.47.5.38,1.01.75,1.54,1.12,9.56,6.87,20.05,12.46,31.09,16.58,3.72,1.39,7.53,2.6,11.36,3.64.53.15,1.07.28,1.6.42l-.68-.83c-17-15.51-32.17-33.04-45.08-52.1-2.93-4.31-5.85-8.82-10.2-11.7-4.35-2.87-10.59-3.63-14.57-.27-3.42,2.89-4.24,8.02-3.07,12.33Z"/>
          <path class="cls-13" d="m133.04,302.28c-.06-.02-.15-.03-.21-.05-.53-.15-1.05-.32-1.56-.53-.12-.06-.25-.1-.35-.16-.07-.04-.14-.06-.19-.1-.23-.11-.43-.23-.65-.36-.51-.3-1-.64-1.47-1.01-.73-.6-1.82-.25-2.31.43-.58.77-.24,1.78.44,2.32,2.1,1.7,4.68,2.7,7.35,3.03.46.05.88-.14,1.19-.44.4.52.81,1.03,1.24,1.53,2.62,3.11,5.58,5.9,8.62,8.59-.05-.02-.1-.02-.12-.02-.16-.04-.31-.09-.45-.12-.26-.07-.51-.16-.77-.23-.54-.18-1.06-.4-1.58-.64t-.03-.01s0-.02-.04-.03c-.12-.06-.24-.13-.36-.19-.26-.16-.53-.32-.79-.48-.78-.51-1.76-.3-2.32.44-.52.7-.29,1.84.44,2.32,2.25,1.47,4.85,2.34,7.54,2.52.67.05,1.22-.34,1.53-.87.31.27.63.53.94.8,2.44,2.1,4.88,4.18,7.34,6.25-1.66-.23-3.34-.47-5.01-.7-.92-.14-1.67.72-1.77,1.56-.02.22,0,.44.09.63.2.61.83,1.04,1.48,1.12.02.01.03.01.05,0,2.24.34,4.5.65,6.76.98.69.09,1.29-.37,1.58-.96.93.78,1.86,1.57,2.8,2.33,6.36,5.14,12.96,10.01,19.96,14.23,3.72,1.39,7.53,2.6,11.36,3.64.11-.79-.39-1.45-1.11-1.8-5.71-2.77-11.14-6.1-16.33-9.74-1.4-.97-2.76-1.96-4.13-2.97.22-.8.25-1.66.16-2.5-.1-1.14-.6-2.21-1.3-3.12-.55-.75-1.68-.71-2.33-.18-.34.27-.56.76-.58,1.18-.04.43.13.82.38,1.15.15.24.26.49.36.74.02.1.04.19.06.29-2.78-2.16-5.52-4.36-8.22-6.61.51-2.78.38-5.72-.4-8.44-.24-.89-1.02-1.46-1.95-1.3-.85.13-1.55,1.13-1.3,1.97.18.66.33,1.35.45,2.04.05.33.09.66.12.99,0,.04,0,.16.04.26v.02s0,.04,0,.07c0,.11,0,.23.02.36,0,.5-.02.98-.04,1.46-2.53-2.13-5.05-4.29-7.57-6.45,0-.02-.03-.03-.04-.05,1.09-3.52.85-7.4-.66-10.77-.38-.85-1.43-1.12-2.24-.76-.85.36-1.11,1.44-.76,2.22.1.23.2.44.29.66.04.1.07.2.11.3.02.01,0,.02,0,.02t0,.04c.13.4.25.82.33,1.24.09.4.16.83.21,1.25.02.11.03.22.03.31,0,.02.02.15.02.2s0,.16,0,.18v.32c.02.78-.06,1.56-.18,2.33-3.69-3.28-7.3-6.8-10.22-10.76,1.17-3.14,1.74-6.5,1.63-9.83-.03-.94-.6-1.66-1.56-1.77-.83-.09-1.8.69-1.77,1.56.05,1.6-.03,3.19-.29,4.78-.02.17-.07.35-.09.53,0,.03,0,.07,0,.08l-.02.06s0,.04,0,.04c-.03.08-.05.16-.06.24-.05.25-.11.49-.18.73-1.36-2.31-2.46-4.78-3.21-7.43-.57-2.06-3.83-1.41-3.26.67,1.05,3.71,2.72,7.17,4.83,10.37Z"/>
        </g>
      </g>
    </g>
    <g>
      <g>
        <g>
          <path class="cls-13" d="m391.29,339.68c-6.63-2.26-14.45-2.25-19.62-1.88-3.93.28-7.85-.72-11.2-2.8l-8.84-5.52c-23.3-10.51-32.16,18.7-32.16,18.7l58.6,23.09c15.84.73,21.75-5.58,23.83-11.56,2.85-8.22-1.78-17.01-10.61-20.03Z"/>
          <path class="cls-9" d="m391.29,339.68c-6.63-2.26-14.45-2.25-19.62-1.88-3.93.28-7.85-.72-11.2-2.8l-8.84-5.52c-23.3-10.51-32.16,18.7-32.16,18.7l58.6,23.09c15.84.73,21.75-5.58,23.83-11.56,2.85-8.22-1.78-17.01-10.61-20.03Z"/>
        </g>
        <path class="cls-13" d="m392.47,365.41c-2.52-13.13-23.26-19.93-40.53-15.01-3.75,1.07-7.78-.31-10.53-3.07-12.95-13.01-21.45-8.15-35.92,2.79-2.5,1.09-5.15,2.12-7.9,3.08,0,0-22.22,10.92-65.41,1.75l-3.41-30.38h0c-28.02,1.44-46.5,18.95-41.39,36.34,15.33,50.37,120.08,13.07,176.45,19.51,20.27,2.31,32.27,3.82,28.65-15.01Z"/>
        <path class="cls-10" d="m302.5,142.29c-1.14-9.08-.82-19.21-4.84-26.42l-108.93,12.41c-11.62,64.54,23.49,52.34-5.76,94.89,4-1.77,7.75-4.76,10.89-8.68-4.43,6.2-3.52,16.5-.1,23.24s8.72,11.13,13.19,16.59c4.47,5.45,8.38,13,7.58,21.4,6.04-7.55,9.56-18.72,9.31-29.56-.35,5.8,2.28,10.91,5.16,14.96s6.2,7.76,7.84,12.99c1.63,5.23.82,12.64-3.03,15.42,20.52-6.85,37.85-31.65,41.85-59.88.14,8.9,6.88,15.99,13.33,14.01-2.02-3.95-1.59-9.59-.02-14.17,1.56-4.58,4.09-8.45,6.29-12.55,7.42-13.84,11.23-31.47,9.06-47.73,1.96,8.26,9.46,12.83,15.59,9.5-9.13-8.13-15.54-21.53-17.41-36.42Z"/>
        <g>
          <path class="cls-11" d="m305.52,350.11h-.03c-2.5,1.1-5.15,2.12-7.9,3.09,0,0-22.22,10.92-65.41,1.75l-3.42-30.38h0s-.39-3.48-.39-3.48l35.83-21.64c-.23-3.32-.35-6.64-.39-9.95-.01-.66-.01-1.32-.01-1.98,0-16.58,2.3-33.09,6.85-49.07l12.28-43.17,1.39-4.89,12.86-5.87,3.66-1.67s12.56,10.24,20.32,42.08c1.92,7.89,4.58,15.59,8.12,22.9,2.64,5.45,4.91,10.69,6.79,15.72,16.14,43.11,4.68,71.27-30.54,86.56Z"/>
          <path class="cls-11" d="m229.67,321.54c-3.87,13.23-1.83,28.3,6.34,39.4s22.58,17.6,36.18,15.35c15.55-2.58,27.69-15.29,42.95-19.21,19.71-5.06,41.08,5.32,60.63-.33-6.45-1.74-12.98-3.51-18.77-6.85s-10.84-8.46-12.64-14.89c-1.49-5.36-.62-11.05-.16-16.59,1.47-17.65-1.46-35.65-8.44-51.93"/>
          <path class="cls-5" d="m336.06,263.55c-1.91,1.23-4.07,2.16-6.18,3.03-21.55,8.92-43.65,16.51-66.08,22.92-.01-.66-.01-1.32-.01-1.98,0-16.58,2.3-33.09,6.85-49.07l12.28-43.17c4.16-4.32,8.98-8.01,14.25-10.76l3.66-1.67s12.56,10.24,20.32,42.08c1.92,7.89,4.58,15.59,8.12,22.9,2.64,5.45,4.91,10.69,6.79,15.72Z"/>
          <g class="cls-27">
            <path class="cls-2" d="m336.06,263.55c-1.91,1.23-4.07,2.16-6.18,3.03-21.55,8.92-43.65,16.51-66.08,22.92-.01-.66-.01-1.32-.01-1.98,0-16.58,2.3-33.09,6.85-49.07l12.28-43.17c4.16-4.32,8.98-8.01,14.25-10.76l3.66-1.67s12.56,10.24,20.32,42.08c1.92,7.89,4.58,15.59,8.12,22.9,2.64,5.45,4.91,10.69,6.79,15.72Z"/>
          </g>
          <path class="cls-5" d="m317.51,212.23l-26.49,69.53.13-.05c16.83-6.8,27.57-23.44,26.84-41.58l-.48-27.9Z"/>
          <g>
            <path class="cls-15" d="m285.62,286.63c-7.16,4.02-14.32,8.03-21.48,12.05-1.5.84-.37,3.29,1.15,2.44,7.16-4.02,14.32-8.03,21.48-12.05,1.51-.85.37-3.29-1.15-2.44Z"/>
            <g>
              <path class="cls-15" d="m304.52,284.12c-.65-.38-1.7-.2-2.05.54-2.76,5.84-5.96,11.47-9.55,16.84-3.54,5.29-7.46,10.32-11.72,15.04-4.33,4.8-8.99,9.29-13.95,13.43-4.89,4.08-10.07,7.8-15.49,11.13-5.5,3.38-11.25,6.37-17.18,8.91-.67.29-1.36.57-2.05.85-.75.3-1.28,1-1.05,1.85.2.71,1.09,1.35,1.85,1.05,6.11-2.47,12.04-5.38,17.72-8.72,5.68-3.34,11.1-7.11,16.24-11.23,5.09-4.08,9.89-8.53,14.35-13.29,4.5-4.81,8.65-9.95,12.42-15.35,3.73-5.35,7.07-10.97,9.97-16.82.36-.72.71-1.44,1.05-2.17.33-.74.19-1.62-.56-2.06Z"/>
              <path class="cls-15" d="m340.72,345.03c-7.97-3.48-16.9-4.32-25.39-2.42-4.29.96-8.33,2.68-12.1,4.91-3.89,2.29-7.53,4.98-11.51,7.12-4.2,2.26-9.11,4.03-13.95,3.31.69-1.01,1.36-2.04,2-3.08,5.38-8.72,9.1-18.29,13.2-27.65,2.42-5.54,4.99-11.02,8.1-16.21.99-1.66-1.6-3.17-2.59-1.51-5.45,9.13-9.22,19.09-13.54,28.77-3.84,8.62-8.22,17.18-14.49,24.32-3.37,3.84-7.23,7.2-11.67,9.75-1.67.96-.16,3.56,1.51,2.59,6.33-3.64,11.52-8.82,15.83-14.66.19.29.47.52.82.58,4.66.71,9.2-.34,13.47-2.22,4.1-1.81,7.78-4.39,11.55-6.79,3.63-2.32,7.37-4.38,11.51-5.62,3.97-1.19,8.1-1.71,12.24-1.57,4.62.15,9.26,1.14,13.5,3,.74.32,1.61.22,2.05-.54.37-.67.21-1.76-.54-2.08Z"/>
              <path class="cls-15" d="m327.13,319.64c4.16-6.05,7.15-12.98,8.6-20.18.86-4.28,1.22-8.66.98-13.02-.04-.81-.66-1.5-1.5-1.5-.78,0-1.54.69-1.5,1.5.4,7.38-.89,14.63-3.66,21.5-2.7,6.71-6.88,12.93-12.1,17.98-2.97,2.87-6.22,5.32-9.82,7.35-1.68.95-.17,3.54,1.51,2.59,5.45-3.09,10.24-7.19,14.25-11.98.08,2.02.5,4,1.52,5.79,1.56,2.75,4.45,4.81,7.68,4.79,1.93-.01,1.93-3.01,0-3-2.17.01-4.1-1.48-5.18-3.47-1.33-2.46-1.23-5.53-.79-8.21.02-.03.01-.09.01-.14Z"/>
              <path class="cls-15" d="m279.38,308.4c-.39-.67-1.38-.99-2.05-.54-10.86,7.32-22.18,13.96-33.88,19.85-3.27,1.65-6.58,3.23-9.9,4.77-.74.34-.92,1.4-.54,2.05.44.76,1.31.88,2.05.54,11.9-5.47,23.45-11.69,34.56-18.63,3.11-1.94,6.18-3.94,9.22-5.99.67-.45.96-1.31.54-2.05Z"/>
            </g>
            <path class="cls-15" d="m304.53,193.41c-2.14-2.28-4.67-4.12-7.54-5.35-1.6-.69-2.53,1.85-.94,2.53,4.66,2,8.19,5.92,10.49,10.38,2.67,5.19,3.63,11.02,3.92,16.79.18,3.58.09,7.17.01,10.75-.04,1.73,2.65,1.97,2.69.24.26-12.19.25-25.86-8.63-35.34Z"/>
          </g>
        </g>
        <polygon class="cls-13" points="303.23 185.31 281.88 204.05 278.6 198.39 266.08 176.8 283.37 157.38 286.28 154.12 303.23 185.31"/>
        <path class="cls-13" d="m288.77,180.74c-1.67,6.58-5.26,12.63-10,17.49-.06.05-.1.11-.16.16l-12.52-21.59,17.29-19.42c.73-.04,1.45-.06,2.18-.05l2.06,3.39c2.53,6.29,2.82,13.43,1.15,20.02Z"/>
        <path class="cls-13" d="m233.13,355.28c-6.64-7.72-17.29-11.12-27.16-8.51-2.79.74-5.42,1.92-7.84,3.48-.73.47.15,1.5.87,1.03,8.13-5.24,18.8-5.37,27.04-.31,2.28,1.4,4.31,3.14,6.06,5.17.57.67,1.6-.2,1.03-.86Z"/>
        <g>
          <path class="cls-13" d="m202.58,128.64c.53-23.76,23.07-41.35,37.98-45.1,20.87-5.26,33.67,8.09,39.27,24.19,6.92-11.78,16.44-.35,16.44-.35,9.52,11.44-1.95,26.15-1.95,26.15,0,4.08-.01,7.41-.03,10.11-.05,10.72-2.49,21.34-7.61,30.76-1.42,2.62-2.91,4.92-4.41,6.94-8.99,12.07-25.12,16.85-38.69,12.18-11.17-3.84-19.11-11.5-24.58-21.13-.86-1.51-1.7-3.02-2.55-4.53-2.78-4.94-5.56-9.85-8.73-14.56-4.56-6.75-5.33-16.25-5.14-24.66Z"/>
          <path class="cls-10" d="m219.82,138.38c-.74.03-1.34.36-1.86.73-3.46,2.47-4.5,7.13-2.78,11.64-.08-.7-.09-1.38.1-2.01,0-.04.03-.06.05-.1.07-.4.19-.78.36-1.12.62-1.28,1.75-2.24,2.9-3.15,1.15-.9,2.35-1.78,3.15-2.96.39-.57.66-1.33.18-2.05-.44-.64-1.36-1-2.1-.98Z"/>
          <path class="cls-10" d="m242.35,125.23c.32-.71.85-1.15,1.39-1.5,3.54-2.33,8.01-1.44,11.22,2.04-.57-.36-1.16-.65-1.78-.72-.04,0-.07.01-.1,0-.37-.09-.75-.13-1.12-.11-1.36.08-2.65.78-3.9,1.52s-2.5,1.54-3.84,1.84c-.65.14-1.42.1-1.85-.65-.4-.69-.34-1.72-.02-2.42Z"/>
          <path class="cls-13" d="m264.02,162.32c-.81,6.27-4.95,11.83-10.62,14.55-1.63.78-.34,3.26,1.28,2.49,6.62-3.17,11.2-9.67,12.14-16.92.23-1.78-2.57-1.89-2.8-.12Z"/>
          <path class="cls-13" d="m238.29,166.06c.22-2.85,1.16-5.51,1.09-8.4-.08-3.02-.83-5.99-2.18-8.69-.68-1.34,1.32-2.58,2-1.23,2.21,4.39,3.03,9.33,2.22,14.2-.35,2.07-1.74,5.33-.06,7.14,1.83,1.98,5.04.6,7.03-.29,1.36-.61,2.61,1.39,1.23,2-2.45,1.09-5.15,2.21-7.84,1.25-2.59-.93-3.7-3.35-3.49-5.98Z"/>
          <path class="cls-10" d="m255.48,141.11c1.19,2.51.83,5.28-.81,6.18-1.63.91-3.92-.39-5.11-2.9s-.83-5.28.81-6.19c1.63-.9,3.92.4,5.11,2.91Z"/>
          <path class="cls-10" d="m230.78,157.04c1.19,2.51.83,5.28-.81,6.18-1.63.91-3.92-.39-5.11-2.9s-.83-5.28.81-6.19c1.63-.89,3.92.4,5.11,2.91Z"/>
        </g>
        <path class="cls-10" d="m297.9,132.85c-.08.2-.17.4-.26.59-1.86,4.21-4.33,8.1-6.99,11.87-1.23,1.76-2.5,3.49-3.77,5.21-3.42-3.33-6.05-7.45-7.64-11.95-.91,4.13-3.23,7.94-6.48,10.64.79-2.51,1.47-5.1,1.46-7.74s-.77-5.35-2.53-7.31c-2.04-2.26-5.09-3.23-7.74-4.73-6.17-3.49-10.15-10.37-10.49-17.41-5.39,4.66-17.15,12.68-29.26,17.5,1.9-2.13,3.8-4.26,5.7-6.39-8.04,5.87-16.51,12.65-18.81,22.34-1.16,4.88-.14,9.02,1.45,13.62.36,1.05.81,2.05,1.32,3.03,1.8,3.38,6.24,11.72,8.51,15.51-.97-.8-4.1-2.51-5.07-3.31-.79,3.79-3.03,7.26-6.15,9.56,2.15-3.18.83-7.68-1.74-10.52-2.57-2.85-6.12-4.57-9.27-6.76-7.16-4.99-12.37-12.72-14.31-21.24.94,3.6-1.65,7.73-5.3,8.44,3.47-6.28,3.9-13.77,3.7-20.94-.19-7.18-.91-14.45.57-21.48,1.48-7.02,5.28-13.48,10.54-18.36,3.57-3.32,7.81-5.93,12.43-7.48-1.46-.24-2.87-.79-4.11-1.61,1.26-.37,2.52-.74,3.79-1.1,3.09-.29,6.13-1.18,9.11-2.38,3.76-1.51,7.43-3.51,10.98-5.4,9.13-4.86,20.11-9.26,29.38-2.97,3.69,2.5,6.25,6.36,7.46,10.64,5.33-.38,10.76,1.41,15.3,4.33,5.24,3.38,9.43,8.15,13.21,13.1,2.89,3.77,5.63,7.78,6.98,12.34,1.98,6.67.77,13.96-1.97,20.36Z"/>
      </g>
      <g>
        <g>
          <path class="cls-14" d="m228.95,230.96c-5.15-2.51-9.25-6.87-12.07-11.85-2.83-4.98-4.45-10.57-5.45-16.2-.11.24-.21.49-.32.73-1.51,3.44-5.65,4.82-8.92,2.98h0c-2.27-1.28-3.51-3.81-3.19-6.39.65-5.22,2.05-10.35,4.14-15.18.73-1.68,1.62-3.41,3.17-4.39,1.66-1.05,3.76-1.04,5.72-.84,6.94.73,13.48,3.48,20.04,5.88,4.22,1.54,8.62,3.02,11.96,6.03,4.09,3.68,6.09,9.54,5.11,14.95-.98-.67-1.97-1.33-2.95-2,1.16.86,1.79,2.3,1.95,3.74.15,1.44-.12,2.89-.47,4.29-1.46,5.78-4.36,11.2-8.36,15.62,1.43-2.13.71-5.4-1.48-6.73-.32,2.58-1.15,5.1-2.42,7.38-.64,1.14-1.48,2.29-2.73,2.67-1.24.36-2.57-.12-3.73-.69Z"/>
          <g class="cls-26">
            <path class="cls-14" d="m228.95,230.96c-5.15-2.51-9.25-6.87-12.07-11.85-2.83-4.98-4.45-10.57-5.45-16.2-.11.24-.21.49-.32.73-1.51,3.44-5.65,4.82-8.92,2.98h0c-2.27-1.28-3.51-3.81-3.19-6.39.65-5.22,2.05-10.35,4.14-15.18.73-1.68,1.62-3.41,3.17-4.39,1.66-1.05,3.76-1.04,5.72-.84,6.94.73,13.48,3.48,20.04,5.88,4.22,1.54,8.62,3.02,11.96,6.03,4.09,3.68,6.09,9.54,5.11,14.95-.98-.67-1.97-1.33-2.95-2,1.16.86,1.79,2.3,1.95,3.74.15,1.44-.12,2.89-.47,4.29-1.46,5.78-4.36,11.2-8.36,15.62,1.43-2.13.71-5.4-1.48-6.73-.32,2.58-1.15,5.1-2.42,7.38-.64,1.14-1.48,2.29-2.73,2.67-1.24.36-2.57-.12-3.73-.69Z"/>
          </g>
        </g>
        <path class="cls-14" d="m137.3,337.74c-3.34-2.85-7.19-5.03-10.7-7.66-3.51-2.64-6.77-5.88-8.26-10.01-2.23-6.16-.06-13.14,3.56-18.59-3.79,2.86-7.17,6.28-9.99,10.1-2.32-5.4-1.1-11.79,1.78-16.91s7.23-9.22,11.52-13.24c-8.07,2.76-16.2,5.55-23.57,9.84s-14.02,10.24-17.73,17.92c-.08-4.04.33-8.1,1.19-12.05-8.31,10.21-14.68,22.42-15.93,35.53s3.19,27.14,13.32,35.55c-3.66-.05-7.31-.69-10.76-1.91,9.76,9.63,22.79,15.73,36.35,17.76s27.6.08,40.37-4.91l.62-10.33c1.63-11.45-2.97-23.59-11.77-31.09Z"/>
        <path class="cls-14" d="m240.74,262.53l-14.86,9.15-1.47.9-38.03-5.81c-14.84-11.88-22.37-32.83-13.41-53.9,13.09-29.74,56.58-35.04,76.91-7.36.16.22.32.43.47.65,0,0,.15-.15.43-.39,4.6-3.83,11.74-1.28,12.9,4.61,4.15,20.84-3.15,38.33-22.94,52.15Z"/>
        <path class="cls-8" d="m240.74,262.53l-14.86,9.15c-.35-.07-.71-.15-1.07-.23-3.41-.82-6.74-2.41-8.92-5.15-1.78-2.22-2.67-5.07-2.84-7.9-.32-5.14,1.59-10.19,4.26-14.6,2.66-4.41,6.07-8.29,9.15-12.43,4.13-5.53,7.67-11.51,12.2-16.74,3.17-3.65,6.93-6.97,11.22-9.11.16.22.32.43.47.65,0,0,.15-.15.43-.39,4.6-3.83,11.74-1.28,12.9,4.61,4.15,20.83-3.15,38.32-22.94,52.14Z"/>
        <path class="cls-8" d="m229.45,266.67l-.33,2.91c4.5-1.33,8.71-3.64,12.25-6.72-.09,1.1-.19,2.2-.28,3.3,2.19-1.45,4.39-2.91,6.26-4.75s3.4-4.12,3.95-6.68c.08,1.49.16,2.98.24,4.47,3.65-2.8,4.99-7.61,6.1-12.07-.33.87,1.46,1.89,1.46,1.89,0,0,5.17-14.31,3.87-22.6"/>
        <g>
          <path class="cls-14" d="m199.6,257.54c.99-6.64-.51-13.5-3.44-19.53-2.94-6.04-7.26-11.31-12.04-16.01.31.06.61.12.92.17,4.32.82,8.41-2.26,8.8-6.64h0c.27-3.04-1.35-5.92-4.06-7.32-5.48-2.84-11.36-4.89-17.42-6.07-2.11-.41-4.37-.7-6.34.14-2.12.91-3.51,2.94-4.61,4.97-3.9,7.19-5.58,15.34-7.62,23.27-1.31,5.1-2.81,10.33-2.12,15.56.84,6.39,5.18,12.21,11.06,14.86,0-1.39.02-2.79.02-4.18.06,1.7,1.04,3.26,2.32,4.37,1.29,1.1,2.87,1.8,4.46,2.39,6.56,2.43,13.71,3.22,20.64,2.29-3.01-.03-5.69-2.89-5.52-5.9,2.71,1.41,5.69,2.28,8.73,2.56,1.52.14,3.2.09,4.39-.87,1.19-.96,1.61-2.56,1.83-4.06Z"/>
          <g class="cls-26">
            <path class="cls-14" d="m199.6,257.54c.99-6.64-.51-13.5-3.44-19.53-2.94-6.04-7.26-11.31-12.04-16.01.31.06.61.12.92.17,4.32.82,8.41-2.26,8.8-6.64h0c.27-3.04-1.35-5.92-4.06-7.32-5.48-2.84-11.36-4.89-17.42-6.07-2.11-.41-4.37-.7-6.34.14-2.12.91-3.51,2.94-4.61,4.97-3.9,7.19-5.58,15.34-7.62,23.27-1.31,5.1-2.81,10.33-2.12,15.56.84,6.39,5.18,12.21,11.06,14.86,0-1.39.02-2.79.02-4.18.06,1.7,1.04,3.26,2.32,4.37,1.29,1.1,2.87,1.8,4.46,2.39,6.56,2.43,13.71,3.22,20.64,2.29-3.01-.03-5.69-2.89-5.52-5.9,2.71,1.41,5.69,2.28,8.73,2.56,1.52.14,3.2.09,4.39-.87,1.19-.96,1.61-2.56,1.83-4.06Z"/>
          </g>
        </g>
        <path class="cls-14" d="m183.89,264.63l-44.25,62.76s-30.99,44.24-2.36,54.31c3.78,1.33,7.9,1.36,11.76.26h0l-1.27,3.11c-.57,1.4.46,2.93,1.97,2.93h57.41c1.65,0,2.83-1.63,2.26-3.18-1.48-4-6.16-10.38-21.01-10.69,0,0,19.46-10.06,10.29-28.07,0,0,53.45-29.88,25.72-73.48l-40.52-7.95Z"/>
        <path class="cls-13" d="m188.94,286.35c1.83.25,3.97-1.25,3.61-3.05-.2-.99-1.04-1.71-1.84-2.34-3.7-2.95-7.39-5.9-11.09-8.84-.87-.69-1.78-1.41-2.86-1.65-1.84-.41-3.67.6-5.21,1.69-10.47,7.4-11.83,22.31-1.61,30.78,1.69,1.4,4.23,2.49,5.96,1.14,1.17-.91,1.42-2.64,1-4.06s-1.39-2.6-2.33-3.74c1.82,1.85,4.35,2.99,6.94,3.13.9.05,1.86-.04,2.56-.59,1.44-1.13.98-3.49-.13-4.95-1.11-1.46-2.73-2.53-3.55-4.17,1.9,2.08,4.52,3.48,7.31,3.89.99.15,2.05.16,2.95-.29.89-.45,1.55-1.49,1.29-2.46-.17-.64-.68-1.12-1.17-1.56-1.6-1.45-3.21-2.91-4.81-4.36.88.7,1.86,1.27,2.98,1.43Z"/>
        <path class="cls-14" d="m229.84,273.98c8.13,4.74,10.84,15.12,6.6,28.8l10.15-3.04c6.83-2.05,14.01,1.96,15.84,8.86h0s3.3-.15,6.56.73c5.39,1.45,6.23,8.84,1.27,11.4-1.83.95-3.85,1.69-5.45,1.51,0,0-9.98,4.7-16.46-3.13l-15.62.97h0c-12.16,4.38-25.64-1.28-31.02-13.03h0c-4.62-10.09-2.04-22.01,6.33-29.29l1.75-1.52c5.57-4.84,13.68-5.97,20.05-2.26Z"/>
        <g class="cls-24">
          <path class="cls-14" d="m200.11,345.82c-3.16-4.79-8.39-7.71-13.95-8.77-6.35-1.21-12.78-.04-18.81,2.09-3.8,1.34-7.46,3.02-11.11,4.71-.66.3-.83,1.26-.48,1.84.4.68,1.18.79,1.84.48,10.36-4.77,22.84-10.25,33.95-4.47,2.5,1.3,4.68,3.12,6.24,5.48.95,1.44,3.28.09,2.32-1.36Z"/>
          <path class="cls-14" d="m149.37,379.94c-6.92,1.57-14.65-.51-18.98-6.36-2.1-2.83-3.14-6.15-3.12-9.67.03-4.16,1.24-8.26,2.43-12.22,1.36-4.53,3-8.97,4.92-13.29.29-.67.19-1.45-.48-1.84-.57-.34-1.55-.19-1.84.48-1.86,4.2-3.5,8.49-4.86,12.87-1.35,4.32-2.68,8.82-2.84,13.37-.29,7.94,4.44,15.13,11.74,18.2,4.34,1.82,9.18,2.09,13.76,1.05,1.68-.38.96-2.98-.73-2.59Z"/>
          <path class="cls-14" d="m187.24,373.37c-6.72,4.37-14.29,7.2-22.22,8.34-.72.1-1.12,1.02-.94,1.66.21.77.93,1.05,1.66.94,8.13-1.17,15.97-4.13,22.86-8.61,1.45-.94.1-3.28-1.36-2.33Z"/>
          <path class="cls-14" d="m223.96,320.1c-5.86-.23-11.56-2.72-15.77-6.8-4.46-4.31-6.96-10.26-7.09-16.44-.08-3.57.6-7.16,2.08-10.41.3-.66.19-1.45-.48-1.84-.58-.34-1.54-.18-1.84.48-2.93,6.4-3.27,13.88-.82,20.5,2.34,6.33,7.13,11.53,13.19,14.48,3.36,1.64,7,2.58,10.74,2.72,1.72.08,1.72-2.62-.01-2.69Z"/>
          <path class="cls-14" d="m259.28,312.11h-.01c.24-.13.08-.06.01,0Z"/>
          <path class="cls-14" d="m236.1,301.62c-4.93,1.39-8.94,5.34-10.43,10.23-.21.7.25,1.47.94,1.66.72.2,1.45-.24,1.66-.94.6-1.97,1.72-3.78,3.22-5.25.83-.81,1.45-1.29,2.47-1.89,1.03-.6,1.73-.89,2.85-1.21,1.68-.47.97-3.07-.71-2.6Z"/>
          <g>
            <path class="cls-14" d="m204.88,385.86c-.8-2.85-3.32-5.22-6.27-5.69-.37-.06-.7-.06-1.04.14-.28.16-.55.48-.62.81-.15.65.2,1.54.94,1.66.3.05.6.12.9.21.14.04.28.1.42.15.05.02.1.05.15.07.27.13.52.27.77.44.13.08.25.18.38.27-.35-.25.05.05.14.13.22.2.43.41.62.63.04.05.08.09.12.14,0-.01,0-.02,0-.02,0,.01,0,.02.02.03,0,.01.02.02.03.03.1.12.05.08,0,.02.06.1.15.2.21.3.17.26.31.53.44.81.02.06.05.12.07.18.05.15.1.29.14.44.19.68.96,1.17,1.66.94.67-.26,1.12-.96.92-1.69Z"/>
            <path class="cls-14" d="m201.38,384.8s.02.04.04.06c0-.02-.02-.04-.04-.06h0Z"/>
          </g>
          <g>
            <path class="cls-14" d="m203.75,382.26s0-.02-.02-.02c0,.01.02.02.03.04h0v-.02Z"/>
            <path class="cls-14" d="m207.54,384.29c-.46-2.56-2.22-4.9-4.53-6.09-.63-.32-1.49-.18-1.84.48-.33.62-.19,1.5.48,1.84.25.13.49.27.72.42.1.06.19.13.28.2.06.05.11.09.17.14.2.17.39.36.57.55.09.1.18.2.26.3.03.03.05.06.08.1-.03-.05-.04-.06.02.02.02.02.03.04.05.06,0-.02-.03-.03-.04-.05.31.43.57.89.8,1.37.02.05.04.1.06.14.05.12.09.25.13.37.08.28.15.56.2.85.13.7,1.01,1.15,1.66.94.73-.22,1.06-.89.93-1.64Z"/>
          </g>
        </g>
        <path class="cls-10" d="m261.56,214.65c-.18-1.22-.48-2.42-.87-3.58-.68-2.02-1.77-4.11-3.73-4.95-1.82-.78-3.94-.26-5.77.48-4.19,1.7-7.9,4.58-10.59,8.22-1.52,2.06-2.74,4.41-3.15,6.95-.41,2.53.05,5.27,1.59,7.32,3.77,5.03,11.28,2.47,15.72-.18,2.67-1.59,4.95-3.94,6.1-6.82.93-2.35,1.07-4.92.7-7.44Z"/>
        <path class="cls-10" d="m220.22,227.77c-.67.72-1.88.64-2.85.39-2.65-.69-8.79-6.61-9.3-8.27-.54-1.75-.36-3.31,1.88-3.13.71.06,1.38.37,2.01.7,3.11,1.66,5.82,4.07,7.83,6.97.66.96,1.24,2.29.54,3.22-.04.04-.08.08-.11.12Z"/>
        <path class="cls-10" d="m237.89,211.67c-.67.72-1.88.64-2.85.39-2.65-.69-8.79-6.61-9.3-8.27-.54-1.75-.36-3.31,1.88-3.13.71.06,1.38.37,2.01.7,3.11,1.66,5.82,4.07,7.83,6.97.66.96,1.24,2.29.54,3.22-.05.04-.08.08-.11.12Z"/>
        <path class="cls-10" d="m263.39,229.24c-2.4,1.42-5.4,1.29-7.7-.29-.49-.34-1.15.22-.99.76,1.86,6.33-1.33,12.95-6.46,16.72-5.67,4.18-12.85,5.22-19.73,5.03-2.03-.05-4.11-.14-6.12-.43-1.53-.22-3.22-.66-4.07-2.07-.02-.04-.05-.05-.07-.08.66-.94,1.48-1.77,2.51-2.4.73-.46.06-1.62-.68-1.16-4,2.49-5.81,7.46-4.26,11.94.28.81,1.58.46,1.3-.36-.79-2.29-.59-4.72.41-6.79,1.87,2.36,5.5,2.39,8.25,2.57,4.17.27,8.38.22,12.5-.59,6.78-1.34,13.55-5.09,16.63-11.53,1.45-3.03,2.04-6.43,1.45-9.73,2.46,1.08,5.37.95,7.72-.44.73-.42.06-1.59-.69-1.15Z"/>
      </g>
      <path class="cls-13" d="m317.9,213.56c-.84,7.35-3.09,14.48-6.38,21.11l-26.53,59.9c-3.53,7.99-12.88,11.6-20.87,8.06l-50.11-22.22-5.67-2.51-28.9-10.27c-6.1-2.16-11.15-6.67-13.72-12.61-1.83-4.21-2.42-8.3-2.6-10.8-.03-.32.19-.53.44-.58-.53-2.16-.34-3.78-.02-4.85.23-.77,1.23-.97,1.76-.37l3.72,4.17c-5.77-7.88-4.3-11.67-2.58-13.35.78-.77,2.08-.51,2.49.5,4.63,11.3,22.42,18.98,22.42,18.98l.56-10.46c-8.66-6.91-9.16-11.65-8.47-14.11.32-1.11,1.63-1.58,2.56-.9l20.92,15.31,3.7,23.1,12.29,1.83,44.78,6.68c4.85-42.66,9.62-86.34,29.42-87.58,20.06,1.86,22.25,18.2,20.79,30.97Z"/>
      <path class="cls-5" d="m317.9,213.56c-.84,7.35-3.09,14.48-6.38,21.11l-26.53,59.9c-3.53,7.99-12.88,11.6-20.87,8.06l-50.11-22.22,8.9-16.92,44.78,6.68c4.85-42.66,9.62-86.34,29.42-87.58,20.06,1.86,22.25,18.2,20.79,30.97Z"/>
      <path class="cls-16" d="m317.9,213.56c-.84,7.35-3.09,14.48-6.38,21.11l-26.53,59.9c-3.53,7.99-12.88,11.6-20.87,8.06l-50.11-22.22,8.9-16.92,44.78,6.68c4.85-42.66,9.62-86.34,29.42-87.58,20.06,1.86,22.25,18.2,20.79,30.97Z"/>
      <path class="cls-12" d="m316.1,216.76c-2.61,8.32-5.46,16.56-8.57,24.7-3.11,8.14-6.47,16.19-10.07,24.13-2.03,4.47-4.14,8.9-6.32,13.29-.24.48-.19,1.07.3,1.38.42.27,1.14.19,1.38-.3,3.92-7.88,7.6-15.88,11.02-23.99,3.41-8.07,6.57-16.24,9.47-24.5,1.64-4.67,3.2-9.37,4.68-14.1.4-1.22-1.51-1.84-1.89-.61Z"/>
    </g>
    <g>
      <path class="cls-12" d="m326.92,292.48c-12,4.67-16.72,19.08-10.69,30.45,2.21,4.17,3.81,9.52,2.85,15.66,0,0-1.16,9.41-7.25,17.03-.61.77-1.21,1.55-1.66,2.42-2.09,3.97-1.56,6.93,1.55,8.88,1.61,1.02,3.52,1.47,5.43,1.47l11.25.04s7.4-2.56,9.43-19.48c0,0,.79-23.95,9.56-31.59,3.72-3.24,5.7-8.15,4.47-12.92-2.71-10.38-13.92-16.25-24.94-11.96Z"/>
      <path class="cls-4" d="m326.92,292.48c-12,4.67-16.72,19.08-10.69,30.45,2.21,4.17,3.81,9.52,2.85,15.66,0,0-1.16,9.41-7.25,17.03-.61.77-1.21,1.55-1.66,2.42-2.09,3.97-1.56,6.93,1.55,8.88,1.61,1.02,3.52,1.47,5.43,1.47l11.25.04s7.4-2.56,9.43-19.48c0,0,.79-23.95,9.56-31.59,3.72-3.24,5.7-8.15,4.47-12.92-2.71-10.38-13.92-16.25-24.94-11.96Z"/>
      <g>
        <path class="cls-12" d="m350.64,228.68c4.8-2.37,9.96-3.91,15.17-5.14.95-.22,2-.43,2.88,0,.89.44,1.38,1.42,1.63,2.39.65,2.5.15,5.15-.56,7.64-.99,3.47-2.37,6.82-3.74,10.16-1.05,2.56-2.11,5.12-3.16,7.69l-24.73-12.88c3.28-4.24,7.71-7.49,12.51-9.86Z"/>
        <path class="cls-11" d="m353.33,231.68c3.43-1.7,7.12-2.8,10.84-3.67.68-.16,1.43-.31,2.06,0,.64.31.99,1.02,1.17,1.71.47,1.79.11,3.68-.4,5.46-.71,2.48-1.69,4.87-2.67,7.26-.75,1.83-1.51,3.66-2.26,5.49l-17.67-9.21c2.33-3.03,5.5-5.34,8.93-7.04Z"/>
      </g>
      <g>
        <path class="cls-12" d="m317.41,230.47c-5.18-1.34-10.55-1.79-15.91-1.93-.98-.02-2.04,0-2.82.59-.79.61-1.06,1.68-1.11,2.67-.13,2.58.91,5.08,2.11,7.36,1.68,3.2,3.71,6.19,5.74,9.18,1.56,2.29,3.11,4.58,4.67,6.88l21.57-17.67c-4.07-3.47-9.07-5.74-14.25-7.08Z"/>
        <path class="cls-11" d="m315.4,233.96c-3.7-.96-7.54-1.28-11.36-1.38-.7-.02-1.46,0-2.01.42-.56.44-.76,1.2-.79,1.91-.09,1.84.65,3.63,1.51,5.26,1.2,2.28,2.65,4.42,4.1,6.56,1.11,1.64,2.22,3.28,3.34,4.91l15.41-12.63c-2.93-2.48-6.5-4.09-10.2-5.05Z"/>
      </g>
      <path class="cls-12" d="m361.92,284.34c23.85,16.4,35.18,41.27,37.51,72.24l-49.01,19.01-.97-.95c-11.36-11.13-19.35-25.29-22.7-40.84-.02-.09-.04-.17-.06-.26l-7.5-34.97,42.73-14.23Z"/>
      <path class="cls-8" d="m367.22,345.09c.41-11.76-2.31-23.8-8.74-33.25s-16.78-16.03-27.75-16.28l-18.41-6.31c-2.37,10.23-4.69,31.73,2.94,48.76.93-2.07,2.6-4.98,3.53-7.05-.77,4.64,1.29,9.65,4.99,12.13.43-1.38.86-2.77,1.28-4.15-.77,4.75-.07,9.74,1.96,14,.9-2.52,1.79-5.03,2.69-7.55,3.07,11.91,12.29,21.69,23.43,24.86,3.9-2.89,7.91-5.9,10.46-10.19,2.62-4.41,3.44-9.77,3.62-14.97Z"/>
      <path class="cls-11" d="m341.06,262.4c0,.17-.04.33-.09.5-.04.15-.09.3-.15.45-.42,1.1-1.16,2.08-2.12,2.78-.38.27-.82.51-1.28.47-.39-.03-.74-.25-1.05-.48-.75-.55-1.41-1.22-1.97-1.97-.01-.02-.03-.04-.04-.06-.17-.25-.35-.51-.42-.81.95-.42,1.82-1.01,2.32-1.82.01-.01.03-.01.04-.01.68-.12,1.37-.15,2.06-.12.68.62,1.7.91,2.7,1.07Z"/>
      <path class="cls-8" d="m372.26,259.63c-.67-1.27-1.64-2.67-3.01-4.14-1.94-2.07-3.66-4.34-5.17-6.74-1.9-3.01-4.42-5.71-7.44-7.99-12.58-9.54-30.16-8.48-42.26,1.68-4.62,3.86-9.5,9.12-13.69,16.17-.26.44-.52.88-.78,1.34,0,0-2.71,5.85-.77,9.6,0,0,.2-2.57,1.26-4.39,0,0-.3,5.14,2.1,7.47l.32-2.56s-.27,8.97,11,8.63l.83,1.89c-2.78,2.09-7.25,6.71-6.05,14.22l1.49-3.14s-.18,6.51,2.48,9.75l.09-3.93s2.23,15.58,23.47,21.33c0,0-1.99-24.33,25.49-32.03l-1.05,1.95s4.3-.34,4.39-4.38l1.88,1.73s.77-5.31-3.72-7.3l1.78-3.65-.27,3.32s2.46-1.12,4.34-6.48l-.18,2.23s4.27-2.69,3.66-9.15l1.31.56s.37-2.48-1.5-5.99Z"/>
      <g>
        <path class="cls-3" d="m316.63,282.38c-3.31,2.19-4.98,6.48-4.06,10.32.15.63,1.15.45,1-.19-.84-3.54.69-7.36,3.72-9.36.54-.36-.13-1.13-.66-.77Z"/>
        <path class="cls-3" d="m319.49,323.79c-4.37-8.38-5.42-18.36-3.03-27.49.67-2.55,1.61-5.03,2.8-7.39.29-.58-.66-.92-.95-.35-4.33,8.6-5.25,18.82-2.7,28.1.72,2.62,1.71,5.16,2.97,7.57.29.57,1.21.14.91-.44Z"/>
        <path class="cls-3" d="m315.32,329.1c-2.56-4.62-3.39-10.1-2.25-15.27.14-.63-.81-.98-.95-.35-1.2,5.43-.41,11.18,2.29,16.05.31.57,1.23.14.91-.43Z"/>
        <path class="cls-3" d="m327.76,337.38c-3.35-7.76-4.93-16.25-4.61-24.69.09-2.37.33-4.72.72-7.06.11-.64-.9-.72-1.01-.08-1.39,8.47-.86,17.23,1.54,25.47.67,2.32,1.49,4.59,2.45,6.8.26.6,1.17.16.91-.44Z"/>
        <path class="cls-3" d="m334.08,330.45c-2.13-5.72-2.91-11.88-2.32-17.95.06-.65-.95-.73-1.01-.08-.61,6.26.23,12.58,2.42,18.47.22.61,1.13.17.91-.44Z"/>
        <path class="cls-3" d="m357.16,278.29c-.61-.23-.96.73-.35.95,2.18.8,3.51,3.21,3.1,5.48-.05.27.21.53.46.55.3.02.5-.19.55-.46.49-2.71-1.19-5.57-3.76-6.52Z"/>
        <path class="cls-3" d="m328.46,283.72c-1.42-1.6-1.99-3.82-1.45-5.89.16-.63-.79-.98-.95-.35-.47,1.82-.25,3.73.58,5.36-1.94-.99-3.67-2.35-5.1-4-.34-.4-.95-.07-.88.42.12.88.23,1.76.35,2.64-2.16-1.71-3.81-4.03-4.65-6.67-.2-.61-1.19-.43-1,.19,1.05,3.27,3.15,6.09,6.01,7.99.38.25.84-.08.79-.51-.1-.76-.2-1.51-.3-2.27,1.73,1.68,3.78,3.01,6.05,3.89.47.19.89-.42.55-.8Z"/>
        <path class="cls-3" d="m329.51,287.63c-2.18,3.53-3.62,7.44-4.25,11.54-.1.64.91.72,1.01.08.6-3.91,1.99-7.67,4.07-11.04.35-.56-.48-1.14-.83-.58Z"/>
      </g>
      <g>
        <path class="cls-12" d="m370.7,313.62c-.79,3.72-1.78,7.39-2.91,11.01-2.85,9.15-6.6,18.05-10.32,26.9l-7.07,16.75c-.43,1.02-.91,2.1-1.82,2.73-1.2.81-2.79.62-4.23.4-2.37-.36-4.74-.73-7.1-1.1-1.36-.21-2.87-.5-3.64-1.63-.8-1.17-.48-2.75-.13-4.13.62-2.44,1.49-5.92,2.45-9.79.56-2.27,1.16-4.66,1.75-7.07,2.67-10.76,3.13-22,.91-32.86-1.61-7.87-1.58-18.05,5.76-25.85,4.01-4.26,10.65-6.1,16.26-4.45,5.42,1.6,9.26,6.77,10.63,12.25,1.35,5.52.64,11.3-.54,16.84Z"/>
        <g class="cls-22">
          <path class="cls-12" d="m371.75,314.35c-2.85,9.15-10.56,28.33-14.28,37.18l-7.07,16.75c-.43,1.02-.91,2.1-1.82,2.73-1.2.81-2.79.62-4.23.4-2.37-.36-4.74-.73-7.1-1.1-1.36-.21-2.87-.5-3.64-1.63-.8-1.17-1.42-4.72-.13-4.13,4.9,2.26,26.01-17.88,38.27-50.2Z"/>
        </g>
        <path class="cls-1" d="m344.36,289.26c-7.89,4.17-7.42,14.73-7.21,22.35.25,9.14,1.25,18.26.77,27.41-.27,5.09-1.01,10.15-2.58,15-.4,1.22,1.48,1.91,1.88.68,2.75-8.5,3.04-17.5,2.71-26.35-.17-4.47-.48-8.94-.67-13.41-.19-4.43-.41-8.97.1-13.39.47-4.06,2.05-8.46,5.87-10.49,1.14-.6.28-2.4-.87-1.8Z"/>
      </g>
      <path class="cls-12" d="m399.59,366.33c-.71,1.87-1.85,3.53-3.23,5.01-1.12,1.22-2.41,2.32-3.74,3.3-.29.22-.58.43-.88.64-2.59,1.85-5.26,3.5-8.02,4.95-1.52.8-3.05,1.56-4.61,2.23-4.21,1.86-8.58,3.3-13.03,4.33-1.54.36-3.09.67-4.66.93-6.13,1.02-12.39,1.3-18.63.86-1.61-.11-3.2-.27-4.8-.46-5.06-.65-10.07-1.76-14.98-3.33-1.44-.45-2.87-.94-4.29-1.48-3.57-1.34-7.06-2.93-10.44-4.75-.53-.29-1.05-.57-1.56-.9-1.17-.69-2.31-1.47-3.31-2.37-1.18-1.07-2.16-2.31-2.76-3.8-1.06-2.68-.64-5.8.72-8.35,3.37-6.28,11.33-9.36,18.1-7.52.32.09.64.19.95.3,1.07.37,2.08.83,3.07,1.33,2.77,1.43,5.33,3.28,7.97,4.98,1.18.75,2.37,1.47,3.62,2.1,1.07.55,2.18,1.03,3.34,1.42,2.44.8,4.88,1.13,7.3,1.1,1.34-.01,2.68-.14,4.02-.35,3.66-.59,7.26-1.85,10.76-3.34,1.24-.54,2.48-1.1,3.69-1.68,1.46-.69,2.9-1.38,4.3-2.08,1.48-.72,2.97-1.45,4.47-2.15,1.27-.6,2.54-1.18,3.84-1.74,2.24-.95,4.53-1.79,6.88-2.45,1.38-.39,2.78-.7,4.19-.92,1.21-.2,2.42-.32,3.65-.36.14-.01.42-.01.77-.01,1.95-.01,6.49.09,6.64.84.02,0,1.96,10.29.66,13.72Z"/>
      <g>
        <path class="cls-10" d="m349.03,260.77c-1.12,2.31-3.7,2.97-6.09,2.82-.66-.04-1.39-.11-2.12-.24-1.36-.24-2.7-.72-3.51-1.74-.58,1.16-1.68,1.98-2.91,2.54-.9.42-1.88.7-2.77.87-2.59.49-5.54-.12-7.1-2.43-.36-.53.41-1.2.78-.65,1.3,1.94,3.7,2.49,5.91,2.12.82-.14,1.81-.38,2.72-.78.95-.42,1.82-1.01,2.32-1.82.21-.33.35-.71.42-1.12.09-.59.84-.61,1.01-.06.13.43.36.78.67,1.05.68.62,1.7.91,2.7,1.07.7.1,1.4.14,1.96.18,1.88.12,4.15-.29,5.06-2.15.29-.58,1.24-.24.95.34Z"/>
        <path class="cls-3" d="m341.32,265.76c-.78,1.13-2,1.89-3.37,2.06-1.42.18-2.9-.38-3.9-1.4-.45-.46-1.23.19-.77.66,1.24,1.26,2.97,1.92,4.74,1.75,1.66-.16,3.19-1.12,4.13-2.49.37-.53-.46-1.11-.83-.58Z"/>
      </g>
      <path class="cls-11" d="m341.64,255.58c-.29-.41-.89-.54-1.41-.6-1.49-.18-3.02-.27-4.5,0-1.16.2-3.4.7-3.03,2.31.09.39.31.74.55,1.07.71.99,1.58,1.88,2.57,2.6.4.3.85.58,1.35.62.59.05,1.16-.26,1.64-.61,1.39-1.01,2.43-2.49,2.9-4.14.1-.36.18-.77.02-1.11-.03-.04-.06-.09-.09-.13Z"/>
      <g>
        <g>
          <path class="cls-5" d="m371.97,249.44c-6.23.93-12.16,3.41-17.2,7.18-.52.39.14,1.16.66.77,4.9-3.67,10.68-6.06,16.73-6.96.65-.09.46-1.09-.19-.99Z"/>
          <path class="cls-5" d="m375.82,255.64c-7.13-.53-14.34.22-21.2,2.23-.62.18-.44,1.18.19,1,6.79-1.99,13.88-2.74,20.93-2.21.65.03.73-.98.08-1.02Z"/>
          <path class="cls-5" d="m372.92,264.92c-5.49-2.53-11.28-4.35-17.22-5.43-.64-.12-.72.89-.08,1.01,5.85,1.07,11.55,2.88,16.96,5.37.59.28.93-.68.34-.95Z"/>
        </g>
        <g>
          <path class="cls-5" d="m301.12,250.3c6.28.43,12.39,2.44,17.71,5.8.55.35-.04,1.17-.59.82-5.18-3.27-11.12-5.19-17.23-5.61-.65-.05-.54-1.05.11-1.01Z"/>
          <path class="cls-5" d="m297.78,256.78c7.07-1.1,14.31-.92,21.31.54.63.13.53,1.14-.11,1.01-6.92-1.44-14.05-1.63-21.04-.55-.64.1-.81-.9-.16-1Z"/>
          <path class="cls-5" d="m301.4,265.81c5.27-2.96,10.9-5.23,16.74-6.78.63-.17.79.83.16,1-5.75,1.53-11.29,3.79-16.48,6.7-.57.32-.98-.6-.42-.92Z"/>
        </g>
      </g>
      <path class="cls-4" d="m390.69,348.26c-6.2,4.99-13.34,8.59-20.68,11.58-.36.15-.73.28-1.09.42.01-.04.03-.07.04-.11.39-2.97,2.72-5.53,5.63-6.21.49-.12.94-.63.79-1.17-1.07-3.84-1.79-7.89-1.05-11.86.58-3.1,2.26-5.97,4.83-7.83,1.32-.95,2.94-1.58,4.57-1.64.54-.02,1.03-.33,1.08-.92.04-.49-.37-1.1-.92-1.08-3.57.13-6.68,2.06-8.81,4.87-2.47,3.26-3.23,7.37-3,11.38.13,2.23.55,4.43,1.12,6.59-3.3,1.19-5.77,4.19-6.23,7.71-.05.42.13.7.4.87-2.84,1.1-5.7,2.16-8.57,3.17-3.95,1.39-8.01,2.83-12.23,3.04-3.93.19-8.17-.81-10.99-3.7-.9-.92-2.42.37-1.52,1.3,2.71,2.77,6.47,4.15,10.29,4.38,4.32.27,8.56-.91,12.61-2.27,7.93-2.67,15.88-5.57,23.31-9.43,4.13-2.15,8.1-4.64,11.73-7.57.99-.8-.31-2.33-1.31-1.52Z"/>
      <g>
        <path class="cls-10" d="m329.42,252.75c-.01-.88-.16-1.77-.48-2.59-.2-.52-.46-1.03-.87-1.4-.91-.83-2.43-.57-3.12.42-1.42,2.03-.83,5.91,1.44,7.15.56.31,1.29.42,1.83.07.42-.27.65-.76.81-1.23.27-.79.4-1.61.39-2.42Z"/>
        <path class="cls-8" d="m330.71,256.05c0,1.56-1.91,2.83-4.26,2.83s-4.26-1.27-4.26-2.83,1.91-2.83,4.26-2.83c2.35,0,4.26,1.27,4.26,2.83Z"/>
        <path class="cls-10" d="m343.84,251.85c.13.87.41,1.73.83,2.5.27.49.6.95,1.05,1.27,1.02.7,2.49.22,3.03-.85,1.12-2.21-.01-5.96-2.42-6.87-.6-.23-1.34-.23-1.83.19-.38.33-.54.84-.63,1.33-.14.79-.15,1.62-.03,2.43Z"/>
        <path class="cls-8" d="m352.27,254.81c0,1.56-1.91,2.83-4.26,2.83s-4.26-1.27-4.26-2.83,1.91-2.83,4.26-2.83,4.26,1.26,4.26,2.83Z"/>
      </g>
    </g>
    <g>
      <g class="cls-19">
        <text class="cls-18" transform="translate(150.19 434.99)"><tspan x="0" y="0">n</tspan><tspan class="cls-21" x="17.21" y="0">ev</tspan><tspan x="48.45" y="0">er le</tspan><tspan class="cls-23" x="107.34" y="0">a</tspan><tspan class="cls-25" x="124.08" y="0">v</tspan><tspan x="138.99" y="0">e </tspan></text>
        <text class="cls-18" transform="translate(121.69 466.63)"><tspan class="cls-20" x="0" y="0">y</tspan><tspan x="14.53" y="0">our pet behind</tspan></text>
      </g>
      <path class="cls-17" d="m144.18,433.09c-.81,2.02-1.76,4.07-4.28,4.16-1.12.04-2.25-.26-3.34-.5-1.04-.23-2.08-.48-3.1-.76-2.01-.56-4-1.27-5.79-2.34-3.47-2.06-5.86-5.53-5.7-9.67.14-3.67,2.38-7.17,6.11-7.97,2.4-.51,5.09.06,6.93,1.65,0-1.56.68-3.13,1.76-4.27,1.72-1.82,4.34-2.24,6.66-1.4,2.52.91,4.44,3,5.27,5.54,1.84,5.66-1.24,11.04-4.52,15.56Z"/>
      <path class="cls-17" d="m312.18,433.09c.81,2.02,1.76,4.07,4.28,4.16,1.12.04,2.25-.26,3.34-.5,1.04-.23,2.08-.48,3.1-.76,2.01-.56,4-1.27,5.79-2.34,3.47-2.06,5.86-5.53,5.7-9.67-.14-3.67-2.38-7.17-6.11-7.97-2.4-.51-5.09.06-6.93,1.65,0-1.56-.68-3.13-1.76-4.27-1.72-1.82-4.34-2.24-6.66-1.4-2.52.91-4.44,3-5.27,5.54-1.84,5.66,1.24,11.04,4.52,15.56Z"/>
    </g>
  </g>
</svg>